 0
SECTION
 2
HEADER
 9
$ACADVER
 1
AC1009
 0
ENDSEC
 0
SECTION
 2
TABLES
 0
TABLE
 2
LTYPE
 70
1
 0
LTYPE
 2
CONTINUOUS
 70
64
 3
solid line
 72
65
 73
0
 40
0.0
 0
ENDTAB
 0
TABLE
 2
LAYER
 70
6
 0
LAYER
 2
0
 70
0
 62
7
 6
CONTINUOUS
 0
LAYER
 2
NUMBERS
 70
64
 62
7
 6
CONTINUOUS
 0
LAYER
 2
0
 70
64
 62
7
 6
CONTINUOUS
 0
ENDTAB
 0
ENDSEC
 0
SECTION
 2
BLOCKS
 0
ENDSEC
 0
SECTION
 2
ENTITIES
 0
POLYLINE
 8
0
 66
1
 10
0.0
 20
0.0
 30
0.0
 70
9
 0
VERTEX
 8
0
 10
0.5366
 20
2.1889
 30
5.7484
 70
32
 0
VERTEX
 8
0
 10
0.5928
 20
2.1954
 30
5.7484
 70
32
 0
VERTEX
 8
0
 10
0.6447
 20
2.1955
 30
5.7484
 70
32
 0
VERTEX
 8
0
 10
0.6928
 20
2.1894
 30
5.7484
 70
32
 0
VERTEX
 8
0
 10
0.737
 20
2.1774
 30
5.7484
 70
32
 0
VERTEX
 8
0
 10
0.7775
 20
2.16
 30
5.7484
 70
32
 0
VERTEX
 8
0
 10
0.8145
 20
2.1373
 30
5.7484
 70
32
 0
VERTEX
 8
0
 10
0.8482
 20
2.1098
 30
5.7484
 70
32
 0
VERTEX
 8
0
 10
0.8787
 20
2.0778
 30
5.7484
 70
32
 0
VERTEX
 8
0
 10
0.9062
 20
2.0416
 30
5.7484
 70
32
 0
VERTEX
 8
0
 10
0.9307
 20
2.0016
 30
5.7484
 70
32
 0
VERTEX
 8
0
 10
0.9625
 20
1.9351
 30
5.7484
 70
32
 0
VERTEX
 8
0
 10
0.9888
 20
1.8618
 30
5.7484
 70
32
 0
VERTEX
 8
0
 10
1.0159
 20
1.7554
 30
5.7484
 70
32
 0
VERTEX
 8
0
 10
1.0425
 20
1.5827
 30
5.7484
 70
32
 0
VERTEX
 8
0
 10
1.0572
 20
1.3722
 30
5.7484
 70
32
 0
VERTEX
 8
0
 10
1.0606
 20
1.1654
 30
5.7484
 70
32
 0
VERTEX
 8
0
 10
1.0466
 20
0.7982
 30
5.7484
 70
32
 0
VERTEX
 8
0
 10
1.0205
 20
0.6071
 30
5.7484
 70
32
 0
VERTEX
 8
0
 10
0.9944
 20
0.4964
 30
5.7484
 70
32
 0
VERTEX
 8
0
 10
0.9672
 20
0.4148
 30
5.7484
 70
32
 0
VERTEX
 8
0
 10
0.9336
 20
0.3411
 30
5.7484
 70
32
 0
VERTEX
 8
0
 10
0.9038
 20
0.2919
 30
5.7484
 70
32
 0
VERTEX
 8
0
 10
0.8697
 20
0.2485
 30
5.7484
 70
32
 0
VERTEX
 8
0
 10
0.8445
 20
0.2232
 30
5.7484
 70
32
 0
VERTEX
 8
0
 10
0.8172
 20
0.2009
 30
5.7484
 70
32
 0
VERTEX
 8
0
 10
0.7877
 20
0.1819
 30
5.7484
 70
32
 0
VERTEX
 8
0
 10
0.756
 20
0.1662
 30
5.7484
 70
32
 0
VERTEX
 8
0
 10
0.743
 20
0.1615
 30
5.7484
 70
32
 0
VERTEX
 8
0
 10
0.7173
 20
0.1548
 30
5.7484
 70
32
 0
VERTEX
 8
0
 10
0.6748
 20
0.1481
 30
5.7484
 70
32
 0
VERTEX
 8
0
 10
0.6133
 20
0.1443
 30
5.7484
 70
32
 0
VERTEX
 8
0
 10
0.5504
 20
0.1461
 30
5.7484
 70
32
 0
VERTEX
 8
0
 10
0.5048
 20
0.1517
 30
5.7484
 70
32
 0
VERTEX
 8
0
 10
0.4759
 20
0.158
 30
5.7484
 70
32
 0
VERTEX
 8
0
 10
0.4655
 20
0.161
 30
5.7484
 70
32
 0
VERTEX
 8
0
 10
0.4513
 20
0.1662
 30
5.7484
 70
32
 0
VERTEX
 8
0
 10
0.4301
 20
0.1764
 30
5.7484
 70
32
 0
VERTEX
 8
0
 10
0.4098
 20
0.1885
 30
5.7484
 70
32
 0
VERTEX
 8
0
 10
0.3715
 20
0.2186
 30
5.7484
 70
32
 0
VERTEX
 8
0
 10
0.3364
 20
0.256
 30
5.7484
 70
32
 0
VERTEX
 8
0
 10
0.3045
 20
0.3001
 30
5.7484
 70
32
 0
VERTEX
 8
0
 10
0.2756
 20
0.3503
 30
5.7484
 70
32
 0
VERTEX
 8
0
 10
0.2377
 20
0.436
 30
5.7484
 70
32
 0
VERTEX
 8
0
 10
0.2063
 20
0.5326
 30
5.7484
 70
32
 0
VERTEX
 8
0
 10
0.1737
 20
0.6749
 30
5.7484
 70
32
 0
VERTEX
 8
0
 10
0.1438
 20
0.9088
 30
5.7484
 70
32
 0
VERTEX
 8
0
 10
0.1347
 20
1.1951
 30
5.7484
 70
32
 0
VERTEX
 8
0
 10
0.1542
 20
1.5112
 30
5.7484
 70
32
 0
VERTEX
 8
0
 10
0.1742
 20
1.6545
 30
5.7484
 70
32
 0
VERTEX
 8
0
 10
0.2077
 20
1.8111
 30
5.7484
 70
32
 0
VERTEX
 8
0
 10
0.2328
 20
1.8919
 30
5.7484
 70
32
 0
VERTEX
 8
0
 10
0.2615
 20
1.9607
 30
5.7484
 70
32
 0
VERTEX
 8
0
 10
0.2865
 20
2.0073
 30
5.7484
 70
32
 0
VERTEX
 8
0
 10
0.3157
 20
2.0507
 30
5.7484
 70
32
 0
VERTEX
 8
0
 10
0.3422
 20
2.0825
 30
5.7484
 70
32
 0
VERTEX
 8
0
 10
0.3718
 20
2.1113
 30
5.7484
 70
32
 0
VERTEX
 8
0
 10
0.3962
 20
2.1306
 30
5.7484
 70
32
 0
VERTEX
 8
0
 10
0.4225
 20
2.1478
 30
5.7484
 70
32
 0
VERTEX
 8
0
 10
0.4508
 20
2.1625
 30
5.7484
 70
32
 0
VERTEX
 8
0
 10
0.4811
 20
2.1747
 30
5.7484
 70
32
 0
VERTEX
 8
0
 10
0.5026
 20
2.1814
 30
5.7484
 70
32
 0
SEQEND
 0
POLYLINE
 8
0
 66
1
 10
0.0
 20
0.0
 30
0.0
 70
9
 0
VERTEX
 8
0
 10
0.5488
 20
1.9695
 30
5.7484
 70
32
 0
VERTEX
 8
0
 10
0.5881
 20
1.9767
 30
5.7484
 70
32
 0
VERTEX
 8
0
 10
0.6241
 20
1.978
 30
5.7484
 70
32
 0
VERTEX
 8
0
 10
0.6569
 20
1.9737
 30
5.7484
 70
32
 0
VERTEX
 8
0
 10
0.6723
 20
1.9696
 30
5.7484
 70
32
 0
VERTEX
 8
0
 10
0.6869
 20
1.9642
 30
5.7484
 70
32
 0
VERTEX
 8
0
 10
0.7008
 20
1.9576
 30
5.7484
 70
32
 0
VERTEX
 8
0
 10
0.714
 20
1.9498
 30
5.7484
 70
32
 0
VERTEX
 8
0
 10
0.7384
 20
1.9308
 30
5.7484
 70
32
 0
VERTEX
 8
0
 10
0.7602
 20
1.9075
 30
5.7484
 70
32
 0
VERTEX
 8
0
 10
0.7797
 20
1.8803
 30
5.7484
 70
32
 0
VERTEX
 8
0
 10
0.7969
 20
1.8495
 30
5.7484
 70
32
 0
VERTEX
 8
0
 10
0.8187
 20
1.7974
 30
5.7484
 70
32
 0
VERTEX
 8
0
 10
0.8362
 20
1.7391
 30
5.7484
 70
32
 0
VERTEX
 8
0
 10
0.8537
 20
1.6536
 30
5.7484
 70
32
 0
VERTEX
 8
0
 10
0.8757
 20
1.3937
 30
5.7484
 70
32
 0
VERTEX
 8
0
 10
0.8778
 20
1.141
 30
5.7484
 70
32
 0
VERTEX
 8
0
 10
0.8651
 20
0.7917
 30
5.7484
 70
32
 0
VERTEX
 8
0
 10
0.8468
 20
0.6568
 30
5.7484
 70
32
 0
VERTEX
 8
0
 10
0.8269
 20
0.5717
 30
5.7484
 70
32
 0
VERTEX
 8
0
 10
0.8062
 20
0.5118
 30
5.7484
 70
32
 0
VERTEX
 8
0
 10
0.7875
 20
0.4723
 30
5.7484
 70
32
 0
VERTEX
 8
0
 10
0.7659
 20
0.438
 30
5.7484
 70
32
 0
VERTEX
 8
0
 10
0.7498
 20
0.4183
 30
5.7484
 70
32
 0
VERTEX
 8
0
 10
0.7322
 20
0.4011
 30
5.7484
 70
32
 0
VERTEX
 8
0
 10
0.7131
 20
0.3867
 30
5.7484
 70
32
 0
VERTEX
 8
0
 10
0.6925
 20
0.3751
 30
5.7484
 70
32
 0
VERTEX
 8
0
 10
0.6702
 20
0.3666
 30
5.7484
 70
32
 0
VERTEX
 8
0
 10
0.6463
 20
0.3612
 30
5.7484
 70
32
 0
VERTEX
 8
0
 10
0.6111
 20
0.3578
 30
5.7484
 70
32
 0
VERTEX
 8
0
 10
0.5786
 20
0.3589
 30
5.7484
 70
32
 0
VERTEX
 8
0
 10
0.5486
 20
0.3642
 30
5.7484
 70
32
 0
VERTEX
 8
0
 10
0.5212
 20
0.3735
 30
5.7484
 70
32
 0
VERTEX
 8
0
 10
0.4962
 20
0.3866
 30
5.7484
 70
32
 0
VERTEX
 8
0
 10
0.4734
 20
0.4032
 30
5.7484
 70
32
 0
VERTEX
 8
0
 10
0.4528
 20
0.4231
 30
5.7484
 70
32
 0
VERTEX
 8
0
 10
0.4343
 20
0.4462
 30
5.7484
 70
32
 0
VERTEX
 8
0
 10
0.4177
 20
0.4721
 30
5.7484
 70
32
 0
VERTEX
 8
0
 10
0.3963
 20
0.516
 30
5.7484
 70
32
 0
VERTEX
 8
0
 10
0.3786
 20
0.5652
 30
5.7484
 70
32
 0
VERTEX
 8
0
 10
0.3603
 20
0.6378
 30
5.7484
 70
32
 0
VERTEX
 8
0
 10
0.3423
 20
0.7581
 30
5.7484
 70
32
 0
VERTEX
 8
0
 10
0.3315
 20
0.9307
 30
5.7484
 70
32
 0
VERTEX
 8
0
 10
0.3295
 20
1.1044
 30
5.7484
 70
32
 0
VERTEX
 8
0
 10
0.3391
 20
1.5634
 30
5.7484
 70
32
 0
VERTEX
 8
0
 10
0.3553
 20
1.684
 30
5.7484
 70
32
 0
VERTEX
 8
0
 10
0.3723
 20
1.7569
 30
5.7484
 70
32
 0
VERTEX
 8
0
 10
0.3888
 20
1.8065
 30
5.7484
 70
32
 0
VERTEX
 8
0
 10
0.4091
 20
1.851
 30
5.7484
 70
32
 0
VERTEX
 8
0
 10
0.4249
 20
1.8776
 30
5.7484
 70
32
 0
VERTEX
 8
0
 10
0.4425
 20
1.9014
 30
5.7484
 70
32
 0
VERTEX
 8
0
 10
0.4623
 20
1.9223
 30
5.7484
 70
32
 0
VERTEX
 8
0
 10
0.4841
 20
1.9401
 30
5.7484
 70
32
 0
VERTEX
 8
0
 10
0.5082
 20
1.9545
 30
5.7484
 70
32
 0
VERTEX
 8
0
 10
0.5211
 20
1.9604
 30
5.7484
 70
32
 0
SEQEND
 0
POLYLINE
 8
0
 66
1
 10
0.0
 20
0.0
 30
0.0
 70
9
 0
VERTEX
 8
0
 10
0.3295
 20
1.1044
 30
5.7484
 70
32
 0
VERTEX
 8
0
 10
0.3403
 20
0.7792
 30
5.7484
 70
32
 0
VERTEX
 8
0
 10
0.3566
 20
0.657
 30
5.7484
 70
32
 0
VERTEX
 8
0
 10
0.3735
 20
0.5827
 30
5.7484
 70
32
 0
VERTEX
 8
0
 10
0.39
 20
0.5319
 30
5.7484
 70
32
 0
VERTEX
 8
0
 10
0.4101
 20
0.4861
 30
5.7484
 70
32
 0
VERTEX
 8
0
 10
0.4258
 20
0.4588
 30
5.7484
 70
32
 0
VERTEX
 8
0
 10
0.4433
 20
0.4343
 30
5.7484
 70
32
 0
VERTEX
 8
0
 10
0.4629
 20
0.4127
 30
5.7484
 70
32
 0
VERTEX
 8
0
 10
0.4845
 20
0.3944
 30
5.7484
 70
32
 0
VERTEX
 8
0
 10
0.5084
 20
0.3796
 30
5.7484
 70
32
 0
VERTEX
 8
0
 10
0.5346
 20
0.3684
 30
5.7484
 70
32
 0
VERTEX
 8
0
 10
0.5633
 20
0.3611
 30
5.7484
 70
32
 0
VERTEX
 8
0
 10
0.5945
 20
0.3578
 30
5.7484
 70
32
 0
VERTEX
 8
0
 10
0.6111
 20
0.3578
 30
5.7484
 70
32
 0
VERTEX
 8
0
 10
0.6463
 20
0.3612
 30
5.7484
 70
32
 0
VERTEX
 8
0
 10
0.6702
 20
0.3666
 30
5.7484
 70
32
 0
VERTEX
 8
0
 10
0.6925
 20
0.3751
 30
5.7484
 70
32
 0
VERTEX
 8
0
 10
0.7131
 20
0.3867
 30
5.7484
 70
32
 0
VERTEX
 8
0
 10
0.7322
 20
0.4011
 30
5.7484
 70
32
 0
VERTEX
 8
0
 10
0.7498
 20
0.4183
 30
5.7484
 70
32
 0
VERTEX
 8
0
 10
0.7659
 20
0.438
 30
5.7484
 70
32
 0
VERTEX
 8
0
 10
0.7806
 20
0.4603
 30
5.7484
 70
32
 0
VERTEX
 8
0
 10
0.8003
 20
0.4981
 30
5.7484
 70
32
 0
VERTEX
 8
0
 10
0.8171
 20
0.5407
 30
5.7484
 70
32
 0
VERTEX
 8
0
 10
0.8356
 20
0.6045
 30
5.7484
 70
32
 0
VERTEX
 8
0
 10
0.8559
 20
0.7127
 30
5.7484
 70
32
 0
VERTEX
 8
0
 10
0.8736
 20
0.9181
 30
5.7484
 70
32
 0
VERTEX
 8
0
 10
0.8778
 20
1.141
 30
5.7484
 70
32
 0
VERTEX
 8
0
 10
0.8654
 20
1.5618
 30
5.7484
 70
32
 0
VERTEX
 8
0
 10
0.8457
 20
1.6973
 30
5.7484
 70
32
 0
VERTEX
 8
0
 10
0.825
 20
1.7786
 30
5.7484
 70
32
 0
VERTEX
 8
0
 10
0.8046
 20
1.8329
 30
5.7484
 70
32
 0
VERTEX
 8
0
 10
0.7885
 20
1.8654
 30
5.7484
 70
32
 0
VERTEX
 8
0
 10
0.7702
 20
1.8944
 30
5.7484
 70
32
 0
VERTEX
 8
0
 10
0.7496
 20
1.9196
 30
5.7484
 70
32
 0
VERTEX
 8
0
 10
0.7265
 20
1.9408
 30
5.7484
 70
32
 0
VERTEX
 8
0
 10
0.7008
 20
1.9576
 30
5.7484
 70
32
 0
VERTEX
 8
0
 10
0.6869
 20
1.9642
 30
5.7484
 70
32
 0
VERTEX
 8
0
 10
0.6723
 20
1.9696
 30
5.7484
 70
32
 0
VERTEX
 8
0
 10
0.6569
 20
1.9737
 30
5.7484
 70
32
 0
VERTEX
 8
0
 10
0.6409
 20
1.9766
 30
5.7484
 70
32
 0
VERTEX
 8
0
 10
0.6065
 20
1.9781
 30
5.7484
 70
32
 0
VERTEX
 8
0
 10
0.5881
 20
1.9767
 30
5.7484
 70
32
 0
VERTEX
 8
0
 10
0.5488
 20
1.9695
 30
5.7484
 70
32
 0
VERTEX
 8
0
 10
0.5211
 20
1.9604
 30
5.7484
 70
32
 0
VERTEX
 8
0
 10
0.4959
 20
1.9477
 30
5.7484
 70
32
 0
VERTEX
 8
0
 10
0.4729
 20
1.9316
 30
5.7484
 70
32
 0
VERTEX
 8
0
 10
0.4521
 20
1.9122
 30
5.7484
 70
32
 0
VERTEX
 8
0
 10
0.4335
 20
1.8898
 30
5.7484
 70
32
 0
VERTEX
 8
0
 10
0.4167
 20
1.8646
 30
5.7484
 70
32
 0
VERTEX
 8
0
 10
0.4019
 20
1.8368
 30
5.7484
 70
32
 0
VERTEX
 8
0
 10
0.3829
 20
1.7905
 30
5.7484
 70
32
 0
VERTEX
 8
0
 10
0.3631
 20
1.7214
 30
5.7484
 70
32
 0
VERTEX
 8
0
 10
0.3459
 20
1.6251
 30
5.7484
 70
32
 0
VERTEX
 8
0
 10
0.3297
 20
1.3671
 30
5.7484
 70
32
 0
SEQEND
 0
ENDSEC
 0
EOF
