 0
SECTION
 2
HEADER
 9
$ACADVER
 1
AC1009
 0
ENDSEC
 0
SECTION
 2
TABLES
 0
TABLE
 2
LTYPE
 70
1
 0
LTYPE
 2
CONTINUOUS
 70
64
 3
solid line
 72
65
 73
0
 40
0.0
 0
ENDTAB
 0
TABLE
 2
LAYER
 70
6
 0
LAYER
 2
0
 70
0
 62
7
 6
CONTINUOUS
 0
LAYER
 2
NUMBERS
 70
64
 62
7
 6
CONTINUOUS
 0
LAYER
 2
0HW
 70
64
 62
7
 6
CONTINUOUS
 0
ENDTAB
 0
ENDSEC
 0
SECTION
 2
BLOCKS
 0
ENDSEC
 0
SECTION
 2
ENTITIES
 0
POLYLINE
 8
0HW
 66
1
 10
0.0
 20
0.0
 30
0.0
 70
9
 0
VERTEX
 8
0HW
 10
0.6045
 20
0.0867
 30
5.7484
 70
32
 0
VERTEX
 8
0HW
 10
0.6013
 20
0.0924
 30
5.7484
 70
32
 0
VERTEX
 8
0HW
 10
0.5986
 20
0.0985
 30
5.7484
 70
32
 0
VERTEX
 8
0HW
 10
0.5954
 20
0.1084
 30
5.7484
 70
32
 0
VERTEX
 8
0HW
 10
0.5931
 20
0.1193
 30
5.7484
 70
32
 0
VERTEX
 8
0HW
 10
0.5909
 20
0.139
 30
5.7484
 70
32
 0
VERTEX
 8
0HW
 10
0.5905
 20
0.1737
 30
5.7484
 70
32
 0
VERTEX
 8
0HW
 10
0.5933
 20
0.2335
 30
5.7484
 70
32
 0
VERTEX
 8
0HW
 10
0.5923
 20
0.2939
 30
5.7484
 70
32
 0
VERTEX
 8
0HW
 10
0.6185
 20
0.3094
 30
5.7484
 70
32
 0
VERTEX
 8
0HW
 10
0.6426
 20
0.3276
 30
5.7484
 70
32
 0
VERTEX
 8
0HW
 10
0.6647
 20
0.3485
 30
5.7484
 70
32
 0
VERTEX
 8
0HW
 10
0.6849
 20
0.3719
 30
5.7484
 70
32
 0
VERTEX
 8
0HW
 10
0.7033
 20
0.3978
 30
5.7484
 70
32
 0
VERTEX
 8
0HW
 10
0.7276
 20
0.4409
 30
5.7484
 70
32
 0
VERTEX
 8
0HW
 10
0.7483
 20
0.4889
 30
5.7484
 70
32
 0
VERTEX
 8
0HW
 10
0.7706
 20
0.5598
 30
5.7484
 70
32
 0
VERTEX
 8
0HW
 10
0.791
 20
0.6583
 30
5.7484
 70
32
 0
VERTEX
 8
0HW
 10
0.8079
 20
0.8115
 30
5.7484
 70
32
 0
VERTEX
 8
0HW
 10
0.8147
 20
1.0278
 30
5.7484
 70
32
 0
VERTEX
 8
0HW
 10
0.8116
 20
1.2565
 30
5.7484
 70
32
 0
VERTEX
 8
0HW
 10
0.7952
 20
1.5509
 30
5.7484
 70
32
 0
VERTEX
 8
0HW
 10
0.778
 20
1.6574
 30
5.7484
 70
32
 0
VERTEX
 8
0HW
 10
0.761
 20
1.7228
 30
5.7484
 70
32
 0
VERTEX
 8
0HW
 10
0.7448
 20
1.7679
 30
5.7484
 70
32
 0
VERTEX
 8
0HW
 10
0.7253
 20
1.8087
 30
5.7484
 70
32
 0
VERTEX
 8
0HW
 10
0.7102
 20
1.8332
 30
5.7484
 70
32
 0
VERTEX
 8
0HW
 10
0.6934
 20
1.8553
 30
5.7484
 70
32
 0
VERTEX
 8
0HW
 10
0.6748
 20
1.8749
 30
5.7484
 70
32
 0
VERTEX
 8
0HW
 10
0.6543
 20
1.8916
 30
5.7484
 70
32
 0
VERTEX
 8
0HW
 10
0.6317
 20
1.9054
 30
5.7484
 70
32
 0
VERTEX
 8
0HW
 10
0.607
 20
1.916
 30
5.7484
 70
32
 0
VERTEX
 8
0HW
 10
0.5801
 20
1.9232
 30
5.7484
 70
32
 0
VERTEX
 8
0HW
 10
0.5509
 20
1.9268
 30
5.7484
 70
32
 0
VERTEX
 8
0HW
 10
0.5192
 20
1.9266
 30
5.7484
 70
32
 0
VERTEX
 8
0HW
 10
0.4904
 20
1.9228
 30
5.7484
 70
32
 0
VERTEX
 8
0HW
 10
0.4639
 20
1.9152
 30
5.7484
 70
32
 0
VERTEX
 8
0HW
 10
0.4395
 20
1.9041
 30
5.7484
 70
32
 0
VERTEX
 8
0HW
 10
0.4171
 20
1.8897
 30
5.7484
 70
32
 0
VERTEX
 8
0HW
 10
0.3968
 20
1.8722
 30
5.7484
 70
32
 0
VERTEX
 8
0HW
 10
0.3783
 20
1.8517
 30
5.7484
 70
32
 0
VERTEX
 8
0HW
 10
0.3616
 20
1.8285
 30
5.7484
 70
32
 0
VERTEX
 8
0HW
 10
0.3466
 20
1.8028
 30
5.7484
 70
32
 0
VERTEX
 8
0HW
 10
0.3271
 20
1.76
 30
5.7484
 70
32
 0
VERTEX
 8
0HW
 10
0.3062
 20
1.6959
 30
5.7484
 70
32
 0
VERTEX
 8
0HW
 10
0.2872
 20
1.6067
 30
5.7484
 70
32
 0
VERTEX
 8
0HW
 10
0.2667
 20
1.3897
 30
5.7484
 70
32
 0
VERTEX
 8
0HW
 10
0.2633
 20
1.1712
 30
5.7484
 70
32
 0
VERTEX
 8
0HW
 10
0.2711
 20
0.718
 30
5.7484
 70
32
 0
VERTEX
 8
0HW
 10
0.2855
 20
0.609
 30
5.7484
 70
32
 0
VERTEX
 8
0HW
 10
0.3042
 20
0.5297
 30
5.7484
 70
32
 0
VERTEX
 8
0HW
 10
0.3232
 20
0.4762
 30
5.7484
 70
32
 0
VERTEX
 8
0HW
 10
0.3385
 20
0.4437
 30
5.7484
 70
32
 0
VERTEX
 8
0HW
 10
0.3562
 20
0.414
 30
5.7484
 70
32
 0
VERTEX
 8
0HW
 10
0.3764
 20
0.3875
 30
5.7484
 70
32
 0
VERTEX
 8
0HW
 10
0.3993
 20
0.3642
 30
5.7484
 70
32
 0
VERTEX
 8
0HW
 10
0.425
 20
0.3445
 30
5.7484
 70
32
 0
VERTEX
 8
0HW
 10
0.4537
 20
0.3286
 30
5.7484
 70
32
 0
VERTEX
 8
0HW
 10
0.4856
 20
0.3167
 30
5.7484
 70
32
 0
VERTEX
 8
0HW
 10
0.5207
 20
0.3091
 30
5.7484
 70
32
 0
VERTEX
 8
0HW
 10
0.5396
 20
0.3069
 30
5.7484
 70
32
 0
VERTEX
 8
0HW
 10
0.5801
 20
0.3061
 30
5.7484
 70
32
 0
VERTEX
 8
0HW
 10
0.5801
 20
0.0867
 30
5.7484
 70
32
 0
VERTEX
 8
0HW
 10
0.5299
 20
0.0871
 30
5.7484
 70
32
 0
VERTEX
 8
0HW
 10
0.4831
 20
0.0923
 30
5.7484
 70
32
 0
VERTEX
 8
0HW
 10
0.4397
 20
0.1019
 30
5.7484
 70
32
 0
VERTEX
 8
0HW
 10
0.3993
 20
0.1159
 30
5.7484
 70
32
 0
VERTEX
 8
0HW
 10
0.362
 20
0.1341
 30
5.7484
 70
32
 0
VERTEX
 8
0HW
 10
0.3277
 20
0.1562
 30
5.7484
 70
32
 0
VERTEX
 8
0HW
 10
0.2962
 20
0.1821
 30
5.7484
 70
32
 0
VERTEX
 8
0HW
 10
0.2674
 20
0.2115
 30
5.7484
 70
32
 0
VERTEX
 8
0HW
 10
0.2411
 20
0.2444
 30
5.7484
 70
32
 0
VERTEX
 8
0HW
 10
0.2064
 20
0.2996
 30
5.7484
 70
32
 0
VERTEX
 8
0HW
 10
0.1769
 20
0.3613
 30
5.7484
 70
32
 0
VERTEX
 8
0HW
 10
0.1449
 20
0.4527
 30
5.7484
 70
32
 0
VERTEX
 8
0HW
 10
0.1155
 20
0.5793
 30
5.7484
 70
32
 0
VERTEX
 8
0HW
 10
0.0888
 20
0.8033
 30
5.7484
 70
32
 0
VERTEX
 8
0HW
 10
0.0805
 20
1.0737
 30
5.7484
 70
32
 0
VERTEX
 8
0HW
 10
0.0965
 20
1.4993
 30
5.7484
 70
32
 0
VERTEX
 8
0HW
 10
0.1215
 20
1.6816
 30
5.7484
 70
32
 0
VERTEX
 8
0HW
 10
0.1509
 20
1.805
 30
5.7484
 70
32
 0
VERTEX
 8
0HW
 10
0.1764
 20
1.8793
 30
5.7484
 70
32
 0
VERTEX
 8
0HW
 10
0.2074
 20
1.9462
 30
5.7484
 70
32
 0
VERTEX
 8
0HW
 10
0.2344
 20
1.991
 30
5.7484
 70
32
 0
VERTEX
 8
0HW
 10
0.265
 20
2.0308
 30
5.7484
 70
32
 0
VERTEX
 8
0HW
 10
0.2874
 20
2.0544
 30
5.7484
 70
32
 0
VERTEX
 8
0HW
 10
0.2992
 20
2.0652
 30
5.7484
 70
32
 0
VERTEX
 8
0HW
 10
0.3242
 20
2.085
 30
5.7484
 70
32
 0
VERTEX
 8
0HW
 10
0.348
 20
2.1
 30
5.7484
 70
32
 0
VERTEX
 8
0HW
 10
0.3741
 20
2.113
 30
5.7484
 70
32
 0
VERTEX
 8
0HW
 10
0.4096
 20
2.1262
 30
5.7484
 70
32
 0
VERTEX
 8
0HW
 10
0.4475
 20
2.1363
 30
5.7484
 70
32
 0
VERTEX
 8
0HW
 10
0.4947
 20
2.144
 30
5.7484
 70
32
 0
VERTEX
 8
0HW
 10
0.5427
 20
2.147
 30
5.7484
 70
32
 0
VERTEX
 8
0HW
 10
0.59
 20
2.1451
 30
5.7484
 70
32
 0
VERTEX
 8
0HW
 10
0.6279
 20
2.1398
 30
5.7484
 70
32
 0
VERTEX
 8
0HW
 10
0.6566
 20
2.1331
 30
5.7484
 70
32
 0
VERTEX
 8
0HW
 10
0.6897
 20
2.1216
 30
5.7484
 70
32
 0
VERTEX
 8
0HW
 10
0.7115
 20
2.1111
 30
5.7484
 70
32
 0
VERTEX
 8
0HW
 10
0.7324
 20
2.0982
 30
5.7484
 70
32
 0
VERTEX
 8
0HW
 10
0.7525
 20
2.0832
 30
5.7484
 70
32
 0
VERTEX
 8
0HW
 10
0.7901
 20
2.0468
 30
5.7484
 70
32
 0
VERTEX
 8
0HW
 10
0.8246
 20
2.0024
 30
5.7484
 70
32
 0
VERTEX
 8
0HW
 10
0.8559
 20
1.9508
 30
5.7484
 70
32
 0
VERTEX
 8
0HW
 10
0.897
 20
1.8613
 30
5.7484
 70
32
 0
VERTEX
 8
0HW
 10
0.9313
 20
1.7591
 30
5.7484
 70
32
 0
VERTEX
 8
0HW
 10
0.967
 20
1.6071
 30
5.7484
 70
32
 0
VERTEX
 8
0HW
 10
0.9961
 20
1.3991
 30
5.7484
 70
32
 0
VERTEX
 8
0HW
 10
1.0098
 20
1.0924
 30
5.7484
 70
32
 0
VERTEX
 8
0HW
 10
0.9945
 20
0.7934
 30
5.7484
 70
32
 0
VERTEX
 8
0HW
 10
0.9605
 20
0.5643
 30
5.7484
 70
32
 0
VERTEX
 8
0HW
 10
0.9368
 20
0.4652
 30
5.7484
 70
32
 0
VERTEX
 8
0HW
 10
0.9091
 20
0.3792
 30
5.7484
 70
32
 0
VERTEX
 8
0HW
 10
0.8882
 20
0.3306
 30
5.7484
 70
32
 0
VERTEX
 8
0HW
 10
0.8632
 20
0.2847
 30
5.7484
 70
32
 0
VERTEX
 8
0HW
 10
0.834
 20
0.242
 30
5.7484
 70
32
 0
VERTEX
 8
0HW
 10
0.8064
 20
0.2091
 30
5.7484
 70
32
 0
VERTEX
 8
0HW
 10
0.7757
 20
0.179
 30
5.7484
 70
32
 0
VERTEX
 8
0HW
 10
0.7421
 20
0.152
 30
5.7484
 70
32
 0
VERTEX
 8
0HW
 10
0.7054
 20
0.1284
 30
5.7484
 70
32
 0
VERTEX
 8
0HW
 10
0.6655
 20
0.1083
 30
5.7484
 70
32
 0
VERTEX
 8
0HW
 10
0.6401
 20
0.0981
 30
5.7484
 70
32
 0
SEQEND
 0
ENDSEC
 0
EOF
