 0
SECTION
 2
HEADER
 9
$ACADVER
 1
AC1009
 0
ENDSEC
 0
SECTION
 2
TABLES
 0
TABLE
 2
LTYPE
 70
1
 0
LTYPE
 2
CONTINUOUS
 70
64
 3
solid line
 72
65
 73
0
 40
0.0
 0
ENDTAB
 0
TABLE
 2
LAYER
 70
6
 0
LAYER
 2
0
 70
0
 62
7
 6
CONTINUOUS
 0
LAYER
 2
NUMBERS
 70
64
 62
7
 6
CONTINUOUS
 0
LAYER
 2
1
 70
64
 62
7
 6
CONTINUOUS
 0
ENDTAB
 0
ENDSEC
 0
SECTION
 2
BLOCKS
 0
ENDSEC
 0
SECTION
 2
ENTITIES
 0
POLYLINE
 8
1
 66
1
 10
0.0
 20
0.0
 30
0.0
 70
9
 0
VERTEX
 8
1
 10
0.1767
 20
0.1895
 30
5.7484
 70
32
 0
VERTEX
 8
1
 10
0.1767
 20
0.3967
 30
5.7484
 70
32
 0
VERTEX
 8
1
 10
0.4447
 20
0.3967
 30
5.7484
 70
32
 0
VERTEX
 8
1
 10
0.4569
 20
1.7126
 30
5.7484
 70
32
 0
VERTEX
 8
1
 10
0.1767
 20
1.7126
 30
5.7484
 70
32
 0
VERTEX
 8
1
 10
0.1767
 20
1.8954
 30
5.7484
 70
32
 0
VERTEX
 8
1
 10
0.2282
 20
1.8938
 30
5.7484
 70
32
 0
VERTEX
 8
1
 10
0.2628
 20
1.8964
 30
5.7484
 70
32
 0
VERTEX
 8
1
 10
0.2942
 20
1.902
 30
5.7484
 70
32
 0
VERTEX
 8
1
 10
0.3225
 20
1.9103
 30
5.7484
 70
32
 0
VERTEX
 8
1
 10
0.348
 20
1.9214
 30
5.7484
 70
32
 0
VERTEX
 8
1
 10
0.3707
 20
1.9348
 30
5.7484
 70
32
 0
VERTEX
 8
1
 10
0.391
 20
1.9506
 30
5.7484
 70
32
 0
VERTEX
 8
1
 10
0.409
 20
1.9685
 30
5.7484
 70
32
 0
VERTEX
 8
1
 10
0.4248
 20
1.9883
 30
5.7484
 70
32
 0
VERTEX
 8
1
 10
0.4387
 20
2.0098
 30
5.7484
 70
32
 0
VERTEX
 8
1
 10
0.4545
 20
2.041
 30
5.7484
 70
32
 0
VERTEX
 8
1
 10
0.4706
 20
2.0833
 30
5.7484
 70
32
 0
VERTEX
 8
1
 10
0.4833
 20
2.1284
 30
5.7484
 70
32
 0
VERTEX
 8
1
 10
0.4935
 20
2.1756
 30
5.7484
 70
32
 0
VERTEX
 8
1
 10
0.4936
 20
2.1759
 30
5.7484
 70
32
 0
VERTEX
 8
1
 10
0.494
 20
2.1761
 30
5.7484
 70
32
 0
VERTEX
 8
1
 10
0.4946
 20
2.1763
 30
5.7484
 70
32
 0
VERTEX
 8
1
 10
0.4964
 20
2.1766
 30
5.7484
 70
32
 0
VERTEX
 8
1
 10
0.5533
 20
2.1759
 30
5.7484
 70
32
 0
VERTEX
 8
1
 10
0.6275
 20
2.1756
 30
5.7484
 70
32
 0
VERTEX
 8
1
 10
0.6275
 20
0.3967
 30
5.7484
 70
32
 0
VERTEX
 8
1
 10
0.8956
 20
0.3967
 30
5.7484
 70
32
 0
VERTEX
 8
1
 10
0.8956
 20
0.1895
 30
5.7484
 70
32
 0
SEQEND
 0
ENDSEC
 0
EOF
