 0
SECTION
 2
HEADER
 9
$ACADVER
 1
AC1009
 0
ENDSEC
 0
SECTION
 2
TABLES
 0
TABLE
 2
LTYPE
 70
1
 0
LTYPE
 2
CONTINUOUS
 70
64
 3
solid line
 72
65
 73
0
 40
0.0
 0
ENDTAB
 0
TABLE
 2
LAYER
 70
6
 0
LAYER
 2
0
 70
0
 62
7
 6
CONTINUOUS
 0
LAYER
 2
NUMBERS
 70
64
 62
7
 6
CONTINUOUS
 0
LAYER
 2
2
 70
64
 62
7
 6
CONTINUOUS
 0
ENDTAB
 0
ENDSEC
 0
SECTION
 2
BLOCKS
 0
ENDSEC
 0
SECTION
 2
ENTITIES
 0
POLYLINE
 8
2
 66
1
 10
0.0
 20
0.0
 30
0.0
 70
9
 0
VERTEX
 8
2
 10
0.1442
 20
0.1339
 30
5.7484
 70
32
 0
VERTEX
 8
2
 10
0.1464
 20
0.1459
 30
5.7484
 70
32
 0
VERTEX
 8
2
 10
0.1479
 20
0.1637
 30
5.7484
 70
32
 0
VERTEX
 8
2
 10
0.1474
 20
0.1989
 30
5.7484
 70
32
 0
VERTEX
 8
2
 10
0.1382
 20
0.3543
 30
5.7484
 70
32
 0
VERTEX
 8
2
 10
0.1398
 20
0.3762
 30
5.7484
 70
32
 0
VERTEX
 8
2
 10
0.1442
 20
0.402
 30
5.7484
 70
32
 0
VERTEX
 8
2
 10
0.1487
 20
0.4173
 30
5.7484
 70
32
 0
VERTEX
 8
2
 10
0.1585
 20
0.4414
 30
5.7484
 70
32
 0
VERTEX
 8
2
 10
0.1766
 20
0.4752
 30
5.7484
 70
32
 0
VERTEX
 8
2
 10
0.3294
 20
0.6709
 30
5.7484
 70
32
 0
VERTEX
 8
2
 10
0.5219
 20
0.9137
 30
5.7484
 70
32
 0
VERTEX
 8
2
 10
0.6723
 20
1.1571
 30
5.7484
 70
32
 0
VERTEX
 8
2
 10
0.7323
 20
1.2819
 30
5.7484
 70
32
 0
VERTEX
 8
2
 10
0.7665
 20
1.375
 30
5.7484
 70
32
 0
VERTEX
 8
2
 10
0.7865
 20
1.451
 30
5.7484
 70
32
 0
VERTEX
 8
2
 10
0.7982
 20
1.5275
 30
5.7484
 70
32
 0
VERTEX
 8
2
 10
0.8008
 20
1.585
 30
5.7484
 70
32
 0
VERTEX
 8
2
 10
0.7973
 20
1.6421
 30
5.7484
 70
32
 0
VERTEX
 8
2
 10
0.787
 20
1.6987
 30
5.7484
 70
32
 0
VERTEX
 8
2
 10
0.7762
 20
1.736
 30
5.7484
 70
32
 0
VERTEX
 8
2
 10
0.7534
 20
1.791
 30
5.7484
 70
32
 0
VERTEX
 8
2
 10
0.7395
 20
1.8156
 30
5.7484
 70
32
 0
VERTEX
 8
2
 10
0.7235
 20
1.8372
 30
5.7484
 70
32
 0
VERTEX
 8
2
 10
0.7056
 20
1.8559
 30
5.7484
 70
32
 0
VERTEX
 8
2
 10
0.6861
 20
1.8718
 30
5.7484
 70
32
 0
VERTEX
 8
2
 10
0.6651
 20
1.8851
 30
5.7484
 70
32
 0
VERTEX
 8
2
 10
0.6426
 20
1.8957
 30
5.7484
 70
32
 0
VERTEX
 8
2
 10
0.619
 20
1.904
 30
5.7484
 70
32
 0
VERTEX
 8
2
 10
0.5944
 20
1.9099
 30
5.7484
 70
32
 0
VERTEX
 8
2
 10
0.5559
 20
1.9147
 30
5.7484
 70
32
 0
VERTEX
 8
2
 10
0.5161
 20
1.9148
 30
5.7484
 70
32
 0
VERTEX
 8
2
 10
0.4754
 20
1.9108
 30
5.7484
 70
32
 0
VERTEX
 8
2
 10
0.421
 20
1.8996
 30
5.7484
 70
32
 0
VERTEX
 8
2
 10
0.3674
 20
1.8826
 30
5.7484
 70
32
 0
VERTEX
 8
2
 10
0.316
 20
1.8607
 30
5.7484
 70
32
 0
VERTEX
 8
2
 10
0.2683
 20
1.8347
 30
5.7484
 70
32
 0
VERTEX
 8
2
 10
0.2254
 20
1.8058
 30
5.7484
 70
32
 0
VERTEX
 8
2
 10
0.2062
 20
1.7904
 30
5.7484
 70
32
 0
VERTEX
 8
2
 10
0.1808
 20
1.7666
 30
5.7484
 70
32
 0
VERTEX
 8
2
 10
0.1808
 20
2.0347
 30
5.7484
 70
32
 0
VERTEX
 8
2
 10
0.2351
 20
2.0728
 30
5.7484
 70
32
 0
VERTEX
 8
2
 10
0.2914
 20
2.1032
 30
5.7484
 70
32
 0
VERTEX
 8
2
 10
0.349
 20
2.1261
 30
5.7484
 70
32
 0
VERTEX
 8
2
 10
0.4072
 20
2.1418
 30
5.7484
 70
32
 0
VERTEX
 8
2
 10
0.4657
 20
2.1505
 30
5.7484
 70
32
 0
VERTEX
 8
2
 10
0.5236
 20
2.1524
 30
5.7484
 70
32
 0
VERTEX
 8
2
 10
0.5805
 20
2.1477
 30
5.7484
 70
32
 0
VERTEX
 8
2
 10
0.6358
 20
2.1366
 30
5.7484
 70
32
 0
VERTEX
 8
2
 10
0.6889
 20
2.1192
 30
5.7484
 70
32
 0
VERTEX
 8
2
 10
0.7393
 20
2.0959
 30
5.7484
 70
32
 0
VERTEX
 8
2
 10
0.7862
 20
2.0668
 30
5.7484
 70
32
 0
VERTEX
 8
2
 10
0.8292
 20
2.0322
 30
5.7484
 70
32
 0
VERTEX
 8
2
 10
0.8677
 20
1.9922
 30
5.7484
 70
32
 0
VERTEX
 8
2
 10
0.9011
 20
1.9471
 30
5.7484
 70
32
 0
VERTEX
 8
2
 10
0.9202
 20
1.9142
 30
5.7484
 70
32
 0
VERTEX
 8
2
 10
0.9366
 20
1.8793
 30
5.7484
 70
32
 0
VERTEX
 8
2
 10
0.9501
 20
1.8422
 30
5.7484
 70
32
 0
VERTEX
 8
2
 10
0.9606
 20
1.8032
 30
5.7484
 70
32
 0
VERTEX
 8
2
 10
0.9783
 20
1.6924
 30
5.7484
 70
32
 0
VERTEX
 8
2
 10
0.9823
 20
1.5849
 30
5.7484
 70
32
 0
VERTEX
 8
2
 10
0.9739
 20
1.4807
 30
5.7484
 70
32
 0
VERTEX
 8
2
 10
0.9546
 20
1.3796
 30
5.7484
 70
32
 0
VERTEX
 8
2
 10
0.9255
 20
1.2817
 30
5.7484
 70
32
 0
VERTEX
 8
2
 10
0.8742
 20
1.1561
 30
5.7484
 70
32
 0
VERTEX
 8
2
 10
0.7941
 20
1.0069
 30
5.7484
 70
32
 0
VERTEX
 8
2
 10
0.5458
 20
0.6585
 30
5.7484
 70
32
 0
VERTEX
 8
2
 10
0.327
 20
0.3654
 30
5.7484
 70
32
 0
VERTEX
 8
2
 10
1.0337
 20
0.3654
 30
5.7484
 70
32
 0
VERTEX
 8
2
 10
1.0337
 20
0.1339
 30
5.7484
 70
32
 0
SEQEND
 0
ENDSEC
 0
EOF
