 0
SECTION
 2
HEADER
 9
$ACADVER
 1
AC1009
 0
ENDSEC
 0
SECTION
 2
TABLES
 0
TABLE
 2
LTYPE
 70
1
 0
LTYPE
 2
CONTINUOUS
 70
64
 3
solid line
 72
65
 73
0
 40
0.0
 0
ENDTAB
 0
TABLE
 2
LAYER
 70
6
 0
LAYER
 2
0
 70
0
 62
7
 6
CONTINUOUS
 0
LAYER
 2
NUMBERS
 70
64
 62
7
 6
CONTINUOUS
 0
LAYER
 2
3
 70
64
 62
7
 6
CONTINUOUS
 0
ENDTAB
 0
ENDSEC
 0
SECTION
 2
BLOCKS
 0
ENDSEC
 0
SECTION
 2
ENTITIES
 0
POLYLINE
 8
3
 66
1
 10
0.0
 20
0.0
 30
0.0
 70
9
 0
VERTEX
 8
3
 10
0.1636
 20
0.3639
 30
5.7484
 70
32
 0
VERTEX
 8
3
 10
0.1636
 20
0.6441
 30
5.7484
 70
32
 0
VERTEX
 8
3
 10
0.2079
 20
0.604
 30
5.7484
 70
32
 0
VERTEX
 8
3
 10
0.2553
 20
0.5692
 30
5.7484
 70
32
 0
VERTEX
 8
3
 10
0.305
 20
0.5398
 30
5.7484
 70
32
 0
VERTEX
 8
3
 10
0.3564
 20
0.5162
 30
5.7484
 70
32
 0
VERTEX
 8
3
 10
0.4088
 20
0.4985
 30
5.7484
 70
32
 0
VERTEX
 8
3
 10
0.4615
 20
0.4869
 30
5.7484
 70
32
 0
VERTEX
 8
3
 10
0.5138
 20
0.4815
 30
5.7484
 70
32
 0
VERTEX
 8
3
 10
0.565
 20
0.4826
 30
5.7484
 70
32
 0
VERTEX
 8
3
 10
0.5982
 20
0.487
 30
5.7484
 70
32
 0
VERTEX
 8
3
 10
0.6303
 20
0.4944
 30
5.7484
 70
32
 0
VERTEX
 8
3
 10
0.6612
 20
0.5049
 30
5.7484
 70
32
 0
VERTEX
 8
3
 10
0.6907
 20
0.5184
 30
5.7484
 70
32
 0
VERTEX
 8
3
 10
0.7186
 20
0.5352
 30
5.7484
 70
32
 0
VERTEX
 8
3
 10
0.7447
 20
0.5552
 30
5.7484
 70
32
 0
VERTEX
 8
3
 10
0.7687
 20
0.5785
 30
5.7484
 70
32
 0
VERTEX
 8
3
 10
0.7904
 20
0.6051
 30
5.7484
 70
32
 0
VERTEX
 8
3
 10
0.8097
 20
0.6351
 30
5.7484
 70
32
 0
VERTEX
 8
3
 10
0.8263
 20
0.6686
 30
5.7484
 70
32
 0
VERTEX
 8
3
 10
0.8401
 20
0.7056
 30
5.7484
 70
32
 0
VERTEX
 8
3
 10
0.8508
 20
0.7462
 30
5.7484
 70
32
 0
VERTEX
 8
3
 10
0.8582
 20
0.7903
 30
5.7484
 70
32
 0
VERTEX
 8
3
 10
0.864
 20
0.8686
 30
5.7484
 70
32
 0
VERTEX
 8
3
 10
0.8626
 20
0.9291
 30
5.7484
 70
32
 0
VERTEX
 8
3
 10
0.8555
 20
0.9868
 30
5.7484
 70
32
 0
VERTEX
 8
3
 10
0.8463
 20
1.0278
 30
5.7484
 70
32
 0
VERTEX
 8
3
 10
0.8337
 20
1.0664
 30
5.7484
 70
32
 0
VERTEX
 8
3
 10
0.8174
 20
1.1022
 30
5.7484
 70
32
 0
VERTEX
 8
3
 10
0.7974
 20
1.135
 30
5.7484
 70
32
 0
VERTEX
 8
3
 10
0.7819
 20
1.1549
 30
5.7484
 70
32
 0
VERTEX
 8
3
 10
0.7646
 20
1.1732
 30
5.7484
 70
32
 0
VERTEX
 8
3
 10
0.7456
 20
1.1898
 30
5.7484
 70
32
 0
VERTEX
 8
3
 10
0.7247
 20
1.2046
 30
5.7484
 70
32
 0
VERTEX
 8
3
 10
0.702
 20
1.2174
 30
5.7484
 70
32
 0
VERTEX
 8
3
 10
0.6774
 20
1.2282
 30
5.7484
 70
32
 0
VERTEX
 8
3
 10
0.6508
 20
1.2368
 30
5.7484
 70
32
 0
VERTEX
 8
3
 10
0.6223
 20
1.2431
 30
5.7484
 70
32
 0
VERTEX
 8
3
 10
0.5756
 20
1.2482
 30
5.7484
 70
32
 0
VERTEX
 8
3
 10
0.5243
 20
1.2477
 30
5.7484
 70
32
 0
VERTEX
 8
3
 10
0.4683
 20
1.2412
 30
5.7484
 70
32
 0
VERTEX
 8
3
 10
0.4683
 20
1.4605
 30
5.7484
 70
32
 0
VERTEX
 8
3
 10
0.5023
 20
1.4559
 30
5.7484
 70
32
 0
VERTEX
 8
3
 10
0.5349
 20
1.4545
 30
5.7484
 70
32
 0
VERTEX
 8
3
 10
0.5662
 20
1.4561
 30
5.7484
 70
32
 0
VERTEX
 8
3
 10
0.596
 20
1.4605
 30
5.7484
 70
32
 0
VERTEX
 8
3
 10
0.6244
 20
1.4676
 30
5.7484
 70
32
 0
VERTEX
 8
3
 10
0.6512
 20
1.4773
 30
5.7484
 70
32
 0
VERTEX
 8
3
 10
0.6765
 20
1.4893
 30
5.7484
 70
32
 0
VERTEX
 8
3
 10
0.7002
 20
1.5036
 30
5.7484
 70
32
 0
VERTEX
 8
3
 10
0.7221
 20
1.5199
 30
5.7484
 70
32
 0
VERTEX
 8
3
 10
0.7424
 20
1.5381
 30
5.7484
 70
32
 0
VERTEX
 8
3
 10
0.7609
 20
1.5581
 30
5.7484
 70
32
 0
VERTEX
 8
3
 10
0.7853
 20
1.5911
 30
5.7484
 70
32
 0
VERTEX
 8
3
 10
0.8054
 20
1.6271
 30
5.7484
 70
32
 0
VERTEX
 8
3
 10
0.8212
 20
1.6657
 30
5.7484
 70
32
 0
VERTEX
 8
3
 10
0.8324
 20
1.7063
 30
5.7484
 70
32
 0
VERTEX
 8
3
 10
0.839
 20
1.7485
 30
5.7484
 70
32
 0
VERTEX
 8
3
 10
0.8407
 20
1.7916
 30
5.7484
 70
32
 0
VERTEX
 8
3
 10
0.8374
 20
1.8352
 30
5.7484
 70
32
 0
VERTEX
 8
3
 10
0.829
 20
1.8787
 30
5.7484
 70
32
 0
VERTEX
 8
3
 10
0.8204
 20
1.9074
 30
5.7484
 70
32
 0
VERTEX
 8
3
 10
0.8094
 20
1.9357
 30
5.7484
 70
32
 0
VERTEX
 8
3
 10
0.795
 20
1.9639
 30
5.7484
 70
32
 0
VERTEX
 8
3
 10
0.7783
 20
1.9884
 30
5.7484
 70
32
 0
VERTEX
 8
3
 10
0.7594
 20
2.0092
 30
5.7484
 70
32
 0
VERTEX
 8
3
 10
0.7385
 20
2.0265
 30
5.7484
 70
32
 0
VERTEX
 8
3
 10
0.7158
 20
2.0406
 30
5.7484
 70
32
 0
VERTEX
 8
3
 10
0.6916
 20
2.0517
 30
5.7484
 70
32
 0
VERTEX
 8
3
 10
0.666
 20
2.0598
 30
5.7484
 70
32
 0
VERTEX
 8
3
 10
0.6392
 20
2.0652
 30
5.7484
 70
32
 0
VERTEX
 8
3
 10
0.6115
 20
2.068
 30
5.7484
 70
32
 0
VERTEX
 8
3
 10
0.5685
 20
2.0678
 30
5.7484
 70
32
 0
VERTEX
 8
3
 10
0.5245
 20
2.0629
 30
5.7484
 70
32
 0
VERTEX
 8
3
 10
0.4654
 20
2.0501
 30
5.7484
 70
32
 0
VERTEX
 8
3
 10
0.4072
 20
2.0312
 30
5.7484
 70
32
 0
VERTEX
 8
3
 10
0.3383
 20
2.0016
 30
5.7484
 70
32
 0
VERTEX
 8
3
 10
0.2765
 20
1.9676
 30
5.7484
 70
32
 0
VERTEX
 8
3
 10
0.2342
 20
1.9392
 30
5.7484
 70
32
 0
VERTEX
 8
3
 10
0.2002
 20
1.9113
 30
5.7484
 70
32
 0
VERTEX
 8
3
 10
0.2002
 20
2.1794
 30
5.7484
 70
32
 0
VERTEX
 8
3
 10
0.272
 20
2.2252
 30
5.7484
 70
32
 0
VERTEX
 8
3
 10
0.3446
 20
2.26
 30
5.7484
 70
32
 0
VERTEX
 8
3
 10
0.4174
 20
2.2842
 30
5.7484
 70
32
 0
VERTEX
 8
3
 10
0.4894
 20
2.2982
 30
5.7484
 70
32
 0
VERTEX
 8
3
 10
0.5367
 20
2.302
 30
5.7484
 70
32
 0
VERTEX
 8
3
 10
0.5831
 20
2.3016
 30
5.7484
 70
32
 0
VERTEX
 8
3
 10
0.6284
 20
2.297
 30
5.7484
 70
32
 0
VERTEX
 8
3
 10
0.6723
 20
2.2884
 30
5.7484
 70
32
 0
VERTEX
 8
3
 10
0.7147
 20
2.2759
 30
5.7484
 70
32
 0
VERTEX
 8
3
 10
0.7553
 20
2.2596
 30
5.7484
 70
32
 0
VERTEX
 8
3
 10
0.7939
 20
2.2395
 30
5.7484
 70
32
 0
VERTEX
 8
3
 10
0.8303
 20
2.2159
 30
5.7484
 70
32
 0
VERTEX
 8
3
 10
0.8641
 20
2.1889
 30
5.7484
 70
32
 0
VERTEX
 8
3
 10
0.8953
 20
2.1585
 30
5.7484
 70
32
 0
VERTEX
 8
3
 10
0.9235
 20
2.1248
 30
5.7484
 70
32
 0
VERTEX
 8
3
 10
0.9486
 20
2.0881
 30
5.7484
 70
32
 0
VERTEX
 8
3
 10
0.9703
 20
2.0483
 30
5.7484
 70
32
 0
VERTEX
 8
3
 10
0.9884
 20
2.0056
 30
5.7484
 70
32
 0
VERTEX
 8
3
 10
1.0026
 20
1.9602
 30
5.7484
 70
32
 0
VERTEX
 8
3
 10
1.0128
 20
1.9121
 30
5.7484
 70
32
 0
VERTEX
 8
3
 10
1.0186
 20
1.8614
 30
5.7484
 70
32
 0
VERTEX
 8
3
 10
1.02
 20
1.8083
 30
5.7484
 70
32
 0
VERTEX
 8
3
 10
1.0166
 20
1.7529
 30
5.7484
 70
32
 0
VERTEX
 8
3
 10
1.0088
 20
1.7018
 30
5.7484
 70
32
 0
VERTEX
 8
3
 10
0.9965
 20
1.6531
 30
5.7484
 70
32
 0
VERTEX
 8
3
 10
0.9798
 20
1.607
 30
5.7484
 70
32
 0
VERTEX
 8
3
 10
0.9588
 20
1.5638
 30
5.7484
 70
32
 0
VERTEX
 8
3
 10
0.9336
 20
1.5237
 30
5.7484
 70
32
 0
VERTEX
 8
3
 10
0.9105
 20
1.4938
 30
5.7484
 70
32
 0
VERTEX
 8
3
 10
0.8848
 20
1.4662
 30
5.7484
 70
32
 0
VERTEX
 8
3
 10
0.8567
 20
1.4408
 30
5.7484
 70
32
 0
VERTEX
 8
3
 10
0.826
 20
1.4178
 30
5.7484
 70
32
 0
VERTEX
 8
3
 10
0.793
 20
1.3973
 30
5.7484
 70
32
 0
VERTEX
 8
3
 10
0.7485
 20
1.3752
 30
5.7484
 70
32
 0
VERTEX
 8
3
 10
0.7898
 20
1.3618
 30
5.7484
 70
32
 0
VERTEX
 8
3
 10
0.8281
 20
1.3427
 30
5.7484
 70
32
 0
VERTEX
 8
3
 10
0.8633
 20
1.3185
 30
5.7484
 70
32
 0
VERTEX
 8
3
 10
0.8954
 20
1.2894
 30
5.7484
 70
32
 0
VERTEX
 8
3
 10
0.9244
 20
1.2559
 30
5.7484
 70
32
 0
VERTEX
 8
3
 10
0.9503
 20
1.2185
 30
5.7484
 70
32
 0
VERTEX
 8
3
 10
0.9731
 20
1.1776
 30
5.7484
 70
32
 0
VERTEX
 8
3
 10
1.0014
 20
1.1106
 30
5.7484
 70
32
 0
VERTEX
 8
3
 10
1.0226
 20
1.0381
 30
5.7484
 70
32
 0
VERTEX
 8
3
 10
1.0367
 20
0.9615
 30
5.7484
 70
32
 0
VERTEX
 8
3
 10
1.0435
 20
0.8823
 30
5.7484
 70
32
 0
VERTEX
 8
3
 10
1.0431
 20
0.8019
 30
5.7484
 70
32
 0
VERTEX
 8
3
 10
1.0355
 20
0.7218
 30
5.7484
 70
32
 0
VERTEX
 8
3
 10
1.0205
 20
0.6434
 30
5.7484
 70
32
 0
VERTEX
 8
3
 10
0.9981
 20
0.5681
 30
5.7484
 70
32
 0
VERTEX
 8
3
 10
0.9682
 20
0.4974
 30
5.7484
 70
32
 0
VERTEX
 8
3
 10
0.931
 20
0.4328
 30
5.7484
 70
32
 0
VERTEX
 8
3
 10
0.9019
 20
0.3937
 30
5.7484
 70
32
 0
VERTEX
 8
3
 10
0.8695
 20
0.3584
 30
5.7484
 70
32
 0
VERTEX
 8
3
 10
0.8338
 20
0.3273
 30
5.7484
 70
32
 0
VERTEX
 8
3
 10
0.798
 20
0.3025
 30
5.7484
 70
32
 0
VERTEX
 8
3
 10
0.7611
 20
0.2821
 30
5.7484
 70
32
 0
VERTEX
 8
3
 10
0.7231
 20
0.266
 30
5.7484
 70
32
 0
VERTEX
 8
3
 10
0.6841
 20
0.2539
 30
5.7484
 70
32
 0
VERTEX
 8
3
 10
0.6444
 20
0.2456
 30
5.7484
 70
32
 0
VERTEX
 8
3
 10
0.6039
 20
0.2409
 30
5.7484
 70
32
 0
VERTEX
 8
3
 10
0.5492
 20
0.24
 30
5.7484
 70
32
 0
VERTEX
 8
3
 10
0.4938
 20
0.2447
 30
5.7484
 70
32
 0
VERTEX
 8
3
 10
0.424
 20
0.2577
 30
5.7484
 70
32
 0
VERTEX
 8
3
 10
0.3541
 20
0.2778
 30
5.7484
 70
32
 0
VERTEX
 8
3
 10
0.2712
 20
0.31
 30
5.7484
 70
32
 0
VERTEX
 8
3
 10
0.2169
 20
0.3355
 30
5.7484
 70
32
 0
SEQEND
 0
ENDSEC
 0
EOF
