 0
SECTION
 2
HEADER
 9
$ACADVER
 1
AC1009
 0
ENDSEC
 0
SECTION
 2
TABLES
 0
TABLE
 2
LTYPE
 70
1
 0
LTYPE
 2
CONTINUOUS
 70
64
 3
solid line
 72
65
 73
0
 40
0.0
 0
ENDTAB
 0
TABLE
 2
LAYER
 70
6
 0
LAYER
 2
0
 70
0
 62
7
 6
CONTINUOUS
 0
LAYER
 2
NUMBERS
 70
64
 62
7
 6
CONTINUOUS
 0
LAYER
 2
4
 70
64
 62
7
 6
CONTINUOUS
 0
ENDTAB
 0
ENDSEC
 0
SECTION
 2
BLOCKS
 0
ENDSEC
 0
SECTION
 2
ENTITIES
 0
POLYLINE
 8
4
 66
1
 10
0.0
 20
0.0
 30
0.0
 70
9
 0
VERTEX
 8
4
 10
1.0042
 20
2.1534
 30
5.7484
 70
32
 0
VERTEX
 8
4
 10
1.0042
 20
0.9593
 30
5.7484
 70
32
 0
VERTEX
 8
4
 10
1.0094
 20
0.9561
 30
5.7484
 70
32
 0
VERTEX
 8
4
 10
1.015
 20
0.9535
 30
5.7484
 70
32
 0
VERTEX
 8
4
 10
1.0242
 20
0.9503
 30
5.7484
 70
32
 0
VERTEX
 8
4
 10
1.0343
 20
0.948
 30
5.7484
 70
32
 0
VERTEX
 8
4
 10
1.049
 20
0.946
 30
5.7484
 70
32
 0
VERTEX
 8
4
 10
1.0729
 20
0.9451
 30
5.7484
 70
32
 0
VERTEX
 8
4
 10
1.1378
 20
0.9479
 30
5.7484
 70
32
 0
VERTEX
 8
4
 10
1.1992
 20
0.9471
 30
5.7484
 70
32
 0
VERTEX
 8
4
 10
1.1992
 20
0.7278
 30
5.7484
 70
32
 0
VERTEX
 8
4
 10
1.0042
 20
0.7278
 30
5.7484
 70
32
 0
VERTEX
 8
4
 10
1.0042
 20
0.1673
 30
5.7484
 70
32
 0
VERTEX
 8
4
 10
0.8337
 20
0.1673
 30
5.7484
 70
32
 0
VERTEX
 8
4
 10
0.8337
 20
0.7278
 30
5.7484
 70
32
 0
VERTEX
 8
4
 10
0.2001
 20
0.7278
 30
5.7484
 70
32
 0
VERTEX
 8
4
 10
0.19
 20
0.8226
 30
5.7484
 70
32
 0
VERTEX
 8
4
 10
0.1897
 20
0.8915
 30
5.7484
 70
32
 0
VERTEX
 8
4
 10
0.1944
 20
0.9412
 30
5.7484
 70
32
 0
VERTEX
 8
4
 10
0.2029
 20
0.9869
 30
5.7484
 70
32
 0
VERTEX
 8
4
 10
0.2149
 20
1.0295
 30
5.7484
 70
32
 0
VERTEX
 8
4
 10
0.2342
 20
1.0796
 30
5.7484
 70
32
 0
VERTEX
 8
4
 10
0.2903
 20
1.1858
 30
5.7484
 70
32
 0
VERTEX
 8
4
 10
0.3585
 20
1.3004
 30
5.7484
 70
32
 0
VERTEX
 8
4
 10
0.8458
 20
2.1534
 30
5.7484
 70
32
 0
SEQEND
 0
POLYLINE
 8
4
 66
1
 10
0.0
 20
0.0
 30
0.0
 70
9
 0
VERTEX
 8
4
 10
0.3341
 20
0.9471
 30
5.7484
 70
32
 0
VERTEX
 8
4
 10
0.8337
 20
0.9471
 30
5.7484
 70
32
 0
VERTEX
 8
4
 10
0.8215
 20
1.8122
 30
5.7484
 70
32
 0
SEQEND
 0
POLYLINE
 8
4
 66
1
 10
0.0
 20
0.0
 30
0.0
 70
9
 0
VERTEX
 8
4
 10
0.8215
 20
1.8122
 30
5.7484
 70
32
 0
VERTEX
 8
4
 10
0.8352
 20
1.3873
 30
5.7484
 70
32
 0
VERTEX
 8
4
 10
0.8337
 20
0.9471
 30
5.7484
 70
32
 0
VERTEX
 8
4
 10
0.3341
 20
0.9471
 30
5.7484
 70
32
 0
SEQEND
 0
ENDSEC
 0
EOF
