 0
SECTION
 2
HEADER
 9
$ACADVER
 1
AC1009
 0
ENDSEC
 0
SECTION
 2
TABLES
 0
TABLE
 2
LTYPE
 70
1
 0
LTYPE
 2
CONTINUOUS
 70
64
 3
solid line
 72
65
 73
0
 40
0.0
 0
ENDTAB
 0
TABLE
 2
LAYER
 70
6
 0
LAYER
 2
0
 70
0
 62
7
 6
CONTINUOUS
 0
LAYER
 2
NUMBERS
 70
64
 62
7
 6
CONTINUOUS
 0
LAYER
 2
5
 70
64
 62
7
 6
CONTINUOUS
 0
ENDTAB
 0
ENDSEC
 0
SECTION
 2
BLOCKS
 0
ENDSEC
 0
SECTION
 2
ENTITIES
 0
POLYLINE
 8
5
 66
1
 10
0.0
 20
0.0
 30
0.0
 70
9
 0
VERTEX
 8
5
 10
0.2511
 20
0.3213
 30
5.7484
 70
32
 0
VERTEX
 8
5
 10
0.2511
 20
0.5893
 30
5.7484
 70
32
 0
VERTEX
 8
5
 10
0.2598
 20
0.5904
 30
5.7484
 70
32
 0
VERTEX
 8
5
 10
0.2684
 20
0.5905
 30
5.7484
 70
32
 0
VERTEX
 8
5
 10
0.2768
 20
0.5895
 30
5.7484
 70
32
 0
VERTEX
 8
5
 10
0.2851
 20
0.5877
 30
5.7484
 70
32
 0
VERTEX
 8
5
 10
0.2933
 20
0.5851
 30
5.7484
 70
32
 0
VERTEX
 8
5
 10
0.3054
 20
0.5798
 30
5.7484
 70
32
 0
VERTEX
 8
5
 10
0.3214
 20
0.5704
 30
5.7484
 70
32
 0
VERTEX
 8
5
 10
0.3454
 20
0.5528
 30
5.7484
 70
32
 0
VERTEX
 8
5
 10
0.4239
 20
0.4913
 30
5.7484
 70
32
 0
VERTEX
 8
5
 10
0.4437
 20
0.4795
 30
5.7484
 70
32
 0
VERTEX
 8
5
 10
0.4704
 20
0.4675
 30
5.7484
 70
32
 0
VERTEX
 8
5
 10
0.4986
 20
0.4587
 30
5.7484
 70
32
 0
VERTEX
 8
5
 10
0.5353
 20
0.4509
 30
5.7484
 70
32
 0
VERTEX
 8
5
 10
0.5805
 20
0.4455
 30
5.7484
 70
32
 0
VERTEX
 8
5
 10
0.6213
 20
0.4444
 30
5.7484
 70
32
 0
VERTEX
 8
5
 10
0.6614
 20
0.4471
 30
5.7484
 70
32
 0
VERTEX
 8
5
 10
0.6943
 20
0.4527
 30
5.7484
 70
32
 0
VERTEX
 8
5
 10
0.7148
 20
0.4583
 30
5.7484
 70
32
 0
VERTEX
 8
5
 10
0.7385
 20
0.4675
 30
5.7484
 70
32
 0
VERTEX
 8
5
 10
0.7608
 20
0.48
 30
5.7484
 70
32
 0
VERTEX
 8
5
 10
0.7822
 20
0.4959
 30
5.7484
 70
32
 0
VERTEX
 8
5
 10
0.8026
 20
0.5152
 30
5.7484
 70
32
 0
VERTEX
 8
5
 10
0.8218
 20
0.5374
 30
5.7484
 70
32
 0
VERTEX
 8
5
 10
0.8484
 20
0.5757
 30
5.7484
 70
32
 0
VERTEX
 8
5
 10
0.8719
 20
0.6192
 30
5.7484
 70
32
 0
VERTEX
 8
5
 10
0.8921
 20
0.667
 30
5.7484
 70
32
 0
VERTEX
 8
5
 10
0.9133
 20
0.7357
 30
5.7484
 70
32
 0
VERTEX
 8
5
 10
0.9275
 20
0.8082
 30
5.7484
 70
32
 0
VERTEX
 8
5
 10
0.9338
 20
0.8822
 30
5.7484
 70
32
 0
VERTEX
 8
5
 10
0.933
 20
0.9375
 30
5.7484
 70
32
 0
VERTEX
 8
5
 10
0.9271
 20
0.9915
 30
5.7484
 70
32
 0
VERTEX
 8
5
 10
0.9159
 20
1.0433
 30
5.7484
 70
32
 0
VERTEX
 8
5
 10
0.8991
 20
1.0921
 30
5.7484
 70
32
 0
VERTEX
 8
5
 10
0.8845
 20
1.1225
 30
5.7484
 70
32
 0
VERTEX
 8
5
 10
0.8673
 20
1.1508
 30
5.7484
 70
32
 0
VERTEX
 8
5
 10
0.8472
 20
1.1767
 30
5.7484
 70
32
 0
VERTEX
 8
5
 10
0.8361
 20
1.1888
 30
5.7484
 70
32
 0
VERTEX
 8
5
 10
0.8116
 20
1.2107
 30
5.7484
 70
32
 0
VERTEX
 8
5
 10
0.7872
 20
1.2283
 30
5.7484
 70
32
 0
VERTEX
 8
5
 10
0.7624
 20
1.2428
 30
5.7484
 70
32
 0
VERTEX
 8
5
 10
0.7371
 20
1.2544
 30
5.7484
 70
32
 0
VERTEX
 8
5
 10
0.7112
 20
1.2634
 30
5.7484
 70
32
 0
VERTEX
 8
5
 10
0.6847
 20
1.2699
 30
5.7484
 70
32
 0
VERTEX
 8
5
 10
0.6483
 20
1.275
 30
5.7484
 70
32
 0
VERTEX
 8
5
 10
0.6106
 20
1.2765
 30
5.7484
 70
32
 0
VERTEX
 8
5
 10
0.5615
 20
1.2738
 30
5.7484
 70
32
 0
VERTEX
 8
5
 10
0.4441
 20
1.2542
 30
5.7484
 70
32
 0
VERTEX
 8
5
 10
0.312
 20
1.2229
 30
5.7484
 70
32
 0
VERTEX
 8
5
 10
0.312
 20
2.2343
 30
5.7484
 70
32
 0
VERTEX
 8
5
 10
1.0918
 20
2.2343
 30
5.7484
 70
32
 0
VERTEX
 8
5
 10
1.0918
 20
2.0027
 30
5.7484
 70
32
 0
VERTEX
 8
5
 10
0.4826
 20
2.0027
 30
5.7484
 70
32
 0
VERTEX
 8
5
 10
0.4826
 20
1.491
 30
5.7484
 70
32
 0
VERTEX
 8
5
 10
0.5673
 20
1.5069
 30
5.7484
 70
32
 0
VERTEX
 8
5
 10
0.6455
 20
1.5108
 30
5.7484
 70
32
 0
VERTEX
 8
5
 10
0.7175
 20
1.5035
 30
5.7484
 70
32
 0
VERTEX
 8
5
 10
0.7832
 20
1.4858
 30
5.7484
 70
32
 0
VERTEX
 8
5
 10
0.8427
 20
1.4586
 30
5.7484
 70
32
 0
VERTEX
 8
5
 10
0.8961
 20
1.4228
 30
5.7484
 70
32
 0
VERTEX
 8
5
 10
0.9434
 20
1.3792
 30
5.7484
 70
32
 0
VERTEX
 8
5
 10
0.9848
 20
1.3288
 30
5.7484
 70
32
 0
VERTEX
 8
5
 10
1.0202
 20
1.2724
 30
5.7484
 70
32
 0
VERTEX
 8
5
 10
1.0498
 20
1.2108
 30
5.7484
 70
32
 0
VERTEX
 8
5
 10
1.0736
 20
1.145
 30
5.7484
 70
32
 0
VERTEX
 8
5
 10
1.0916
 20
1.0757
 30
5.7484
 70
32
 0
VERTEX
 8
5
 10
1.1082
 20
0.9673
 30
5.7484
 70
32
 0
VERTEX
 8
5
 10
1.1122
 20
0.8562
 30
5.7484
 70
32
 0
VERTEX
 8
5
 10
1.1039
 20
0.7452
 30
5.7484
 70
32
 0
VERTEX
 8
5
 10
1.0836
 20
0.6373
 30
5.7484
 70
32
 0
VERTEX
 8
5
 10
1.0514
 20
0.5353
 30
5.7484
 70
32
 0
VERTEX
 8
5
 10
1.0235
 20
0.4722
 30
5.7484
 70
32
 0
VERTEX
 8
5
 10
0.9906
 20
0.4139
 30
5.7484
 70
32
 0
VERTEX
 8
5
 10
0.9525
 20
0.3612
 30
5.7484
 70
32
 0
VERTEX
 8
5
 10
0.9096
 20
0.3152
 30
5.7484
 70
32
 0
VERTEX
 8
5
 10
0.8862
 20
0.2949
 30
5.7484
 70
32
 0
VERTEX
 8
5
 10
0.836
 20
0.2603
 30
5.7484
 70
32
 0
VERTEX
 8
5
 10
0.8055
 20
0.245
 30
5.7484
 70
32
 0
VERTEX
 8
5
 10
0.7732
 20
0.2327
 30
5.7484
 70
32
 0
VERTEX
 8
5
 10
0.7393
 20
0.2233
 30
5.7484
 70
32
 0
VERTEX
 8
5
 10
0.692
 20
0.2152
 30
5.7484
 70
32
 0
VERTEX
 8
5
 10
0.643
 20
0.2118
 30
5.7484
 70
32
 0
VERTEX
 8
5
 10
0.5802
 20
0.2137
 30
5.7484
 70
32
 0
VERTEX
 8
5
 10
0.5168
 20
0.2217
 30
5.7484
 70
32
 0
VERTEX
 8
5
 10
0.4416
 20
0.2387
 30
5.7484
 70
32
 0
VERTEX
 8
5
 10
0.3693
 20
0.2627
 30
5.7484
 70
32
 0
VERTEX
 8
5
 10
0.3127
 20
0.2873
 30
5.7484
 70
32
 0
SEQEND
 0
ENDSEC
 0
EOF
