 0
SECTION
 2
HEADER
 9
$ACADVER
 1
AC1009
 0
ENDSEC
 0
SECTION
 2
TABLES
 0
TABLE
 2
LTYPE
 70
1
 0
LTYPE
 2
CONTINUOUS
 70
64
 3
solid line
 72
65
 73
0
 40
0.0
 0
ENDTAB
 0
TABLE
 2
LAYER
 70
6
 0
LAYER
 2
0
 70
0
 62
7
 6
CONTINUOUS
 0
LAYER
 2
NUMBERS
 70
64
 62
7
 6
CONTINUOUS
 0
LAYER
 2
6
 70
64
 62
7
 6
CONTINUOUS
 0
ENDTAB
 0
ENDSEC
 0
SECTION
 2
BLOCKS
 0
ENDSEC
 0
SECTION
 2
ENTITIES
 0
POLYLINE
 8
6
 66
1
 10
0.0
 20
0.0
 30
0.0
 70
9
 0
VERTEX
 8
6
 10
0.9815
 20
2.1463
 30
5.7484
 70
32
 0
VERTEX
 8
6
 10
0.9815
 20
1.8782
 30
5.7484
 70
32
 0
VERTEX
 8
6
 10
0.9351
 20
1.9002
 30
5.7484
 70
32
 0
VERTEX
 8
6
 10
0.8904
 20
1.9164
 30
5.7484
 70
32
 0
VERTEX
 8
6
 10
0.8475
 20
1.9271
 30
5.7484
 70
32
 0
VERTEX
 8
6
 10
0.8064
 20
1.9324
 30
5.7484
 70
32
 0
VERTEX
 8
6
 10
0.7669
 20
1.9327
 30
5.7484
 70
32
 0
VERTEX
 8
6
 10
0.7293
 20
1.9283
 30
5.7484
 70
32
 0
VERTEX
 8
6
 10
0.6934
 20
1.9194
 30
5.7484
 70
32
 0
VERTEX
 8
6
 10
0.6593
 20
1.9062
 30
5.7484
 70
32
 0
VERTEX
 8
6
 10
0.627
 20
1.8891
 30
5.7484
 70
32
 0
VERTEX
 8
6
 10
0.5965
 20
1.8682
 30
5.7484
 70
32
 0
VERTEX
 8
6
 10
0.5678
 20
1.844
 30
5.7484
 70
32
 0
VERTEX
 8
6
 10
0.5409
 20
1.8165
 30
5.7484
 70
32
 0
VERTEX
 8
6
 10
0.5039
 20
1.7701
 30
5.7484
 70
32
 0
VERTEX
 8
6
 10
0.4711
 20
1.718
 30
5.7484
 70
32
 0
VERTEX
 8
6
 10
0.4425
 20
1.6611
 30
5.7484
 70
32
 0
VERTEX
 8
6
 10
0.4108
 20
1.5796
 30
5.7484
 70
32
 0
VERTEX
 8
6
 10
0.3866
 20
1.4934
 30
5.7484
 70
32
 0
VERTEX
 8
6
 10
0.37
 20
1.4046
 30
5.7484
 70
32
 0
VERTEX
 8
6
 10
0.36
 20
1.2933
 30
5.7484
 70
32
 0
VERTEX
 8
6
 10
0.4301
 20
1.3371
 30
5.7484
 70
32
 0
VERTEX
 8
6
 10
0.4908
 20
1.3677
 30
5.7484
 70
32
 0
VERTEX
 8
6
 10
0.549
 20
1.3907
 30
5.7484
 70
32
 0
VERTEX
 8
6
 10
0.6009
 20
1.4057
 30
5.7484
 70
32
 0
VERTEX
 8
6
 10
0.6441
 20
1.414
 30
5.7484
 70
32
 0
VERTEX
 8
6
 10
0.6884
 20
1.4183
 30
5.7484
 70
32
 0
VERTEX
 8
6
 10
0.7335
 20
1.4177
 30
5.7484
 70
32
 0
VERTEX
 8
6
 10
0.7677
 20
1.4138
 30
5.7484
 70
32
 0
VERTEX
 8
6
 10
0.8019
 20
1.4064
 30
5.7484
 70
32
 0
VERTEX
 8
6
 10
0.8247
 20
1.3995
 30
5.7484
 70
32
 0
VERTEX
 8
6
 10
0.8474
 20
1.3908
 30
5.7484
 70
32
 0
VERTEX
 8
6
 10
0.8714
 20
1.3794
 30
5.7484
 70
32
 0
VERTEX
 8
6
 10
0.916
 20
1.3507
 30
5.7484
 70
32
 0
VERTEX
 8
6
 10
0.956
 20
1.3147
 30
5.7484
 70
32
 0
VERTEX
 8
6
 10
0.9915
 20
1.272
 30
5.7484
 70
32
 0
VERTEX
 8
6
 10
1.0226
 20
1.2235
 30
5.7484
 70
32
 0
VERTEX
 8
6
 10
1.0492
 20
1.1697
 30
5.7484
 70
32
 0
VERTEX
 8
6
 10
1.0714
 20
1.1115
 30
5.7484
 70
32
 0
VERTEX
 8
6
 10
1.0964
 20
1.0174
 30
5.7484
 70
32
 0
VERTEX
 8
6
 10
1.1116
 20
0.9172
 30
5.7484
 70
32
 0
VERTEX
 8
6
 10
1.117
 20
0.8135
 30
5.7484
 70
32
 0
VERTEX
 8
6
 10
1.1128
 20
0.7086
 30
5.7484
 70
32
 0
VERTEX
 8
6
 10
1.0991
 20
0.6048
 30
5.7484
 70
32
 0
VERTEX
 8
6
 10
1.0758
 20
0.5048
 30
5.7484
 70
32
 0
VERTEX
 8
6
 10
1.0431
 20
0.4107
 30
5.7484
 70
32
 0
VERTEX
 8
6
 10
1.0011
 20
0.3252
 30
5.7484
 70
32
 0
VERTEX
 8
6
 10
0.968
 20
0.2741
 30
5.7484
 70
32
 0
VERTEX
 8
6
 10
0.9308
 20
0.2285
 30
5.7484
 70
32
 0
VERTEX
 8
6
 10
0.8895
 20
0.1892
 30
5.7484
 70
32
 0
VERTEX
 8
6
 10
0.8442
 20
0.1569
 30
5.7484
 70
32
 0
VERTEX
 8
6
 10
0.7948
 20
0.1323
 30
5.7484
 70
32
 0
VERTEX
 8
6
 10
0.7687
 20
0.1231
 30
5.7484
 70
32
 0
VERTEX
 8
6
 10
0.7134
 20
0.1114
 30
5.7484
 70
32
 0
VERTEX
 8
6
 10
0.6787
 20
0.1089
 30
5.7484
 70
32
 0
VERTEX
 8
6
 10
0.6438
 20
0.1096
 30
5.7484
 70
32
 0
VERTEX
 8
6
 10
0.6023
 20
0.1142
 30
5.7484
 70
32
 0
VERTEX
 8
6
 10
0.5618
 20
0.1227
 30
5.7484
 70
32
 0
VERTEX
 8
6
 10
0.5169
 20
0.1365
 30
5.7484
 70
32
 0
VERTEX
 8
6
 10
0.4813
 20
0.1513
 30
5.7484
 70
32
 0
VERTEX
 8
6
 10
0.4491
 20
0.1683
 30
5.7484
 70
32
 0
VERTEX
 8
6
 10
0.4299
 20
0.1806
 30
5.7484
 70
32
 0
VERTEX
 8
6
 10
0.4088
 20
0.1967
 30
5.7484
 70
32
 0
VERTEX
 8
6
 10
0.3839
 20
0.2203
 30
5.7484
 70
32
 0
VERTEX
 8
6
 10
0.3378
 20
0.2774
 30
5.7484
 70
32
 0
VERTEX
 8
6
 10
0.2967
 20
0.3469
 30
5.7484
 70
32
 0
VERTEX
 8
6
 10
0.2607
 20
0.4272
 30
5.7484
 70
32
 0
VERTEX
 8
6
 10
0.2168
 20
0.5651
 30
5.7484
 70
32
 0
VERTEX
 8
6
 10
0.1851
 20
0.7197
 30
5.7484
 70
32
 0
VERTEX
 8
6
 10
0.1629
 20
0.9435
 30
5.7484
 70
32
 0
VERTEX
 8
6
 10
0.1643
 20
1.1774
 30
5.7484
 70
32
 0
VERTEX
 8
6
 10
0.1906
 20
1.4102
 30
5.7484
 70
32
 0
VERTEX
 8
6
 10
0.2272
 20
1.5775
 30
5.7484
 70
32
 0
VERTEX
 8
6
 10
0.2788
 20
1.7331
 30
5.7484
 70
32
 0
VERTEX
 8
6
 10
0.3217
 20
1.8281
 30
5.7484
 70
32
 0
VERTEX
 8
6
 10
0.3716
 20
1.9145
 30
5.7484
 70
32
 0
VERTEX
 8
6
 10
0.4286
 20
1.9908
 30
5.7484
 70
32
 0
VERTEX
 8
6
 10
0.4928
 20
2.0557
 30
5.7484
 70
32
 0
VERTEX
 8
6
 10
0.5645
 20
2.1078
 30
5.7484
 70
32
 0
VERTEX
 8
6
 10
0.6031
 20
2.1286
 30
5.7484
 70
32
 0
VERTEX
 8
6
 10
0.6436
 20
2.1457
 30
5.7484
 70
32
 0
VERTEX
 8
6
 10
0.686
 20
2.1589
 30
5.7484
 70
32
 0
VERTEX
 8
6
 10
0.7303
 20
2.168
 30
5.7484
 70
32
 0
VERTEX
 8
6
 10
0.7766
 20
2.1728
 30
5.7484
 70
32
 0
VERTEX
 8
6
 10
0.8248
 20
2.1733
 30
5.7484
 70
32
 0
VERTEX
 8
6
 10
0.875
 20
2.1691
 30
5.7484
 70
32
 0
SEQEND
 0
POLYLINE
 8
6
 66
1
 10
0.0
 20
0.0
 30
0.0
 70
9
 0
VERTEX
 8
6
 10
0.36
 20
1.0862
 30
5.7484
 70
32
 0
VERTEX
 8
6
 10
0.396
 20
1.1147
 30
5.7484
 70
32
 0
VERTEX
 8
6
 10
0.4346
 20
1.1397
 30
5.7484
 70
32
 0
VERTEX
 8
6
 10
0.4754
 20
1.1609
 30
5.7484
 70
32
 0
VERTEX
 8
6
 10
0.5178
 20
1.1778
 30
5.7484
 70
32
 0
VERTEX
 8
6
 10
0.5613
 20
1.1901
 30
5.7484
 70
32
 0
VERTEX
 8
6
 10
0.5964
 20
1.1965
 30
5.7484
 70
32
 0
VERTEX
 8
6
 10
0.6315
 20
1.1995
 30
5.7484
 70
32
 0
VERTEX
 8
6
 10
0.6664
 20
1.1991
 30
5.7484
 70
32
 0
VERTEX
 8
6
 10
0.7007
 20
1.195
 30
5.7484
 70
32
 0
VERTEX
 8
6
 10
0.7259
 20
1.1894
 30
5.7484
 70
32
 0
VERTEX
 8
6
 10
0.7505
 20
1.1816
 30
5.7484
 70
32
 0
VERTEX
 8
6
 10
0.7743
 20
1.1715
 30
5.7484
 70
32
 0
VERTEX
 8
6
 10
0.7908
 20
1.1626
 30
5.7484
 70
32
 0
VERTEX
 8
6
 10
0.8212
 20
1.1408
 30
5.7484
 70
32
 0
VERTEX
 8
6
 10
0.8482
 20
1.1139
 30
5.7484
 70
32
 0
VERTEX
 8
6
 10
0.8718
 20
1.0824
 30
5.7484
 70
32
 0
VERTEX
 8
6
 10
0.8922
 20
1.047
 30
5.7484
 70
32
 0
VERTEX
 8
6
 10
0.9092
 20
1.0082
 30
5.7484
 70
32
 0
VERTEX
 8
6
 10
0.923
 20
0.9664
 30
5.7484
 70
32
 0
VERTEX
 8
6
 10
0.9377
 20
0.8995
 30
5.7484
 70
32
 0
VERTEX
 8
6
 10
0.9452
 20
0.829
 30
5.7484
 70
32
 0
VERTEX
 8
6
 10
0.9456
 20
0.7568
 30
5.7484
 70
32
 0
VERTEX
 8
6
 10
0.9391
 20
0.6847
 30
5.7484
 70
32
 0
VERTEX
 8
6
 10
0.9258
 20
0.6146
 30
5.7484
 70
32
 0
VERTEX
 8
6
 10
0.9056
 20
0.5481
 30
5.7484
 70
32
 0
VERTEX
 8
6
 10
0.8789
 20
0.4872
 30
5.7484
 70
32
 0
VERTEX
 8
6
 10
0.8574
 20
0.4506
 30
5.7484
 70
32
 0
VERTEX
 8
6
 10
0.8331
 20
0.4178
 30
5.7484
 70
32
 0
VERTEX
 8
6
 10
0.8058
 20
0.3893
 30
5.7484
 70
32
 0
VERTEX
 8
6
 10
0.7758
 20
0.3657
 30
5.7484
 70
32
 0
VERTEX
 8
6
 10
0.743
 20
0.3475
 30
5.7484
 70
32
 0
VERTEX
 8
6
 10
0.7255
 20
0.3406
 30
5.7484
 70
32
 0
VERTEX
 8
6
 10
0.7074
 20
0.3352
 30
5.7484
 70
32
 0
VERTEX
 8
6
 10
0.6886
 20
0.3315
 30
5.7484
 70
32
 0
VERTEX
 8
6
 10
0.6691
 20
0.3295
 30
5.7484
 70
32
 0
VERTEX
 8
6
 10
0.6489
 20
0.3292
 30
5.7484
 70
32
 0
VERTEX
 8
6
 10
0.6281
 20
0.3308
 30
5.7484
 70
32
 0
VERTEX
 8
6
 10
0.5973
 20
0.3362
 30
5.7484
 70
32
 0
VERTEX
 8
6
 10
0.5691
 20
0.345
 30
5.7484
 70
32
 0
VERTEX
 8
6
 10
0.5431
 20
0.357
 30
5.7484
 70
32
 0
VERTEX
 8
6
 10
0.5195
 20
0.372
 30
5.7484
 70
32
 0
VERTEX
 8
6
 10
0.4979
 20
0.3898
 30
5.7484
 70
32
 0
VERTEX
 8
6
 10
0.4785
 20
0.4103
 30
5.7484
 70
32
 0
VERTEX
 8
6
 10
0.4609
 20
0.4333
 30
5.7484
 70
32
 0
VERTEX
 8
6
 10
0.4452
 20
0.4586
 30
5.7484
 70
32
 0
VERTEX
 8
6
 10
0.4249
 20
0.5006
 30
5.7484
 70
32
 0
VERTEX
 8
6
 10
0.4082
 20
0.5469
 30
5.7484
 70
32
 0
VERTEX
 8
6
 10
0.3908
 20
0.6145
 30
5.7484
 70
32
 0
VERTEX
 8
6
 10
0.3736
 20
0.7254
 30
5.7484
 70
32
 0
VERTEX
 8
6
 10
0.3623
 20
0.9048
 30
5.7484
 70
32
 0
SEQEND
 0
POLYLINE
 8
6
 66
1
 10
0.0
 20
0.0
 30
0.0
 70
9
 0
VERTEX
 8
6
 10
0.6281
 20
0.3308
 30
5.7484
 70
32
 0
VERTEX
 8
6
 10
0.6691
 20
0.3295
 30
5.7484
 70
32
 0
VERTEX
 8
6
 10
0.6886
 20
0.3315
 30
5.7484
 70
32
 0
VERTEX
 8
6
 10
0.7074
 20
0.3352
 30
5.7484
 70
32
 0
VERTEX
 8
6
 10
0.7255
 20
0.3406
 30
5.7484
 70
32
 0
VERTEX
 8
6
 10
0.743
 20
0.3475
 30
5.7484
 70
32
 0
VERTEX
 8
6
 10
0.7758
 20
0.3657
 30
5.7484
 70
32
 0
VERTEX
 8
6
 10
0.8058
 20
0.3893
 30
5.7484
 70
32
 0
VERTEX
 8
6
 10
0.8331
 20
0.4178
 30
5.7484
 70
32
 0
VERTEX
 8
6
 10
0.8574
 20
0.4506
 30
5.7484
 70
32
 0
VERTEX
 8
6
 10
0.8789
 20
0.4872
 30
5.7484
 70
32
 0
VERTEX
 8
6
 10
0.8975
 20
0.5271
 30
5.7484
 70
32
 0
VERTEX
 8
6
 10
0.9198
 20
0.5919
 30
5.7484
 70
32
 0
VERTEX
 8
6
 10
0.9354
 20
0.6611
 30
5.7484
 70
32
 0
VERTEX
 8
6
 10
0.9442
 20
0.7327
 30
5.7484
 70
32
 0
VERTEX
 8
6
 10
0.9461
 20
0.805
 30
5.7484
 70
32
 0
VERTEX
 8
6
 10
0.941
 20
0.8763
 30
5.7484
 70
32
 0
VERTEX
 8
6
 10
0.9287
 20
0.9446
 30
5.7484
 70
32
 0
VERTEX
 8
6
 10
0.9092
 20
1.0082
 30
5.7484
 70
32
 0
VERTEX
 8
6
 10
0.8922
 20
1.047
 30
5.7484
 70
32
 0
VERTEX
 8
6
 10
0.8718
 20
1.0824
 30
5.7484
 70
32
 0
VERTEX
 8
6
 10
0.8482
 20
1.1139
 30
5.7484
 70
32
 0
VERTEX
 8
6
 10
0.8212
 20
1.1408
 30
5.7484
 70
32
 0
VERTEX
 8
6
 10
0.8064
 20
1.1524
 30
5.7484
 70
32
 0
VERTEX
 8
6
 10
0.7743
 20
1.1715
 30
5.7484
 70
32
 0
VERTEX
 8
6
 10
0.7505
 20
1.1816
 30
5.7484
 70
32
 0
VERTEX
 8
6
 10
0.7259
 20
1.1894
 30
5.7484
 70
32
 0
VERTEX
 8
6
 10
0.7007
 20
1.195
 30
5.7484
 70
32
 0
VERTEX
 8
6
 10
0.6664
 20
1.1991
 30
5.7484
 70
32
 0
VERTEX
 8
6
 10
0.6315
 20
1.1995
 30
5.7484
 70
32
 0
VERTEX
 8
6
 10
0.5964
 20
1.1965
 30
5.7484
 70
32
 0
VERTEX
 8
6
 10
0.5613
 20
1.1901
 30
5.7484
 70
32
 0
VERTEX
 8
6
 10
0.5178
 20
1.1778
 30
5.7484
 70
32
 0
VERTEX
 8
6
 10
0.4754
 20
1.1609
 30
5.7484
 70
32
 0
VERTEX
 8
6
 10
0.4346
 20
1.1397
 30
5.7484
 70
32
 0
VERTEX
 8
6
 10
0.396
 20
1.1147
 30
5.7484
 70
32
 0
VERTEX
 8
6
 10
0.36
 20
1.0862
 30
5.7484
 70
32
 0
VERTEX
 8
6
 10
0.3716
 20
0.7448
 30
5.7484
 70
32
 0
VERTEX
 8
6
 10
0.3872
 20
0.6322
 30
5.7484
 70
32
 0
VERTEX
 8
6
 10
0.4033
 20
0.5632
 30
5.7484
 70
32
 0
VERTEX
 8
6
 10
0.4249
 20
0.5006
 30
5.7484
 70
32
 0
VERTEX
 8
6
 10
0.4452
 20
0.4586
 30
5.7484
 70
32
 0
VERTEX
 8
6
 10
0.4609
 20
0.4333
 30
5.7484
 70
32
 0
VERTEX
 8
6
 10
0.4785
 20
0.4103
 30
5.7484
 70
32
 0
VERTEX
 8
6
 10
0.4979
 20
0.3898
 30
5.7484
 70
32
 0
VERTEX
 8
6
 10
0.5195
 20
0.372
 30
5.7484
 70
32
 0
VERTEX
 8
6
 10
0.5431
 20
0.357
 30
5.7484
 70
32
 0
VERTEX
 8
6
 10
0.5691
 20
0.345
 30
5.7484
 70
32
 0
VERTEX
 8
6
 10
0.5973
 20
0.3362
 30
5.7484
 70
32
 0
SEQEND
 0
ENDSEC
 0
EOF
