 0
SECTION
 2
HEADER
 9
$ACADVER
 1
AC1009
 0
ENDSEC
 0
SECTION
 2
TABLES
 0
TABLE
 2
LTYPE
 70
1
 0
LTYPE
 2
CONTINUOUS
 70
64
 3
solid line
 72
65
 73
0
 40
0.0
 0
ENDTAB
 0
TABLE
 2
LAYER
 70
6
 0
LAYER
 2
0
 70
0
 62
7
 6
CONTINUOUS
 0
LAYER
 2
NUMBERS
 70
64
 62
7
 6
CONTINUOUS
 0
LAYER
 2
6HW
 70
64
 62
7
 6
CONTINUOUS
 0
ENDTAB
 0
ENDSEC
 0
SECTION
 2
BLOCKS
 0
ENDSEC
 0
SECTION
 2
ENTITIES
 0
POLYLINE
 8
6HW
 66
1
 10
0.0
 20
0.0
 30
0.0
 70
9
 0
VERTEX
 8
6HW
 10
0.3519
 20
0.2054
 30
5.7484
 70
32
 0
VERTEX
 8
6HW
 10
0.3282
 20
0.228
 30
5.7484
 70
32
 0
VERTEX
 8
6HW
 10
0.3055
 20
0.254
 30
5.7484
 70
32
 0
VERTEX
 8
6HW
 10
0.2636
 20
0.3158
 30
5.7484
 70
32
 0
VERTEX
 8
6HW
 10
0.2263
 20
0.3894
 30
5.7484
 70
32
 0
VERTEX
 8
6HW
 10
0.1939
 20
0.4734
 30
5.7484
 70
32
 0
VERTEX
 8
6HW
 10
0.1546
 20
0.6158
 30
5.7484
 70
32
 0
VERTEX
 8
6HW
 10
0.1272
 20
0.7738
 30
5.7484
 70
32
 0
VERTEX
 8
6HW
 10
0.11
 20
1.0003
 30
5.7484
 70
32
 0
VERTEX
 8
6HW
 10
0.116
 20
1.2348
 30
5.7484
 70
32
 0
VERTEX
 8
6HW
 10
0.1468
 20
1.466
 30
5.7484
 70
32
 0
VERTEX
 8
6HW
 10
0.1869
 20
1.6304
 30
5.7484
 70
32
 0
VERTEX
 8
6HW
 10
0.2421
 20
1.782
 30
5.7484
 70
32
 0
VERTEX
 8
6HW
 10
0.2877
 20
1.8735
 30
5.7484
 70
32
 0
VERTEX
 8
6HW
 10
0.3404
 20
1.9558
 30
5.7484
 70
32
 0
VERTEX
 8
6HW
 10
0.4005
 20
2.0274
 30
5.7484
 70
32
 0
VERTEX
 8
6HW
 10
0.4681
 20
2.087
 30
5.7484
 70
32
 0
VERTEX
 8
6HW
 10
0.5048
 20
2.1118
 30
5.7484
 70
32
 0
VERTEX
 8
6HW
 10
0.5434
 20
2.1331
 30
5.7484
 70
32
 0
VERTEX
 8
6HW
 10
0.584
 20
2.1507
 30
5.7484
 70
32
 0
VERTEX
 8
6HW
 10
0.6265
 20
2.1644
 30
5.7484
 70
32
 0
VERTEX
 8
6HW
 10
0.6711
 20
2.174
 30
5.7484
 70
32
 0
VERTEX
 8
6HW
 10
0.7176
 20
2.1794
 30
5.7484
 70
32
 0
VERTEX
 8
6HW
 10
0.7663
 20
2.1804
 30
5.7484
 70
32
 0
VERTEX
 8
6HW
 10
0.8169
 20
2.1767
 30
5.7484
 70
32
 0
VERTEX
 8
6HW
 10
0.9246
 20
2.155
 30
5.7484
 70
32
 0
VERTEX
 8
6HW
 10
0.9246
 20
1.8869
 30
5.7484
 70
32
 0
VERTEX
 8
6HW
 10
0.8493
 20
1.9232
 30
5.7484
 70
32
 0
VERTEX
 8
6HW
 10
0.7791
 20
1.9437
 30
5.7484
 70
32
 0
VERTEX
 8
6HW
 10
0.7459
 20
1.9484
 30
5.7484
 70
32
 0
VERTEX
 8
6HW
 10
0.7139
 20
1.9495
 30
5.7484
 70
32
 0
VERTEX
 8
6HW
 10
0.6832
 20
1.9472
 30
5.7484
 70
32
 0
VERTEX
 8
6HW
 10
0.6538
 20
1.9416
 30
5.7484
 70
32
 0
VERTEX
 8
6HW
 10
0.6256
 20
1.9329
 30
5.7484
 70
32
 0
VERTEX
 8
6HW
 10
0.5985
 20
1.9211
 30
5.7484
 70
32
 0
VERTEX
 8
6HW
 10
0.5727
 20
1.9065
 30
5.7484
 70
32
 0
VERTEX
 8
6HW
 10
0.5481
 20
1.8891
 30
5.7484
 70
32
 0
VERTEX
 8
6HW
 10
0.5246
 20
1.8691
 30
5.7484
 70
32
 0
VERTEX
 8
6HW
 10
0.4812
 20
1.8217
 30
5.7484
 70
32
 0
VERTEX
 8
6HW
 10
0.4424
 20
1.7654
 30
5.7484
 70
32
 0
VERTEX
 8
6HW
 10
0.4081
 20
1.7013
 30
5.7484
 70
32
 0
VERTEX
 8
6HW
 10
0.3649
 20
1.5926
 30
5.7484
 70
32
 0
VERTEX
 8
6HW
 10
0.3314
 20
1.4721
 30
5.7484
 70
32
 0
VERTEX
 8
6HW
 10
0.3012
 20
1.2992
 30
5.7484
 70
32
 0
VERTEX
 8
6HW
 10
0.287
 20
1.1202
 30
5.7484
 70
32
 0
VERTEX
 8
6HW
 10
0.2906
 20
0.9005
 30
5.7484
 70
32
 0
VERTEX
 8
6HW
 10
0.3097
 20
0.7382
 30
5.7484
 70
32
 0
VERTEX
 8
6HW
 10
0.3331
 20
0.63
 30
5.7484
 70
32
 0
VERTEX
 8
6HW
 10
0.3529
 20
0.5662
 30
5.7484
 70
32
 0
VERTEX
 8
6HW
 10
0.3885
 20
0.4857
 30
5.7484
 70
32
 0
VERTEX
 8
6HW
 10
0.4049
 20
0.4591
 30
5.7484
 70
32
 0
VERTEX
 8
6HW
 10
0.4235
 20
0.4341
 30
5.7484
 70
32
 0
VERTEX
 8
6HW
 10
0.4441
 20
0.4111
 30
5.7484
 70
32
 0
VERTEX
 8
6HW
 10
0.4662
 20
0.3904
 30
5.7484
 70
32
 0
VERTEX
 8
6HW
 10
0.4896
 20
0.3726
 30
5.7484
 70
32
 0
VERTEX
 8
6HW
 10
0.5097
 20
0.3603
 30
5.7484
 70
32
 0
VERTEX
 8
6HW
 10
0.5301
 20
0.3505
 30
5.7484
 70
32
 0
VERTEX
 8
6HW
 10
0.5466
 20
0.3446
 30
5.7484
 70
32
 0
VERTEX
 8
6HW
 10
0.559
 20
0.3415
 30
5.7484
 70
32
 0
VERTEX
 8
6HW
 10
0.5713
 20
0.3395
 30
5.7484
 70
32
 0
VERTEX
 8
6HW
 10
0.5945
 20
0.3377
 30
5.7484
 70
32
 0
VERTEX
 8
6HW
 10
0.6169
 20
0.3381
 30
5.7484
 70
32
 0
VERTEX
 8
6HW
 10
0.6383
 20
0.3405
 30
5.7484
 70
32
 0
VERTEX
 8
6HW
 10
0.6588
 20
0.3448
 30
5.7484
 70
32
 0
VERTEX
 8
6HW
 10
0.6784
 20
0.3509
 30
5.7484
 70
32
 0
VERTEX
 8
6HW
 10
0.697
 20
0.3588
 30
5.7484
 70
32
 0
VERTEX
 8
6HW
 10
0.7147
 20
0.3683
 30
5.7484
 70
32
 0
VERTEX
 8
6HW
 10
0.7315
 20
0.3795
 30
5.7484
 70
32
 0
VERTEX
 8
6HW
 10
0.7624
 20
0.4062
 30
5.7484
 70
32
 0
VERTEX
 8
6HW
 10
0.7897
 20
0.4383
 30
5.7484
 70
32
 0
VERTEX
 8
6HW
 10
0.8133
 20
0.4752
 30
5.7484
 70
32
 0
VERTEX
 8
6HW
 10
0.8334
 20
0.5161
 30
5.7484
 70
32
 0
VERTEX
 8
6HW
 10
0.8499
 20
0.5605
 30
5.7484
 70
32
 0
VERTEX
 8
6HW
 10
0.8679
 20
0.6321
 30
5.7484
 70
32
 0
VERTEX
 8
6HW
 10
0.8781
 20
0.7077
 30
5.7484
 70
32
 0
VERTEX
 8
6HW
 10
0.8803
 20
0.7852
 30
5.7484
 70
32
 0
VERTEX
 8
6HW
 10
0.8748
 20
0.8623
 30
5.7484
 70
32
 0
VERTEX
 8
6HW
 10
0.8616
 20
0.9368
 30
5.7484
 70
32
 0
VERTEX
 8
6HW
 10
0.8408
 20
1.0066
 30
5.7484
 70
32
 0
VERTEX
 8
6HW
 10
0.8227
 20
1.0494
 30
5.7484
 70
32
 0
VERTEX
 8
6HW
 10
0.8012
 20
1.0884
 30
5.7484
 70
32
 0
VERTEX
 8
6HW
 10
0.7764
 20
1.1231
 30
5.7484
 70
32
 0
VERTEX
 8
6HW
 10
0.7483
 20
1.1527
 30
5.7484
 70
32
 0
VERTEX
 8
6HW
 10
0.7169
 20
1.1765
 30
5.7484
 70
32
 0
VERTEX
 8
6HW
 10
0.7
 20
1.1861
 30
5.7484
 70
32
 0
VERTEX
 8
6HW
 10
0.6823
 20
1.1941
 30
5.7484
 70
32
 0
VERTEX
 8
6HW
 10
0.6637
 20
1.2002
 30
5.7484
 70
32
 0
VERTEX
 8
6HW
 10
0.6444
 20
1.2046
 30
5.7484
 70
32
 0
VERTEX
 8
6HW
 10
0.6149
 20
1.2082
 30
5.7484
 70
32
 0
VERTEX
 8
6HW
 10
0.5859
 20
1.2089
 30
5.7484
 70
32
 0
VERTEX
 8
6HW
 10
0.5504
 20
1.2063
 30
5.7484
 70
32
 0
VERTEX
 8
6HW
 10
0.5157
 20
1.2003
 30
5.7484
 70
32
 0
VERTEX
 8
6HW
 10
0.4752
 20
1.1894
 30
5.7484
 70
32
 0
VERTEX
 8
6HW
 10
0.3919
 20
1.1565
 30
5.7484
 70
32
 0
VERTEX
 8
6HW
 10
0.3154
 20
1.1193
 30
5.7484
 70
32
 0
VERTEX
 8
6HW
 10
0.3154
 20
1.302
 30
5.7484
 70
32
 0
VERTEX
 8
6HW
 10
0.3466
 20
1.3278
 30
5.7484
 70
32
 0
VERTEX
 8
6HW
 10
0.3805
 20
1.3509
 30
5.7484
 70
32
 0
VERTEX
 8
6HW
 10
0.4261
 20
1.3757
 30
5.7484
 70
32
 0
VERTEX
 8
6HW
 10
0.4743
 20
1.396
 30
5.7484
 70
32
 0
VERTEX
 8
6HW
 10
0.5244
 20
1.4113
 30
5.7484
 70
32
 0
VERTEX
 8
6HW
 10
0.5755
 20
1.4216
 30
5.7484
 70
32
 0
VERTEX
 8
6HW
 10
0.6268
 20
1.4264
 30
5.7484
 70
32
 0
VERTEX
 8
6HW
 10
0.6673
 20
1.4263
 30
5.7484
 70
32
 0
VERTEX
 8
6HW
 10
0.707
 20
1.4224
 30
5.7484
 70
32
 0
VERTEX
 8
6HW
 10
0.7453
 20
1.4147
 30
5.7484
 70
32
 0
VERTEX
 8
6HW
 10
0.7638
 20
1.4094
 30
5.7484
 70
32
 0
VERTEX
 8
6HW
 10
0.7906
 20
1.3995
 30
5.7484
 70
32
 0
VERTEX
 8
6HW
 10
0.8378
 20
1.3749
 30
5.7484
 70
32
 0
VERTEX
 8
6HW
 10
0.8802
 20
1.3432
 30
5.7484
 70
32
 0
VERTEX
 8
6HW
 10
0.9181
 20
1.305
 30
5.7484
 70
32
 0
VERTEX
 8
6HW
 10
0.9515
 20
1.2611
 30
5.7484
 70
32
 0
VERTEX
 8
6HW
 10
0.9803
 20
1.212
 30
5.7484
 70
32
 0
VERTEX
 8
6HW
 10
1.0047
 20
1.1583
 30
5.7484
 70
32
 0
VERTEX
 8
6HW
 10
1.0331
 20
1.0708
 30
5.7484
 70
32
 0
VERTEX
 8
6HW
 10
1.0519
 20
0.9767
 30
5.7484
 70
32
 0
VERTEX
 8
6HW
 10
1.0612
 20
0.8782
 30
5.7484
 70
32
 0
VERTEX
 8
6HW
 10
1.0613
 20
0.7775
 30
5.7484
 70
32
 0
VERTEX
 8
6HW
 10
1.0524
 20
0.6766
 30
5.7484
 70
32
 0
VERTEX
 8
6HW
 10
1.0346
 20
0.5779
 30
5.7484
 70
32
 0
VERTEX
 8
6HW
 10
1.0082
 20
0.4834
 30
5.7484
 70
32
 0
VERTEX
 8
6HW
 10
0.9734
 20
0.3953
 30
5.7484
 70
32
 0
VERTEX
 8
6HW
 10
0.9303
 20
0.3157
 30
5.7484
 70
32
 0
VERTEX
 8
6HW
 10
0.8971
 20
0.2685
 30
5.7484
 70
32
 0
VERTEX
 8
6HW
 10
0.8604
 20
0.2267
 30
5.7484
 70
32
 0
VERTEX
 8
6HW
 10
0.8203
 20
0.191
 30
5.7484
 70
32
 0
VERTEX
 8
6HW
 10
0.7768
 20
0.162
 30
5.7484
 70
32
 0
VERTEX
 8
6HW
 10
0.7538
 20
0.1501
 30
5.7484
 70
32
 0
VERTEX
 8
6HW
 10
0.7053
 20
0.1323
 30
5.7484
 70
32
 0
VERTEX
 8
6HW
 10
0.6761
 20
0.1258
 30
5.7484
 70
32
 0
VERTEX
 8
6HW
 10
0.6383
 20
0.1213
 30
5.7484
 70
32
 0
VERTEX
 8
6HW
 10
0.5994
 20
0.1206
 30
5.7484
 70
32
 0
VERTEX
 8
6HW
 10
0.5603
 20
0.1234
 30
5.7484
 70
32
 0
VERTEX
 8
6HW
 10
0.5139
 20
0.1311
 30
5.7484
 70
32
 0
VERTEX
 8
6HW
 10
0.4692
 20
0.1432
 30
5.7484
 70
32
 0
VERTEX
 8
6HW
 10
0.4274
 20
0.1592
 30
5.7484
 70
32
 0
VERTEX
 8
6HW
 10
0.3955
 20
0.1753
 30
5.7484
 70
32
 0
VERTEX
 8
6HW
 10
0.3724
 20
0.1897
 30
5.7484
 70
32
 0
SEQEND
 0
ENDSEC
 0
EOF
