 0
SECTION
 2
HEADER
 9
$ACADVER
 1
AC1009
 0
ENDSEC
 0
SECTION
 2
TABLES
 0
TABLE
 2
LTYPE
 70
1
 0
LTYPE
 2
CONTINUOUS
 70
64
 3
solid line
 72
65
 73
0
 40
0.0
 0
ENDTAB
 0
TABLE
 2
LAYER
 70
6
 0
LAYER
 2
0
 70
0
 62
7
 6
CONTINUOUS
 0
LAYER
 2
NUMBERS
 70
64
 62
7
 6
CONTINUOUS
 0
LAYER
 2
8
 70
64
 62
7
 6
CONTINUOUS
 0
ENDTAB
 0
ENDSEC
 0
SECTION
 2
BLOCKS
 0
ENDSEC
 0
SECTION
 2
ENTITIES
 0
POLYLINE
 8
8
 66
1
 10
0.0
 20
0.0
 30
0.0
 70
9
 0
VERTEX
 8
8
 10
0.8317
 20
1.2526
 30
5.7484
 70
32
 0
VERTEX
 8
8
 10
0.8652
 20
1.2356
 30
5.7484
 70
32
 0
VERTEX
 8
8
 10
0.8962
 20
1.2148
 30
5.7484
 70
32
 0
VERTEX
 8
8
 10
0.9247
 20
1.1904
 30
5.7484
 70
32
 0
VERTEX
 8
8
 10
0.9508
 20
1.1628
 30
5.7484
 70
32
 0
VERTEX
 8
8
 10
0.9744
 20
1.1321
 30
5.7484
 70
32
 0
VERTEX
 8
8
 10
1.0053
 20
1.081
 30
5.7484
 70
32
 0
VERTEX
 8
8
 10
1.0307
 20
1.0249
 30
5.7484
 70
32
 0
VERTEX
 8
8
 10
1.0509
 20
0.9645
 30
5.7484
 70
32
 0
VERTEX
 8
8
 10
1.0696
 20
0.8791
 30
5.7484
 70
32
 0
VERTEX
 8
8
 10
1.0792
 20
0.7902
 30
5.7484
 70
32
 0
VERTEX
 8
8
 10
1.0799
 20
0.7002
 30
5.7484
 70
32
 0
VERTEX
 8
8
 10
1.0717
 20
0.6113
 30
5.7484
 70
32
 0
VERTEX
 8
8
 10
1.0549
 20
0.5257
 30
5.7484
 70
32
 0
VERTEX
 8
8
 10
1.0368
 20
0.4652
 30
5.7484
 70
32
 0
VERTEX
 8
8
 10
1.0139
 20
0.4087
 30
5.7484
 70
32
 0
VERTEX
 8
8
 10
0.9962
 20
0.3739
 30
5.7484
 70
32
 0
VERTEX
 8
8
 10
0.9657
 20
0.3265
 30
5.7484
 70
32
 0
VERTEX
 8
8
 10
0.939
 20
0.2943
 30
5.7484
 70
32
 0
VERTEX
 8
8
 10
0.9092
 20
0.2653
 30
5.7484
 70
32
 0
VERTEX
 8
8
 10
0.8767
 20
0.2395
 30
5.7484
 70
32
 0
VERTEX
 8
8
 10
0.8417
 20
0.217
 30
5.7484
 70
32
 0
VERTEX
 8
8
 10
0.8047
 20
0.1979
 30
5.7484
 70
32
 0
VERTEX
 8
8
 10
0.7661
 20
0.1822
 30
5.7484
 70
32
 0
VERTEX
 8
8
 10
0.7261
 20
0.1699
 30
5.7484
 70
32
 0
VERTEX
 8
8
 10
0.6714
 20
0.1591
 30
5.7484
 70
32
 0
VERTEX
 8
8
 10
0.6159
 20
0.1546
 30
5.7484
 70
32
 0
VERTEX
 8
8
 10
0.5742
 20
0.1555
 30
5.7484
 70
32
 0
VERTEX
 8
8
 10
0.5328
 20
0.1602
 30
5.7484
 70
32
 0
VERTEX
 8
8
 10
0.4922
 20
0.1686
 30
5.7484
 70
32
 0
VERTEX
 8
8
 10
0.4527
 20
0.1808
 30
5.7484
 70
32
 0
VERTEX
 8
8
 10
0.4146
 20
0.197
 30
5.7484
 70
32
 0
VERTEX
 8
8
 10
0.3784
 20
0.2171
 30
5.7484
 70
32
 0
VERTEX
 8
8
 10
0.3443
 20
0.2412
 30
5.7484
 70
32
 0
VERTEX
 8
8
 10
0.3119
 20
0.2699
 30
5.7484
 70
32
 0
VERTEX
 8
8
 10
0.2824
 20
0.3018
 30
5.7484
 70
32
 0
VERTEX
 8
8
 10
0.2557
 20
0.3367
 30
5.7484
 70
32
 0
VERTEX
 8
8
 10
0.2212
 20
0.3939
 30
5.7484
 70
32
 0
VERTEX
 8
8
 10
0.1932
 20
0.4561
 30
5.7484
 70
32
 0
VERTEX
 8
8
 10
0.1716
 20
0.5223
 30
5.7484
 70
32
 0
VERTEX
 8
8
 10
0.1565
 20
0.5914
 30
5.7484
 70
32
 0
VERTEX
 8
8
 10
0.1479
 20
0.6626
 30
5.7484
 70
32
 0
VERTEX
 8
8
 10
0.1456
 20
0.7348
 30
5.7484
 70
32
 0
VERTEX
 8
8
 10
0.1498
 20
0.8069
 30
5.7484
 70
32
 0
VERTEX
 8
8
 10
0.1604
 20
0.8781
 30
5.7484
 70
32
 0
VERTEX
 8
8
 10
0.1773
 20
0.9472
 30
5.7484
 70
32
 0
VERTEX
 8
8
 10
0.2006
 20
1.0133
 30
5.7484
 70
32
 0
VERTEX
 8
8
 10
0.2303
 20
1.0754
 30
5.7484
 70
32
 0
VERTEX
 8
8
 10
0.2662
 20
1.1325
 30
5.7484
 70
32
 0
VERTEX
 8
8
 10
0.2937
 20
1.1672
 30
5.7484
 70
32
 0
VERTEX
 8
8
 10
0.324
 20
1.1991
 30
5.7484
 70
32
 0
VERTEX
 8
8
 10
0.3571
 20
1.2276
 30
5.7484
 70
32
 0
VERTEX
 8
8
 10
0.393
 20
1.2526
 30
5.7484
 70
32
 0
VERTEX
 8
8
 10
0.363
 20
1.2708
 30
5.7484
 70
32
 0
VERTEX
 8
8
 10
0.3355
 20
1.2926
 30
5.7484
 70
32
 0
VERTEX
 8
8
 10
0.3106
 20
1.3175
 30
5.7484
 70
32
 0
VERTEX
 8
8
 10
0.2882
 20
1.3453
 30
5.7484
 70
32
 0
VERTEX
 8
8
 10
0.2683
 20
1.3758
 30
5.7484
 70
32
 0
VERTEX
 8
8
 10
0.2429
 20
1.4258
 30
5.7484
 70
32
 0
VERTEX
 8
8
 10
0.2229
 20
1.4801
 30
5.7484
 70
32
 0
VERTEX
 8
8
 10
0.2082
 20
1.5378
 30
5.7484
 70
32
 0
VERTEX
 8
8
 10
0.1964
 20
1.6184
 30
5.7484
 70
32
 0
VERTEX
 8
8
 10
0.1934
 20
1.7011
 30
5.7484
 70
32
 0
VERTEX
 8
8
 10
0.199
 20
1.7837
 30
5.7484
 70
32
 0
VERTEX
 8
8
 10
0.2127
 20
1.864
 30
5.7484
 70
32
 0
VERTEX
 8
8
 10
0.2343
 20
1.9396
 30
5.7484
 70
32
 0
VERTEX
 8
8
 10
0.2555
 20
1.9919
 30
5.7484
 70
32
 0
VERTEX
 8
8
 10
0.2809
 20
2.0395
 30
5.7484
 70
32
 0
VERTEX
 8
8
 10
0.3001
 20
2.068
 30
5.7484
 70
32
 0
VERTEX
 8
8
 10
0.3321
 20
2.1055
 30
5.7484
 70
32
 0
VERTEX
 8
8
 10
0.3657
 20
2.1352
 30
5.7484
 70
32
 0
VERTEX
 8
8
 10
0.4019
 20
2.1602
 30
5.7484
 70
32
 0
VERTEX
 8
8
 10
0.4403
 20
2.1806
 30
5.7484
 70
32
 0
VERTEX
 8
8
 10
0.4805
 20
2.1965
 30
5.7484
 70
32
 0
VERTEX
 8
8
 10
0.5221
 20
2.208
 30
5.7484
 70
32
 0
VERTEX
 8
8
 10
0.5646
 20
2.2151
 30
5.7484
 70
32
 0
VERTEX
 8
8
 10
0.6077
 20
2.218
 30
5.7484
 70
32
 0
VERTEX
 8
8
 10
0.6509
 20
2.2167
 30
5.7484
 70
32
 0
VERTEX
 8
8
 10
0.6937
 20
2.2113
 30
5.7484
 70
32
 0
VERTEX
 8
8
 10
0.7358
 20
2.202
 30
5.7484
 70
32
 0
VERTEX
 8
8
 10
0.7767
 20
2.1887
 30
5.7484
 70
32
 0
VERTEX
 8
8
 10
0.816
 20
2.1717
 30
5.7484
 70
32
 0
VERTEX
 8
8
 10
0.8532
 20
2.151
 30
5.7484
 70
32
 0
VERTEX
 8
8
 10
0.8881
 20
2.1266
 30
5.7484
 70
32
 0
VERTEX
 8
8
 10
0.92
 20
2.0987
 30
5.7484
 70
32
 0
VERTEX
 8
8
 10
0.9395
 20
2.0782
 30
5.7484
 70
32
 0
VERTEX
 8
8
 10
0.9657
 20
2.0446
 30
5.7484
 70
32
 0
VERTEX
 8
8
 10
0.9929
 20
1.9999
 30
5.7484
 70
32
 0
VERTEX
 8
8
 10
1.0152
 20
1.9523
 30
5.7484
 70
32
 0
VERTEX
 8
8
 10
1.0327
 20
1.9024
 30
5.7484
 70
32
 0
VERTEX
 8
8
 10
1.0455
 20
1.8506
 30
5.7484
 70
32
 0
VERTEX
 8
8
 10
1.0536
 20
1.7976
 30
5.7484
 70
32
 0
VERTEX
 8
8
 10
1.0573
 20
1.7256
 30
5.7484
 70
32
 0
VERTEX
 8
8
 10
1.0531
 20
1.6534
 30
5.7484
 70
32
 0
VERTEX
 8
8
 10
1.0411
 20
1.5822
 30
5.7484
 70
32
 0
VERTEX
 8
8
 10
1.0216
 20
1.5131
 30
5.7484
 70
32
 0
VERTEX
 8
8
 10
0.9948
 20
1.4475
 30
5.7484
 70
32
 0
VERTEX
 8
8
 10
0.9699
 20
1.4013
 30
5.7484
 70
32
 0
VERTEX
 8
8
 10
0.9411
 20
1.3582
 30
5.7484
 70
32
 0
VERTEX
 8
8
 10
0.9084
 20
1.3186
 30
5.7484
 70
32
 0
VERTEX
 8
8
 10
0.8719
 20
1.2833
 30
5.7484
 70
32
 0
SEQEND
 0
POLYLINE
 8
8
 66
1
 10
0.0
 20
0.0
 30
0.0
 70
9
 0
VERTEX
 8
8
 10
0.8439
 20
1.8984
 30
5.7484
 70
32
 0
VERTEX
 8
8
 10
0.8221
 20
1.9324
 30
5.7484
 70
32
 0
VERTEX
 8
8
 10
0.7979
 20
1.9609
 30
5.7484
 70
32
 0
VERTEX
 8
8
 10
0.7716
 20
1.9838
 30
5.7484
 70
32
 0
VERTEX
 8
8
 10
0.7437
 20
2.0016
 30
5.7484
 70
32
 0
VERTEX
 8
8
 10
0.7145
 20
2.0143
 30
5.7484
 70
32
 0
VERTEX
 8
8
 10
0.6843
 20
2.0222
 30
5.7484
 70
32
 0
VERTEX
 8
8
 10
0.6535
 20
2.0255
 30
5.7484
 70
32
 0
VERTEX
 8
8
 10
0.6225
 20
2.0244
 30
5.7484
 70
32
 0
VERTEX
 8
8
 10
0.5916
 20
2.0192
 30
5.7484
 70
32
 0
VERTEX
 8
8
 10
0.5611
 20
2.01
 30
5.7484
 70
32
 0
VERTEX
 8
8
 10
0.5315
 20
1.9971
 30
5.7484
 70
32
 0
VERTEX
 8
8
 10
0.5031
 20
1.9807
 30
5.7484
 70
32
 0
VERTEX
 8
8
 10
0.4762
 20
1.9609
 30
5.7484
 70
32
 0
VERTEX
 8
8
 10
0.4512
 20
1.9381
 30
5.7484
 70
32
 0
VERTEX
 8
8
 10
0.4285
 20
1.9124
 30
5.7484
 70
32
 0
VERTEX
 8
8
 10
0.4084
 20
1.8841
 30
5.7484
 70
32
 0
VERTEX
 8
8
 10
0.3914
 20
1.8533
 30
5.7484
 70
32
 0
VERTEX
 8
8
 10
0.3776
 20
1.8203
 30
5.7484
 70
32
 0
VERTEX
 8
8
 10
0.3676
 20
1.7853
 30
5.7484
 70
32
 0
VERTEX
 8
8
 10
0.3616
 20
1.7485
 30
5.7484
 70
32
 0
VERTEX
 8
8
 10
0.36
 20
1.7101
 30
5.7484
 70
32
 0
VERTEX
 8
8
 10
0.3633
 20
1.6703
 30
5.7484
 70
32
 0
VERTEX
 8
8
 10
0.3716
 20
1.6294
 30
5.7484
 70
32
 0
VERTEX
 8
8
 10
0.3855
 20
1.5876
 30
5.7484
 70
32
 0
VERTEX
 8
8
 10
0.4052
 20
1.545
 30
5.7484
 70
32
 0
VERTEX
 8
8
 10
0.4172
 20
1.5247
 30
5.7484
 70
32
 0
VERTEX
 8
8
 10
0.4354
 20
1.4999
 30
5.7484
 70
32
 0
VERTEX
 8
8
 10
0.456
 20
1.4773
 30
5.7484
 70
32
 0
VERTEX
 8
8
 10
0.4787
 20
1.4567
 30
5.7484
 70
32
 0
VERTEX
 8
8
 10
0.5099
 20
1.4332
 30
5.7484
 70
32
 0
VERTEX
 8
8
 10
0.6167
 20
1.3724
 30
5.7484
 70
32
 0
VERTEX
 8
8
 10
0.7342
 20
1.3135
 30
5.7484
 70
32
 0
VERTEX
 8
8
 10
0.7691
 20
1.3572
 30
5.7484
 70
32
 0
VERTEX
 8
8
 10
0.8015
 20
1.4073
 30
5.7484
 70
32
 0
VERTEX
 8
8
 10
0.8305
 20
1.4627
 30
5.7484
 70
32
 0
VERTEX
 8
8
 10
0.8548
 20
1.5221
 30
5.7484
 70
32
 0
VERTEX
 8
8
 10
0.8735
 20
1.5843
 30
5.7484
 70
32
 0
VERTEX
 8
8
 10
0.8836
 20
1.6354
 30
5.7484
 70
32
 0
VERTEX
 8
8
 10
0.8888
 20
1.6871
 30
5.7484
 70
32
 0
VERTEX
 8
8
 10
0.8886
 20
1.7386
 30
5.7484
 70
32
 0
VERTEX
 8
8
 10
0.8846
 20
1.7768
 30
5.7484
 70
32
 0
VERTEX
 8
8
 10
0.877
 20
1.8145
 30
5.7484
 70
32
 0
VERTEX
 8
8
 10
0.8655
 20
1.8512
 30
5.7484
 70
32
 0
VERTEX
 8
8
 10
0.8556
 20
1.8751
 30
5.7484
 70
32
 0
SEQEND
 0
POLYLINE
 8
8
 66
1
 10
0.0
 20
0.0
 30
0.0
 70
9
 0
VERTEX
 8
8
 10
0.7342
 20
1.3135
 30
5.7484
 70
32
 0
VERTEX
 8
8
 10
0.5164
 20
1.4288
 30
5.7484
 70
32
 0
VERTEX
 8
8
 10
0.4787
 20
1.4567
 30
5.7484
 70
32
 0
VERTEX
 8
8
 10
0.456
 20
1.4773
 30
5.7484
 70
32
 0
VERTEX
 8
8
 10
0.4354
 20
1.4999
 30
5.7484
 70
32
 0
VERTEX
 8
8
 10
0.4215
 20
1.5183
 30
5.7484
 70
32
 0
VERTEX
 8
8
 10
0.4052
 20
1.545
 30
5.7484
 70
32
 0
VERTEX
 8
8
 10
0.3855
 20
1.5876
 30
5.7484
 70
32
 0
VERTEX
 8
8
 10
0.3716
 20
1.6294
 30
5.7484
 70
32
 0
VERTEX
 8
8
 10
0.3633
 20
1.6703
 30
5.7484
 70
32
 0
VERTEX
 8
8
 10
0.36
 20
1.7101
 30
5.7484
 70
32
 0
VERTEX
 8
8
 10
0.3616
 20
1.7485
 30
5.7484
 70
32
 0
VERTEX
 8
8
 10
0.3676
 20
1.7853
 30
5.7484
 70
32
 0
VERTEX
 8
8
 10
0.3776
 20
1.8203
 30
5.7484
 70
32
 0
VERTEX
 8
8
 10
0.3914
 20
1.8533
 30
5.7484
 70
32
 0
VERTEX
 8
8
 10
0.4084
 20
1.8841
 30
5.7484
 70
32
 0
VERTEX
 8
8
 10
0.4285
 20
1.9124
 30
5.7484
 70
32
 0
VERTEX
 8
8
 10
0.4512
 20
1.9381
 30
5.7484
 70
32
 0
VERTEX
 8
8
 10
0.4762
 20
1.9609
 30
5.7484
 70
32
 0
VERTEX
 8
8
 10
0.5031
 20
1.9807
 30
5.7484
 70
32
 0
VERTEX
 8
8
 10
0.5315
 20
1.9971
 30
5.7484
 70
32
 0
VERTEX
 8
8
 10
0.5611
 20
2.01
 30
5.7484
 70
32
 0
VERTEX
 8
8
 10
0.5916
 20
2.0192
 30
5.7484
 70
32
 0
VERTEX
 8
8
 10
0.6225
 20
2.0244
 30
5.7484
 70
32
 0
VERTEX
 8
8
 10
0.6535
 20
2.0255
 30
5.7484
 70
32
 0
VERTEX
 8
8
 10
0.6843
 20
2.0222
 30
5.7484
 70
32
 0
VERTEX
 8
8
 10
0.7145
 20
2.0143
 30
5.7484
 70
32
 0
VERTEX
 8
8
 10
0.7437
 20
2.0016
 30
5.7484
 70
32
 0
VERTEX
 8
8
 10
0.7716
 20
1.9838
 30
5.7484
 70
32
 0
VERTEX
 8
8
 10
0.7979
 20
1.9609
 30
5.7484
 70
32
 0
VERTEX
 8
8
 10
0.8221
 20
1.9324
 30
5.7484
 70
32
 0
VERTEX
 8
8
 10
0.8439
 20
1.8984
 30
5.7484
 70
32
 0
VERTEX
 8
8
 10
0.8608
 20
1.8632
 30
5.7484
 70
32
 0
VERTEX
 8
8
 10
0.8736
 20
1.8268
 30
5.7484
 70
32
 0
VERTEX
 8
8
 10
0.8825
 20
1.7895
 30
5.7484
 70
32
 0
VERTEX
 8
8
 10
0.8877
 20
1.7514
 30
5.7484
 70
32
 0
VERTEX
 8
8
 10
0.8893
 20
1.7
 30
5.7484
 70
32
 0
VERTEX
 8
8
 10
0.8854
 20
1.6483
 30
5.7484
 70
32
 0
VERTEX
 8
8
 10
0.8764
 20
1.597
 30
5.7484
 70
32
 0
VERTEX
 8
8
 10
0.859
 20
1.5343
 30
5.7484
 70
32
 0
VERTEX
 8
8
 10
0.8357
 20
1.4743
 30
5.7484
 70
32
 0
VERTEX
 8
8
 10
0.8076
 20
1.418
 30
5.7484
 70
32
 0
VERTEX
 8
8
 10
0.7758
 20
1.3668
 30
5.7484
 70
32
 0
VERTEX
 8
8
 10
0.7554
 20
1.3389
 30
5.7484
 70
32
 0
SEQEND
 0
POLYLINE
 8
8
 66
1
 10
0.0
 20
0.0
 30
0.0
 70
9
 0
VERTEX
 8
8
 10
0.5027
 20
1.1795
 30
5.7484
 70
32
 0
VERTEX
 8
8
 10
0.5032
 20
1.1817
 30
5.7484
 70
32
 0
VERTEX
 8
8
 10
0.5038
 20
1.1836
 30
5.7484
 70
32
 0
VERTEX
 8
8
 10
0.5043
 20
1.1846
 30
5.7484
 70
32
 0
VERTEX
 8
8
 10
0.5049
 20
1.1854
 30
5.7484
 70
32
 0
VERTEX
 8
8
 10
0.5054
 20
1.1861
 30
5.7484
 70
32
 0
VERTEX
 8
8
 10
0.506
 20
1.1866
 30
5.7484
 70
32
 0
VERTEX
 8
8
 10
0.5067
 20
1.187
 30
5.7484
 70
32
 0
VERTEX
 8
8
 10
0.507
 20
1.1872
 30
5.7484
 70
32
 0
VERTEX
 8
8
 10
0.5073
 20
1.1873
 30
5.7484
 70
32
 0
VERTEX
 8
8
 10
0.5077
 20
1.1873
 30
5.7484
 70
32
 0
VERTEX
 8
8
 10
0.508
 20
1.1874
 30
5.7484
 70
32
 0
VERTEX
 8
8
 10
0.5087
 20
1.1874
 30
5.7484
 70
32
 0
VERTEX
 8
8
 10
0.5093
 20
1.1873
 30
5.7484
 70
32
 0
VERTEX
 8
8
 10
0.51
 20
1.1871
 30
5.7484
 70
32
 0
VERTEX
 8
8
 10
0.5106
 20
1.1868
 30
5.7484
 70
32
 0
VERTEX
 8
8
 10
0.5113
 20
1.1864
 30
5.7484
 70
32
 0
VERTEX
 8
8
 10
0.5119
 20
1.1859
 30
5.7484
 70
32
 0
VERTEX
 8
8
 10
0.5124
 20
1.1854
 30
5.7484
 70
32
 0
VERTEX
 8
8
 10
0.513
 20
1.1847
 30
5.7484
 70
32
 0
VERTEX
 8
8
 10
0.5134
 20
1.1841
 30
5.7484
 70
32
 0
VERTEX
 8
8
 10
0.5138
 20
1.1834
 30
5.7484
 70
32
 0
VERTEX
 8
8
 10
0.5142
 20
1.1826
 30
5.7484
 70
32
 0
VERTEX
 8
8
 10
0.5145
 20
1.1819
 30
5.7484
 70
32
 0
VERTEX
 8
8
 10
0.5147
 20
1.1811
 30
5.7484
 70
32
 0
VERTEX
 8
8
 10
0.5148
 20
1.1803
 30
5.7484
 70
32
 0
VERTEX
 8
8
 10
0.5149
 20
1.1795
 30
5.7484
 70
32
 0
VERTEX
 8
8
 10
0.7606
 20
1.0537
 30
5.7484
 70
32
 0
VERTEX
 8
8
 10
0.795
 20
1.027
 30
5.7484
 70
32
 0
VERTEX
 8
8
 10
0.8204
 20
1.0027
 30
5.7484
 70
32
 0
VERTEX
 8
8
 10
0.8434
 20
0.9752
 30
5.7484
 70
32
 0
VERTEX
 8
8
 10
0.8539
 20
0.9601
 30
5.7484
 70
32
 0
VERTEX
 8
8
 10
0.8682
 20
0.9358
 30
5.7484
 70
32
 0
VERTEX
 8
8
 10
0.8866
 20
0.8954
 30
5.7484
 70
32
 0
VERTEX
 8
8
 10
0.9002
 20
0.8532
 30
5.7484
 70
32
 0
VERTEX
 8
8
 10
0.9092
 20
0.8097
 30
5.7484
 70
32
 0
VERTEX
 8
8
 10
0.9138
 20
0.7656
 30
5.7484
 70
32
 0
VERTEX
 8
8
 10
0.9142
 20
0.7212
 30
5.7484
 70
32
 0
VERTEX
 8
8
 10
0.9107
 20
0.6771
 30
5.7484
 70
32
 0
VERTEX
 8
8
 10
0.9033
 20
0.6339
 30
5.7484
 70
32
 0
VERTEX
 8
8
 10
0.8922
 20
0.592
 30
5.7484
 70
32
 0
VERTEX
 8
8
 10
0.8778
 20
0.5519
 30
5.7484
 70
32
 0
VERTEX
 8
8
 10
0.8601
 20
0.5143
 30
5.7484
 70
32
 0
VERTEX
 8
8
 10
0.8393
 20
0.4796
 30
5.7484
 70
32
 0
VERTEX
 8
8
 10
0.8157
 20
0.4483
 30
5.7484
 70
32
 0
VERTEX
 8
8
 10
0.7894
 20
0.421
 30
5.7484
 70
32
 0
VERTEX
 8
8
 10
0.7705
 20
0.4052
 30
5.7484
 70
32
 0
VERTEX
 8
8
 10
0.7506
 20
0.3916
 30
5.7484
 70
32
 0
VERTEX
 8
8
 10
0.7296
 20
0.3803
 30
5.7484
 70
32
 0
VERTEX
 8
8
 10
0.7077
 20
0.3714
 30
5.7484
 70
32
 0
VERTEX
 8
8
 10
0.6965
 20
0.368
 30
5.7484
 70
32
 0
VERTEX
 8
8
 10
0.6733
 20
0.3631
 30
5.7484
 70
32
 0
VERTEX
 8
8
 10
0.6264
 20
0.3595
 30
5.7484
 70
32
 0
VERTEX
 8
8
 10
0.5832
 20
0.3628
 30
5.7484
 70
32
 0
VERTEX
 8
8
 10
0.5435
 20
0.3724
 30
5.7484
 70
32
 0
VERTEX
 8
8
 10
0.5074
 20
0.3879
 30
5.7484
 70
32
 0
VERTEX
 8
8
 10
0.4747
 20
0.4088
 30
5.7484
 70
32
 0
VERTEX
 8
8
 10
0.4455
 20
0.4345
 30
5.7484
 70
32
 0
VERTEX
 8
8
 10
0.4197
 20
0.4646
 30
5.7484
 70
32
 0
VERTEX
 8
8
 10
0.3973
 20
0.4986
 30
5.7484
 70
32
 0
VERTEX
 8
8
 10
0.3782
 20
0.5359
 30
5.7484
 70
32
 0
VERTEX
 8
8
 10
0.3625
 20
0.5761
 30
5.7484
 70
32
 0
VERTEX
 8
8
 10
0.3451
 20
0.6406
 30
5.7484
 70
32
 0
VERTEX
 8
8
 10
0.335
 20
0.7087
 30
5.7484
 70
32
 0
VERTEX
 8
8
 10
0.332
 20
0.7787
 30
5.7484
 70
32
 0
VERTEX
 8
8
 10
0.3361
 20
0.8489
 30
5.7484
 70
32
 0
VERTEX
 8
8
 10
0.3472
 20
0.9176
 30
5.7484
 70
32
 0
VERTEX
 8
8
 10
0.3651
 20
0.9832
 30
5.7484
 70
32
 0
VERTEX
 8
8
 10
0.3897
 20
1.0438
 30
5.7484
 70
32
 0
VERTEX
 8
8
 10
0.4097
 20
1.0807
 30
5.7484
 70
32
 0
VERTEX
 8
8
 10
0.4327
 20
1.1141
 30
5.7484
 70
32
 0
VERTEX
 8
8
 10
0.4586
 20
1.1436
 30
5.7484
 70
32
 0
VERTEX
 8
8
 10
0.4726
 20
1.1568
 30
5.7484
 70
32
 0
SEQEND
 0
POLYLINE
 8
8
 66
1
 10
0.0
 20
0.0
 30
0.0
 70
9
 0
VERTEX
 8
8
 10
0.6733
 20
0.3631
 30
5.7484
 70
32
 0
VERTEX
 8
8
 10
0.6965
 20
0.368
 30
5.7484
 70
32
 0
VERTEX
 8
8
 10
0.7188
 20
0.3756
 30
5.7484
 70
32
 0
VERTEX
 8
8
 10
0.7402
 20
0.3857
 30
5.7484
 70
32
 0
VERTEX
 8
8
 10
0.7607
 20
0.3981
 30
5.7484
 70
32
 0
VERTEX
 8
8
 10
0.7801
 20
0.4128
 30
5.7484
 70
32
 0
VERTEX
 8
8
 10
0.7985
 20
0.4296
 30
5.7484
 70
32
 0
VERTEX
 8
8
 10
0.8239
 20
0.4583
 30
5.7484
 70
32
 0
VERTEX
 8
8
 10
0.8466
 20
0.4908
 30
5.7484
 70
32
 0
VERTEX
 8
8
 10
0.8663
 20
0.5266
 30
5.7484
 70
32
 0
VERTEX
 8
8
 10
0.883
 20
0.565
 30
5.7484
 70
32
 0
VERTEX
 8
8
 10
0.8963
 20
0.6057
 30
5.7484
 70
32
 0
VERTEX
 8
8
 10
0.9061
 20
0.6482
 30
5.7484
 70
32
 0
VERTEX
 8
8
 10
0.9123
 20
0.6917
 30
5.7484
 70
32
 0
VERTEX
 8
8
 10
0.9146
 20
0.736
 30
5.7484
 70
32
 0
VERTEX
 8
8
 10
0.9127
 20
0.7803
 30
5.7484
 70
32
 0
VERTEX
 8
8
 10
0.9067
 20
0.8243
 30
5.7484
 70
32
 0
VERTEX
 8
8
 10
0.8962
 20
0.8674
 30
5.7484
 70
32
 0
VERTEX
 8
8
 10
0.8866
 20
0.8954
 30
5.7484
 70
32
 0
VERTEX
 8
8
 10
0.8682
 20
0.9358
 30
5.7484
 70
32
 0
VERTEX
 8
8
 10
0.8539
 20
0.9601
 30
5.7484
 70
32
 0
VERTEX
 8
8
 10
0.8379
 20
0.9824
 30
5.7484
 70
32
 0
VERTEX
 8
8
 10
0.8143
 20
1.009
 30
5.7484
 70
32
 0
VERTEX
 8
8
 10
0.7884
 20
1.0327
 30
5.7484
 70
32
 0
VERTEX
 8
8
 10
0.7534
 20
1.0586
 30
5.7484
 70
32
 0
VERTEX
 8
8
 10
0.638
 20
1.1204
 30
5.7484
 70
32
 0
VERTEX
 8
8
 10
0.5149
 20
1.1795
 30
5.7484
 70
32
 0
VERTEX
 8
8
 10
0.5148
 20
1.1803
 30
5.7484
 70
32
 0
VERTEX
 8
8
 10
0.5147
 20
1.1811
 30
5.7484
 70
32
 0
VERTEX
 8
8
 10
0.5145
 20
1.1819
 30
5.7484
 70
32
 0
VERTEX
 8
8
 10
0.5142
 20
1.1826
 30
5.7484
 70
32
 0
VERTEX
 8
8
 10
0.5138
 20
1.1834
 30
5.7484
 70
32
 0
VERTEX
 8
8
 10
0.5134
 20
1.1841
 30
5.7484
 70
32
 0
VERTEX
 8
8
 10
0.513
 20
1.1847
 30
5.7484
 70
32
 0
VERTEX
 8
8
 10
0.5124
 20
1.1854
 30
5.7484
 70
32
 0
VERTEX
 8
8
 10
0.5119
 20
1.1859
 30
5.7484
 70
32
 0
VERTEX
 8
8
 10
0.5113
 20
1.1864
 30
5.7484
 70
32
 0
VERTEX
 8
8
 10
0.5106
 20
1.1868
 30
5.7484
 70
32
 0
VERTEX
 8
8
 10
0.51
 20
1.1871
 30
5.7484
 70
32
 0
VERTEX
 8
8
 10
0.5093
 20
1.1873
 30
5.7484
 70
32
 0
VERTEX
 8
8
 10
0.5087
 20
1.1874
 30
5.7484
 70
32
 0
VERTEX
 8
8
 10
0.508
 20
1.1874
 30
5.7484
 70
32
 0
VERTEX
 8
8
 10
0.5077
 20
1.1873
 30
5.7484
 70
32
 0
VERTEX
 8
8
 10
0.5073
 20
1.1873
 30
5.7484
 70
32
 0
VERTEX
 8
8
 10
0.507
 20
1.1872
 30
5.7484
 70
32
 0
VERTEX
 8
8
 10
0.5067
 20
1.187
 30
5.7484
 70
32
 0
VERTEX
 8
8
 10
0.5064
 20
1.1868
 30
5.7484
 70
32
 0
VERTEX
 8
8
 10
0.5057
 20
1.1864
 30
5.7484
 70
32
 0
VERTEX
 8
8
 10
0.5051
 20
1.1858
 30
5.7484
 70
32
 0
VERTEX
 8
8
 10
0.5046
 20
1.185
 30
5.7484
 70
32
 0
VERTEX
 8
8
 10
0.5041
 20
1.1841
 30
5.7484
 70
32
 0
VERTEX
 8
8
 10
0.5036
 20
1.183
 30
5.7484
 70
32
 0
VERTEX
 8
8
 10
0.5032
 20
1.1817
 30
5.7484
 70
32
 0
VERTEX
 8
8
 10
0.5027
 20
1.1795
 30
5.7484
 70
32
 0
VERTEX
 8
8
 10
0.4726
 20
1.1568
 30
5.7484
 70
32
 0
VERTEX
 8
8
 10
0.4453
 20
1.1294
 30
5.7484
 70
32
 0
VERTEX
 8
8
 10
0.4209
 20
1.0979
 30
5.7484
 70
32
 0
VERTEX
 8
8
 10
0.3993
 20
1.0626
 30
5.7484
 70
32
 0
VERTEX
 8
8
 10
0.3807
 20
1.0242
 30
5.7484
 70
32
 0
VERTEX
 8
8
 10
0.3583
 20
0.9618
 30
5.7484
 70
32
 0
VERTEX
 8
8
 10
0.3427
 20
0.895
 30
5.7484
 70
32
 0
VERTEX
 8
8
 10
0.334
 20
0.8256
 30
5.7484
 70
32
 0
VERTEX
 8
8
 10
0.3322
 20
0.7553
 30
5.7484
 70
32
 0
VERTEX
 8
8
 10
0.3375
 20
0.6857
 30
5.7484
 70
32
 0
VERTEX
 8
8
 10
0.3501
 20
0.6186
 30
5.7484
 70
32
 0
VERTEX
 8
8
 10
0.37
 20
0.5557
 30
5.7484
 70
32
 0
VERTEX
 8
8
 10
0.3874
 20
0.5169
 30
5.7484
 70
32
 0
VERTEX
 8
8
 10
0.4081
 20
0.4812
 30
5.7484
 70
32
 0
VERTEX
 8
8
 10
0.4322
 20
0.4491
 30
5.7484
 70
32
 0
VERTEX
 8
8
 10
0.4597
 20
0.4211
 30
5.7484
 70
32
 0
VERTEX
 8
8
 10
0.4906
 20
0.3977
 30
5.7484
 70
32
 0
VERTEX
 8
8
 10
0.525
 20
0.3795
 30
5.7484
 70
32
 0
VERTEX
 8
8
 10
0.5629
 20
0.3668
 30
5.7484
 70
32
 0
VERTEX
 8
8
 10
0.6044
 20
0.3603
 30
5.7484
 70
32
 0
VERTEX
 8
8
 10
0.6264
 20
0.3595
 30
5.7484
 70
32
 0
SEQEND
 0
ENDSEC
 0
EOF
