 0
SECTION
 2
HEADER
 9
$ACADVER
 1
AC1009
 0
ENDSEC
 0
SECTION
 2
TABLES
 0
TABLE
 2
LTYPE
 70
1
 0
LTYPE
 2
CONTINUOUS
 70
64
 3
solid line
 72
65
 73
0
 40
0.0
 0
ENDTAB
 0
TABLE
 2
LAYER
 70
6
 0
LAYER
 2
0
 70
0
 62
7
 6
CONTINUOUS
 0
LAYER
 2
NUMBERS
 70
64
 62
7
 6
CONTINUOUS
 0
LAYER
 2
8HW
 70
64
 62
7
 6
CONTINUOUS
 0
ENDTAB
 0
ENDSEC
 0
SECTION
 2
BLOCKS
 0
ENDSEC
 0
SECTION
 2
ENTITIES
 0
POLYLINE
 8
8HW
 66
1
 10
0.0
 20
0.0
 30
0.0
 70
9
 0
VERTEX
 8
8HW
 10
0.2197
 20
0.3112
 30
5.7484
 70
32
 0
VERTEX
 8
8HW
 10
0.1904
 20
0.3654
 30
5.7484
 70
32
 0
VERTEX
 8
8HW
 10
0.1657
 20
0.4234
 30
5.7484
 70
32
 0
VERTEX
 8
8HW
 10
0.1416
 20
0.5002
 30
5.7484
 70
32
 0
VERTEX
 8
8HW
 10
0.1252
 20
0.5802
 30
5.7484
 70
32
 0
VERTEX
 8
8HW
 10
0.1166
 20
0.662
 30
5.7484
 70
32
 0
VERTEX
 8
8HW
 10
0.1161
 20
0.7441
 30
5.7484
 70
32
 0
VERTEX
 8
8HW
 10
0.1239
 20
0.825
 30
5.7484
 70
32
 0
VERTEX
 8
8HW
 10
0.1363
 20
0.8878
 30
5.7484
 70
32
 0
VERTEX
 8
8HW
 10
0.1541
 20
0.9481
 30
5.7484
 70
32
 0
VERTEX
 8
8HW
 10
0.1776
 20
1.0051
 30
5.7484
 70
32
 0
VERTEX
 8
8HW
 10
0.1915
 20
1.0321
 30
5.7484
 70
32
 0
VERTEX
 8
8HW
 10
0.2151
 20
1.0705
 30
5.7484
 70
32
 0
VERTEX
 8
8HW
 10
0.2664
 20
1.1435
 30
5.7484
 70
32
 0
VERTEX
 8
8HW
 10
0.2811
 20
1.1596
 30
5.7484
 70
32
 0
VERTEX
 8
8HW
 10
0.2928
 20
1.1702
 30
5.7484
 70
32
 0
VERTEX
 8
8HW
 10
0.3052
 20
1.1793
 30
5.7484
 70
32
 0
VERTEX
 8
8HW
 10
0.3138
 20
1.1842
 30
5.7484
 70
32
 0
VERTEX
 8
8HW
 10
0.3227
 20
1.1883
 30
5.7484
 70
32
 0
VERTEX
 8
8HW
 10
0.332
 20
1.1912
 30
5.7484
 70
32
 0
VERTEX
 8
8HW
 10
0.3417
 20
1.1931
 30
5.7484
 70
32
 0
VERTEX
 8
8HW
 10
0.3517
 20
1.1937
 30
5.7484
 70
32
 0
VERTEX
 8
8HW
 10
0.3622
 20
1.193
 30
5.7484
 70
32
 0
VERTEX
 8
8HW
 10
0.3731
 20
1.1909
 30
5.7484
 70
32
 0
VERTEX
 8
8HW
 10
0.3844
 20
1.1872
 30
5.7484
 70
32
 0
VERTEX
 8
8HW
 10
0.3961
 20
1.182
 30
5.7484
 70
32
 0
VERTEX
 8
8HW
 10
0.4084
 20
1.1751
 30
5.7484
 70
32
 0
VERTEX
 8
8HW
 10
0.4211
 20
1.1664
 30
5.7484
 70
32
 0
VERTEX
 8
8HW
 10
0.4344
 20
1.1558
 30
5.7484
 70
32
 0
VERTEX
 8
8HW
 10
0.389
 20
1.0833
 30
5.7484
 70
32
 0
VERTEX
 8
8HW
 10
0.3497
 20
1.005
 30
5.7484
 70
32
 0
VERTEX
 8
8HW
 10
0.3231
 20
0.937
 30
5.7484
 70
32
 0
VERTEX
 8
8HW
 10
0.3048
 20
0.8744
 30
5.7484
 70
32
 0
VERTEX
 8
8HW
 10
0.292
 20
0.8084
 30
5.7484
 70
32
 0
VERTEX
 8
8HW
 10
0.2865
 20
0.7512
 30
5.7484
 70
32
 0
VERTEX
 8
8HW
 10
0.2858
 20
0.7161
 30
5.7484
 70
32
 0
VERTEX
 8
8HW
 10
0.2882
 20
0.6684
 30
5.7484
 70
32
 0
VERTEX
 8
8HW
 10
0.2956
 20
0.6167
 30
5.7484
 70
32
 0
VERTEX
 8
8HW
 10
0.3087
 20
0.5637
 30
5.7484
 70
32
 0
VERTEX
 8
8HW
 10
0.324
 20
0.5201
 30
5.7484
 70
32
 0
VERTEX
 8
8HW
 10
0.3434
 20
0.4781
 30
5.7484
 70
32
 0
VERTEX
 8
8HW
 10
0.3619
 20
0.4465
 30
5.7484
 70
32
 0
VERTEX
 8
8HW
 10
0.3832
 20
0.4172
 30
5.7484
 70
32
 0
VERTEX
 8
8HW
 10
0.4009
 20
0.3972
 30
5.7484
 70
32
 0
VERTEX
 8
8HW
 10
0.4203
 20
0.3791
 30
5.7484
 70
32
 0
VERTEX
 8
8HW
 10
0.4412
 20
0.3632
 30
5.7484
 70
32
 0
VERTEX
 8
8HW
 10
0.4637
 20
0.3497
 30
5.7484
 70
32
 0
VERTEX
 8
8HW
 10
0.4879
 20
0.3388
 30
5.7484
 70
32
 0
VERTEX
 8
8HW
 10
0.5049
 20
0.3332
 30
5.7484
 70
32
 0
VERTEX
 8
8HW
 10
0.5319
 20
0.3273
 30
5.7484
 70
32
 0
VERTEX
 8
8HW
 10
0.5683
 20
0.3235
 30
5.7484
 70
32
 0
VERTEX
 8
8HW
 10
0.6024
 20
0.3234
 30
5.7484
 70
32
 0
VERTEX
 8
8HW
 10
0.6344
 20
0.3269
 30
5.7484
 70
32
 0
VERTEX
 8
8HW
 10
0.6641
 20
0.3338
 30
5.7484
 70
32
 0
VERTEX
 8
8HW
 10
0.6917
 20
0.3438
 30
5.7484
 70
32
 0
VERTEX
 8
8HW
 10
0.7172
 20
0.3566
 30
5.7484
 70
32
 0
VERTEX
 8
8HW
 10
0.7406
 20
0.3722
 30
5.7484
 70
32
 0
VERTEX
 8
8HW
 10
0.7619
 20
0.3902
 30
5.7484
 70
32
 0
VERTEX
 8
8HW
 10
0.7811
 20
0.4105
 30
5.7484
 70
32
 0
VERTEX
 8
8HW
 10
0.7984
 20
0.4328
 30
5.7484
 70
32
 0
VERTEX
 8
8HW
 10
0.8136
 20
0.4569
 30
5.7484
 70
32
 0
VERTEX
 8
8HW
 10
0.8329
 20
0.496
 30
5.7484
 70
32
 0
VERTEX
 8
8HW
 10
0.8478
 20
0.5379
 30
5.7484
 70
32
 0
VERTEX
 8
8HW
 10
0.8586
 20
0.582
 30
5.7484
 70
32
 0
VERTEX
 8
8HW
 10
0.8653
 20
0.6275
 30
5.7484
 70
32
 0
VERTEX
 8
8HW
 10
0.8681
 20
0.689
 30
5.7484
 70
32
 0
VERTEX
 8
8HW
 10
0.8641
 20
0.75
 30
5.7484
 70
32
 0
VERTEX
 8
8HW
 10
0.8535
 20
0.8087
 30
5.7484
 70
32
 0
VERTEX
 8
8HW
 10
0.8458
 20
0.8367
 30
5.7484
 70
32
 0
VERTEX
 8
8HW
 10
0.8365
 20
0.8634
 30
5.7484
 70
32
 0
VERTEX
 8
8HW
 10
0.8225
 20
0.8948
 30
5.7484
 70
32
 0
VERTEX
 8
8HW
 10
0.806
 20
0.9234
 30
5.7484
 70
32
 0
VERTEX
 8
8HW
 10
0.7871
 20
0.9495
 30
5.7484
 70
32
 0
VERTEX
 8
8HW
 10
0.7662
 20
0.9732
 30
5.7484
 70
32
 0
VERTEX
 8
8HW
 10
0.7312
 20
1.0051
 30
5.7484
 70
32
 0
VERTEX
 8
8HW
 10
0.6926
 20
1.0333
 30
5.7484
 70
32
 0
VERTEX
 8
8HW
 10
0.6366
 20
1.0665
 30
5.7484
 70
32
 0
VERTEX
 8
8HW
 10
0.3623
 20
1.2093
 30
5.7484
 70
32
 0
VERTEX
 8
8HW
 10
0.3059
 20
1.2518
 30
5.7484
 70
32
 0
VERTEX
 8
8HW
 10
0.2668
 20
1.2891
 30
5.7484
 70
32
 0
VERTEX
 8
8HW
 10
0.2313
 20
1.332
 30
5.7484
 70
32
 0
VERTEX
 8
8HW
 10
0.21
 20
1.3642
 30
5.7484
 70
32
 0
VERTEX
 8
8HW
 10
0.1907
 20
1.3995
 30
5.7484
 70
32
 0
VERTEX
 8
8HW
 10
0.1667
 20
1.4562
 30
5.7484
 70
32
 0
VERTEX
 8
8HW
 10
0.1492
 20
1.5148
 30
5.7484
 70
32
 0
VERTEX
 8
8HW
 10
0.138
 20
1.5748
 30
5.7484
 70
32
 0
VERTEX
 8
8HW
 10
0.1328
 20
1.6353
 30
5.7484
 70
32
 0
VERTEX
 8
8HW
 10
0.1335
 20
1.6959
 30
5.7484
 70
32
 0
VERTEX
 8
8HW
 10
0.1398
 20
1.7558
 30
5.7484
 70
32
 0
VERTEX
 8
8HW
 10
0.1516
 20
1.8143
 30
5.7484
 70
32
 0
VERTEX
 8
8HW
 10
0.1687
 20
1.8708
 30
5.7484
 70
32
 0
VERTEX
 8
8HW
 10
0.1908
 20
1.9247
 30
5.7484
 70
32
 0
VERTEX
 8
8HW
 10
0.2178
 20
1.9753
 30
5.7484
 70
32
 0
VERTEX
 8
8HW
 10
0.2495
 20
2.0219
 30
5.7484
 70
32
 0
VERTEX
 8
8HW
 10
0.2856
 20
2.0639
 30
5.7484
 70
32
 0
VERTEX
 8
8HW
 10
0.326
 20
2.1006
 30
5.7484
 70
32
 0
VERTEX
 8
8HW
 10
0.3552
 20
2.1218
 30
5.7484
 70
32
 0
VERTEX
 8
8HW
 10
0.3862
 20
2.1402
 30
5.7484
 70
32
 0
VERTEX
 8
8HW
 10
0.4189
 20
2.1555
 30
5.7484
 70
32
 0
VERTEX
 8
8HW
 10
0.4531
 20
2.1676
 30
5.7484
 70
32
 0
VERTEX
 8
8HW
 10
0.4709
 20
2.1724
 30
5.7484
 70
32
 0
VERTEX
 8
8HW
 10
0.5075
 20
2.1793
 30
5.7484
 70
32
 0
VERTEX
 8
8HW
 10
0.5611
 20
2.1837
 30
5.7484
 70
32
 0
VERTEX
 8
8HW
 10
0.6127
 20
2.182
 30
5.7484
 70
32
 0
VERTEX
 8
8HW
 10
0.6622
 20
2.1746
 30
5.7484
 70
32
 0
VERTEX
 8
8HW
 10
0.7093
 20
2.1618
 30
5.7484
 70
32
 0
VERTEX
 8
8HW
 10
0.7538
 20
2.1437
 30
5.7484
 70
32
 0
VERTEX
 8
8HW
 10
0.7955
 20
2.1206
 30
5.7484
 70
32
 0
VERTEX
 8
8HW
 10
0.8341
 20
2.0929
 30
5.7484
 70
32
 0
VERTEX
 8
8HW
 10
0.8695
 20
2.0606
 30
5.7484
 70
32
 0
VERTEX
 8
8HW
 10
0.9014
 20
2.0241
 30
5.7484
 70
32
 0
VERTEX
 8
8HW
 10
0.9297
 20
1.9837
 30
5.7484
 70
32
 0
VERTEX
 8
8HW
 10
0.954
 20
1.9395
 30
5.7484
 70
32
 0
VERTEX
 8
8HW
 10
0.9741
 20
1.8919
 30
5.7484
 70
32
 0
VERTEX
 8
8HW
 10
0.9899
 20
1.841
 30
5.7484
 70
32
 0
VERTEX
 8
8HW
 10
1.0012
 20
1.7872
 30
5.7484
 70
32
 0
VERTEX
 8
8HW
 10
1.0076
 20
1.7306
 30
5.7484
 70
32
 0
VERTEX
 8
8HW
 10
1.0091
 20
1.6915
 30
5.7484
 70
32
 0
VERTEX
 8
8HW
 10
1.0071
 20
1.631
 30
5.7484
 70
32
 0
VERTEX
 8
8HW
 10
0.9979
 20
1.5608
 30
5.7484
 70
32
 0
VERTEX
 8
8HW
 10
0.9795
 20
1.4801
 30
5.7484
 70
32
 0
VERTEX
 8
8HW
 10
0.9559
 20
1.4098
 30
5.7484
 70
32
 0
VERTEX
 8
8HW
 10
0.9359
 20
1.3657
 30
5.7484
 70
32
 0
VERTEX
 8
8HW
 10
0.9186
 20
1.3354
 30
5.7484
 70
32
 0
VERTEX
 8
8HW
 10
0.8993
 20
1.3082
 30
5.7484
 70
32
 0
VERTEX
 8
8HW
 10
0.8852
 20
1.2922
 30
5.7484
 70
32
 0
VERTEX
 8
8HW
 10
0.8702
 20
1.2783
 30
5.7484
 70
32
 0
VERTEX
 8
8HW
 10
0.8543
 20
1.2665
 30
5.7484
 70
32
 0
VERTEX
 8
8HW
 10
0.8374
 20
1.2572
 30
5.7484
 70
32
 0
VERTEX
 8
8HW
 10
0.8195
 20
1.2506
 30
5.7484
 70
32
 0
VERTEX
 8
8HW
 10
0.8006
 20
1.2469
 30
5.7484
 70
32
 0
VERTEX
 8
8HW
 10
0.7806
 20
1.2462
 30
5.7484
 70
32
 0
VERTEX
 8
8HW
 10
0.7597
 20
1.249
 30
5.7484
 70
32
 0
VERTEX
 8
8HW
 10
0.7377
 20
1.2553
 30
5.7484
 70
32
 0
VERTEX
 8
8HW
 10
0.7146
 20
1.2655
 30
5.7484
 70
32
 0
VERTEX
 8
8HW
 10
0.7231
 20
1.2925
 30
5.7484
 70
32
 0
VERTEX
 8
8HW
 10
0.7518
 20
1.3588
 30
5.7484
 70
32
 0
VERTEX
 8
8HW
 10
0.8086
 20
1.49
 30
5.7484
 70
32
 0
VERTEX
 8
8HW
 10
0.8269
 20
1.5509
 30
5.7484
 70
32
 0
VERTEX
 8
8HW
 10
0.8372
 20
1.6057
 30
5.7484
 70
32
 0
VERTEX
 8
8HW
 10
0.8412
 20
1.6524
 30
5.7484
 70
32
 0
VERTEX
 8
8HW
 10
0.8412
 20
1.6892
 30
5.7484
 70
32
 0
VERTEX
 8
8HW
 10
0.8365
 20
1.7407
 30
5.7484
 70
32
 0
VERTEX
 8
8HW
 10
0.8272
 20
1.7851
 30
5.7484
 70
32
 0
VERTEX
 8
8HW
 10
0.8132
 20
1.8245
 30
5.7484
 70
32
 0
VERTEX
 8
8HW
 10
0.795
 20
1.8589
 30
5.7484
 70
32
 0
VERTEX
 8
8HW
 10
0.773
 20
1.8885
 30
5.7484
 70
32
 0
VERTEX
 8
8HW
 10
0.7477
 20
1.9134
 30
5.7484
 70
32
 0
VERTEX
 8
8HW
 10
0.7197
 20
1.9336
 30
5.7484
 70
32
 0
VERTEX
 8
8HW
 10
0.6895
 20
1.9492
 30
5.7484
 70
32
 0
VERTEX
 8
8HW
 10
0.6577
 20
1.9603
 30
5.7484
 70
32
 0
VERTEX
 8
8HW
 10
0.6246
 20
1.967
 30
5.7484
 70
32
 0
VERTEX
 8
8HW
 10
0.5908
 20
1.9694
 30
5.7484
 70
32
 0
VERTEX
 8
8HW
 10
0.5569
 20
1.9675
 30
5.7484
 70
32
 0
VERTEX
 8
8HW
 10
0.5232
 20
1.9616
 30
5.7484
 70
32
 0
VERTEX
 8
8HW
 10
0.4905
 20
1.9515
 30
5.7484
 70
32
 0
VERTEX
 8
8HW
 10
0.4591
 20
1.9375
 30
5.7484
 70
32
 0
VERTEX
 8
8HW
 10
0.4295
 20
1.9196
 30
5.7484
 70
32
 0
VERTEX
 8
8HW
 10
0.4024
 20
1.8979
 30
5.7484
 70
32
 0
VERTEX
 8
8HW
 10
0.3781
 20
1.8724
 30
5.7484
 70
32
 0
VERTEX
 8
8HW
 10
0.3572
 20
1.8434
 30
5.7484
 70
32
 0
VERTEX
 8
8HW
 10
0.3403
 20
1.8108
 30
5.7484
 70
32
 0
VERTEX
 8
8HW
 10
0.3277
 20
1.7747
 30
5.7484
 70
32
 0
VERTEX
 8
8HW
 10
0.3201
 20
1.7353
 30
5.7484
 70
32
 0
VERTEX
 8
8HW
 10
0.3179
 20
1.6926
 30
5.7484
 70
32
 0
VERTEX
 8
8HW
 10
0.3217
 20
1.6467
 30
5.7484
 70
32
 0
VERTEX
 8
8HW
 10
0.3319
 20
1.5977
 30
5.7484
 70
32
 0
VERTEX
 8
8HW
 10
0.3491
 20
1.5457
 30
5.7484
 70
32
 0
VERTEX
 8
8HW
 10
0.3613
 20
1.5186
 30
5.7484
 70
32
 0
VERTEX
 8
8HW
 10
0.3759
 20
1.4934
 30
5.7484
 70
32
 0
VERTEX
 8
8HW
 10
0.3927
 20
1.4699
 30
5.7484
 70
32
 0
VERTEX
 8
8HW
 10
0.4216
 20
1.4375
 30
5.7484
 70
32
 0
VERTEX
 8
8HW
 10
0.4545
 20
1.4081
 30
5.7484
 70
32
 0
VERTEX
 8
8HW
 10
0.5035
 20
1.3724
 30
5.7484
 70
32
 0
VERTEX
 8
8HW
 10
0.5993
 20
1.3164
 30
5.7484
 70
32
 0
VERTEX
 8
8HW
 10
0.8156
 20
1.1946
 30
5.7484
 70
32
 0
VERTEX
 8
8HW
 10
0.8685
 20
1.1551
 30
5.7484
 70
32
 0
VERTEX
 8
8HW
 10
0.905
 20
1.1219
 30
5.7484
 70
32
 0
VERTEX
 8
8HW
 10
0.9276
 20
1.0978
 30
5.7484
 70
32
 0
VERTEX
 8
8HW
 10
0.9583
 20
1.0583
 30
5.7484
 70
32
 0
VERTEX
 8
8HW
 10
0.9804
 20
1.0229
 30
5.7484
 70
32
 0
VERTEX
 8
8HW
 10
1.0076
 20
0.9665
 30
5.7484
 70
32
 0
VERTEX
 8
8HW
 10
1.028
 20
0.9069
 30
5.7484
 70
32
 0
VERTEX
 8
8HW
 10
1.0417
 20
0.8448
 30
5.7484
 70
32
 0
VERTEX
 8
8HW
 10
1.0492
 20
0.7811
 30
5.7484
 70
32
 0
VERTEX
 8
8HW
 10
1.0507
 20
0.7163
 30
5.7484
 70
32
 0
VERTEX
 8
8HW
 10
1.0441
 20
0.6298
 30
5.7484
 70
32
 0
VERTEX
 8
8HW
 10
1.0281
 20
0.5448
 30
5.7484
 70
32
 0
VERTEX
 8
8HW
 10
1.0036
 20
0.4629
 30
5.7484
 70
32
 0
VERTEX
 8
8HW
 10
0.9712
 20
0.386
 30
5.7484
 70
32
 0
VERTEX
 8
8HW
 10
0.9422
 20
0.3328
 30
5.7484
 70
32
 0
VERTEX
 8
8HW
 10
0.9096
 20
0.284
 30
5.7484
 70
32
 0
VERTEX
 8
8HW
 10
0.8736
 20
0.2406
 30
5.7484
 70
32
 0
VERTEX
 8
8HW
 10
0.8345
 20
0.2033
 30
5.7484
 70
32
 0
VERTEX
 8
8HW
 10
0.8069
 20
0.1822
 30
5.7484
 70
32
 0
VERTEX
 8
8HW
 10
0.7926
 20
0.1728
 30
5.7484
 70
32
 0
VERTEX
 8
8HW
 10
0.7634
 20
0.1567
 30
5.7484
 70
32
 0
VERTEX
 8
8HW
 10
0.7049
 20
0.132
 30
5.7484
 70
32
 0
VERTEX
 8
8HW
 10
0.6489
 20
0.1152
 30
5.7484
 70
32
 0
VERTEX
 8
8HW
 10
0.6085
 20
0.1075
 30
5.7484
 70
32
 0
VERTEX
 8
8HW
 10
0.5695
 20
0.1039
 30
5.7484
 70
32
 0
VERTEX
 8
8HW
 10
0.5319
 20
0.1042
 30
5.7484
 70
32
 0
VERTEX
 8
8HW
 10
0.4957
 20
0.1081
 30
5.7484
 70
32
 0
VERTEX
 8
8HW
 10
0.4611
 20
0.1156
 30
5.7484
 70
32
 0
VERTEX
 8
8HW
 10
0.4279
 20
0.1264
 30
5.7484
 70
32
 0
VERTEX
 8
8HW
 10
0.3963
 20
0.1403
 30
5.7484
 70
32
 0
VERTEX
 8
8HW
 10
0.3662
 20
0.1572
 30
5.7484
 70
32
 0
VERTEX
 8
8HW
 10
0.3377
 20
0.1769
 30
5.7484
 70
32
 0
VERTEX
 8
8HW
 10
0.3022
 20
0.2072
 30
5.7484
 70
32
 0
VERTEX
 8
8HW
 10
0.2696
 20
0.2418
 30
5.7484
 70
32
 0
VERTEX
 8
8HW
 10
0.2471
 20
0.2702
 30
5.7484
 70
32
 0
SEQEND
 0
ENDSEC
 0
EOF
