 0
SECTION
 2
HEADER
 9
$ACADVER
 1
AC1009
 0
ENDSEC
 0
SECTION
 2
TABLES
 0
TABLE
 2
LTYPE
 70
1
 0
LTYPE
 2
CONTINUOUS
 70
64
 3
solid line
 72
65
 73
0
 40
0.0
 0
ENDTAB
 0
TABLE
 2
LAYER
 70
6
 0
LAYER
 2
0
 70
0
 62
7
 6
CONTINUOUS
 0
LAYER
 2
NUMBERS
 70
64
 62
7
 6
CONTINUOUS
 0
LAYER
 2
9
 70
64
 62
7
 6
CONTINUOUS
 0
ENDTAB
 0
ENDSEC
 0
SECTION
 2
BLOCKS
 0
ENDSEC
 0
SECTION
 2
ENTITIES
 0
POLYLINE
 8
9
 66
1
 10
0.0
 20
0.0
 30
0.0
 70
9
 0
VERTEX
 8
9
 10
0.2472
 20
0.1803
 30
5.7484
 70
32
 0
VERTEX
 8
9
 10
0.2472
 20
0.4484
 30
5.7484
 70
32
 0
VERTEX
 8
9
 10
0.2936
 20
0.4263
 30
5.7484
 70
32
 0
VERTEX
 8
9
 10
0.3384
 20
0.4099
 30
5.7484
 70
32
 0
VERTEX
 8
9
 10
0.3815
 20
0.3991
 30
5.7484
 70
32
 0
VERTEX
 8
9
 10
0.4228
 20
0.3936
 30
5.7484
 70
32
 0
VERTEX
 8
9
 10
0.4624
 20
0.3931
 30
5.7484
 70
32
 0
VERTEX
 8
9
 10
0.5003
 20
0.3973
 30
5.7484
 70
32
 0
VERTEX
 8
9
 10
0.5364
 20
0.4061
 30
5.7484
 70
32
 0
VERTEX
 8
9
 10
0.5707
 20
0.419
 30
5.7484
 70
32
 0
VERTEX
 8
9
 10
0.6032
 20
0.4359
 30
5.7484
 70
32
 0
VERTEX
 8
9
 10
0.6339
 20
0.4566
 30
5.7484
 70
32
 0
VERTEX
 8
9
 10
0.6628
 20
0.4807
 30
5.7484
 70
32
 0
VERTEX
 8
9
 10
0.6899
 20
0.5079
 30
5.7484
 70
32
 0
VERTEX
 8
9
 10
0.727
 20
0.5542
 30
5.7484
 70
32
 0
VERTEX
 8
9
 10
0.7599
 20
0.6062
 30
5.7484
 70
32
 0
VERTEX
 8
9
 10
0.7886
 20
0.663
 30
5.7484
 70
32
 0
VERTEX
 8
9
 10
0.8201
 20
0.7447
 30
5.7484
 70
32
 0
VERTEX
 8
9
 10
0.8439
 20
0.8313
 30
5.7484
 70
32
 0
VERTEX
 8
9
 10
0.8599
 20
0.9207
 30
5.7484
 70
32
 0
VERTEX
 8
9
 10
0.8648
 20
0.9658
 30
5.7484
 70
32
 0
VERTEX
 8
9
 10
0.8686
 20
1.0332
 30
5.7484
 70
32
 0
VERTEX
 8
9
 10
0.8416
 20
1.0092
 30
5.7484
 70
32
 0
VERTEX
 8
9
 10
0.8109
 20
0.9876
 30
5.7484
 70
32
 0
VERTEX
 8
9
 10
0.777
 20
0.9688
 30
5.7484
 70
32
 0
VERTEX
 8
9
 10
0.7403
 20
0.9529
 30
5.7484
 70
32
 0
VERTEX
 8
9
 10
0.6879
 20
0.9362
 30
5.7484
 70
32
 0
VERTEX
 8
9
 10
0.6327
 20
0.925
 30
5.7484
 70
32
 0
VERTEX
 8
9
 10
0.5758
 20
0.9196
 30
5.7484
 70
32
 0
VERTEX
 8
9
 10
0.5184
 20
0.9203
 30
5.7484
 70
32
 0
VERTEX
 8
9
 10
0.4618
 20
0.9274
 30
5.7484
 70
32
 0
VERTEX
 8
9
 10
0.4204
 20
0.937
 30
5.7484
 70
32
 0
VERTEX
 8
9
 10
0.3807
 20
0.9505
 30
5.7484
 70
32
 0
VERTEX
 8
9
 10
0.343
 20
0.968
 30
5.7484
 70
32
 0
VERTEX
 8
9
 10
0.3078
 20
0.9895
 30
5.7484
 70
32
 0
VERTEX
 8
9
 10
0.2757
 20
1.0153
 30
5.7484
 70
32
 0
VERTEX
 8
9
 10
0.2658
 20
1.0249
 30
5.7484
 70
32
 0
VERTEX
 8
9
 10
0.2472
 20
1.0454
 30
5.7484
 70
32
 0
VERTEX
 8
9
 10
0.2189
 20
1.0841
 30
5.7484
 70
32
 0
VERTEX
 8
9
 10
0.1939
 20
1.1272
 30
5.7484
 70
32
 0
VERTEX
 8
9
 10
0.1723
 20
1.1743
 30
5.7484
 70
32
 0
VERTEX
 8
9
 10
0.146
 20
1.2511
 30
5.7484
 70
32
 0
VERTEX
 8
9
 10
0.127
 20
1.334
 30
5.7484
 70
32
 0
VERTEX
 8
9
 10
0.1154
 20
1.4214
 30
5.7484
 70
32
 0
VERTEX
 8
9
 10
0.1114
 20
1.5419
 30
5.7484
 70
32
 0
VERTEX
 8
9
 10
0.1203
 20
1.6636
 30
5.7484
 70
32
 0
VERTEX
 8
9
 10
0.1421
 20
1.7824
 30
5.7484
 70
32
 0
VERTEX
 8
9
 10
0.1669
 20
1.8673
 30
5.7484
 70
32
 0
VERTEX
 8
9
 10
0.1989
 20
1.9467
 30
5.7484
 70
32
 0
VERTEX
 8
9
 10
0.2381
 20
2.0191
 30
5.7484
 70
32
 0
VERTEX
 8
9
 10
0.2682
 20
2.0626
 30
5.7484
 70
32
 0
VERTEX
 8
9
 10
0.3015
 20
2.1018
 30
5.7484
 70
32
 0
VERTEX
 8
9
 10
0.338
 20
2.1361
 30
5.7484
 70
32
 0
VERTEX
 8
9
 10
0.3775
 20
2.1651
 30
5.7484
 70
32
 0
VERTEX
 8
9
 10
0.4203
 20
2.1883
 30
5.7484
 70
32
 0
VERTEX
 8
9
 10
0.4662
 20
2.2051
 30
5.7484
 70
32
 0
VERTEX
 8
9
 10
0.5152
 20
2.2152
 30
5.7484
 70
32
 0
VERTEX
 8
9
 10
0.5482
 20
2.2178
 30
5.7484
 70
32
 0
VERTEX
 8
9
 10
0.5918
 20
2.2171
 30
5.7484
 70
32
 0
VERTEX
 8
9
 10
0.6337
 20
2.2125
 30
5.7484
 70
32
 0
VERTEX
 8
9
 10
0.6775
 20
2.2035
 30
5.7484
 70
32
 0
VERTEX
 8
9
 10
0.7157
 20
2.1916
 30
5.7484
 70
32
 0
VERTEX
 8
9
 10
0.7473
 20
2.1784
 30
5.7484
 70
32
 0
VERTEX
 8
9
 10
0.7781
 20
2.162
 30
5.7484
 70
32
 0
VERTEX
 8
9
 10
0.8076
 20
2.142
 30
5.7484
 70
32
 0
VERTEX
 8
9
 10
0.8322
 20
2.1217
 30
5.7484
 70
32
 0
VERTEX
 8
9
 10
0.8774
 20
2.0734
 30
5.7484
 70
32
 0
VERTEX
 8
9
 10
0.9175
 20
2.0158
 30
5.7484
 70
32
 0
VERTEX
 8
9
 10
0.9526
 20
1.9499
 30
5.7484
 70
32
 0
VERTEX
 8
9
 10
0.9827
 20
1.8765
 30
5.7484
 70
32
 0
VERTEX
 8
9
 10
1.0186
 20
1.7543
 30
5.7484
 70
32
 0
VERTEX
 8
9
 10
1.0438
 20
1.6203
 30
5.7484
 70
32
 0
VERTEX
 8
9
 10
1.0611
 20
1.4284
 30
5.7484
 70
32
 0
VERTEX
 8
9
 10
1.0602
 20
1.2279
 30
5.7484
 70
32
 0
VERTEX
 8
9
 10
1.0344
 20
0.976
 30
5.7484
 70
32
 0
VERTEX
 8
9
 10
0.9949
 20
0.7822
 30
5.7484
 70
32
 0
VERTEX
 8
9
 10
0.9392
 20
0.6029
 30
5.7484
 70
32
 0
VERTEX
 8
9
 10
0.8871
 20
0.4822
 30
5.7484
 70
32
 0
VERTEX
 8
9
 10
0.8264
 20
0.3767
 30
5.7484
 70
32
 0
VERTEX
 8
9
 10
0.7814
 20
0.3163
 30
5.7484
 70
32
 0
VERTEX
 8
9
 10
0.7327
 20
0.2649
 30
5.7484
 70
32
 0
VERTEX
 8
9
 10
0.6805
 20
0.2233
 30
5.7484
 70
32
 0
VERTEX
 8
9
 10
0.6249
 20
0.1925
 30
5.7484
 70
32
 0
VERTEX
 8
9
 10
0.5928
 20
0.1803
 30
5.7484
 70
32
 0
VERTEX
 8
9
 10
0.5516
 20
0.1689
 30
5.7484
 70
32
 0
VERTEX
 8
9
 10
0.5078
 20
0.1612
 30
5.7484
 70
32
 0
VERTEX
 8
9
 10
0.4543
 20
0.1567
 30
5.7484
 70
32
 0
VERTEX
 8
9
 10
0.391
 20
0.1573
 30
5.7484
 70
32
 0
VERTEX
 8
9
 10
0.3268
 20
0.1639
 30
5.7484
 70
32
 0
VERTEX
 8
9
 10
0.2867
 20
0.171
 30
5.7484
 70
32
 0
SEQEND
 0
POLYLINE
 8
9
 66
1
 10
0.0
 20
0.0
 30
0.0
 70
9
 0
VERTEX
 8
9
 10
0.6614
 20
1.9836
 30
5.7484
 70
32
 0
VERTEX
 8
9
 10
0.6187
 20
1.9967
 30
5.7484
 70
32
 0
VERTEX
 8
9
 10
0.5786
 20
2.0026
 30
5.7484
 70
32
 0
VERTEX
 8
9
 10
0.5411
 20
2.0017
 30
5.7484
 70
32
 0
VERTEX
 8
9
 10
0.5234
 20
1.9989
 30
5.7484
 70
32
 0
VERTEX
 8
9
 10
0.5063
 20
1.9946
 30
5.7484
 70
32
 0
VERTEX
 8
9
 10
0.4899
 20
1.9888
 30
5.7484
 70
32
 0
VERTEX
 8
9
 10
0.459
 20
1.9732
 30
5.7484
 70
32
 0
VERTEX
 8
9
 10
0.4307
 20
1.9525
 30
5.7484
 70
32
 0
VERTEX
 8
9
 10
0.405
 20
1.9272
 30
5.7484
 70
32
 0
VERTEX
 8
9
 10
0.3818
 20
1.8978
 30
5.7484
 70
32
 0
VERTEX
 8
9
 10
0.3612
 20
1.8647
 30
5.7484
 70
32
 0
VERTEX
 8
9
 10
0.3431
 20
1.8285
 30
5.7484
 70
32
 0
VERTEX
 8
9
 10
0.3207
 20
1.7692
 30
5.7484
 70
32
 0
VERTEX
 8
9
 10
0.304
 20
1.7055
 30
5.7484
 70
32
 0
VERTEX
 8
9
 10
0.2903
 20
1.6164
 30
5.7484
 70
32
 0
VERTEX
 8
9
 10
0.2864
 20
1.526
 30
5.7484
 70
32
 0
VERTEX
 8
9
 10
0.2921
 20
1.4381
 30
5.7484
 70
32
 0
VERTEX
 8
9
 10
0.3027
 20
1.3761
 30
5.7484
 70
32
 0
VERTEX
 8
9
 10
0.3186
 20
1.3193
 30
5.7484
 70
32
 0
VERTEX
 8
9
 10
0.3321
 20
1.285
 30
5.7484
 70
32
 0
VERTEX
 8
9
 10
0.3398
 20
1.2692
 30
5.7484
 70
32
 0
VERTEX
 8
9
 10
0.3568
 20
1.2404
 30
5.7484
 70
32
 0
VERTEX
 8
9
 10
0.378
 20
1.213
 30
5.7484
 70
32
 0
VERTEX
 8
9
 10
0.3935
 20
1.1969
 30
5.7484
 70
32
 0
VERTEX
 8
9
 10
0.41
 20
1.1826
 30
5.7484
 70
32
 0
VERTEX
 8
9
 10
0.4274
 20
1.17
 30
5.7484
 70
32
 0
VERTEX
 8
9
 10
0.4551
 20
1.1541
 30
5.7484
 70
32
 0
VERTEX
 8
9
 10
0.4845
 20
1.142
 30
5.7484
 70
32
 0
VERTEX
 8
9
 10
0.5153
 20
1.1334
 30
5.7484
 70
32
 0
VERTEX
 8
9
 10
0.5472
 20
1.1283
 30
5.7484
 70
32
 0
VERTEX
 8
9
 10
0.5801
 20
1.1267
 30
5.7484
 70
32
 0
VERTEX
 8
9
 10
0.6137
 20
1.1283
 30
5.7484
 70
32
 0
VERTEX
 8
9
 10
0.6478
 20
1.1331
 30
5.7484
 70
32
 0
VERTEX
 8
9
 10
0.6935
 20
1.1444
 30
5.7484
 70
32
 0
VERTEX
 8
9
 10
0.739
 20
1.1609
 30
5.7484
 70
32
 0
VERTEX
 8
9
 10
0.7837
 20
1.1826
 30
5.7484
 70
32
 0
VERTEX
 8
9
 10
0.8271
 20
1.2092
 30
5.7484
 70
32
 0
VERTEX
 8
9
 10
0.8686
 20
1.2404
 30
5.7484
 70
32
 0
VERTEX
 8
9
 10
0.8538
 20
1.6141
 30
5.7484
 70
32
 0
VERTEX
 8
9
 10
0.8387
 20
1.7155
 30
5.7484
 70
32
 0
VERTEX
 8
9
 10
0.8236
 20
1.7774
 30
5.7484
 70
32
 0
VERTEX
 8
9
 10
0.8037
 20
1.8337
 30
5.7484
 70
32
 0
VERTEX
 8
9
 10
0.7852
 20
1.8717
 30
5.7484
 70
32
 0
VERTEX
 8
9
 10
0.7632
 20
1.9055
 30
5.7484
 70
32
 0
VERTEX
 8
9
 10
0.7466
 20
1.9256
 30
5.7484
 70
32
 0
VERTEX
 8
9
 10
0.7281
 20
1.9436
 30
5.7484
 70
32
 0
VERTEX
 8
9
 10
0.7079
 20
1.9593
 30
5.7484
 70
32
 0
VERTEX
 8
9
 10
0.6857
 20
1.9727
 30
5.7484
 70
32
 0
SEQEND
 0
POLYLINE
 8
9
 66
1
 10
0.0
 20
0.0
 30
0.0
 70
9
 0
VERTEX
 8
9
 10
0.8686
 20
1.2404
 30
5.7484
 70
32
 0
VERTEX
 8
9
 10
0.8271
 20
1.2092
 30
5.7484
 70
32
 0
VERTEX
 8
9
 10
0.7837
 20
1.1826
 30
5.7484
 70
32
 0
VERTEX
 8
9
 10
0.739
 20
1.1609
 30
5.7484
 70
32
 0
VERTEX
 8
9
 10
0.6935
 20
1.1444
 30
5.7484
 70
32
 0
VERTEX
 8
9
 10
0.6478
 20
1.1331
 30
5.7484
 70
32
 0
VERTEX
 8
9
 10
0.6137
 20
1.1283
 30
5.7484
 70
32
 0
VERTEX
 8
9
 10
0.5801
 20
1.1267
 30
5.7484
 70
32
 0
VERTEX
 8
9
 10
0.5472
 20
1.1283
 30
5.7484
 70
32
 0
VERTEX
 8
9
 10
0.5153
 20
1.1334
 30
5.7484
 70
32
 0
VERTEX
 8
9
 10
0.4845
 20
1.142
 30
5.7484
 70
32
 0
VERTEX
 8
9
 10
0.4551
 20
1.1541
 30
5.7484
 70
32
 0
VERTEX
 8
9
 10
0.4274
 20
1.17
 30
5.7484
 70
32
 0
VERTEX
 8
9
 10
0.41
 20
1.1826
 30
5.7484
 70
32
 0
VERTEX
 8
9
 10
0.3935
 20
1.1969
 30
5.7484
 70
32
 0
VERTEX
 8
9
 10
0.378
 20
1.213
 30
5.7484
 70
32
 0
VERTEX
 8
9
 10
0.3568
 20
1.2404
 30
5.7484
 70
32
 0
VERTEX
 8
9
 10
0.3398
 20
1.2692
 30
5.7484
 70
32
 0
VERTEX
 8
9
 10
0.3251
 20
1.3017
 30
5.7484
 70
32
 0
VERTEX
 8
9
 10
0.3074
 20
1.3565
 30
5.7484
 70
32
 0
VERTEX
 8
9
 10
0.2951
 20
1.4169
 30
5.7484
 70
32
 0
VERTEX
 8
9
 10
0.288
 20
1.4815
 30
5.7484
 70
32
 0
VERTEX
 8
9
 10
0.2871
 20
1.5711
 30
5.7484
 70
32
 0
VERTEX
 8
9
 10
0.2959
 20
1.6613
 30
5.7484
 70
32
 0
VERTEX
 8
9
 10
0.3089
 20
1.7271
 30
5.7484
 70
32
 0
VERTEX
 8
9
 10
0.3276
 20
1.7896
 30
5.7484
 70
32
 0
VERTEX
 8
9
 10
0.3518
 20
1.847
 30
5.7484
 70
32
 0
VERTEX
 8
9
 10
0.3712
 20
1.8817
 30
5.7484
 70
32
 0
VERTEX
 8
9
 10
0.3931
 20
1.913
 30
5.7484
 70
32
 0
VERTEX
 8
9
 10
0.4175
 20
1.9404
 30
5.7484
 70
32
 0
VERTEX
 8
9
 10
0.4445
 20
1.9635
 30
5.7484
 70
32
 0
VERTEX
 8
9
 10
0.4741
 20
1.9817
 30
5.7484
 70
32
 0
VERTEX
 8
9
 10
0.5063
 20
1.9946
 30
5.7484
 70
32
 0
VERTEX
 8
9
 10
0.5234
 20
1.9989
 30
5.7484
 70
32
 0
VERTEX
 8
9
 10
0.5411
 20
2.0017
 30
5.7484
 70
32
 0
VERTEX
 8
9
 10
0.5595
 20
2.003
 30
5.7484
 70
32
 0
VERTEX
 8
9
 10
0.5983
 20
2.0005
 30
5.7484
 70
32
 0
VERTEX
 8
9
 10
0.6187
 20
1.9967
 30
5.7484
 70
32
 0
VERTEX
 8
9
 10
0.6614
 20
1.9836
 30
5.7484
 70
32
 0
VERTEX
 8
9
 10
0.6857
 20
1.9727
 30
5.7484
 70
32
 0
VERTEX
 8
9
 10
0.7079
 20
1.9593
 30
5.7484
 70
32
 0
VERTEX
 8
9
 10
0.7281
 20
1.9436
 30
5.7484
 70
32
 0
VERTEX
 8
9
 10
0.7466
 20
1.9256
 30
5.7484
 70
32
 0
VERTEX
 8
9
 10
0.7632
 20
1.9055
 30
5.7484
 70
32
 0
VERTEX
 8
9
 10
0.7783
 20
1.8834
 30
5.7484
 70
32
 0
VERTEX
 8
9
 10
0.7979
 20
1.8468
 30
5.7484
 70
32
 0
VERTEX
 8
9
 10
0.8143
 20
1.8064
 30
5.7484
 70
32
 0
VERTEX
 8
9
 10
0.8317
 20
1.7471
 30
5.7484
 70
32
 0
VERTEX
 8
9
 10
0.8473
 20
1.6659
 30
5.7484
 70
32
 0
VERTEX
 8
9
 10
0.8638
 20
1.4679
 30
5.7484
 70
32
 0
SEQEND
 0
ENDSEC
 0
EOF
