 0
SECTION
 2
HEADER
 9
$ACADVER
 1
AC1009
 0
ENDSEC
 0
SECTION
 2
TABLES
 0
TABLE
 2
LTYPE
 70
1
 0
LTYPE
 2
CONTINUOUS
 70
64
 3
solid line
 72
65
 73
0
 40
0.0
 0
ENDTAB
 0
TABLE
 2
LAYER
 70
6
 0
LAYER
 2
0
 70
0
 62
7
 6
CONTINUOUS
 0
LAYER
 2
NUMBERS
 70
64
 62
7
 6
CONTINUOUS
 0
LAYER
 2
9HW
 70
64
 62
7
 6
CONTINUOUS
 0
ENDTAB
 0
ENDSEC
 0
SECTION
 2
BLOCKS
 0
ENDSEC
 0
SECTION
 2
ENTITIES
 0
POLYLINE
 8
9HW
 66
1
 10
0.0
 20
0.0
 30
0.0
 70
9
 0
VERTEX
 8
9HW
 10
0.2255
 20
0.189
 30
5.7484
 70
32
 0
VERTEX
 8
9HW
 10
0.2255
 20
0.4571
 30
5.7484
 70
32
 0
VERTEX
 8
9HW
 10
0.3024
 20
0.4197
 30
5.7484
 70
32
 0
VERTEX
 8
9HW
 10
0.3389
 20
0.4073
 30
5.7484
 70
32
 0
VERTEX
 8
9HW
 10
0.374
 20
0.3989
 30
5.7484
 70
32
 0
VERTEX
 8
9HW
 10
0.4079
 20
0.3943
 30
5.7484
 70
32
 0
VERTEX
 8
9HW
 10
0.4404
 20
0.3934
 30
5.7484
 70
32
 0
VERTEX
 8
9HW
 10
0.4716
 20
0.396
 30
5.7484
 70
32
 0
VERTEX
 8
9HW
 10
0.5016
 20
0.4021
 30
5.7484
 70
32
 0
VERTEX
 8
9HW
 10
0.5303
 20
0.4114
 30
5.7484
 70
32
 0
VERTEX
 8
9HW
 10
0.5577
 20
0.4239
 30
5.7484
 70
32
 0
VERTEX
 8
9HW
 10
0.5839
 20
0.4394
 30
5.7484
 70
32
 0
VERTEX
 8
9HW
 10
0.6088
 20
0.4578
 30
5.7484
 70
32
 0
VERTEX
 8
9HW
 10
0.6325
 20
0.4788
 30
5.7484
 70
32
 0
VERTEX
 8
9HW
 10
0.6764
 20
0.5285
 30
5.7484
 70
32
 0
VERTEX
 8
9HW
 10
0.7154
 20
0.5874
 30
5.7484
 70
32
 0
VERTEX
 8
9HW
 10
0.7498
 20
0.6544
 30
5.7484
 70
32
 0
VERTEX
 8
9HW
 10
0.7927
 20
0.7674
 30
5.7484
 70
32
 0
VERTEX
 8
9HW
 10
0.8257
 20
0.8922
 30
5.7484
 70
32
 0
VERTEX
 8
9HW
 10
0.8545
 20
1.0705
 30
5.7484
 70
32
 0
VERTEX
 8
9HW
 10
0.8667
 20
1.2539
 30
5.7484
 70
32
 0
VERTEX
 8
9HW
 10
0.863
 20
1.4336
 30
5.7484
 70
32
 0
VERTEX
 8
9HW
 10
0.844
 20
1.6005
 30
5.7484
 70
32
 0
VERTEX
 8
9HW
 10
0.8202
 20
1.7119
 30
5.7484
 70
32
 0
VERTEX
 8
9HW
 10
0.7886
 20
1.8072
 30
5.7484
 70
32
 0
VERTEX
 8
9HW
 10
0.7764
 20
1.8347
 30
5.7484
 70
32
 0
VERTEX
 8
9HW
 10
0.7494
 20
1.8827
 30
5.7484
 70
32
 0
VERTEX
 8
9HW
 10
0.7318
 20
1.9067
 30
5.7484
 70
32
 0
VERTEX
 8
9HW
 10
0.7084
 20
1.9328
 30
5.7484
 70
32
 0
VERTEX
 8
9HW
 10
0.6826
 20
1.9567
 30
5.7484
 70
32
 0
VERTEX
 8
9HW
 10
0.6589
 20
1.9747
 30
5.7484
 70
32
 0
VERTEX
 8
9HW
 10
0.6381
 20
1.9874
 30
5.7484
 70
32
 0
VERTEX
 8
9HW
 10
0.621
 20
1.9957
 30
5.7484
 70
32
 0
VERTEX
 8
9HW
 10
0.6074
 20
2.0007
 30
5.7484
 70
32
 0
VERTEX
 8
9HW
 10
0.6008
 20
2.0025
 30
5.7484
 70
32
 0
VERTEX
 8
9HW
 10
0.591
 20
2.0045
 30
5.7484
 70
32
 0
VERTEX
 8
9HW
 10
0.5447
 20
2.0076
 30
5.7484
 70
32
 0
VERTEX
 8
9HW
 10
0.5229
 20
2.006
 30
5.7484
 70
32
 0
VERTEX
 8
9HW
 10
0.502
 20
2.0025
 30
5.7484
 70
32
 0
VERTEX
 8
9HW
 10
0.482
 20
1.997
 30
5.7484
 70
32
 0
VERTEX
 8
9HW
 10
0.463
 20
1.9898
 30
5.7484
 70
32
 0
VERTEX
 8
9HW
 10
0.4449
 20
1.9808
 30
5.7484
 70
32
 0
VERTEX
 8
9HW
 10
0.4276
 20
1.9702
 30
5.7484
 70
32
 0
VERTEX
 8
9HW
 10
0.3959
 20
1.9444
 30
5.7484
 70
32
 0
VERTEX
 8
9HW
 10
0.3678
 20
1.9131
 30
5.7484
 70
32
 0
VERTEX
 8
9HW
 10
0.3433
 20
1.8768
 30
5.7484
 70
32
 0
VERTEX
 8
9HW
 10
0.3224
 20
1.8363
 30
5.7484
 70
32
 0
VERTEX
 8
9HW
 10
0.305
 20
1.7922
 30
5.7484
 70
32
 0
VERTEX
 8
9HW
 10
0.2856
 20
1.7208
 30
5.7484
 70
32
 0
VERTEX
 8
9HW
 10
0.274
 20
1.645
 30
5.7484
 70
32
 0
VERTEX
 8
9HW
 10
0.2702
 20
1.5672
 30
5.7484
 70
32
 0
VERTEX
 8
9HW
 10
0.2742
 20
1.4895
 30
5.7484
 70
32
 0
VERTEX
 8
9HW
 10
0.2859
 20
1.4141
 30
5.7484
 70
32
 0
VERTEX
 8
9HW
 10
0.3051
 20
1.3434
 30
5.7484
 70
32
 0
VERTEX
 8
9HW
 10
0.3222
 20
1.2998
 30
5.7484
 70
32
 0
VERTEX
 8
9HW
 10
0.3425
 20
1.26
 30
5.7484
 70
32
 0
VERTEX
 8
9HW
 10
0.3662
 20
1.2245
 30
5.7484
 70
32
 0
VERTEX
 8
9HW
 10
0.3931
 20
1.1941
 30
5.7484
 70
32
 0
VERTEX
 8
9HW
 10
0.4234
 20
1.1693
 30
5.7484
 70
32
 0
VERTEX
 8
9HW
 10
0.4397
 20
1.1592
 30
5.7484
 70
32
 0
VERTEX
 8
9HW
 10
0.4568
 20
1.1509
 30
5.7484
 70
32
 0
VERTEX
 8
9HW
 10
0.4748
 20
1.1442
 30
5.7484
 70
32
 0
VERTEX
 8
9HW
 10
0.4935
 20
1.1394
 30
5.7484
 70
32
 0
VERTEX
 8
9HW
 10
0.5244
 20
1.1349
 30
5.7484
 70
32
 0
VERTEX
 8
9HW
 10
0.5547
 20
1.1336
 30
5.7484
 70
32
 0
VERTEX
 8
9HW
 10
0.5843
 20
1.1351
 30
5.7484
 70
32
 0
VERTEX
 8
9HW
 10
0.6205
 20
1.1406
 30
5.7484
 70
32
 0
VERTEX
 8
9HW
 10
0.6626
 20
1.1514
 30
5.7484
 70
32
 0
VERTEX
 8
9HW
 10
0.749
 20
1.1848
 30
5.7484
 70
32
 0
VERTEX
 8
9HW
 10
0.8347
 20
1.2247
 30
5.7484
 70
32
 0
VERTEX
 8
9HW
 10
0.8347
 20
1.042
 30
5.7484
 70
32
 0
VERTEX
 8
9HW
 10
0.7923
 20
1.0096
 30
5.7484
 70
32
 0
VERTEX
 8
9HW
 10
0.7436
 20
0.9798
 30
5.7484
 70
32
 0
VERTEX
 8
9HW
 10
0.6991
 20
0.958
 30
5.7484
 70
32
 0
VERTEX
 8
9HW
 10
0.6517
 20
0.9398
 30
5.7484
 70
32
 0
VERTEX
 8
9HW
 10
0.6019
 20
0.9262
 30
5.7484
 70
32
 0
VERTEX
 8
9HW
 10
0.5607
 20
0.919
 30
5.7484
 70
32
 0
VERTEX
 8
9HW
 10
0.5188
 20
0.9156
 30
5.7484
 70
32
 0
VERTEX
 8
9HW
 10
0.4763
 20
0.9165
 30
5.7484
 70
32
 0
VERTEX
 8
9HW
 10
0.4337
 20
0.9221
 30
5.7484
 70
32
 0
VERTEX
 8
9HW
 10
0.4017
 20
0.9297
 30
5.7484
 70
32
 0
VERTEX
 8
9HW
 10
0.3806
 20
0.9364
 30
5.7484
 70
32
 0
VERTEX
 8
9HW
 10
0.3595
 20
0.9445
 30
5.7484
 70
32
 0
VERTEX
 8
9HW
 10
0.3117
 20
0.9697
 30
5.7484
 70
32
 0
VERTEX
 8
9HW
 10
0.2686
 20
1.0025
 30
5.7484
 70
32
 0
VERTEX
 8
9HW
 10
0.2302
 20
1.0422
 30
5.7484
 70
32
 0
VERTEX
 8
9HW
 10
0.1966
 20
1.0881
 30
5.7484
 70
32
 0
VERTEX
 8
9HW
 10
0.1675
 20
1.1395
 30
5.7484
 70
32
 0
VERTEX
 8
9HW
 10
0.143
 20
1.1956
 30
5.7484
 70
32
 0
VERTEX
 8
9HW
 10
0.1149
 20
1.2872
 30
5.7484
 70
32
 0
VERTEX
 8
9HW
 10
0.0968
 20
1.3855
 30
5.7484
 70
32
 0
VERTEX
 8
9HW
 10
0.0886
 20
1.4882
 30
5.7484
 70
32
 0
VERTEX
 8
9HW
 10
0.0903
 20
1.5928
 30
5.7484
 70
32
 0
VERTEX
 8
9HW
 10
0.1016
 20
1.6969
 30
5.7484
 70
32
 0
VERTEX
 8
9HW
 10
0.1224
 20
1.7982
 30
5.7484
 70
32
 0
VERTEX
 8
9HW
 10
0.1526
 20
1.8943
 30
5.7484
 70
32
 0
VERTEX
 8
9HW
 10
0.192
 20
1.9827
 30
5.7484
 70
32
 0
VERTEX
 8
9HW
 10
0.2233
 20
2.0362
 30
5.7484
 70
32
 0
VERTEX
 8
9HW
 10
0.2586
 20
2.0845
 30
5.7484
 70
32
 0
VERTEX
 8
9HW
 10
0.2979
 20
2.127
 30
5.7484
 70
32
 0
VERTEX
 8
9HW
 10
0.341
 20
2.1629
 30
5.7484
 70
32
 0
VERTEX
 8
9HW
 10
0.3881
 20
2.1915
 30
5.7484
 70
32
 0
VERTEX
 8
9HW
 10
0.4389
 20
2.212
 30
5.7484
 70
32
 0
VERTEX
 8
9HW
 10
0.4935
 20
2.2239
 30
5.7484
 70
32
 0
VERTEX
 8
9HW
 10
0.53
 20
2.2269
 30
5.7484
 70
32
 0
VERTEX
 8
9HW
 10
0.5732
 20
2.2263
 30
5.7484
 70
32
 0
VERTEX
 8
9HW
 10
0.6165
 20
2.2213
 30
5.7484
 70
32
 0
VERTEX
 8
9HW
 10
0.653
 20
2.2136
 30
5.7484
 70
32
 0
VERTEX
 8
9HW
 10
0.6887
 20
2.2027
 30
5.7484
 70
32
 0
VERTEX
 8
9HW
 10
0.723
 20
2.1885
 30
5.7484
 70
32
 0
VERTEX
 8
9HW
 10
0.7556
 20
2.1712
 30
5.7484
 70
32
 0
VERTEX
 8
9HW
 10
0.7711
 20
2.1614
 30
5.7484
 70
32
 0
VERTEX
 8
9HW
 10
0.786
 20
2.1508
 30
5.7484
 70
32
 0
VERTEX
 8
9HW
 10
0.8105
 20
2.1304
 30
5.7484
 70
32
 0
VERTEX
 8
9HW
 10
0.8558
 20
2.0821
 30
5.7484
 70
32
 0
VERTEX
 8
9HW
 10
0.8959
 20
2.0245
 30
5.7484
 70
32
 0
VERTEX
 8
9HW
 10
0.931
 20
1.9586
 30
5.7484
 70
32
 0
VERTEX
 8
9HW
 10
0.961
 20
1.8852
 30
5.7484
 70
32
 0
VERTEX
 8
9HW
 10
0.997
 20
1.763
 30
5.7484
 70
32
 0
VERTEX
 8
9HW
 10
1.0222
 20
1.629
 30
5.7484
 70
32
 0
VERTEX
 8
9HW
 10
1.0394
 20
1.437
 30
5.7484
 70
32
 0
VERTEX
 8
9HW
 10
1.0385
 20
1.2365
 30
5.7484
 70
32
 0
VERTEX
 8
9HW
 10
1.0127
 20
0.9846
 30
5.7484
 70
32
 0
VERTEX
 8
9HW
 10
0.9732
 20
0.7908
 30
5.7484
 70
32
 0
VERTEX
 8
9HW
 10
0.9174
 20
0.6115
 30
5.7484
 70
32
 0
VERTEX
 8
9HW
 10
0.8653
 20
0.4909
 30
5.7484
 70
32
 0
VERTEX
 8
9HW
 10
0.8047
 20
0.3854
 30
5.7484
 70
32
 0
VERTEX
 8
9HW
 10
0.7597
 20
0.325
 30
5.7484
 70
32
 0
VERTEX
 8
9HW
 10
0.711
 20
0.2736
 30
5.7484
 70
32
 0
VERTEX
 8
9HW
 10
0.6588
 20
0.232
 30
5.7484
 70
32
 0
VERTEX
 8
9HW
 10
0.6032
 20
0.2012
 30
5.7484
 70
32
 0
VERTEX
 8
9HW
 10
0.5712
 20
0.189
 30
5.7484
 70
32
 0
VERTEX
 8
9HW
 10
0.5299
 20
0.1776
 30
5.7484
 70
32
 0
VERTEX
 8
9HW
 10
0.4861
 20
0.1699
 30
5.7484
 70
32
 0
VERTEX
 8
9HW
 10
0.4326
 20
0.1654
 30
5.7484
 70
32
 0
VERTEX
 8
9HW
 10
0.3694
 20
0.166
 30
5.7484
 70
32
 0
VERTEX
 8
9HW
 10
0.3051
 20
0.1726
 30
5.7484
 70
32
 0
VERTEX
 8
9HW
 10
0.2651
 20
0.1797
 30
5.7484
 70
32
 0
SEQEND
 0
ENDSEC
 0
EOF
