 0
SECTION
 2
HEADER
 9
$ACADVER
 1
AC1009
 0
ENDSEC
 0
SECTION
 2
TABLES
 0
TABLE
 2
LTYPE
 70
1
 0
LTYPE
 2
CONTINUOUS
 70
64
 3
solid line
 72
65
 73
0
 40
0.0
 0
ENDTAB
 0
TABLE
 2
LAYER
 70
6
 0
LAYER
 2
0
 70
0
 62
7
 6
CONTINUOUS
 0
LAYER
 2
BUTTERFLY1
 70
64
 62
7
 6
CONTINUOUS
 0
ENDTAB
 0
ENDSEC
 0
SECTION
 2
BLOCKS
 0
ENDSEC
 0
SECTION
 2
ENTITIES
 0
POLYLINE
 8
BUTTERFLY1
 66
1
 10
0.0
 20
0.0
 30
0.0
 70
9
 0
VERTEX
 8
BUTTERFLY1
 10
1.4833
 20
0.4489
 30
4.6118
 70
32
 0
VERTEX
 8
BUTTERFLY1
 10
1.7955
 20
0.3883
 30
4.6118
 70
32
 0
VERTEX
 8
BUTTERFLY1
 10
1.8427
 20
0.3716
 30
4.6118
 70
32
 0
VERTEX
 8
BUTTERFLY1
 10
1.8729
 20
0.3581
 30
4.6118
 70
32
 0
VERTEX
 8
BUTTERFLY1
 10
1.9092
 20
0.3378
 30
4.6118
 70
32
 0
VERTEX
 8
BUTTERFLY1
 10
1.9222
 20
0.3288
 30
4.6118
 70
32
 0
VERTEX
 8
BUTTERFLY1
 10
1.9368
 20
0.3164
 30
4.6118
 70
32
 0
VERTEX
 8
BUTTERFLY1
 10
2.0018
 20
0.2514
 30
4.6118
 70
32
 0
VERTEX
 8
BUTTERFLY1
 10
2.0137
 20
0.2431
 30
4.6118
 70
32
 0
VERTEX
 8
BUTTERFLY1
 10
2.0234
 20
0.2377
 30
4.6118
 70
32
 0
VERTEX
 8
BUTTERFLY1
 10
2.0338
 20
0.2331
 30
4.6118
 70
32
 0
VERTEX
 8
BUTTERFLY1
 10
2.0451
 20
0.2294
 30
4.6118
 70
32
 0
VERTEX
 8
BUTTERFLY1
 10
2.0574
 20
0.2267
 30
4.6118
 70
32
 0
VERTEX
 8
BUTTERFLY1
 10
2.0741
 20
0.2248
 30
4.6118
 70
32
 0
VERTEX
 8
BUTTERFLY1
 10
2.101
 20
0.2242
 30
4.6118
 70
32
 0
VERTEX
 8
BUTTERFLY1
 10
2.1419
 20
0.2269
 30
4.6118
 70
32
 0
VERTEX
 8
BUTTERFLY1
 10
2.1683
 20
0.2306
 30
4.6118
 70
32
 0
VERTEX
 8
BUTTERFLY1
 10
2.1963
 20
0.236
 30
4.6118
 70
32
 0
VERTEX
 8
BUTTERFLY1
 10
2.2757
 20
0.2587
 30
4.6118
 70
32
 0
VERTEX
 8
BUTTERFLY1
 10
2.3527
 20
0.2896
 30
4.6118
 70
32
 0
VERTEX
 8
BUTTERFLY1
 10
2.4519
 20
0.3421
 30
4.6118
 70
32
 0
VERTEX
 8
BUTTERFLY1
 10
2.5473
 20
0.4054
 30
4.6118
 70
32
 0
VERTEX
 8
BUTTERFLY1
 10
2.6843
 20
0.5157
 30
4.6118
 70
32
 0
VERTEX
 8
BUTTERFLY1
 10
3.0016
 20
0.8251
 30
4.6118
 70
32
 0
VERTEX
 8
BUTTERFLY1
 10
3.298
 20
1.0878
 30
4.6118
 70
32
 0
VERTEX
 8
BUTTERFLY1
 10
3.8927
 20
0.4609
 30
4.6118
 70
32
 0
VERTEX
 8
BUTTERFLY1
 10
3.9786
 20
0.3888
 30
4.6118
 70
32
 0
VERTEX
 8
BUTTERFLY1
 10
4.085
 20
0.3101
 30
4.6118
 70
32
 0
VERTEX
 8
BUTTERFLY1
 10
4.2058
 20
0.2341
 30
4.6118
 70
32
 0
VERTEX
 8
BUTTERFLY1
 10
4.2759
 20
0.1992
 30
4.6118
 70
32
 0
VERTEX
 8
BUTTERFLY1
 10
4.3247
 20
0.1805
 30
4.6118
 70
32
 0
VERTEX
 8
BUTTERFLY1
 10
4.366
 20
0.169
 30
4.6118
 70
32
 0
VERTEX
 8
BUTTERFLY1
 10
4.3991
 20
0.1631
 30
4.6118
 70
32
 0
VERTEX
 8
BUTTERFLY1
 10
4.432
 20
0.1606
 30
4.6118
 70
32
 0
VERTEX
 8
BUTTERFLY1
 10
4.4484
 20
0.1607
 30
4.6118
 70
32
 0
VERTEX
 8
BUTTERFLY1
 10
4.4646
 20
0.1619
 30
4.6118
 70
32
 0
VERTEX
 8
BUTTERFLY1
 10
4.4757
 20
0.1636
 30
4.6118
 70
32
 0
VERTEX
 8
BUTTERFLY1
 10
4.4862
 20
0.1662
 30
4.6118
 70
32
 0
VERTEX
 8
BUTTERFLY1
 10
4.4993
 20
0.171
 30
4.6118
 70
32
 0
VERTEX
 8
BUTTERFLY1
 10
4.5117
 20
0.177
 30
4.6118
 70
32
 0
VERTEX
 8
BUTTERFLY1
 10
4.5264
 20
0.186
 30
4.6118
 70
32
 0
VERTEX
 8
BUTTERFLY1
 10
4.5485
 20
0.2029
 30
4.6118
 70
32
 0
VERTEX
 8
BUTTERFLY1
 10
4.5782
 20
0.2283
 30
4.6118
 70
32
 0
VERTEX
 8
BUTTERFLY1
 10
4.6128
 20
0.2545
 30
4.6118
 70
32
 0
VERTEX
 8
BUTTERFLY1
 10
4.6431
 20
0.2716
 30
4.6118
 70
32
 0
VERTEX
 8
BUTTERFLY1
 10
4.6748
 20
0.2859
 30
4.6118
 70
32
 0
VERTEX
 8
BUTTERFLY1
 10
4.7164
 20
0.3002
 30
4.6118
 70
32
 0
VERTEX
 8
BUTTERFLY1
 10
4.8798
 20
0.3321
 30
4.6118
 70
32
 0
VERTEX
 8
BUTTERFLY1
 10
5.0665
 20
0.3656
 30
4.6118
 70
32
 0
VERTEX
 8
BUTTERFLY1
 10
5.0796
 20
0.3819
 30
4.6118
 70
32
 0
VERTEX
 8
BUTTERFLY1
 10
5.0968
 20
0.4083
 30
4.6118
 70
32
 0
VERTEX
 8
BUTTERFLY1
 10
5.111
 20
0.4369
 30
4.6118
 70
32
 0
VERTEX
 8
BUTTERFLY1
 10
5.1263
 20
0.478
 30
4.6118
 70
32
 0
VERTEX
 8
BUTTERFLY1
 10
5.1404
 20
0.5331
 30
4.6118
 70
32
 0
VERTEX
 8
BUTTERFLY1
 10
5.1952
 20
0.8607
 30
4.6118
 70
32
 0
VERTEX
 8
BUTTERFLY1
 10
5.2022
 20
0.8818
 30
4.6118
 70
32
 0
VERTEX
 8
BUTTERFLY1
 10
5.2146
 20
0.9119
 30
4.6118
 70
32
 0
VERTEX
 8
BUTTERFLY1
 10
5.2235
 20
0.9287
 30
4.6118
 70
32
 0
VERTEX
 8
BUTTERFLY1
 10
5.2335
 20
0.9435
 30
4.6118
 70
32
 0
VERTEX
 8
BUTTERFLY1
 10
5.2471
 20
0.9598
 30
4.6118
 70
32
 0
VERTEX
 8
BUTTERFLY1
 10
5.2674
 20
0.9798
 30
4.6118
 70
32
 0
VERTEX
 8
BUTTERFLY1
 10
5.3161
 20
1.0249
 30
4.6118
 70
32
 0
VERTEX
 8
BUTTERFLY1
 10
5.326
 20
1.037
 30
4.6118
 70
32
 0
VERTEX
 8
BUTTERFLY1
 10
5.3349
 20
1.0503
 30
4.6118
 70
32
 0
VERTEX
 8
BUTTERFLY1
 10
5.3389
 20
1.0575
 30
4.6118
 70
32
 0
VERTEX
 8
BUTTERFLY1
 10
5.3442
 20
1.0693
 30
4.6118
 70
32
 0
VERTEX
 8
BUTTERFLY1
 10
5.3303
 20
1.1007
 30
4.6118
 70
32
 0
VERTEX
 8
BUTTERFLY1
 10
5.3167
 20
1.1415
 30
4.6118
 70
32
 0
VERTEX
 8
BUTTERFLY1
 10
5.288
 20
1.2852
 30
4.6118
 70
32
 0
VERTEX
 8
BUTTERFLY1
 10
5.2609
 20
1.4396
 30
4.6118
 70
32
 0
VERTEX
 8
BUTTERFLY1
 10
5.2104
 20
1.4491
 30
4.6118
 70
32
 0
VERTEX
 8
BUTTERFLY1
 10
5.1525
 20
1.4657
 30
4.6118
 70
32
 0
VERTEX
 8
BUTTERFLY1
 10
5.0433
 20
1.509
 30
4.6118
 70
32
 0
VERTEX
 8
BUTTERFLY1
 10
4.9041
 20
1.5658
 30
4.6118
 70
32
 0
VERTEX
 8
BUTTERFLY1
 10
4.8517
 20
1.5805
 30
4.6118
 70
32
 0
VERTEX
 8
BUTTERFLY1
 10
4.834
 20
1.584
 30
4.6118
 70
32
 0
VERTEX
 8
BUTTERFLY1
 10
4.8072
 20
1.5878
 30
4.6118
 70
32
 0
VERTEX
 8
BUTTERFLY1
 10
4.814
 20
1.5727
 30
4.6118
 70
32
 0
VERTEX
 8
BUTTERFLY1
 10
4.8224
 20
1.5584
 30
4.6118
 70
32
 0
VERTEX
 8
BUTTERFLY1
 10
4.8355
 20
1.5404
 30
4.6118
 70
32
 0
VERTEX
 8
BUTTERFLY1
 10
4.8999
 20
1.4602
 30
4.6118
 70
32
 0
VERTEX
 8
BUTTERFLY1
 10
4.9082
 20
1.4451
 30
4.6118
 70
32
 0
VERTEX
 8
BUTTERFLY1
 10
4.9149
 20
1.4291
 30
4.6118
 70
32
 0
VERTEX
 8
BUTTERFLY1
 10
4.9183
 20
1.4178
 30
4.6118
 70
32
 0
VERTEX
 8
BUTTERFLY1
 10
4.9207
 20
1.4059
 30
4.6118
 70
32
 0
VERTEX
 8
BUTTERFLY1
 10
4.922
 20
1.3934
 30
4.6118
 70
32
 0
VERTEX
 8
BUTTERFLY1
 10
4.9222
 20
1.3802
 30
4.6118
 70
32
 0
VERTEX
 8
BUTTERFLY1
 10
4.9211
 20
1.3662
 30
4.6118
 70
32
 0
VERTEX
 8
BUTTERFLY1
 10
4.9168
 20
1.3437
 30
4.6118
 70
32
 0
VERTEX
 8
BUTTERFLY1
 10
4.909
 20
1.3193
 30
4.6118
 70
32
 0
VERTEX
 8
BUTTERFLY1
 10
4.8678
 20
1.3076
 30
4.6118
 70
32
 0
VERTEX
 8
BUTTERFLY1
 10
4.8286
 20
1.3003
 30
4.6118
 70
32
 0
VERTEX
 8
BUTTERFLY1
 10
4.7912
 20
1.2971
 30
4.6118
 70
32
 0
VERTEX
 8
BUTTERFLY1
 10
4.7555
 20
1.2976
 30
4.6118
 70
32
 0
VERTEX
 8
BUTTERFLY1
 10
4.7213
 20
1.3016
 30
4.6118
 70
32
 0
VERTEX
 8
BUTTERFLY1
 10
4.6886
 20
1.3086
 30
4.6118
 70
32
 0
VERTEX
 8
BUTTERFLY1
 10
4.6418
 20
1.3242
 30
4.6118
 70
32
 0
VERTEX
 8
BUTTERFLY1
 10
4.5974
 20
1.3448
 30
4.6118
 70
32
 0
VERTEX
 8
BUTTERFLY1
 10
4.541
 20
1.3783
 30
4.6118
 70
32
 0
VERTEX
 8
BUTTERFLY1
 10
4.2968
 20
1.5452
 30
4.6118
 70
32
 0
VERTEX
 8
BUTTERFLY1
 10
4.2528
 20
1.5648
 30
4.6118
 70
32
 0
VERTEX
 8
BUTTERFLY1
 10
4.2066
 20
1.579
 30
4.6118
 70
32
 0
VERTEX
 8
BUTTERFLY1
 10
4.1743
 20
1.585
 30
4.6118
 70
32
 0
VERTEX
 8
BUTTERFLY1
 10
4.1406
 20
1.5878
 30
4.6118
 70
32
 0
VERTEX
 8
BUTTERFLY1
 10
4.1463
 20
1.5572
 30
4.6118
 70
32
 0
VERTEX
 8
BUTTERFLY1
 10
4.1545
 20
1.5291
 30
4.6118
 70
32
 0
VERTEX
 8
BUTTERFLY1
 10
4.1674
 20
1.4966
 30
4.6118
 70
32
 0
VERTEX
 8
BUTTERFLY1
 10
4.1922
 20
1.4488
 30
4.6118
 70
32
 0
VERTEX
 8
BUTTERFLY1
 10
4.2435
 20
1.355
 30
4.6118
 70
32
 0
VERTEX
 8
BUTTERFLY1
 10
4.2564
 20
1.3225
 30
4.6118
 70
32
 0
VERTEX
 8
BUTTERFLY1
 10
4.2645
 20
1.2943
 30
4.6118
 70
32
 0
VERTEX
 8
BUTTERFLY1
 10
4.2702
 20
1.2637
 30
4.6118
 70
32
 0
VERTEX
 8
BUTTERFLY1
 10
4.257
 20
1.2593
 30
4.6118
 70
32
 0
VERTEX
 8
BUTTERFLY1
 10
4.2447
 20
1.2531
 30
4.6118
 70
32
 0
VERTEX
 8
BUTTERFLY1
 10
4.2333
 20
1.2453
 30
4.6118
 70
32
 0
VERTEX
 8
BUTTERFLY1
 10
4.2228
 20
1.2361
 30
4.6118
 70
32
 0
VERTEX
 8
BUTTERFLY1
 10
4.2131
 20
1.2255
 30
4.6118
 70
32
 0
VERTEX
 8
BUTTERFLY1
 10
4.2044
 20
1.2136
 30
4.6118
 70
32
 0
VERTEX
 8
BUTTERFLY1
 10
4.1927
 20
1.1938
 30
4.6118
 70
32
 0
VERTEX
 8
BUTTERFLY1
 10
4.1828
 20
1.1719
 30
4.6118
 70
32
 0
VERTEX
 8
BUTTERFLY1
 10
4.1723
 20
1.1403
 30
4.6118
 70
32
 0
VERTEX
 8
BUTTERFLY1
 10
4.1646
 20
1.1067
 30
4.6118
 70
32
 0
VERTEX
 8
BUTTERFLY1
 10
4.1587
 20
1.0636
 30
4.6118
 70
32
 0
VERTEX
 8
BUTTERFLY1
 10
4.1567
 20
1.0127
 30
4.6118
 70
32
 0
VERTEX
 8
BUTTERFLY1
 10
4.1587
 20
0.9733
 30
4.6118
 70
32
 0
VERTEX
 8
BUTTERFLY1
 10
4.1627
 20
0.9452
 30
4.6118
 70
32
 0
VERTEX
 8
BUTTERFLY1
 10
4.1684
 20
0.9211
 30
4.6118
 70
32
 0
VERTEX
 8
BUTTERFLY1
 10
4.1766
 20
0.8987
 30
4.6118
 70
32
 0
VERTEX
 8
BUTTERFLY1
 10
4.1874
 20
0.8775
 30
4.6118
 70
32
 0
VERTEX
 8
BUTTERFLY1
 10
4.2005
 20
0.8575
 30
4.6118
 70
32
 0
VERTEX
 8
BUTTERFLY1
 10
4.2158
 20
0.8388
 30
4.6118
 70
32
 0
VERTEX
 8
BUTTERFLY1
 10
4.2331
 20
0.8212
 30
4.6118
 70
32
 0
VERTEX
 8
BUTTERFLY1
 10
4.2623
 20
0.7973
 30
4.6118
 70
32
 0
VERTEX
 8
BUTTERFLY1
 10
4.295
 20
0.7762
 30
4.6118
 70
32
 0
VERTEX
 8
BUTTERFLY1
 10
4.3306
 20
0.758
 30
4.6118
 70
32
 0
VERTEX
 8
BUTTERFLY1
 10
4.3815
 20
0.7385
 30
4.6118
 70
32
 0
VERTEX
 8
BUTTERFLY1
 10
4.4351
 20
0.7243
 30
4.6118
 70
32
 0
VERTEX
 8
BUTTERFLY1
 10
4.4899
 20
0.7157
 30
4.6118
 70
32
 0
VERTEX
 8
BUTTERFLY1
 10
4.5445
 20
0.7128
 30
4.6118
 70
32
 0
VERTEX
 8
BUTTERFLY1
 10
4.5976
 20
0.7157
 30
4.6118
 70
32
 0
VERTEX
 8
BUTTERFLY1
 10
4.6355
 20
0.7217
 30
4.6118
 70
32
 0
VERTEX
 8
BUTTERFLY1
 10
4.6712
 20
0.7311
 30
4.6118
 70
32
 0
VERTEX
 8
BUTTERFLY1
 10
4.6934
 20
0.7393
 30
4.6118
 70
32
 0
VERTEX
 8
BUTTERFLY1
 10
4.7239
 20
0.7545
 30
4.6118
 70
32
 0
VERTEX
 8
BUTTERFLY1
 10
4.74
 20
0.7651
 30
4.6118
 70
32
 0
VERTEX
 8
BUTTERFLY1
 10
4.754
 20
0.7766
 30
4.6118
 70
32
 0
VERTEX
 8
BUTTERFLY1
 10
4.7664
 20
0.7892
 30
4.6118
 70
32
 0
VERTEX
 8
BUTTERFLY1
 10
4.7771
 20
0.8027
 30
4.6118
 70
32
 0
VERTEX
 8
BUTTERFLY1
 10
4.7864
 20
0.8172
 30
4.6118
 70
32
 0
VERTEX
 8
BUTTERFLY1
 10
4.7969
 20
0.8379
 30
4.6118
 70
32
 0
VERTEX
 8
BUTTERFLY1
 10
4.8077
 20
0.8661
 30
4.6118
 70
32
 0
VERTEX
 8
BUTTERFLY1
 10
4.8292
 20
0.9507
 30
4.6118
 70
32
 0
VERTEX
 8
BUTTERFLY1
 10
4.8535
 20
1.0508
 30
4.6118
 70
32
 0
VERTEX
 8
BUTTERFLY1
 10
4.8968
 20
1.0154
 30
4.6118
 70
32
 0
VERTEX
 8
BUTTERFLY1
 10
4.913
 20
0.9993
 30
4.6118
 70
32
 0
VERTEX
 8
BUTTERFLY1
 10
4.9213
 20
0.9892
 30
4.6118
 70
32
 0
VERTEX
 8
BUTTERFLY1
 10
4.928
 20
0.9792
 30
4.6118
 70
32
 0
VERTEX
 8
BUTTERFLY1
 10
4.9332
 20
0.9691
 30
4.6118
 70
32
 0
VERTEX
 8
BUTTERFLY1
 10
4.9372
 20
0.9586
 30
4.6118
 70
32
 0
VERTEX
 8
BUTTERFLY1
 10
4.9403
 20
0.9474
 30
4.6118
 70
32
 0
VERTEX
 8
BUTTERFLY1
 10
4.9435
 20
0.9287
 30
4.6118
 70
32
 0
VERTEX
 8
BUTTERFLY1
 10
4.9461
 20
0.9026
 30
4.6118
 70
32
 0
VERTEX
 8
BUTTERFLY1
 10
4.9471
 20
0.8544
 30
4.6118
 70
32
 0
VERTEX
 8
BUTTERFLY1
 10
4.942
 20
0.8105
 30
4.6118
 70
32
 0
VERTEX
 8
BUTTERFLY1
 10
4.9312
 20
0.7706
 30
4.6118
 70
32
 0
VERTEX
 8
BUTTERFLY1
 10
4.9152
 20
0.7347
 30
4.6118
 70
32
 0
VERTEX
 8
BUTTERFLY1
 10
4.8943
 20
0.7027
 30
4.6118
 70
32
 0
VERTEX
 8
BUTTERFLY1
 10
4.8691
 20
0.6744
 30
4.6118
 70
32
 0
VERTEX
 8
BUTTERFLY1
 10
4.8398
 20
0.6499
 30
4.6118
 70
32
 0
VERTEX
 8
BUTTERFLY1
 10
4.807
 20
0.6289
 30
4.6118
 70
32
 0
VERTEX
 8
BUTTERFLY1
 10
4.7711
 20
0.6114
 30
4.6118
 70
32
 0
VERTEX
 8
BUTTERFLY1
 10
4.7325
 20
0.5972
 30
4.6118
 70
32
 0
VERTEX
 8
BUTTERFLY1
 10
4.6705
 20
0.582
 30
4.6118
 70
32
 0
VERTEX
 8
BUTTERFLY1
 10
4.6049
 20
0.5739
 30
4.6118
 70
32
 0
VERTEX
 8
BUTTERFLY1
 10
4.5371
 20
0.5723
 30
4.6118
 70
32
 0
VERTEX
 8
BUTTERFLY1
 10
4.4685
 20
0.577
 30
4.6118
 70
32
 0
VERTEX
 8
BUTTERFLY1
 10
4.3783
 20
0.5925
 30
4.6118
 70
32
 0
VERTEX
 8
BUTTERFLY1
 10
4.3136
 20
0.6105
 30
4.6118
 70
32
 0
VERTEX
 8
BUTTERFLY1
 10
4.253
 20
0.6336
 30
4.6118
 70
32
 0
VERTEX
 8
BUTTERFLY1
 10
4.1978
 20
0.6614
 30
4.6118
 70
32
 0
VERTEX
 8
BUTTERFLY1
 10
4.1648
 20
0.6825
 30
4.6118
 70
32
 0
VERTEX
 8
BUTTERFLY1
 10
4.1221
 20
0.7174
 30
4.6118
 70
32
 0
VERTEX
 8
BUTTERFLY1
 10
4.1081
 20
0.7325
 30
4.6118
 70
32
 0
VERTEX
 8
BUTTERFLY1
 10
4.0881
 20
0.7586
 30
4.6118
 70
32
 0
VERTEX
 8
BUTTERFLY1
 10
4.0632
 20
0.7975
 30
4.6118
 70
32
 0
VERTEX
 8
BUTTERFLY1
 10
4.0413
 20
0.8396
 30
4.6118
 70
32
 0
VERTEX
 8
BUTTERFLY1
 10
4.0294
 20
0.8685
 30
4.6118
 70
32
 0
VERTEX
 8
BUTTERFLY1
 10
4.0244
 20
0.8843
 30
4.6118
 70
32
 0
VERTEX
 8
BUTTERFLY1
 10
4.0202
 20
0.9026
 30
4.6118
 70
32
 0
VERTEX
 8
BUTTERFLY1
 10
4.0135
 20
0.959
 30
4.6118
 70
32
 0
VERTEX
 8
BUTTERFLY1
 10
4.0122
 20
1.025
 30
4.6118
 70
32
 0
VERTEX
 8
BUTTERFLY1
 10
4.017
 20
1.0867
 30
4.6118
 70
32
 0
VERTEX
 8
BUTTERFLY1
 10
4.0331
 20
1.1788
 30
4.6118
 70
32
 0
VERTEX
 8
BUTTERFLY1
 10
4.0739
 20
1.3734
 30
4.6118
 70
32
 0
VERTEX
 8
BUTTERFLY1
 10
4.078
 20
1.4286
 30
4.6118
 70
32
 0
VERTEX
 8
BUTTERFLY1
 10
4.078
 20
1.4512
 30
4.6118
 70
32
 0
VERTEX
 8
BUTTERFLY1
 10
4.0758
 20
1.4859
 30
4.6118
 70
32
 0
VERTEX
 8
BUTTERFLY1
 10
4.0703
 20
1.5167
 30
4.6118
 70
32
 0
VERTEX
 8
BUTTERFLY1
 10
4.0607
 20
1.5441
 30
4.6118
 70
32
 0
VERTEX
 8
BUTTERFLY1
 10
4.0475
 20
1.5681
 30
4.6118
 70
32
 0
VERTEX
 8
BUTTERFLY1
 10
4.0311
 20
1.5887
 30
4.6118
 70
32
 0
VERTEX
 8
BUTTERFLY1
 10
4.0118
 20
1.6062
 30
4.6118
 70
32
 0
VERTEX
 8
BUTTERFLY1
 10
3.9899
 20
1.6205
 30
4.6118
 70
32
 0
VERTEX
 8
BUTTERFLY1
 10
3.966
 20
1.6317
 30
4.6118
 70
32
 0
VERTEX
 8
BUTTERFLY1
 10
3.9403
 20
1.6399
 30
4.6118
 70
32
 0
VERTEX
 8
BUTTERFLY1
 10
3.9133
 20
1.6453
 30
4.6118
 70
32
 0
VERTEX
 8
BUTTERFLY1
 10
3.8853
 20
1.6478
 30
4.6118
 70
32
 0
VERTEX
 8
BUTTERFLY1
 10
3.8568
 20
1.6476
 30
4.6118
 70
32
 0
VERTEX
 8
BUTTERFLY1
 10
3.8281
 20
1.6447
 30
4.6118
 70
32
 0
VERTEX
 8
BUTTERFLY1
 10
3.7996
 20
1.6392
 30
4.6118
 70
32
 0
VERTEX
 8
BUTTERFLY1
 10
3.7716
 20
1.6313
 30
4.6118
 70
32
 0
VERTEX
 8
BUTTERFLY1
 10
3.7446
 20
1.6209
 30
4.6118
 70
32
 0
VERTEX
 8
BUTTERFLY1
 10
3.719
 20
1.6083
 30
4.6118
 70
32
 0
VERTEX
 8
BUTTERFLY1
 10
3.6951
 20
1.5933
 30
4.6118
 70
32
 0
VERTEX
 8
BUTTERFLY1
 10
3.6734
 20
1.5762
 30
4.6118
 70
32
 0
VERTEX
 8
BUTTERFLY1
 10
3.6541
 20
1.557
 30
4.6118
 70
32
 0
VERTEX
 8
BUTTERFLY1
 10
3.6378
 20
1.5358
 30
4.6118
 70
32
 0
VERTEX
 8
BUTTERFLY1
 10
3.6247
 20
1.5127
 30
4.6118
 70
32
 0
VERTEX
 8
BUTTERFLY1
 10
3.6153
 20
1.4877
 30
4.6118
 70
32
 0
VERTEX
 8
BUTTERFLY1
 10
3.6099
 20
1.461
 30
4.6118
 70
32
 0
VERTEX
 8
BUTTERFLY1
 10
3.609
 20
1.4326
 30
4.6118
 70
32
 0
VERTEX
 8
BUTTERFLY1
 10
3.6128
 20
1.4026
 30
4.6118
 70
32
 0
VERTEX
 8
BUTTERFLY1
 10
3.6155
 20
1.3927
 30
4.6118
 70
32
 0
VERTEX
 8
BUTTERFLY1
 10
3.6191
 20
1.384
 30
4.6118
 70
32
 0
VERTEX
 8
BUTTERFLY1
 10
3.6236
 20
1.3763
 30
4.6118
 70
32
 0
VERTEX
 8
BUTTERFLY1
 10
3.6288
 20
1.3695
 30
4.6118
 70
32
 0
VERTEX
 8
BUTTERFLY1
 10
3.6346
 20
1.3634
 30
4.6118
 70
32
 0
VERTEX
 8
BUTTERFLY1
 10
3.641
 20
1.358
 30
4.6118
 70
32
 0
VERTEX
 8
BUTTERFLY1
 10
3.6514
 20
1.3509
 30
4.6118
 70
32
 0
VERTEX
 8
BUTTERFLY1
 10
3.6742
 20
1.3388
 30
4.6118
 70
32
 0
VERTEX
 8
BUTTERFLY1
 10
3.7009
 20
1.3246
 30
4.6118
 70
32
 0
VERTEX
 8
BUTTERFLY1
 10
3.7115
 20
1.3174
 30
4.6118
 70
32
 0
VERTEX
 8
BUTTERFLY1
 10
3.718
 20
1.312
 30
4.6118
 70
32
 0
VERTEX
 8
BUTTERFLY1
 10
3.724
 20
1.3058
 30
4.6118
 70
32
 0
VERTEX
 8
BUTTERFLY1
 10
3.7293
 20
1.2989
 30
4.6118
 70
32
 0
VERTEX
 8
BUTTERFLY1
 10
3.734
 20
1.291
 30
4.6118
 70
32
 0
VERTEX
 8
BUTTERFLY1
 10
3.7378
 20
1.2822
 30
4.6118
 70
32
 0
VERTEX
 8
BUTTERFLY1
 10
3.7408
 20
1.2722
 30
4.6118
 70
32
 0
VERTEX
 8
BUTTERFLY1
 10
3.7427
 20
1.261
 30
4.6118
 70
32
 0
VERTEX
 8
BUTTERFLY1
 10
3.7435
 20
1.2484
 30
4.6118
 70
32
 0
VERTEX
 8
BUTTERFLY1
 10
3.7425
 20
1.2267
 30
4.6118
 70
32
 0
VERTEX
 8
BUTTERFLY1
 10
3.703
 20
1.2131
 30
4.6118
 70
32
 0
VERTEX
 8
BUTTERFLY1
 10
3.6667
 20
1.2069
 30
4.6118
 70
32
 0
VERTEX
 8
BUTTERFLY1
 10
3.6497
 20
1.2063
 30
4.6118
 70
32
 0
VERTEX
 8
BUTTERFLY1
 10
3.6336
 20
1.2074
 30
4.6118
 70
32
 0
VERTEX
 8
BUTTERFLY1
 10
3.6182
 20
1.2101
 30
4.6118
 70
32
 0
VERTEX
 8
BUTTERFLY1
 10
3.6035
 20
1.2142
 30
4.6118
 70
32
 0
VERTEX
 8
BUTTERFLY1
 10
3.5896
 20
1.2198
 30
4.6118
 70
32
 0
VERTEX
 8
BUTTERFLY1
 10
3.5765
 20
1.2268
 30
4.6118
 70
32
 0
VERTEX
 8
BUTTERFLY1
 10
3.564
 20
1.2352
 30
4.6118
 70
32
 0
VERTEX
 8
BUTTERFLY1
 10
3.5523
 20
1.2448
 30
4.6118
 70
32
 0
VERTEX
 8
BUTTERFLY1
 10
3.531
 20
1.2675
 30
4.6118
 70
32
 0
VERTEX
 8
BUTTERFLY1
 10
3.5123
 20
1.2945
 30
4.6118
 70
32
 0
VERTEX
 8
BUTTERFLY1
 10
3.4964
 20
1.3254
 30
4.6118
 70
32
 0
VERTEX
 8
BUTTERFLY1
 10
3.4829
 20
1.3596
 30
4.6118
 70
32
 0
VERTEX
 8
BUTTERFLY1
 10
3.4674
 20
1.4161
 30
4.6118
 70
32
 0
VERTEX
 8
BUTTERFLY1
 10
3.4571
 20
1.4774
 30
4.6118
 70
32
 0
VERTEX
 8
BUTTERFLY1
 10
3.4511
 20
1.5636
 30
4.6118
 70
32
 0
VERTEX
 8
BUTTERFLY1
 10
3.4532
 20
1.6513
 30
4.6118
 70
32
 0
VERTEX
 8
BUTTERFLY1
 10
3.4628
 20
1.7367
 30
4.6118
 70
32
 0
VERTEX
 8
BUTTERFLY1
 10
3.4792
 20
1.8159
 30
4.6118
 70
32
 0
VERTEX
 8
BUTTERFLY1
 10
3.4955
 20
1.8687
 30
4.6118
 70
32
 0
VERTEX
 8
BUTTERFLY1
 10
3.5081
 20
1.9
 30
4.6118
 70
32
 0
VERTEX
 8
BUTTERFLY1
 10
3.5295
 20
1.9396
 30
4.6118
 70
32
 0
VERTEX
 8
BUTTERFLY1
 10
3.5368
 20
1.9205
 30
4.6118
 70
32
 0
VERTEX
 8
BUTTERFLY1
 10
3.5463
 20
1.904
 30
4.6118
 70
32
 0
VERTEX
 8
BUTTERFLY1
 10
3.558
 20
1.89
 30
4.6118
 70
32
 0
VERTEX
 8
BUTTERFLY1
 10
3.5715
 20
1.8785
 30
4.6118
 70
32
 0
VERTEX
 8
BUTTERFLY1
 10
3.5868
 20
1.8691
 30
4.6118
 70
32
 0
VERTEX
 8
BUTTERFLY1
 10
3.6037
 20
1.8619
 30
4.6118
 70
32
 0
VERTEX
 8
BUTTERFLY1
 10
3.6221
 20
1.8567
 30
4.6118
 70
32
 0
VERTEX
 8
BUTTERFLY1
 10
3.6416
 20
1.8532
 30
4.6118
 70
32
 0
VERTEX
 8
BUTTERFLY1
 10
3.6728
 20
1.8512
 30
4.6118
 70
32
 0
VERTEX
 8
BUTTERFLY1
 10
3.7058
 20
1.8525
 30
4.6118
 70
32
 0
VERTEX
 8
BUTTERFLY1
 10
3.7516
 20
1.8586
 30
4.6118
 70
32
 0
VERTEX
 8
BUTTERFLY1
 10
3.8212
 20
1.8748
 30
4.6118
 70
32
 0
VERTEX
 8
BUTTERFLY1
 10
3.9183
 20
1.9077
 30
4.6118
 70
32
 0
VERTEX
 8
BUTTERFLY1
 10
3.9924
 20
1.9396
 30
4.6118
 70
32
 0
VERTEX
 8
BUTTERFLY1
 10
4.1563
 20
2.0275
 30
4.6118
 70
32
 0
VERTEX
 8
BUTTERFLY1
 10
4.4842
 20
2.247
 30
4.6118
 70
32
 0
VERTEX
 8
BUTTERFLY1
 10
4.8165
 20
2.4858
 30
4.6118
 70
32
 0
VERTEX
 8
BUTTERFLY1
 10
5.2238
 20
2.7636
 30
4.6118
 70
32
 0
VERTEX
 8
BUTTERFLY1
 10
5.4739
 20
2.9313
 30
4.6118
 70
32
 0
VERTEX
 8
BUTTERFLY1
 10
5.5366
 20
2.9631
 30
4.6118
 70
32
 0
VERTEX
 8
BUTTERFLY1
 10
5.5918
 20
2.9849
 30
4.6118
 70
32
 0
VERTEX
 8
BUTTERFLY1
 10
5.6296
 20
2.9962
 30
4.6118
 70
32
 0
VERTEX
 8
BUTTERFLY1
 10
5.6683
 20
3.0043
 30
4.6118
 70
32
 0
VERTEX
 8
BUTTERFLY1
 10
5.6024
 20
2.7041
 30
4.6118
 70
32
 0
VERTEX
 8
BUTTERFLY1
 10
5.5486
 20
2.5385
 30
4.6118
 70
32
 0
VERTEX
 8
BUTTERFLY1
 10
5.4971
 20
2.4228
 30
4.6118
 70
32
 0
VERTEX
 8
BUTTERFLY1
 10
5.4565
 20
2.3515
 30
4.6118
 70
32
 0
VERTEX
 8
BUTTERFLY1
 10
5.4103
 20
2.286
 30
4.6118
 70
32
 0
VERTEX
 8
BUTTERFLY1
 10
5.3716
 20
2.2412
 30
4.6118
 70
32
 0
VERTEX
 8
BUTTERFLY1
 10
5.3291
 20
2.2005
 30
4.6118
 70
32
 0
VERTEX
 8
BUTTERFLY1
 10
5.2828
 20
2.1644
 30
4.6118
 70
32
 0
VERTEX
 8
BUTTERFLY1
 10
5.2495
 20
2.1431
 30
4.6118
 70
32
 0
VERTEX
 8
BUTTERFLY1
 10
5.1961
 20
2.1155
 30
4.6118
 70
32
 0
VERTEX
 8
BUTTERFLY1
 10
5.1932
 20
2.1313
 30
4.6118
 70
32
 0
VERTEX
 8
BUTTERFLY1
 10
5.1885
 20
2.1458
 30
4.6118
 70
32
 0
VERTEX
 8
BUTTERFLY1
 10
5.1822
 20
2.1589
 30
4.6118
 70
32
 0
VERTEX
 8
BUTTERFLY1
 10
5.1743
 20
2.1708
 30
4.6118
 70
32
 0
VERTEX
 8
BUTTERFLY1
 10
5.1649
 20
2.1814
 30
4.6118
 70
32
 0
VERTEX
 8
BUTTERFLY1
 10
5.1542
 20
2.1909
 30
4.6118
 70
32
 0
VERTEX
 8
BUTTERFLY1
 10
5.1423
 20
2.1993
 30
4.6118
 70
32
 0
VERTEX
 8
BUTTERFLY1
 10
5.1292
 20
2.2065
 30
4.6118
 70
32
 0
VERTEX
 8
BUTTERFLY1
 10
5.1077
 20
2.2155
 30
4.6118
 70
32
 0
VERTEX
 8
BUTTERFLY1
 10
5.0842
 20
2.2223
 30
4.6118
 70
32
 0
VERTEX
 8
BUTTERFLY1
 10
5.0504
 20
2.2282
 30
4.6118
 70
32
 0
VERTEX
 8
BUTTERFLY1
 10
5.0147
 20
2.2308
 30
4.6118
 70
32
 0
VERTEX
 8
BUTTERFLY1
 10
4.9684
 20
2.2301
 30
4.6118
 70
32
 0
VERTEX
 8
BUTTERFLY1
 10
4.9127
 20
2.2243
 30
4.6118
 70
32
 0
VERTEX
 8
BUTTERFLY1
 10
4.8769
 20
2.218
 30
4.6118
 70
32
 0
VERTEX
 8
BUTTERFLY1
 10
4.835
 20
2.2081
 30
4.6118
 70
32
 0
VERTEX
 8
BUTTERFLY1
 10
4.7146
 20
2.1684
 30
4.6118
 70
32
 0
VERTEX
 8
BUTTERFLY1
 10
4.5909
 20
2.1147
 30
4.6118
 70
32
 0
VERTEX
 8
BUTTERFLY1
 10
4.4696
 20
2.0486
 30
4.6118
 70
32
 0
VERTEX
 8
BUTTERFLY1
 10
4.3722
 20
1.9833
 30
4.6118
 70
32
 0
VERTEX
 8
BUTTERFLY1
 10
4.2983
 20
1.9238
 30
4.6118
 70
32
 0
VERTEX
 8
BUTTERFLY1
 10
4.2334
 20
1.8602
 30
4.6118
 70
32
 0
VERTEX
 8
BUTTERFLY1
 10
4.1894
 20
1.8068
 30
4.6118
 70
32
 0
VERTEX
 8
BUTTERFLY1
 10
4.1617
 20
1.7655
 30
4.6118
 70
32
 0
VERTEX
 8
BUTTERFLY1
 10
4.1391
 20
1.7233
 30
4.6118
 70
32
 0
VERTEX
 8
BUTTERFLY1
 10
4.1221
 20
1.6803
 30
4.6118
 70
32
 0
VERTEX
 8
BUTTERFLY1
 10
4.148
 20
1.6923
 30
4.6118
 70
32
 0
VERTEX
 8
BUTTERFLY1
 10
4.2348
 20
1.7432
 30
4.6118
 70
32
 0
VERTEX
 8
BUTTERFLY1
 10
4.4796
 20
1.8886
 30
4.6118
 70
32
 0
VERTEX
 8
BUTTERFLY1
 10
4.5768
 20
1.9325
 30
4.6118
 70
32
 0
VERTEX
 8
BUTTERFLY1
 10
4.6425
 20
1.9546
 30
4.6118
 70
32
 0
VERTEX
 8
BUTTERFLY1
 10
4.6916
 20
1.9661
 30
4.6118
 70
32
 0
VERTEX
 8
BUTTERFLY1
 10
4.7403
 20
1.9726
 30
4.6118
 70
32
 0
VERTEX
 8
BUTTERFLY1
 10
4.7882
 20
1.9733
 30
4.6118
 70
32
 0
VERTEX
 8
BUTTERFLY1
 10
4.8039
 20
1.9721
 30
4.6118
 70
32
 0
VERTEX
 8
BUTTERFLY1
 10
4.835
 20
1.9674
 30
4.6118
 70
32
 0
VERTEX
 8
BUTTERFLY1
 10
4.8618
 20
1.9601
 30
4.6118
 70
32
 0
VERTEX
 8
BUTTERFLY1
 10
4.8766
 20
1.954
 30
4.6118
 70
32
 0
VERTEX
 8
BUTTERFLY1
 10
4.8891
 20
1.947
 30
4.6118
 70
32
 0
VERTEX
 8
BUTTERFLY1
 10
4.8994
 20
1.9392
 30
4.6118
 70
32
 0
VERTEX
 8
BUTTERFLY1
 10
4.9077
 20
1.9306
 30
4.6118
 70
32
 0
VERTEX
 8
BUTTERFLY1
 10
4.9141
 20
1.9213
 30
4.6118
 70
32
 0
VERTEX
 8
BUTTERFLY1
 10
4.9186
 20
1.9114
 30
4.6118
 70
32
 0
VERTEX
 8
BUTTERFLY1
 10
4.9215
 20
1.901
 30
4.6118
 70
32
 0
VERTEX
 8
BUTTERFLY1
 10
4.9228
 20
1.8901
 30
4.6118
 70
32
 0
VERTEX
 8
BUTTERFLY1
 10
4.9226
 20
1.8788
 30
4.6118
 70
32
 0
VERTEX
 8
BUTTERFLY1
 10
4.9212
 20
1.8672
 30
4.6118
 70
32
 0
VERTEX
 8
BUTTERFLY1
 10
4.9186
 20
1.8554
 30
4.6118
 70
32
 0
VERTEX
 8
BUTTERFLY1
 10
4.9126
 20
1.8373
 30
4.6118
 70
32
 0
VERTEX
 8
BUTTERFLY1
 10
4.9017
 20
1.8131
 30
4.6118
 70
32
 0
VERTEX
 8
BUTTERFLY1
 10
4.8845
 20
1.7834
 30
4.6118
 70
32
 0
VERTEX
 8
BUTTERFLY1
 10
4.8614
 20
1.7503
 30
4.6118
 70
32
 0
VERTEX
 8
BUTTERFLY1
 10
4.835
 20
1.7174
 30
4.6118
 70
32
 0
VERTEX
 8
BUTTERFLY1
 10
4.9274
 20
1.7204
 30
4.6118
 70
32
 0
VERTEX
 8
BUTTERFLY1
 10
4.9969
 20
1.7296
 30
4.6118
 70
32
 0
VERTEX
 8
BUTTERFLY1
 10
5.0788
 20
1.7488
 30
4.6118
 70
32
 0
VERTEX
 8
BUTTERFLY1
 10
5.1554
 20
1.7756
 30
4.6118
 70
32
 0
VERTEX
 8
BUTTERFLY1
 10
5.2272
 20
1.809
 30
4.6118
 70
32
 0
VERTEX
 8
BUTTERFLY1
 10
5.3076
 20
1.8563
 30
4.6118
 70
32
 0
VERTEX
 8
BUTTERFLY1
 10
5.3942
 20
1.9196
 30
4.6118
 70
32
 0
VERTEX
 8
BUTTERFLY1
 10
5.4632
 20
1.9786
 30
4.6118
 70
32
 0
VERTEX
 8
BUTTERFLY1
 10
5.5386
 20
2.0507
 30
4.6118
 70
32
 0
VERTEX
 8
BUTTERFLY1
 10
5.7994
 20
2.3369
 30
4.6118
 70
32
 0
VERTEX
 8
BUTTERFLY1
 10
6.1068
 20
2.7424
 30
4.6118
 70
32
 0
VERTEX
 8
BUTTERFLY1
 10
6.3413
 20
3.1084
 30
4.6118
 70
32
 0
VERTEX
 8
BUTTERFLY1
 10
6.5571
 20
3.5043
 30
4.6118
 70
32
 0
VERTEX
 8
BUTTERFLY1
 10
6.3783
 20
3.5269
 30
4.6118
 70
32
 0
VERTEX
 8
BUTTERFLY1
 10
6.2123
 20
3.5322
 30
4.6118
 70
32
 0
VERTEX
 8
BUTTERFLY1
 10
6.0576
 20
3.5221
 30
4.6118
 70
32
 0
VERTEX
 8
BUTTERFLY1
 10
5.9127
 20
3.4984
 30
4.6118
 70
32
 0
VERTEX
 8
BUTTERFLY1
 10
5.7761
 20
3.4629
 30
4.6118
 70
32
 0
VERTEX
 8
BUTTERFLY1
 10
5.6255
 20
3.4089
 30
4.6118
 70
32
 0
VERTEX
 8
BUTTERFLY1
 10
5.5021
 20
3.3539
 30
4.6118
 70
32
 0
VERTEX
 8
BUTTERFLY1
 10
5.3627
 20
3.2821
 30
4.6118
 70
32
 0
VERTEX
 8
BUTTERFLY1
 10
5.0239
 20
3.0765
 30
4.6118
 70
32
 0
VERTEX
 8
BUTTERFLY1
 10
4.676
 20
2.8204
 30
4.6118
 70
32
 0
VERTEX
 8
BUTTERFLY1
 10
4.3258
 20
2.5229
 30
4.6118
 70
32
 0
VERTEX
 8
BUTTERFLY1
 10
4.0158
 20
2.2544
 30
4.6118
 70
32
 0
VERTEX
 8
BUTTERFLY1
 10
3.9297
 20
2.1957
 30
4.6118
 70
32
 0
VERTEX
 8
BUTTERFLY1
 10
3.8746
 20
2.1645
 30
4.6118
 70
32
 0
VERTEX
 8
BUTTERFLY1
 10
3.8073
 20
2.134
 30
4.6118
 70
32
 0
VERTEX
 8
BUTTERFLY1
 10
3.7828
 20
2.1259
 30
4.6118
 70
32
 0
VERTEX
 8
BUTTERFLY1
 10
3.7501
 20
2.1183
 30
4.6118
 70
32
 0
VERTEX
 8
BUTTERFLY1
 10
3.7195
 20
2.1142
 30
4.6118
 70
32
 0
VERTEX
 8
BUTTERFLY1
 10
3.6877
 20
2.1129
 30
4.6118
 70
32
 0
VERTEX
 8
BUTTERFLY1
 10
3.6612
 20
2.1144
 30
4.6118
 70
32
 0
VERTEX
 8
BUTTERFLY1
 10
3.6403
 20
2.1177
 30
4.6118
 70
32
 0
VERTEX
 8
BUTTERFLY1
 10
3.6201
 20
2.1229
 30
4.6118
 70
32
 0
VERTEX
 8
BUTTERFLY1
 10
3.6055
 20
2.1283
 30
4.6118
 70
32
 0
VERTEX
 8
BUTTERFLY1
 10
3.5917
 20
2.135
 30
4.6118
 70
32
 0
VERTEX
 8
BUTTERFLY1
 10
3.5786
 20
2.143
 30
4.6118
 70
32
 0
VERTEX
 8
BUTTERFLY1
 10
3.5666
 20
2.1525
 30
4.6118
 70
32
 0
VERTEX
 8
BUTTERFLY1
 10
3.5692
 20
2.1645
 30
4.6118
 70
32
 0
VERTEX
 8
BUTTERFLY1
 10
3.5737
 20
2.1785
 30
4.6118
 70
32
 0
VERTEX
 8
BUTTERFLY1
 10
3.5818
 20
2.1967
 30
4.6118
 70
32
 0
VERTEX
 8
BUTTERFLY1
 10
3.6061
 20
2.2453
 30
4.6118
 70
32
 0
VERTEX
 8
BUTTERFLY1
 10
3.6094
 20
2.2553
 30
4.6118
 70
32
 0
VERTEX
 8
BUTTERFLY1
 10
3.6117
 20
2.2657
 30
4.6118
 70
32
 0
VERTEX
 8
BUTTERFLY1
 10
3.6127
 20
2.2737
 30
4.6118
 70
32
 0
VERTEX
 8
BUTTERFLY1
 10
3.6128
 20
2.2822
 30
4.6118
 70
32
 0
VERTEX
 8
BUTTERFLY1
 10
3.6119
 20
2.2918
 30
4.6118
 70
32
 0
VERTEX
 8
BUTTERFLY1
 10
3.6099
 20
2.3015
 30
4.6118
 70
32
 0
VERTEX
 8
BUTTERFLY1
 10
3.6058
 20
2.3144
 30
4.6118
 70
32
 0
VERTEX
 8
BUTTERFLY1
 10
3.5986
 20
2.3304
 30
4.6118
 70
32
 0
VERTEX
 8
BUTTERFLY1
 10
3.582
 20
2.3591
 30
4.6118
 70
32
 0
VERTEX
 8
BUTTERFLY1
 10
3.5481
 20
2.4153
 30
4.6118
 70
32
 0
VERTEX
 8
BUTTERFLY1
 10
3.5427
 20
2.4275
 30
4.6118
 70
32
 0
VERTEX
 8
BUTTERFLY1
 10
3.5388
 20
2.4396
 30
4.6118
 70
32
 0
VERTEX
 8
BUTTERFLY1
 10
3.5305
 20
2.4799
 30
4.6118
 70
32
 0
VERTEX
 8
BUTTERFLY1
 10
3.5263
 20
2.5204
 30
4.6118
 70
32
 0
VERTEX
 8
BUTTERFLY1
 10
3.5259
 20
2.5608
 30
4.6118
 70
32
 0
VERTEX
 8
BUTTERFLY1
 10
3.5307
 20
2.6141
 30
4.6118
 70
32
 0
VERTEX
 8
BUTTERFLY1
 10
3.541
 20
2.6661
 30
4.6118
 70
32
 0
VERTEX
 8
BUTTERFLY1
 10
3.5561
 20
2.7161
 30
4.6118
 70
32
 0
VERTEX
 8
BUTTERFLY1
 10
3.5755
 20
2.7634
 30
4.6118
 70
32
 0
VERTEX
 8
BUTTERFLY1
 10
3.5985
 20
2.8075
 30
4.6118
 70
32
 0
VERTEX
 8
BUTTERFLY1
 10
3.6244
 20
2.8476
 30
4.6118
 70
32
 0
VERTEX
 8
BUTTERFLY1
 10
3.6525
 20
2.883
 30
4.6118
 70
32
 0
VERTEX
 8
BUTTERFLY1
 10
3.6823
 20
2.9131
 30
4.6118
 70
32
 0
VERTEX
 8
BUTTERFLY1
 10
3.7053
 20
2.9318
 30
4.6118
 70
32
 0
VERTEX
 8
BUTTERFLY1
 10
3.7285
 20
2.9469
 30
4.6118
 70
32
 0
VERTEX
 8
BUTTERFLY1
 10
3.7363
 20
2.9511
 30
4.6118
 70
32
 0
VERTEX
 8
BUTTERFLY1
 10
3.7517
 20
2.958
 30
4.6118
 70
32
 0
VERTEX
 8
BUTTERFLY1
 10
3.7834
 20
2.9687
 30
4.6118
 70
32
 0
VERTEX
 8
BUTTERFLY1
 10
3.8127
 20
2.9752
 30
4.6118
 70
32
 0
VERTEX
 8
BUTTERFLY1
 10
3.8311
 20
2.9772
 30
4.6118
 70
32
 0
VERTEX
 8
BUTTERFLY1
 10
3.8484
 20
2.9776
 30
4.6118
 70
32
 0
VERTEX
 8
BUTTERFLY1
 10
3.8649
 20
2.9763
 30
4.6118
 70
32
 0
VERTEX
 8
BUTTERFLY1
 10
3.8805
 20
2.9735
 30
4.6118
 70
32
 0
VERTEX
 8
BUTTERFLY1
 10
3.8952
 20
2.9691
 30
4.6118
 70
32
 0
VERTEX
 8
BUTTERFLY1
 10
3.9092
 20
2.9634
 30
4.6118
 70
32
 0
VERTEX
 8
BUTTERFLY1
 10
3.9223
 20
2.9564
 30
4.6118
 70
32
 0
VERTEX
 8
BUTTERFLY1
 10
3.9347
 20
2.9482
 30
4.6118
 70
32
 0
VERTEX
 8
BUTTERFLY1
 10
3.9464
 20
2.9387
 30
4.6118
 70
32
 0
VERTEX
 8
BUTTERFLY1
 10
3.9627
 20
2.9226
 30
4.6118
 70
32
 0
VERTEX
 8
BUTTERFLY1
 10
3.9775
 20
2.9042
 30
4.6118
 70
32
 0
VERTEX
 8
BUTTERFLY1
 10
3.9952
 20
2.8768
 30
4.6118
 70
32
 0
VERTEX
 8
BUTTERFLY1
 10
4.0145
 20
2.8386
 30
4.6118
 70
32
 0
VERTEX
 8
BUTTERFLY1
 10
4.031
 20
2.7972
 30
4.6118
 70
32
 0
VERTEX
 8
BUTTERFLY1
 10
4.048
 20
2.7451
 30
4.6118
 70
32
 0
VERTEX
 8
BUTTERFLY1
 10
4.0644
 20
2.7785
 30
4.6118
 70
32
 0
VERTEX
 8
BUTTERFLY1
 10
4.076
 20
2.8119
 30
4.6118
 70
32
 0
VERTEX
 8
BUTTERFLY1
 10
4.0829
 20
2.845
 30
4.6118
 70
32
 0
VERTEX
 8
BUTTERFLY1
 10
4.0854
 20
2.8776
 30
4.6118
 70
32
 0
VERTEX
 8
BUTTERFLY1
 10
4.0838
 20
2.9093
 30
4.6118
 70
32
 0
VERTEX
 8
BUTTERFLY1
 10
4.0784
 20
2.9398
 30
4.6118
 70
32
 0
VERTEX
 8
BUTTERFLY1
 10
4.0693
 20
2.969
 30
4.6118
 70
32
 0
VERTEX
 8
BUTTERFLY1
 10
4.0568
 20
2.9965
 30
4.6118
 70
32
 0
VERTEX
 8
BUTTERFLY1
 10
4.0412
 20
3.0221
 30
4.6118
 70
32
 0
VERTEX
 8
BUTTERFLY1
 10
4.0227
 20
3.0455
 30
4.6118
 70
32
 0
VERTEX
 8
BUTTERFLY1
 10
4.0016
 20
3.0664
 30
4.6118
 70
32
 0
VERTEX
 8
BUTTERFLY1
 10
3.9781
 20
3.0845
 30
4.6118
 70
32
 0
VERTEX
 8
BUTTERFLY1
 10
3.9525
 20
3.0996
 30
4.6118
 70
32
 0
VERTEX
 8
BUTTERFLY1
 10
3.925
 20
3.1114
 30
4.6118
 70
32
 0
VERTEX
 8
BUTTERFLY1
 10
3.8958
 20
3.1196
 30
4.6118
 70
32
 0
VERTEX
 8
BUTTERFLY1
 10
3.8756
 20
3.123
 30
4.6118
 70
32
 0
VERTEX
 8
BUTTERFLY1
 10
3.8653
 20
3.124
 30
4.6118
 70
32
 0
VERTEX
 8
BUTTERFLY1
 10
3.8443
 20
3.1247
 30
4.6118
 70
32
 0
VERTEX
 8
BUTTERFLY1
 10
3.8102
 20
3.1225
 30
4.6118
 70
32
 0
VERTEX
 8
BUTTERFLY1
 10
3.7772
 20
3.117
 30
4.6118
 70
32
 0
VERTEX
 8
BUTTERFLY1
 10
3.7455
 20
3.1084
 30
4.6118
 70
32
 0
VERTEX
 8
BUTTERFLY1
 10
3.7151
 20
3.0968
 30
4.6118
 70
32
 0
VERTEX
 8
BUTTERFLY1
 10
3.6858
 20
3.0824
 30
4.6118
 70
32
 0
VERTEX
 8
BUTTERFLY1
 10
3.6444
 20
3.056
 30
4.6118
 70
32
 0
VERTEX
 8
BUTTERFLY1
 10
3.6058
 20
3.0242
 30
4.6118
 70
32
 0
VERTEX
 8
BUTTERFLY1
 10
3.5701
 20
2.9876
 30
4.6118
 70
32
 0
VERTEX
 8
BUTTERFLY1
 10
3.5374
 20
2.9468
 30
4.6118
 70
32
 0
VERTEX
 8
BUTTERFLY1
 10
3.4985
 20
2.8869
 30
4.6118
 70
32
 0
VERTEX
 8
BUTTERFLY1
 10
3.4649
 20
2.8219
 30
4.6118
 70
32
 0
VERTEX
 8
BUTTERFLY1
 10
3.4307
 20
2.7354
 30
4.6118
 70
32
 0
VERTEX
 8
BUTTERFLY1
 10
3.4053
 20
2.6458
 30
4.6118
 70
32
 0
VERTEX
 8
BUTTERFLY1
 10
3.3888
 20
2.5555
 30
4.6118
 70
32
 0
VERTEX
 8
BUTTERFLY1
 10
3.3814
 20
2.4673
 30
4.6118
 70
32
 0
VERTEX
 8
BUTTERFLY1
 10
3.3781
 20
2.4686
 30
4.6118
 70
32
 0
VERTEX
 8
BUTTERFLY1
 10
3.3729
 20
2.4699
 30
4.6118
 70
32
 0
VERTEX
 8
BUTTERFLY1
 10
3.3675
 20
2.4706
 30
4.6118
 70
32
 0
VERTEX
 8
BUTTERFLY1
 10
3.36
 20
2.4709
 30
4.6118
 70
32
 0
VERTEX
 8
BUTTERFLY1
 10
3.3419
 20
2.4698
 30
4.6118
 70
32
 0
VERTEX
 8
BUTTERFLY1
 10
3.3162
 20
2.4681
 30
4.6118
 70
32
 0
VERTEX
 8
BUTTERFLY1
 10
3.3053
 20
2.4687
 30
4.6118
 70
32
 0
VERTEX
 8
BUTTERFLY1
 10
3.2966
 20
2.4701
 30
4.6118
 70
32
 0
VERTEX
 8
BUTTERFLY1
 10
3.2901
 20
2.4719
 30
4.6118
 70
32
 0
VERTEX
 8
BUTTERFLY1
 10
3.2859
 20
2.4735
 30
4.6118
 70
32
 0
VERTEX
 8
BUTTERFLY1
 10
3.2795
 20
2.4766
 30
4.6118
 70
32
 0
VERTEX
 8
BUTTERFLY1
 10
3.291
 20
2.5358
 30
4.6118
 70
32
 0
VERTEX
 8
BUTTERFLY1
 10
3.2963
 20
2.5962
 30
4.6118
 70
32
 0
VERTEX
 8
BUTTERFLY1
 10
3.2956
 20
2.6569
 30
4.6118
 70
32
 0
VERTEX
 8
BUTTERFLY1
 10
3.2892
 20
2.7174
 30
4.6118
 70
32
 0
VERTEX
 8
BUTTERFLY1
 10
3.2773
 20
2.7768
 30
4.6118
 70
32
 0
VERTEX
 8
BUTTERFLY1
 10
3.2602
 20
2.8344
 30
4.6118
 70
32
 0
VERTEX
 8
BUTTERFLY1
 10
3.2382
 20
2.8895
 30
4.6118
 70
32
 0
VERTEX
 8
BUTTERFLY1
 10
3.2114
 20
2.9413
 30
4.6118
 70
32
 0
VERTEX
 8
BUTTERFLY1
 10
3.1801
 20
2.989
 30
4.6118
 70
32
 0
VERTEX
 8
BUTTERFLY1
 10
3.1445
 20
3.0321
 30
4.6118
 70
32
 0
VERTEX
 8
BUTTERFLY1
 10
3.1049
 20
3.0696
 30
4.6118
 70
32
 0
VERTEX
 8
BUTTERFLY1
 10
3.0764
 20
3.0913
 30
4.6118
 70
32
 0
VERTEX
 8
BUTTERFLY1
 10
3.0464
 20
3.1099
 30
4.6118
 70
32
 0
VERTEX
 8
BUTTERFLY1
 10
3.0147
 20
3.1253
 30
4.6118
 70
32
 0
VERTEX
 8
BUTTERFLY1
 10
2.9816
 20
3.1373
 30
4.6118
 70
32
 0
VERTEX
 8
BUTTERFLY1
 10
2.9472
 20
3.1457
 30
4.6118
 70
32
 0
VERTEX
 8
BUTTERFLY1
 10
2.9114
 20
3.1502
 30
4.6118
 70
32
 0
VERTEX
 8
BUTTERFLY1
 10
2.8743
 20
3.1507
 30
4.6118
 70
32
 0
VERTEX
 8
BUTTERFLY1
 10
2.8554
 20
3.1493
 30
4.6118
 70
32
 0
VERTEX
 8
BUTTERFLY1
 10
2.8166
 20
3.1432
 30
4.6118
 70
32
 0
VERTEX
 8
BUTTERFLY1
 10
2.8025
 20
3.1393
 30
4.6118
 70
32
 0
VERTEX
 8
BUTTERFLY1
 10
2.7885
 20
3.1338
 30
4.6118
 70
32
 0
VERTEX
 8
BUTTERFLY1
 10
2.7747
 20
3.1267
 30
4.6118
 70
32
 0
VERTEX
 8
BUTTERFLY1
 10
2.7566
 20
3.115
 30
4.6118
 70
32
 0
VERTEX
 8
BUTTERFLY1
 10
2.7391
 20
3.101
 30
4.6118
 70
32
 0
VERTEX
 8
BUTTERFLY1
 10
2.7183
 20
3.0809
 30
4.6118
 70
32
 0
VERTEX
 8
BUTTERFLY1
 10
2.6991
 20
3.0583
 30
4.6118
 70
32
 0
VERTEX
 8
BUTTERFLY1
 10
2.6817
 20
3.0339
 30
4.6118
 70
32
 0
VERTEX
 8
BUTTERFLY1
 10
2.6667
 20
3.0082
 30
4.6118
 70
32
 0
VERTEX
 8
BUTTERFLY1
 10
2.6542
 20
2.9818
 30
4.6118
 70
32
 0
VERTEX
 8
BUTTERFLY1
 10
2.6464
 20
2.9605
 30
4.6118
 70
32
 0
VERTEX
 8
BUTTERFLY1
 10
2.6407
 20
2.9395
 30
4.6118
 70
32
 0
VERTEX
 8
BUTTERFLY1
 10
2.6341
 20
2.9024
 30
4.6118
 70
32
 0
VERTEX
 8
BUTTERFLY1
 10
2.6314
 20
2.871
 30
4.6118
 70
32
 0
VERTEX
 8
BUTTERFLY1
 10
2.6318
 20
2.8498
 30
4.6118
 70
32
 0
VERTEX
 8
BUTTERFLY1
 10
2.6334
 20
2.8362
 30
4.6118
 70
32
 0
VERTEX
 8
BUTTERFLY1
 10
2.6354
 20
2.8266
 30
4.6118
 70
32
 0
VERTEX
 8
BUTTERFLY1
 10
2.6382
 20
2.8177
 30
4.6118
 70
32
 0
VERTEX
 8
BUTTERFLY1
 10
2.6419
 20
2.8095
 30
4.6118
 70
32
 0
VERTEX
 8
BUTTERFLY1
 10
2.6449
 20
2.8046
 30
4.6118
 70
32
 0
VERTEX
 8
BUTTERFLY1
 10
2.6484
 20
2.8002
 30
4.6118
 70
32
 0
VERTEX
 8
BUTTERFLY1
 10
2.6523
 20
2.7962
 30
4.6118
 70
32
 0
VERTEX
 8
BUTTERFLY1
 10
2.6545
 20
2.7945
 30
4.6118
 70
32
 0
VERTEX
 8
BUTTERFLY1
 10
2.6592
 20
2.7914
 30
4.6118
 70
32
 0
VERTEX
 8
BUTTERFLY1
 10
2.6794
 20
2.863
 30
4.6118
 70
32
 0
VERTEX
 8
BUTTERFLY1
 10
2.6933
 20
2.899
 30
4.6118
 70
32
 0
VERTEX
 8
BUTTERFLY1
 10
2.7062
 20
2.9252
 30
4.6118
 70
32
 0
VERTEX
 8
BUTTERFLY1
 10
2.7173
 20
2.943
 30
4.6118
 70
32
 0
VERTEX
 8
BUTTERFLY1
 10
2.7296
 20
2.9592
 30
4.6118
 70
32
 0
VERTEX
 8
BUTTERFLY1
 10
2.7433
 20
2.9735
 30
4.6118
 70
32
 0
VERTEX
 8
BUTTERFLY1
 10
2.7533
 20
2.9819
 30
4.6118
 70
32
 0
VERTEX
 8
BUTTERFLY1
 10
2.764
 20
2.9894
 30
4.6118
 70
32
 0
VERTEX
 8
BUTTERFLY1
 10
2.7755
 20
2.9959
 30
4.6118
 70
32
 0
VERTEX
 8
BUTTERFLY1
 10
2.7877
 20
3.0013
 30
4.6118
 70
32
 0
VERTEX
 8
BUTTERFLY1
 10
2.8008
 20
3.0057
 30
4.6118
 70
32
 0
VERTEX
 8
BUTTERFLY1
 10
2.8148
 20
3.0089
 30
4.6118
 70
32
 0
VERTEX
 8
BUTTERFLY1
 10
2.8297
 20
3.011
 30
4.6118
 70
32
 0
VERTEX
 8
BUTTERFLY1
 10
2.8539
 20
3.0117
 30
4.6118
 70
32
 0
VERTEX
 8
BUTTERFLY1
 10
2.8803
 20
3.0096
 30
4.6118
 70
32
 0
VERTEX
 8
BUTTERFLY1
 10
2.9092
 20
3.0043
 30
4.6118
 70
32
 0
VERTEX
 8
BUTTERFLY1
 10
2.9252
 20
2.9994
 30
4.6118
 70
32
 0
VERTEX
 8
BUTTERFLY1
 10
2.9416
 20
2.9919
 30
4.6118
 70
32
 0
VERTEX
 8
BUTTERFLY1
 10
2.9582
 20
2.9819
 30
4.6118
 70
32
 0
VERTEX
 8
BUTTERFLY1
 10
2.9833
 20
2.9628
 30
4.6118
 70
32
 0
VERTEX
 8
BUTTERFLY1
 10
3.0082
 20
2.9389
 30
4.6118
 70
32
 0
VERTEX
 8
BUTTERFLY1
 10
3.0405
 20
2.9006
 30
4.6118
 70
32
 0
VERTEX
 8
BUTTERFLY1
 10
3.071
 20
2.8559
 30
4.6118
 70
32
 0
VERTEX
 8
BUTTERFLY1
 10
3.0987
 20
2.8059
 30
4.6118
 70
32
 0
VERTEX
 8
BUTTERFLY1
 10
3.1228
 20
2.7518
 30
4.6118
 70
32
 0
VERTEX
 8
BUTTERFLY1
 10
3.1423
 20
2.6947
 30
4.6118
 70
32
 0
VERTEX
 8
BUTTERFLY1
 10
3.1565
 20
2.6357
 30
4.6118
 70
32
 0
VERTEX
 8
BUTTERFLY1
 10
3.1642
 20
2.5759
 30
4.6118
 70
32
 0
VERTEX
 8
BUTTERFLY1
 10
3.1653
 20
2.5312
 30
4.6118
 70
32
 0
VERTEX
 8
BUTTERFLY1
 10
3.162
 20
2.4872
 30
4.6118
 70
32
 0
VERTEX
 8
BUTTERFLY1
 10
3.1571
 20
2.4584
 30
4.6118
 70
32
 0
VERTEX
 8
BUTTERFLY1
 10
3.1499
 20
2.4303
 30
4.6118
 70
32
 0
VERTEX
 8
BUTTERFLY1
 10
3.1446
 20
2.4157
 30
4.6118
 70
32
 0
VERTEX
 8
BUTTERFLY1
 10
3.1361
 20
2.3981
 30
4.6118
 70
32
 0
VERTEX
 8
BUTTERFLY1
 10
3.1195
 20
2.3711
 30
4.6118
 70
32
 0
VERTEX
 8
BUTTERFLY1
 10
3.0815
 20
2.3131
 30
4.6118
 70
32
 0
VERTEX
 8
BUTTERFLY1
 10
3.0739
 20
2.297
 30
4.6118
 70
32
 0
VERTEX
 8
BUTTERFLY1
 10
3.0704
 20
2.2872
 30
4.6118
 70
32
 0
VERTEX
 8
BUTTERFLY1
 10
3.068
 20
2.2772
 30
4.6118
 70
32
 0
VERTEX
 8
BUTTERFLY1
 10
3.067
 20
2.2705
 30
4.6118
 70
32
 0
VERTEX
 8
BUTTERFLY1
 10
3.0666
 20
2.2636
 30
4.6118
 70
32
 0
VERTEX
 8
BUTTERFLY1
 10
3.0669
 20
2.2552
 30
4.6118
 70
32
 0
VERTEX
 8
BUTTERFLY1
 10
3.0681
 20
2.2468
 30
4.6118
 70
32
 0
VERTEX
 8
BUTTERFLY1
 10
3.0708
 20
2.2357
 30
4.6118
 70
32
 0
VERTEX
 8
BUTTERFLY1
 10
3.0756
 20
2.222
 30
4.6118
 70
32
 0
VERTEX
 8
BUTTERFLY1
 10
3.1086
 20
2.1478
 30
4.6118
 70
32
 0
VERTEX
 8
BUTTERFLY1
 10
3.1114
 20
2.1364
 30
4.6118
 70
32
 0
VERTEX
 8
BUTTERFLY1
 10
3.1123
 20
2.1306
 30
4.6118
 70
32
 0
VERTEX
 8
BUTTERFLY1
 10
3.1129
 20
2.1248
 30
4.6118
 70
32
 0
VERTEX
 8
BUTTERFLY1
 10
3.0748
 20
2.1131
 30
4.6118
 70
32
 0
VERTEX
 8
BUTTERFLY1
 10
3.0386
 20
2.1062
 30
4.6118
 70
32
 0
VERTEX
 8
BUTTERFLY1
 10
3.0042
 20
2.1037
 30
4.6118
 70
32
 0
VERTEX
 8
BUTTERFLY1
 10
2.9714
 20
2.1052
 30
4.6118
 70
32
 0
VERTEX
 8
BUTTERFLY1
 10
2.9402
 20
2.1104
 30
4.6118
 70
32
 0
VERTEX
 8
BUTTERFLY1
 10
2.9103
 20
2.1189
 30
4.6118
 70
32
 0
VERTEX
 8
BUTTERFLY1
 10
2.8817
 20
2.1303
 30
4.6118
 70
32
 0
VERTEX
 8
BUTTERFLY1
 10
2.8452
 20
2.1494
 30
4.6118
 70
32
 0
VERTEX
 8
BUTTERFLY1
 10
2.8018
 20
2.1785
 30
4.6118
 70
32
 0
VERTEX
 8
BUTTERFLY1
 10
2.72
 20
2.2473
 30
4.6118
 70
32
 0
VERTEX
 8
BUTTERFLY1
 10
2.6407
 20
2.3192
 30
4.6118
 70
32
 0
VERTEX
 8
BUTTERFLY1
 10
1.8352
 20
3.0321
 30
4.6118
 70
32
 0
VERTEX
 8
BUTTERFLY1
 10
1.4498
 20
3.3236
 30
4.6118
 70
32
 0
VERTEX
 8
BUTTERFLY1
 10
1.2394
 20
3.452
 30
4.6118
 70
32
 0
VERTEX
 8
BUTTERFLY1
 10
1.0463
 20
3.5444
 30
4.6118
 70
32
 0
VERTEX
 8
BUTTERFLY1
 10
0.8749
 20
3.6051
 30
4.6118
 70
32
 0
VERTEX
 8
BUTTERFLY1
 10
0.73
 20
3.6408
 30
4.6118
 70
32
 0
VERTEX
 8
BUTTERFLY1
 10
0.5775
 20
3.6633
 30
4.6118
 70
32
 0
VERTEX
 8
BUTTERFLY1
 10
0.4169
 20
3.6713
 30
4.6118
 70
32
 0
VERTEX
 8
BUTTERFLY1
 10
0.2907
 20
3.6667
 30
4.6118
 70
32
 0
VERTEX
 8
BUTTERFLY1
 10
0.1594
 20
3.6524
 30
4.6118
 70
32
 0
VERTEX
 8
BUTTERFLY1
 10
0.4368
 20
3.1477
 30
4.6118
 70
32
 0
VERTEX
 8
BUTTERFLY1
 10
0.7519
 20
2.634
 30
4.6118
 70
32
 0
VERTEX
 8
BUTTERFLY1
 10
0.991
 20
2.2941
 30
4.6118
 70
32
 0
VERTEX
 8
BUTTERFLY1
 10
1.1323
 20
2.1311
 30
4.6118
 70
32
 0
VERTEX
 8
BUTTERFLY1
 10
1.253
 20
2.0171
 30
4.6118
 70
32
 0
VERTEX
 8
BUTTERFLY1
 10
1.3453
 20
1.9458
 30
4.6118
 70
32
 0
VERTEX
 8
BUTTERFLY1
 10
1.4427
 20
1.885
 30
4.6118
 70
32
 0
VERTEX
 8
BUTTERFLY1
 10
1.5037
 20
1.8543
 30
4.6118
 70
32
 0
VERTEX
 8
BUTTERFLY1
 10
1.5667
 20
1.8285
 30
4.6118
 70
32
 0
VERTEX
 8
BUTTERFLY1
 10
1.6041
 20
1.8169
 30
4.6118
 70
32
 0
VERTEX
 8
BUTTERFLY1
 10
1.6466
 20
1.8079
 30
4.6118
 70
32
 0
VERTEX
 8
BUTTERFLY1
 10
1.6992
 20
1.8019
 30
4.6118
 70
32
 0
VERTEX
 8
BUTTERFLY1
 10
1.7528
 20
1.7999
 30
4.6118
 70
32
 0
VERTEX
 8
BUTTERFLY1
 10
1.8074
 20
1.8007
 30
4.6118
 70
32
 0
VERTEX
 8
BUTTERFLY1
 10
1.8078
 20
1.8086
 30
4.6118
 70
32
 0
VERTEX
 8
BUTTERFLY1
 10
1.8072
 20
1.816
 30
4.6118
 70
32
 0
VERTEX
 8
BUTTERFLY1
 10
1.8056
 20
1.8229
 30
4.6118
 70
32
 0
VERTEX
 8
BUTTERFLY1
 10
1.8032
 20
1.8294
 30
4.6118
 70
32
 0
VERTEX
 8
BUTTERFLY1
 10
1.8001
 20
1.8355
 30
4.6118
 70
32
 0
VERTEX
 8
BUTTERFLY1
 10
1.7963
 20
1.8413
 30
4.6118
 70
32
 0
VERTEX
 8
BUTTERFLY1
 10
1.7896
 20
1.8495
 30
4.6118
 70
32
 0
VERTEX
 8
BUTTERFLY1
 10
1.7765
 20
1.8625
 30
4.6118
 70
32
 0
VERTEX
 8
BUTTERFLY1
 10
1.7456
 20
1.8918
 30
4.6118
 70
32
 0
VERTEX
 8
BUTTERFLY1
 10
1.7382
 20
1.9008
 30
4.6118
 70
32
 0
VERTEX
 8
BUTTERFLY1
 10
1.7319
 20
1.9106
 30
4.6118
 70
32
 0
VERTEX
 8
BUTTERFLY1
 10
1.7284
 20
1.9178
 30
4.6118
 70
32
 0
VERTEX
 8
BUTTERFLY1
 10
1.7256
 20
1.9254
 30
4.6118
 70
32
 0
VERTEX
 8
BUTTERFLY1
 10
1.7236
 20
1.9335
 30
4.6118
 70
32
 0
VERTEX
 8
BUTTERFLY1
 10
1.7224
 20
1.9423
 30
4.6118
 70
32
 0
VERTEX
 8
BUTTERFLY1
 10
1.7223
 20
1.9518
 30
4.6118
 70
32
 0
VERTEX
 8
BUTTERFLY1
 10
1.7226
 20
1.9568
 30
4.6118
 70
32
 0
VERTEX
 8
BUTTERFLY1
 10
1.7241
 20
1.9674
 30
4.6118
 70
32
 0
VERTEX
 8
BUTTERFLY1
 10
1.725
 20
1.9715
 30
4.6118
 70
32
 0
VERTEX
 8
BUTTERFLY1
 10
1.7272
 20
1.9776
 30
4.6118
 70
32
 0
VERTEX
 8
BUTTERFLY1
 10
1.7301
 20
1.9836
 30
4.6118
 70
32
 0
VERTEX
 8
BUTTERFLY1
 10
1.7337
 20
1.9895
 30
4.6118
 70
32
 0
VERTEX
 8
BUTTERFLY1
 10
1.7396
 20
1.9971
 30
4.6118
 70
32
 0
VERTEX
 8
BUTTERFLY1
 10
1.7466
 20
2.0044
 30
4.6118
 70
32
 0
VERTEX
 8
BUTTERFLY1
 10
1.7546
 20
2.0113
 30
4.6118
 70
32
 0
VERTEX
 8
BUTTERFLY1
 10
1.7658
 20
2.0193
 30
4.6118
 70
32
 0
VERTEX
 8
BUTTERFLY1
 10
1.7782
 20
2.0263
 30
4.6118
 70
32
 0
VERTEX
 8
BUTTERFLY1
 10
1.7915
 20
2.0323
 30
4.6118
 70
32
 0
VERTEX
 8
BUTTERFLY1
 10
1.8055
 20
2.037
 30
4.6118
 70
32
 0
VERTEX
 8
BUTTERFLY1
 10
1.8142
 20
2.0393
 30
4.6118
 70
32
 0
VERTEX
 8
BUTTERFLY1
 10
1.8259
 20
2.0414
 30
4.6118
 70
32
 0
VERTEX
 8
BUTTERFLY1
 10
1.8566
 20
2.0442
 30
4.6118
 70
32
 0
VERTEX
 8
BUTTERFLY1
 10
1.8876
 20
2.044
 30
4.6118
 70
32
 0
VERTEX
 8
BUTTERFLY1
 10
1.9348
 20
2.0386
 30
4.6118
 70
32
 0
VERTEX
 8
BUTTERFLY1
 10
1.9825
 20
2.0278
 30
4.6118
 70
32
 0
VERTEX
 8
BUTTERFLY1
 10
2.0463
 20
2.0061
 30
4.6118
 70
32
 0
VERTEX
 8
BUTTERFLY1
 10
2.1255
 20
1.9698
 30
4.6118
 70
32
 0
VERTEX
 8
BUTTERFLY1
 10
2.3459
 20
1.8319
 30
4.6118
 70
32
 0
VERTEX
 8
BUTTERFLY1
 10
2.5203
 20
1.7174
 30
4.6118
 70
32
 0
VERTEX
 8
BUTTERFLY1
 10
2.5149
 20
1.7473
 30
4.6118
 70
32
 0
VERTEX
 8
BUTTERFLY1
 10
2.5066
 20
1.7761
 30
4.6118
 70
32
 0
VERTEX
 8
BUTTERFLY1
 10
2.4957
 20
1.8039
 30
4.6118
 70
32
 0
VERTEX
 8
BUTTERFLY1
 10
2.4773
 20
1.8394
 30
4.6118
 70
32
 0
VERTEX
 8
BUTTERFLY1
 10
2.4552
 20
1.8732
 30
4.6118
 70
32
 0
VERTEX
 8
BUTTERFLY1
 10
2.423
 20
1.9132
 30
4.6118
 70
32
 0
VERTEX
 8
BUTTERFLY1
 10
2.3791
 20
1.958
 30
4.6118
 70
32
 0
VERTEX
 8
BUTTERFLY1
 10
2.2892
 20
2.0321
 30
4.6118
 70
32
 0
VERTEX
 8
BUTTERFLY1
 10
2.1963
 20
2.097
 30
4.6118
 70
32
 0
VERTEX
 8
BUTTERFLY1
 10
2.0597
 20
2.1805
 30
4.6118
 70
32
 0
VERTEX
 8
BUTTERFLY1
 10
1.9544
 20
2.2322
 30
4.6118
 70
32
 0
VERTEX
 8
BUTTERFLY1
 10
1.8668
 20
2.2658
 30
4.6118
 70
32
 0
VERTEX
 8
BUTTERFLY1
 10
1.7878
 20
2.2882
 30
4.6118
 70
32
 0
VERTEX
 8
BUTTERFLY1
 10
1.7055
 20
2.3034
 30
4.6118
 70
32
 0
VERTEX
 8
BUTTERFLY1
 10
1.6488
 20
2.3089
 30
4.6118
 70
32
 0
VERTEX
 8
BUTTERFLY1
 10
1.5759
 20
2.3099
 30
4.6118
 70
32
 0
VERTEX
 8
BUTTERFLY1
 10
1.5688
 20
2.3078
 30
4.6118
 70
32
 0
VERTEX
 8
BUTTERFLY1
 10
1.562
 20
2.3049
 30
4.6118
 70
32
 0
VERTEX
 8
BUTTERFLY1
 10
1.5555
 20
2.3014
 30
4.6118
 70
32
 0
VERTEX
 8
BUTTERFLY1
 10
1.5464
 20
2.2951
 30
4.6118
 70
32
 0
VERTEX
 8
BUTTERFLY1
 10
1.5378
 20
2.2876
 30
4.6118
 70
32
 0
VERTEX
 8
BUTTERFLY1
 10
1.5272
 20
2.2764
 30
4.6118
 70
32
 0
VERTEX
 8
BUTTERFLY1
 10
1.4763
 20
2.2126
 30
4.6118
 70
32
 0
VERTEX
 8
BUTTERFLY1
 10
1.4693
 20
2.2068
 30
4.6118
 70
32
 0
VERTEX
 8
BUTTERFLY1
 10
1.4645
 20
2.2037
 30
4.6118
 70
32
 0
VERTEX
 8
BUTTERFLY1
 10
1.4595
 20
2.2013
 30
4.6118
 70
32
 0
VERTEX
 8
BUTTERFLY1
 10
1.4544
 20
2.1997
 30
4.6118
 70
32
 0
VERTEX
 8
BUTTERFLY1
 10
1.4517
 20
2.1992
 30
4.6118
 70
32
 0
VERTEX
 8
BUTTERFLY1
 10
1.4463
 20
2.1988
 30
4.6118
 70
32
 0
VERTEX
 8
BUTTERFLY1
 10
1.4043
 20
2.2349
 30
4.6118
 70
32
 0
VERTEX
 8
BUTTERFLY1
 10
1.3654
 20
2.275
 30
4.6118
 70
32
 0
VERTEX
 8
BUTTERFLY1
 10
1.3209
 20
2.3305
 30
4.6118
 70
32
 0
VERTEX
 8
BUTTERFLY1
 10
1.273
 20
2.4038
 30
4.6118
 70
32
 0
VERTEX
 8
BUTTERFLY1
 10
1.2242
 20
2.4971
 30
4.6118
 70
32
 0
VERTEX
 8
BUTTERFLY1
 10
1.1714
 20
2.6266
 30
4.6118
 70
32
 0
VERTEX
 8
BUTTERFLY1
 10
1.137
 20
2.7324
 30
4.6118
 70
32
 0
VERTEX
 8
BUTTERFLY1
 10
1.1037
 20
2.8562
 30
4.6118
 70
32
 0
VERTEX
 8
BUTTERFLY1
 10
1.0656
 20
3.0189
 30
4.6118
 70
32
 0
VERTEX
 8
BUTTERFLY1
 10
1.0618
 20
3.0568
 30
4.6118
 70
32
 0
VERTEX
 8
BUTTERFLY1
 10
1.0616
 20
3.0833
 30
4.6118
 70
32
 0
VERTEX
 8
BUTTERFLY1
 10
1.0632
 20
3.1042
 30
4.6118
 70
32
 0
VERTEX
 8
BUTTERFLY1
 10
1.0667
 20
3.1247
 30
4.6118
 70
32
 0
VERTEX
 8
BUTTERFLY1
 10
1.2216
 20
3.0408
 30
4.6118
 70
32
 0
VERTEX
 8
BUTTERFLY1
 10
1.6089
 20
2.7677
 30
4.6118
 70
32
 0
VERTEX
 8
BUTTERFLY1
 10
2.0018
 20
2.4581
 30
4.6118
 70
32
 0
VERTEX
 8
BUTTERFLY1
 10
2.4555
 20
2.1155
 30
4.6118
 70
32
 0
VERTEX
 8
BUTTERFLY1
 10
2.6082
 20
2.0069
 30
4.6118
 70
32
 0
VERTEX
 8
BUTTERFLY1
 10
2.708
 20
1.9493
 30
4.6118
 70
32
 0
VERTEX
 8
BUTTERFLY1
 10
2.7827
 20
1.915
 30
4.6118
 70
32
 0
VERTEX
 8
BUTTERFLY1
 10
2.8429
 20
1.8942
 30
4.6118
 70
32
 0
VERTEX
 8
BUTTERFLY1
 10
2.8877
 20
1.8835
 30
4.6118
 70
32
 0
VERTEX
 8
BUTTERFLY1
 10
2.9315
 20
1.8778
 30
4.6118
 70
32
 0
VERTEX
 8
BUTTERFLY1
 10
2.96
 20
1.8771
 30
4.6118
 70
32
 0
VERTEX
 8
BUTTERFLY1
 10
2.9879
 20
1.8792
 30
4.6118
 70
32
 0
VERTEX
 8
BUTTERFLY1
 10
3.0148
 20
1.8842
 30
4.6118
 70
32
 0
VERTEX
 8
BUTTERFLY1
 10
3.0408
 20
1.8924
 30
4.6118
 70
32
 0
VERTEX
 8
BUTTERFLY1
 10
3.0657
 20
1.9039
 30
4.6118
 70
32
 0
VERTEX
 8
BUTTERFLY1
 10
3.0893
 20
1.919
 30
4.6118
 70
32
 0
VERTEX
 8
BUTTERFLY1
 10
3.1006
 20
1.928
 30
4.6118
 70
32
 0
VERTEX
 8
BUTTERFLY1
 10
3.1221
 20
1.9488
 30
4.6118
 70
32
 0
VERTEX
 8
BUTTERFLY1
 10
3.1367
 20
1.8898
 30
4.6118
 70
32
 0
VERTEX
 8
BUTTERFLY1
 10
3.1558
 20
1.7622
 30
4.6118
 70
32
 0
VERTEX
 8
BUTTERFLY1
 10
3.1643
 20
1.6125
 30
4.6118
 70
32
 0
VERTEX
 8
BUTTERFLY1
 10
3.16
 20
1.4985
 30
4.6118
 70
32
 0
VERTEX
 8
BUTTERFLY1
 10
3.1475
 20
1.4095
 30
4.6118
 70
32
 0
VERTEX
 8
BUTTERFLY1
 10
3.1354
 20
1.361
 30
4.6118
 70
32
 0
VERTEX
 8
BUTTERFLY1
 10
3.1194
 20
1.3177
 30
4.6118
 70
32
 0
VERTEX
 8
BUTTERFLY1
 10
3.1065
 20
1.2921
 30
4.6118
 70
32
 0
VERTEX
 8
BUTTERFLY1
 10
3.0917
 20
1.2697
 30
4.6118
 70
32
 0
VERTEX
 8
BUTTERFLY1
 10
3.0748
 20
1.2507
 30
4.6118
 70
32
 0
VERTEX
 8
BUTTERFLY1
 10
3.0656
 20
1.2425
 30
4.6118
 70
32
 0
VERTEX
 8
BUTTERFLY1
 10
3.0558
 20
1.2354
 30
4.6118
 70
32
 0
VERTEX
 8
BUTTERFLY1
 10
3.0455
 20
1.2293
 30
4.6118
 70
32
 0
VERTEX
 8
BUTTERFLY1
 10
3.0346
 20
1.2242
 30
4.6118
 70
32
 0
VERTEX
 8
BUTTERFLY1
 10
3.0231
 20
1.2202
 30
4.6118
 70
32
 0
VERTEX
 8
BUTTERFLY1
 10
3.011
 20
1.2174
 30
4.6118
 70
32
 0
VERTEX
 8
BUTTERFLY1
 10
2.9972
 20
1.2156
 30
4.6118
 70
32
 0
VERTEX
 8
BUTTERFLY1
 10
2.9784
 20
1.215
 30
4.6118
 70
32
 0
VERTEX
 8
BUTTERFLY1
 10
2.9595
 20
1.2164
 30
4.6118
 70
32
 0
VERTEX
 8
BUTTERFLY1
 10
2.9408
 20
1.2196
 30
4.6118
 70
32
 0
VERTEX
 8
BUTTERFLY1
 10
2.9228
 20
1.2245
 30
4.6118
 70
32
 0
VERTEX
 8
BUTTERFLY1
 10
2.9057
 20
1.2309
 30
4.6118
 70
32
 0
VERTEX
 8
BUTTERFLY1
 10
2.89
 20
1.2386
 30
4.6118
 70
32
 0
VERTEX
 8
BUTTERFLY1
 10
2.876
 20
1.2475
 30
4.6118
 70
32
 0
VERTEX
 8
BUTTERFLY1
 10
2.8669
 20
1.2548
 30
4.6118
 70
32
 0
VERTEX
 8
BUTTERFLY1
 10
2.8591
 20
1.2626
 30
4.6118
 70
32
 0
VERTEX
 8
BUTTERFLY1
 10
2.8547
 20
1.2681
 30
4.6118
 70
32
 0
VERTEX
 8
BUTTERFLY1
 10
2.851
 20
1.2737
 30
4.6118
 70
32
 0
VERTEX
 8
BUTTERFLY1
 10
2.8481
 20
1.2795
 30
4.6118
 70
32
 0
VERTEX
 8
BUTTERFLY1
 10
2.8459
 20
1.2855
 30
4.6118
 70
32
 0
VERTEX
 8
BUTTERFLY1
 10
2.8446
 20
1.2915
 30
4.6118
 70
32
 0
VERTEX
 8
BUTTERFLY1
 10
2.8443
 20
1.2946
 30
4.6118
 70
32
 0
VERTEX
 8
BUTTERFLY1
 10
2.8444
 20
1.3007
 30
4.6118
 70
32
 0
VERTEX
 8
BUTTERFLY1
 10
2.8454
 20
1.3078
 30
4.6118
 70
32
 0
VERTEX
 8
BUTTERFLY1
 10
2.8474
 20
1.3144
 30
4.6118
 70
32
 0
VERTEX
 8
BUTTERFLY1
 10
2.8501
 20
1.3204
 30
4.6118
 70
32
 0
VERTEX
 8
BUTTERFLY1
 10
2.8535
 20
1.3259
 30
4.6118
 70
32
 0
VERTEX
 8
BUTTERFLY1
 10
2.8576
 20
1.331
 30
4.6118
 70
32
 0
VERTEX
 8
BUTTERFLY1
 10
2.8623
 20
1.3357
 30
4.6118
 70
32
 0
VERTEX
 8
BUTTERFLY1
 10
2.8702
 20
1.3421
 30
4.6118
 70
32
 0
VERTEX
 8
BUTTERFLY1
 10
2.8792
 20
1.3478
 30
4.6118
 70
32
 0
VERTEX
 8
BUTTERFLY1
 10
2.8955
 20
1.3562
 30
4.6118
 70
32
 0
VERTEX
 8
BUTTERFLY1
 10
2.9521
 20
1.382
 30
4.6118
 70
32
 0
VERTEX
 8
BUTTERFLY1
 10
2.9601
 20
1.3874
 30
4.6118
 70
32
 0
VERTEX
 8
BUTTERFLY1
 10
2.9649
 20
1.3913
 30
4.6118
 70
32
 0
VERTEX
 8
BUTTERFLY1
 10
2.969
 20
1.3956
 30
4.6118
 70
32
 0
VERTEX
 8
BUTTERFLY1
 10
2.9708
 20
1.3978
 30
4.6118
 70
32
 0
VERTEX
 8
BUTTERFLY1
 10
2.974
 20
1.4026
 30
4.6118
 70
32
 0
VERTEX
 8
BUTTERFLY1
 10
2.988
 20
1.4319
 30
4.6118
 70
32
 0
VERTEX
 8
BUTTERFLY1
 10
2.9966
 20
1.46
 30
4.6118
 70
32
 0
VERTEX
 8
BUTTERFLY1
 10
3.0003
 20
1.4868
 30
4.6118
 70
32
 0
VERTEX
 8
BUTTERFLY1
 10
2.9995
 20
1.5122
 30
4.6118
 70
32
 0
VERTEX
 8
BUTTERFLY1
 10
2.9974
 20
1.5243
 30
4.6118
 70
32
 0
VERTEX
 8
BUTTERFLY1
 10
2.9904
 20
1.5474
 30
4.6118
 70
32
 0
VERTEX
 8
BUTTERFLY1
 10
2.9797
 20
1.569
 30
4.6118
 70
32
 0
VERTEX
 8
BUTTERFLY1
 10
2.9657
 20
1.5887
 30
4.6118
 70
32
 0
VERTEX
 8
BUTTERFLY1
 10
2.9488
 20
1.6067
 30
4.6118
 70
32
 0
VERTEX
 8
BUTTERFLY1
 10
2.9293
 20
1.6228
 30
4.6118
 70
32
 0
VERTEX
 8
BUTTERFLY1
 10
2.9077
 20
1.6369
 30
4.6118
 70
32
 0
VERTEX
 8
BUTTERFLY1
 10
2.8842
 20
1.6489
 30
4.6118
 70
32
 0
VERTEX
 8
BUTTERFLY1
 10
2.8593
 20
1.6587
 30
4.6118
 70
32
 0
VERTEX
 8
BUTTERFLY1
 10
2.8333
 20
1.6663
 30
4.6118
 70
32
 0
VERTEX
 8
BUTTERFLY1
 10
2.8066
 20
1.6715
 30
4.6118
 70
32
 0
VERTEX
 8
BUTTERFLY1
 10
2.7796
 20
1.6742
 30
4.6118
 70
32
 0
VERTEX
 8
BUTTERFLY1
 10
2.7526
 20
1.6744
 30
4.6118
 70
32
 0
VERTEX
 8
BUTTERFLY1
 10
2.7259
 20
1.6719
 30
4.6118
 70
32
 0
VERTEX
 8
BUTTERFLY1
 10
2.7001
 20
1.6667
 30
4.6118
 70
32
 0
VERTEX
 8
BUTTERFLY1
 10
2.6753
 20
1.6587
 30
4.6118
 70
32
 0
VERTEX
 8
BUTTERFLY1
 10
2.6521
 20
1.6478
 30
4.6118
 70
32
 0
VERTEX
 8
BUTTERFLY1
 10
2.6307
 20
1.6338
 30
4.6118
 70
32
 0
VERTEX
 8
BUTTERFLY1
 10
2.6116
 20
1.6168
 30
4.6118
 70
32
 0
VERTEX
 8
BUTTERFLY1
 10
2.595
 20
1.5965
 30
4.6118
 70
32
 0
VERTEX
 8
BUTTERFLY1
 10
2.5878
 20
1.5852
 30
4.6118
 70
32
 0
VERTEX
 8
BUTTERFLY1
 10
2.5759
 20
1.56
 30
4.6118
 70
32
 0
VERTEX
 8
BUTTERFLY1
 10
2.5713
 20
1.5461
 30
4.6118
 70
32
 0
VERTEX
 8
BUTTERFLY1
 10
2.5659
 20
1.522
 30
4.6118
 70
32
 0
VERTEX
 8
BUTTERFLY1
 10
2.5597
 20
1.4698
 30
4.6118
 70
32
 0
VERTEX
 8
BUTTERFLY1
 10
2.5574
 20
1.4118
 30
4.6118
 70
32
 0
VERTEX
 8
BUTTERFLY1
 10
2.567
 20
0.9758
 30
4.6118
 70
32
 0
VERTEX
 8
BUTTERFLY1
 10
2.5581
 20
0.9234
 30
4.6118
 70
32
 0
VERTEX
 8
BUTTERFLY1
 10
2.5477
 20
0.8863
 30
4.6118
 70
32
 0
VERTEX
 8
BUTTERFLY1
 10
2.5338
 20
0.8514
 30
4.6118
 70
32
 0
VERTEX
 8
BUTTERFLY1
 10
2.5222
 20
0.8295
 30
4.6118
 70
32
 0
VERTEX
 8
BUTTERFLY1
 10
2.5088
 20
0.8088
 30
4.6118
 70
32
 0
VERTEX
 8
BUTTERFLY1
 10
2.4932
 20
0.7893
 30
4.6118
 70
32
 0
VERTEX
 8
BUTTERFLY1
 10
2.4755
 20
0.7712
 30
4.6118
 70
32
 0
VERTEX
 8
BUTTERFLY1
 10
2.4555
 20
0.7545
 30
4.6118
 70
32
 0
VERTEX
 8
BUTTERFLY1
 10
2.4174
 20
0.729
 30
4.6118
 70
32
 0
VERTEX
 8
BUTTERFLY1
 10
2.3742
 20
0.7061
 30
4.6118
 70
32
 0
VERTEX
 8
BUTTERFLY1
 10
2.3103
 20
0.6798
 30
4.6118
 70
32
 0
VERTEX
 8
BUTTERFLY1
 10
2.2407
 20
0.659
 30
4.6118
 70
32
 0
VERTEX
 8
BUTTERFLY1
 10
2.1674
 20
0.6442
 30
4.6118
 70
32
 0
VERTEX
 8
BUTTERFLY1
 10
2.0922
 20
0.6362
 30
4.6118
 70
32
 0
VERTEX
 8
BUTTERFLY1
 10
2.0169
 20
0.6355
 30
4.6118
 70
32
 0
VERTEX
 8
BUTTERFLY1
 10
1.9435
 20
0.6428
 30
4.6118
 70
32
 0
VERTEX
 8
BUTTERFLY1
 10
1.8907
 20
0.6538
 30
4.6118
 70
32
 0
VERTEX
 8
BUTTERFLY1
 10
1.8408
 20
0.6698
 30
4.6118
 70
32
 0
VERTEX
 8
BUTTERFLY1
 10
1.7945
 20
0.6912
 30
4.6118
 70
32
 0
VERTEX
 8
BUTTERFLY1
 10
1.766
 20
0.7086
 30
4.6118
 70
32
 0
VERTEX
 8
BUTTERFLY1
 10
1.7398
 20
0.7284
 30
4.6118
 70
32
 0
VERTEX
 8
BUTTERFLY1
 10
1.7159
 20
0.751
 30
4.6118
 70
32
 0
VERTEX
 8
BUTTERFLY1
 10
1.6948
 20
0.7762
 30
4.6118
 70
32
 0
VERTEX
 8
BUTTERFLY1
 10
1.6853
 20
0.7899
 30
4.6118
 70
32
 0
VERTEX
 8
BUTTERFLY1
 10
1.6685
 20
0.8193
 30
4.6118
 70
32
 0
VERTEX
 8
BUTTERFLY1
 10
1.6534
 20
0.8544
 30
4.6118
 70
32
 0
VERTEX
 8
BUTTERFLY1
 10
1.6415
 20
0.8916
 30
4.6118
 70
32
 0
VERTEX
 8
BUTTERFLY1
 10
1.6334
 20
0.9297
 30
4.6118
 70
32
 0
VERTEX
 8
BUTTERFLY1
 10
1.6302
 20
0.9601
 30
4.6118
 70
32
 0
VERTEX
 8
BUTTERFLY1
 10
1.6303
 20
0.9898
 30
4.6118
 70
32
 0
VERTEX
 8
BUTTERFLY1
 10
1.6327
 20
1.0112
 30
4.6118
 70
32
 0
VERTEX
 8
BUTTERFLY1
 10
1.6373
 20
1.0316
 30
4.6118
 70
32
 0
VERTEX
 8
BUTTERFLY1
 10
1.6416
 20
1.0445
 30
4.6118
 70
32
 0
VERTEX
 8
BUTTERFLY1
 10
1.647
 20
1.0567
 30
4.6118
 70
32
 0
VERTEX
 8
BUTTERFLY1
 10
1.6536
 20
1.0683
 30
4.6118
 70
32
 0
VERTEX
 8
BUTTERFLY1
 10
1.6613
 20
1.0791
 30
4.6118
 70
32
 0
VERTEX
 8
BUTTERFLY1
 10
1.6702
 20
1.089
 30
4.6118
 70
32
 0
VERTEX
 8
BUTTERFLY1
 10
1.6803
 20
1.098
 30
4.6118
 70
32
 0
VERTEX
 8
BUTTERFLY1
 10
1.6918
 20
1.106
 30
4.6118
 70
32
 0
VERTEX
 8
BUTTERFLY1
 10
1.7045
 20
1.1128
 30
4.6118
 70
32
 0
VERTEX
 8
BUTTERFLY1
 10
1.7187
 20
1.1186
 30
4.6118
 70
32
 0
VERTEX
 8
BUTTERFLY1
 10
1.7263
 20
1.121
 30
4.6118
 70
32
 0
VERTEX
 8
BUTTERFLY1
 10
1.7426
 20
1.1248
 30
4.6118
 70
32
 0
VERTEX
 8
BUTTERFLY1
 10
1.7366
 20
1.0871
 30
4.6118
 70
32
 0
VERTEX
 8
BUTTERFLY1
 10
1.7343
 20
1.0517
 30
4.6118
 70
32
 0
VERTEX
 8
BUTTERFLY1
 10
1.7355
 20
1.0186
 30
4.6118
 70
32
 0
VERTEX
 8
BUTTERFLY1
 10
1.7401
 20
0.9877
 30
4.6118
 70
32
 0
VERTEX
 8
BUTTERFLY1
 10
1.7477
 20
0.959
 30
4.6118
 70
32
 0
VERTEX
 8
BUTTERFLY1
 10
1.7582
 20
0.9325
 30
4.6118
 70
32
 0
VERTEX
 8
BUTTERFLY1
 10
1.7714
 20
0.9082
 30
4.6118
 70
32
 0
VERTEX
 8
BUTTERFLY1
 10
1.787
 20
0.886
 30
4.6118
 70
32
 0
VERTEX
 8
BUTTERFLY1
 10
1.8048
 20
0.866
 30
4.6118
 70
32
 0
VERTEX
 8
BUTTERFLY1
 10
1.8247
 20
0.8482
 30
4.6118
 70
32
 0
VERTEX
 8
BUTTERFLY1
 10
1.8463
 20
0.8324
 30
4.6118
 70
32
 0
VERTEX
 8
BUTTERFLY1
 10
1.8696
 20
0.8188
 30
4.6118
 70
32
 0
VERTEX
 8
BUTTERFLY1
 10
1.8942
 20
0.8072
 30
4.6118
 70
32
 0
VERTEX
 8
BUTTERFLY1
 10
1.9287
 20
0.795
 30
4.6118
 70
32
 0
VERTEX
 8
BUTTERFLY1
 10
1.9557
 20
0.7882
 30
4.6118
 70
32
 0
VERTEX
 8
BUTTERFLY1
 10
1.9926
 20
0.7822
 30
4.6118
 70
32
 0
VERTEX
 8
BUTTERFLY1
 10
2.0483
 20
0.7788
 30
4.6118
 70
32
 0
VERTEX
 8
BUTTERFLY1
 10
2.1015
 20
0.7809
 30
4.6118
 70
32
 0
VERTEX
 8
BUTTERFLY1
 10
2.1519
 20
0.7882
 30
4.6118
 70
32
 0
VERTEX
 8
BUTTERFLY1
 10
2.1993
 20
0.8005
 30
4.6118
 70
32
 0
VERTEX
 8
BUTTERFLY1
 10
2.2433
 20
0.8175
 30
4.6118
 70
32
 0
VERTEX
 8
BUTTERFLY1
 10
2.2837
 20
0.839
 30
4.6118
 70
32
 0
VERTEX
 8
BUTTERFLY1
 10
2.3201
 20
0.8647
 30
4.6118
 70
32
 0
VERTEX
 8
BUTTERFLY1
 10
2.3523
 20
0.8942
 30
4.6118
 70
32
 0
VERTEX
 8
BUTTERFLY1
 10
2.3712
 20
0.9159
 30
4.6118
 70
32
 0
VERTEX
 8
BUTTERFLY1
 10
2.3881
 20
0.9392
 30
4.6118
 70
32
 0
VERTEX
 8
BUTTERFLY1
 10
2.4027
 20
0.9639
 30
4.6118
 70
32
 0
VERTEX
 8
BUTTERFLY1
 10
2.4151
 20
0.99
 30
4.6118
 70
32
 0
VERTEX
 8
BUTTERFLY1
 10
2.425
 20
1.0173
 30
4.6118
 70
32
 0
VERTEX
 8
BUTTERFLY1
 10
2.4326
 20
1.0459
 30
4.6118
 70
32
 0
VERTEX
 8
BUTTERFLY1
 10
2.4376
 20
1.0756
 30
4.6118
 70
32
 0
VERTEX
 8
BUTTERFLY1
 10
2.4399
 20
1.1063
 30
4.6118
 70
32
 0
VERTEX
 8
BUTTERFLY1
 10
2.4384
 20
1.1543
 30
4.6118
 70
32
 0
VERTEX
 8
BUTTERFLY1
 10
2.4304
 20
1.2041
 30
4.6118
 70
32
 0
VERTEX
 8
BUTTERFLY1
 10
2.4213
 20
1.2382
 30
4.6118
 70
32
 0
VERTEX
 8
BUTTERFLY1
 10
2.4092
 20
1.273
 30
4.6118
 70
32
 0
VERTEX
 8
BUTTERFLY1
 10
2.4074
 20
1.277
 30
4.6118
 70
32
 0
VERTEX
 8
BUTTERFLY1
 10
2.405
 20
1.2806
 30
4.6118
 70
32
 0
VERTEX
 8
BUTTERFLY1
 10
2.4021
 20
1.2836
 30
4.6118
 70
32
 0
VERTEX
 8
BUTTERFLY1
 10
2.3988
 20
1.2863
 30
4.6118
 70
32
 0
VERTEX
 8
BUTTERFLY1
 10
2.3952
 20
1.2886
 30
4.6118
 70
32
 0
VERTEX
 8
BUTTERFLY1
 10
2.3912
 20
1.2905
 30
4.6118
 70
32
 0
VERTEX
 8
BUTTERFLY1
 10
2.3847
 20
1.2929
 30
4.6118
 70
32
 0
VERTEX
 8
BUTTERFLY1
 10
2.3729
 20
1.2959
 30
4.6118
 70
32
 0
VERTEX
 8
BUTTERFLY1
 10
2.3415
 20
1.3031
 30
4.6118
 70
32
 0
VERTEX
 8
BUTTERFLY1
 10
2.3351
 20
1.3056
 30
4.6118
 70
32
 0
VERTEX
 8
BUTTERFLY1
 10
2.3312
 20
1.3076
 30
4.6118
 70
32
 0
VERTEX
 8
BUTTERFLY1
 10
2.3277
 20
1.3099
 30
4.6118
 70
32
 0
VERTEX
 8
BUTTERFLY1
 10
2.3245
 20
1.3127
 30
4.6118
 70
32
 0
VERTEX
 8
BUTTERFLY1
 10
2.3218
 20
1.3159
 30
4.6118
 70
32
 0
VERTEX
 8
BUTTERFLY1
 10
2.3195
 20
1.3195
 30
4.6118
 70
32
 0
VERTEX
 8
BUTTERFLY1
 10
2.3178
 20
1.3237
 30
4.6118
 70
32
 0
VERTEX
 8
BUTTERFLY1
 10
2.3166
 20
1.3285
 30
4.6118
 70
32
 0
VERTEX
 8
BUTTERFLY1
 10
2.3356
 20
1.3757
 30
4.6118
 70
32
 0
VERTEX
 8
BUTTERFLY1
 10
2.3679
 20
1.4378
 30
4.6118
 70
32
 0
VERTEX
 8
BUTTERFLY1
 10
2.4527
 20
1.5891
 30
4.6118
 70
32
 0
VERTEX
 8
BUTTERFLY1
 10
2.464
 20
1.6156
 30
4.6118
 70
32
 0
VERTEX
 8
BUTTERFLY1
 10
2.474
 20
1.6433
 30
4.6118
 70
32
 0
VERTEX
 8
BUTTERFLY1
 10
2.4493
 20
1.64
 30
4.6118
 70
32
 0
VERTEX
 8
BUTTERFLY1
 10
2.4249
 20
1.6344
 30
4.6118
 70
32
 0
VERTEX
 8
BUTTERFLY1
 10
2.3887
 20
1.6218
 30
4.6118
 70
32
 0
VERTEX
 8
BUTTERFLY1
 10
2.3529
 20
1.6052
 30
4.6118
 70
32
 0
VERTEX
 8
BUTTERFLY1
 10
2.2934
 20
1.5703
 30
4.6118
 70
32
 0
VERTEX
 8
BUTTERFLY1
 10
2.0563
 20
1.4158
 30
4.6118
 70
32
 0
VERTEX
 8
BUTTERFLY1
 10
2.0011
 20
1.3911
 30
4.6118
 70
32
 0
VERTEX
 8
BUTTERFLY1
 10
1.9579
 20
1.377
 30
4.6118
 70
32
 0
VERTEX
 8
BUTTERFLY1
 10
1.9128
 20
1.3675
 30
4.6118
 70
32
 0
VERTEX
 8
BUTTERFLY1
 10
1.8658
 20
1.3635
 30
4.6118
 70
32
 0
VERTEX
 8
BUTTERFLY1
 10
1.8167
 20
1.3655
 30
4.6118
 70
32
 0
VERTEX
 8
BUTTERFLY1
 10
1.7964
 20
1.3688
 30
4.6118
 70
32
 0
VERTEX
 8
BUTTERFLY1
 10
1.7751
 20
1.3743
 30
4.6118
 70
32
 0
VERTEX
 8
BUTTERFLY1
 10
1.7537
 20
1.3822
 30
4.6118
 70
32
 0
VERTEX
 8
BUTTERFLY1
 10
1.7364
 20
1.3906
 30
4.6118
 70
32
 0
VERTEX
 8
BUTTERFLY1
 10
1.7234
 20
1.3986
 30
4.6118
 70
32
 0
VERTEX
 8
BUTTERFLY1
 10
1.7115
 20
1.4077
 30
4.6118
 70
32
 0
VERTEX
 8
BUTTERFLY1
 10
1.7034
 20
1.4154
 30
4.6118
 70
32
 0
VERTEX
 8
BUTTERFLY1
 10
1.6961
 20
1.4236
 30
4.6118
 70
32
 0
VERTEX
 8
BUTTERFLY1
 10
1.6899
 20
1.4326
 30
4.6118
 70
32
 0
VERTEX
 8
BUTTERFLY1
 10
1.6847
 20
1.4422
 30
4.6118
 70
32
 0
VERTEX
 8
BUTTERFLY1
 10
1.682
 20
1.449
 30
4.6118
 70
32
 0
VERTEX
 8
BUTTERFLY1
 10
1.6798
 20
1.4561
 30
4.6118
 70
32
 0
VERTEX
 8
BUTTERFLY1
 10
1.679
 20
1.4598
 30
4.6118
 70
32
 0
VERTEX
 8
BUTTERFLY1
 10
1.6778
 20
1.4674
 30
4.6118
 70
32
 0
VERTEX
 8
BUTTERFLY1
 10
1.6769
 20
1.4807
 30
4.6118
 70
32
 0
VERTEX
 8
BUTTERFLY1
 10
1.6772
 20
1.4931
 30
4.6118
 70
32
 0
VERTEX
 8
BUTTERFLY1
 10
1.6787
 20
1.5045
 30
4.6118
 70
32
 0
VERTEX
 8
BUTTERFLY1
 10
1.6813
 20
1.5151
 30
4.6118
 70
32
 0
VERTEX
 8
BUTTERFLY1
 10
1.6848
 20
1.5249
 30
4.6118
 70
32
 0
VERTEX
 8
BUTTERFLY1
 10
1.6892
 20
1.534
 30
4.6118
 70
32
 0
VERTEX
 8
BUTTERFLY1
 10
1.6943
 20
1.5425
 30
4.6118
 70
32
 0
VERTEX
 8
BUTTERFLY1
 10
1.7032
 20
1.5543
 30
4.6118
 70
32
 0
VERTEX
 8
BUTTERFLY1
 10
1.7131
 20
1.565
 30
4.6118
 70
32
 0
VERTEX
 8
BUTTERFLY1
 10
1.735
 20
1.5845
 30
4.6118
 70
32
 0
VERTEX
 8
BUTTERFLY1
 10
1.7708
 20
1.6156
 30
4.6118
 70
32
 0
VERTEX
 8
BUTTERFLY1
 10
1.7798
 20
1.6257
 30
4.6118
 70
32
 0
VERTEX
 8
BUTTERFLY1
 10
1.7851
 20
1.6328
 30
4.6118
 70
32
 0
VERTEX
 8
BUTTERFLY1
 10
1.7896
 20
1.6403
 30
4.6118
 70
32
 0
VERTEX
 8
BUTTERFLY1
 10
1.7933
 20
1.6484
 30
4.6118
 70
32
 0
VERTEX
 8
BUTTERFLY1
 10
1.796
 20
1.657
 30
4.6118
 70
32
 0
VERTEX
 8
BUTTERFLY1
 10
1.797
 20
1.6615
 30
4.6118
 70
32
 0
VERTEX
 8
BUTTERFLY1
 10
1.7981
 20
1.6711
 30
4.6118
 70
32
 0
VERTEX
 8
BUTTERFLY1
 10
1.3537
 20
1.5229
 30
4.6118
 70
32
 0
VERTEX
 8
BUTTERFLY1
 10
1.2974
 20
1.2676
 30
4.6118
 70
32
 0
VERTEX
 8
BUTTERFLY1
 10
1.2756
 20
1.2044
 30
4.6118
 70
32
 0
VERTEX
 8
BUTTERFLY1
 10
1.2644
 20
1.1779
 30
4.6118
 70
32
 0
VERTEX
 8
BUTTERFLY1
 10
1.2519
 20
1.1526
 30
4.6118
 70
32
 0
VERTEX
 8
BUTTERFLY1
 10
1.27
 20
1.1374
 30
4.6118
 70
32
 0
VERTEX
 8
BUTTERFLY1
 10
1.286
 20
1.1194
 30
4.6118
 70
32
 0
VERTEX
 8
BUTTERFLY1
 10
1.3001
 20
1.0987
 30
4.6118
 70
32
 0
VERTEX
 8
BUTTERFLY1
 10
1.3124
 20
1.0757
 30
4.6118
 70
32
 0
VERTEX
 8
BUTTERFLY1
 10
1.328
 20
1.0371
 30
4.6118
 70
32
 0
VERTEX
 8
BUTTERFLY1
 10
1.3443
 20
0.9796
 30
4.6118
 70
32
 0
VERTEX
 8
BUTTERFLY1
 10
1.3668
 20
0.8502
 30
4.6118
 70
32
 0
VERTEX
 8
BUTTERFLY1
 10
1.4045
 20
0.6161
 30
4.6118
 70
32
 0
VERTEX
 8
BUTTERFLY1
 10
1.4218
 20
0.5564
 30
4.6118
 70
32
 0
VERTEX
 8
BUTTERFLY1
 10
1.4384
 20
0.5159
 30
4.6118
 70
32
 0
VERTEX
 8
BUTTERFLY1
 10
1.4515
 20
0.4913
 30
4.6118
 70
32
 0
VERTEX
 8
BUTTERFLY1
 10
1.4664
 20
0.4689
 30
4.6118
 70
32
 0
SEQEND
 0
ENDSEC
 0
EOF
