 0
SECTION
 2
HEADER
 9
$ACADVER
 1
AC1009
 0
ENDSEC
 0
SECTION
 2
TABLES
 0
TABLE
 2
LTYPE
 70
1
 0
LTYPE
 2
CONTINUOUS
 70
64
 3
solid line
 72
65
 73
0
 40
0.0
 0
ENDTAB
 0
TABLE
 2
LAYER
 70
6
 0
LAYER
 2
0
 70
0
 62
7
 6
CONTINUOUS
 0
LAYER
 2
PATH_2
 70
64
 62
7
 6
CONTINUOUS
 0
ENDTAB
 0
ENDSEC
 0
SECTION
 2
BLOCKS
 0
ENDSEC
 0
SECTION
 2
ENTITIES
 0
POLYLINE
 8
PATH_2
 66
1
 10
0.0
 20
0.0
 30
0.0
 70
9
 0
VERTEX
 8
PATH_2
 10
1.0566
 20
0.258
 30
6.363
 70
32
 0
VERTEX
 8
PATH_2
 10
1.1217
 20
0.3134
 30
6.363
 70
32
 0
VERTEX
 8
PATH_2
 10
1.2072
 20
0.3732
 30
6.363
 70
32
 0
VERTEX
 8
PATH_2
 10
1.3312
 20
0.4432
 30
6.363
 70
32
 0
VERTEX
 8
PATH_2
 10
1.5821
 20
0.553
 30
6.363
 70
32
 0
VERTEX
 8
PATH_2
 10
1.8528
 20
0.6561
 30
6.363
 70
32
 0
VERTEX
 8
PATH_2
 10
2.1743
 20
0.7972
 30
6.363
 70
32
 0
VERTEX
 8
PATH_2
 10
2.322
 20
0.8761
 30
6.363
 70
32
 0
VERTEX
 8
PATH_2
 10
2.4732
 20
0.9709
 30
6.363
 70
32
 0
VERTEX
 8
PATH_2
 10
2.5551
 20
1.0333
 30
6.363
 70
32
 0
VERTEX
 8
PATH_2
 10
2.6295
 20
1.1018
 30
6.363
 70
32
 0
VERTEX
 8
PATH_2
 10
2.7098
 20
1.1916
 30
6.363
 70
32
 0
VERTEX
 8
PATH_2
 10
2.7927
 20
1.3052
 30
6.363
 70
32
 0
VERTEX
 8
PATH_2
 10
2.8756
 20
1.4448
 30
6.363
 70
32
 0
VERTEX
 8
PATH_2
 10
2.9571
 20
1.6114
 30
6.363
 70
32
 0
VERTEX
 8
PATH_2
 10
3.0379
 20
1.8042
 30
6.363
 70
32
 0
VERTEX
 8
PATH_2
 10
3.0742
 20
1.9125
 30
6.363
 70
32
 0
VERTEX
 8
PATH_2
 10
3.1221
 20
2.0605
 30
6.363
 70
32
 0
VERTEX
 8
PATH_2
 10
3.1426
 20
2.1054
 30
6.363
 70
32
 0
VERTEX
 8
PATH_2
 10
3.1527
 20
2.1236
 30
6.363
 70
32
 0
VERTEX
 8
PATH_2
 10
3.1676
 20
2.1468
 30
6.363
 70
32
 0
VERTEX
 8
PATH_2
 10
3.1732
 20
2.1424
 30
6.363
 70
32
 0
VERTEX
 8
PATH_2
 10
3.1781
 20
2.1376
 30
6.363
 70
32
 0
VERTEX
 8
PATH_2
 10
3.1824
 20
2.1325
 30
6.363
 70
32
 0
VERTEX
 8
PATH_2
 10
3.1861
 20
2.127
 30
6.363
 70
32
 0
VERTEX
 8
PATH_2
 10
3.1892
 20
2.1213
 30
6.363
 70
32
 0
VERTEX
 8
PATH_2
 10
3.1929
 20
2.1122
 30
6.363
 70
32
 0
VERTEX
 8
PATH_2
 10
3.1956
 20
2.1025
 30
6.363
 70
32
 0
VERTEX
 8
PATH_2
 10
3.1974
 20
2.0924
 30
6.363
 70
32
 0
VERTEX
 8
PATH_2
 10
3.1986
 20
2.0783
 30
6.363
 70
32
 0
VERTEX
 8
PATH_2
 10
3.1984
 20
2.0526
 30
6.363
 70
32
 0
VERTEX
 8
PATH_2
 10
3.1959
 20
2.0154
 30
6.363
 70
32
 0
VERTEX
 8
PATH_2
 10
3.1953
 20
1.9801
 30
6.363
 70
32
 0
VERTEX
 8
PATH_2
 10
3.2156
 20
1.7625
 30
6.363
 70
32
 0
VERTEX
 8
PATH_2
 10
3.232
 20
1.6806
 30
6.363
 70
32
 0
VERTEX
 8
PATH_2
 10
3.2462
 20
1.634
 30
6.363
 70
32
 0
VERTEX
 8
PATH_2
 10
3.2602
 20
1.6001
 30
6.363
 70
32
 0
VERTEX
 8
PATH_2
 10
3.2723
 20
1.5769
 30
6.363
 70
32
 0
VERTEX
 8
PATH_2
 10
3.2861
 20
1.556
 30
6.363
 70
32
 0
VERTEX
 8
PATH_2
 10
3.3015
 20
1.5376
 30
6.363
 70
32
 0
VERTEX
 8
PATH_2
 10
3.3128
 20
1.5267
 30
6.363
 70
32
 0
VERTEX
 8
PATH_2
 10
3.325
 20
1.5172
 30
6.363
 70
32
 0
VERTEX
 8
PATH_2
 10
3.34
 20
1.5344
 30
6.363
 70
32
 0
VERTEX
 8
PATH_2
 10
3.3534
 20
1.5532
 30
6.363
 70
32
 0
VERTEX
 8
PATH_2
 10
3.3707
 20
1.5842
 30
6.363
 70
32
 0
VERTEX
 8
PATH_2
 10
3.3851
 20
1.6181
 30
6.363
 70
32
 0
VERTEX
 8
PATH_2
 10
3.4005
 20
1.6672
 30
6.363
 70
32
 0
VERTEX
 8
PATH_2
 10
3.4173
 20
1.7471
 30
6.363
 70
32
 0
VERTEX
 8
PATH_2
 10
3.466
 20
2.0528
 30
6.363
 70
32
 0
VERTEX
 8
PATH_2
 10
3.4812
 20
2.102
 30
6.363
 70
32
 0
VERTEX
 8
PATH_2
 10
3.4904
 20
2.125
 30
6.363
 70
32
 0
VERTEX
 8
PATH_2
 10
3.5009
 20
2.1468
 30
6.363
 70
32
 0
VERTEX
 8
PATH_2
 10
3.5063
 20
2.1439
 30
6.363
 70
32
 0
VERTEX
 8
PATH_2
 10
3.5113
 20
2.1406
 30
6.363
 70
32
 0
VERTEX
 8
PATH_2
 10
3.5157
 20
2.1371
 30
6.363
 70
32
 0
VERTEX
 8
PATH_2
 10
3.5197
 20
2.1333
 30
6.363
 70
32
 0
VERTEX
 8
PATH_2
 10
3.5232
 20
2.1292
 30
6.363
 70
32
 0
VERTEX
 8
PATH_2
 10
3.5278
 20
2.1226
 30
6.363
 70
32
 0
VERTEX
 8
PATH_2
 10
3.5316
 20
2.1156
 30
6.363
 70
32
 0
VERTEX
 8
PATH_2
 10
3.5346
 20
2.1082
 30
6.363
 70
32
 0
VERTEX
 8
PATH_2
 10
3.5378
 20
2.0979
 30
6.363
 70
32
 0
VERTEX
 8
PATH_2
 10
3.543
 20
2.0624
 30
6.363
 70
32
 0
VERTEX
 8
PATH_2
 10
3.5472
 20
2.0264
 30
6.363
 70
32
 0
VERTEX
 8
PATH_2
 10
3.602
 20
1.8047
 30
6.363
 70
32
 0
VERTEX
 8
PATH_2
 10
3.6783
 20
1.5817
 30
6.363
 70
32
 0
VERTEX
 8
PATH_2
 10
3.7554
 20
1.4071
 30
6.363
 70
32
 0
VERTEX
 8
PATH_2
 10
3.8245
 20
1.2817
 30
6.363
 70
32
 0
VERTEX
 8
PATH_2
 10
3.8612
 20
1.2256
 30
6.363
 70
32
 0
VERTEX
 8
PATH_2
 10
3.899
 20
1.1746
 30
6.363
 70
32
 0
VERTEX
 8
PATH_2
 10
3.9626
 20
1.1017
 30
6.363
 70
32
 0
VERTEX
 8
PATH_2
 10
4.0565
 20
1.0132
 30
6.363
 70
32
 0
VERTEX
 8
PATH_2
 10
4.1861
 20
0.9147
 30
6.363
 70
32
 0
VERTEX
 8
PATH_2
 10
4.7548
 20
0.6174
 30
6.363
 70
32
 0
VERTEX
 8
PATH_2
 10
5.3248
 20
0.3321
 30
6.363
 70
32
 0
VERTEX
 8
PATH_2
 10
5.4815
 20
0.2266
 30
6.363
 70
32
 0
VERTEX
 8
PATH_2
 10
5.5004
 20
0.2181
 30
6.363
 70
32
 0
VERTEX
 8
PATH_2
 10
5.5193
 20
0.2117
 30
6.363
 70
32
 0
VERTEX
 8
PATH_2
 10
5.4848
 20
0.8803
 30
6.363
 70
32
 0
VERTEX
 8
PATH_2
 10
5.4359
 20
1.1917
 30
6.363
 70
32
 0
VERTEX
 8
PATH_2
 10
5.3817
 20
1.3969
 30
6.363
 70
32
 0
VERTEX
 8
PATH_2
 10
5.3245
 20
1.5477
 30
6.363
 70
32
 0
VERTEX
 8
PATH_2
 10
5.2724
 20
1.6518
 30
6.363
 70
32
 0
VERTEX
 8
PATH_2
 10
5.2119
 20
1.7473
 30
6.363
 70
32
 0
VERTEX
 8
PATH_2
 10
5.1421
 20
1.8332
 30
6.363
 70
32
 0
VERTEX
 8
PATH_2
 10
5.0902
 20
1.8849
 30
6.363
 70
32
 0
VERTEX
 8
PATH_2
 10
5.0337
 20
1.9317
 30
6.363
 70
32
 0
VERTEX
 8
PATH_2
 10
4.9724
 20
1.9735
 30
6.363
 70
32
 0
VERTEX
 8
PATH_2
 10
4.9062
 20
2.01
 30
6.363
 70
32
 0
VERTEX
 8
PATH_2
 10
4.8711
 20
2.0261
 30
6.363
 70
32
 0
VERTEX
 8
PATH_2
 10
4.7971
 20
2.0542
 30
6.363
 70
32
 0
VERTEX
 8
PATH_2
 10
4.8069
 20
2.0434
 30
6.363
 70
32
 0
VERTEX
 8
PATH_2
 10
4.8156
 20
2.0316
 30
6.363
 70
32
 0
VERTEX
 8
PATH_2
 10
4.8234
 20
2.0187
 30
6.363
 70
32
 0
VERTEX
 8
PATH_2
 10
4.8362
 20
1.9902
 30
6.363
 70
32
 0
VERTEX
 8
PATH_2
 10
4.8457
 20
1.9582
 30
6.363
 70
32
 0
VERTEX
 8
PATH_2
 10
4.8524
 20
1.9232
 30
6.363
 70
32
 0
VERTEX
 8
PATH_2
 10
4.858
 20
1.8662
 30
6.363
 70
32
 0
VERTEX
 8
PATH_2
 10
4.8582
 20
1.741
 30
6.363
 70
32
 0
VERTEX
 8
PATH_2
 10
4.8546
 20
1.4872
 30
6.363
 70
32
 0
VERTEX
 8
PATH_2
 10
4.861
 20
1.4316
 30
6.363
 70
32
 0
VERTEX
 8
PATH_2
 10
4.8684
 20
1.3979
 30
6.363
 70
32
 0
VERTEX
 8
PATH_2
 10
4.8787
 20
1.3674
 30
6.363
 70
32
 0
VERTEX
 8
PATH_2
 10
4.8924
 20
1.3405
 30
6.363
 70
32
 0
VERTEX
 8
PATH_2
 10
4.9007
 20
1.3285
 30
6.363
 70
32
 0
VERTEX
 8
PATH_2
 10
4.91
 20
1.3176
 30
6.363
 70
32
 0
VERTEX
 8
PATH_2
 10
4.9203
 20
1.3078
 30
6.363
 70
32
 0
VERTEX
 8
PATH_2
 10
4.9317
 20
1.2992
 30
6.363
 70
32
 0
VERTEX
 8
PATH_2
 10
4.9443
 20
1.2919
 30
6.363
 70
32
 0
VERTEX
 8
PATH_2
 10
4.9581
 20
1.2858
 30
6.363
 70
32
 0
VERTEX
 8
PATH_2
 10
4.9732
 20
1.281
 30
6.363
 70
32
 0
VERTEX
 8
PATH_2
 10
4.9895
 20
1.2776
 30
6.363
 70
32
 0
VERTEX
 8
PATH_2
 10
5.0073
 20
1.2757
 30
6.363
 70
32
 0
VERTEX
 8
PATH_2
 10
5.0471
 20
1.2765
 30
6.363
 70
32
 0
VERTEX
 8
PATH_2
 10
5.0574
 20
1.278
 30
6.363
 70
32
 0
VERTEX
 8
PATH_2
 10
5.0668
 20
1.2806
 30
6.363
 70
32
 0
VERTEX
 8
PATH_2
 10
5.0753
 20
1.284
 30
6.363
 70
32
 0
VERTEX
 8
PATH_2
 10
5.0832
 20
1.2881
 30
6.363
 70
32
 0
VERTEX
 8
PATH_2
 10
5.0928
 20
1.2944
 30
6.363
 70
32
 0
VERTEX
 8
PATH_2
 10
5.1319
 20
1.3241
 30
6.363
 70
32
 0
VERTEX
 8
PATH_2
 10
5.139
 20
1.3277
 30
6.363
 70
32
 0
VERTEX
 8
PATH_2
 10
5.1465
 20
1.3306
 30
6.363
 70
32
 0
VERTEX
 8
PATH_2
 10
5.1518
 20
1.3319
 30
6.363
 70
32
 0
VERTEX
 8
PATH_2
 10
5.1575
 20
1.3328
 30
6.363
 70
32
 0
VERTEX
 8
PATH_2
 10
5.1635
 20
1.3331
 30
6.363
 70
32
 0
VERTEX
 8
PATH_2
 10
5.1699
 20
1.3329
 30
6.363
 70
32
 0
VERTEX
 8
PATH_2
 10
5.1767
 20
1.332
 30
6.363
 70
32
 0
VERTEX
 8
PATH_2
 10
5.2061
 20
1.2921
 30
6.363
 70
32
 0
VERTEX
 8
PATH_2
 10
5.2206
 20
1.2668
 30
6.363
 70
32
 0
VERTEX
 8
PATH_2
 10
5.2313
 20
1.2427
 30
6.363
 70
32
 0
VERTEX
 8
PATH_2
 10
5.2383
 20
1.2197
 30
6.363
 70
32
 0
VERTEX
 8
PATH_2
 10
5.2418
 20
1.1978
 30
6.363
 70
32
 0
VERTEX
 8
PATH_2
 10
5.242
 20
1.1769
 30
6.363
 70
32
 0
VERTEX
 8
PATH_2
 10
5.2391
 20
1.1572
 30
6.363
 70
32
 0
VERTEX
 8
PATH_2
 10
5.2332
 20
1.1385
 30
6.363
 70
32
 0
VERTEX
 8
PATH_2
 10
5.2246
 20
1.1209
 30
6.363
 70
32
 0
VERTEX
 8
PATH_2
 10
5.2135
 20
1.1044
 30
6.363
 70
32
 0
VERTEX
 8
PATH_2
 10
5.2
 20
1.0889
 30
6.363
 70
32
 0
VERTEX
 8
PATH_2
 10
5.1843
 20
1.0745
 30
6.363
 70
32
 0
VERTEX
 8
PATH_2
 10
5.1666
 20
1.0611
 30
6.363
 70
32
 0
VERTEX
 8
PATH_2
 10
5.1368
 20
1.043
 30
6.363
 70
32
 0
VERTEX
 8
PATH_2
 10
5.1035
 20
1.0271
 30
6.363
 70
32
 0
VERTEX
 8
PATH_2
 10
5.0548
 20
1.0096
 30
6.363
 70
32
 0
VERTEX
 8
PATH_2
 10
4.9893
 20
0.9934
 30
6.363
 70
32
 0
VERTEX
 8
PATH_2
 10
4.9349
 20
0.9848
 30
6.363
 70
32
 0
VERTEX
 8
PATH_2
 10
4.8804
 20
0.9802
 30
6.363
 70
32
 0
VERTEX
 8
PATH_2
 10
4.7641
 20
0.9804
 30
6.363
 70
32
 0
VERTEX
 8
PATH_2
 10
4.6534
 20
0.9925
 30
6.363
 70
32
 0
VERTEX
 8
PATH_2
 10
4.5491
 20
1.016
 30
6.363
 70
32
 0
VERTEX
 8
PATH_2
 10
4.4755
 20
1.0406
 30
6.363
 70
32
 0
VERTEX
 8
PATH_2
 10
4.4063
 20
1.0711
 30
6.363
 70
32
 0
VERTEX
 8
PATH_2
 10
4.3417
 20
1.1072
 30
6.363
 70
32
 0
VERTEX
 8
PATH_2
 10
4.2821
 20
1.1485
 30
6.363
 70
32
 0
VERTEX
 8
PATH_2
 10
4.2277
 20
1.195
 30
6.363
 70
32
 0
VERTEX
 8
PATH_2
 10
4.1789
 20
1.2462
 30
6.363
 70
32
 0
VERTEX
 8
PATH_2
 10
4.136
 20
1.302
 30
6.363
 70
32
 0
VERTEX
 8
PATH_2
 10
4.0993
 20
1.3622
 30
6.363
 70
32
 0
VERTEX
 8
PATH_2
 10
4.0691
 20
1.4265
 30
6.363
 70
32
 0
VERTEX
 8
PATH_2
 10
4.0458
 20
1.4946
 30
6.363
 70
32
 0
VERTEX
 8
PATH_2
 10
4.0296
 20
1.5663
 30
6.363
 70
32
 0
VERTEX
 8
PATH_2
 10
4.0229
 20
1.6159
 30
6.363
 70
32
 0
VERTEX
 8
PATH_2
 10
4.0194
 20
1.6931
 30
6.363
 70
32
 0
VERTEX
 8
PATH_2
 10
4.0461
 20
1.6958
 30
6.363
 70
32
 0
VERTEX
 8
PATH_2
 10
4.0654
 20
1.6958
 30
6.363
 70
32
 0
VERTEX
 8
PATH_2
 10
4.0874
 20
1.6937
 30
6.363
 70
32
 0
VERTEX
 8
PATH_2
 10
4.1115
 20
1.689
 30
6.363
 70
32
 0
VERTEX
 8
PATH_2
 10
4.1959
 20
1.6675
 30
6.363
 70
32
 0
VERTEX
 8
PATH_2
 10
4.2134
 20
1.6657
 30
6.363
 70
32
 0
VERTEX
 8
PATH_2
 10
4.2323
 20
1.6653
 30
6.363
 70
32
 0
VERTEX
 8
PATH_2
 10
4.2243
 20
1.7147
 30
6.363
 70
32
 0
VERTEX
 8
PATH_2
 10
4.2125
 20
1.7605
 30
6.363
 70
32
 0
VERTEX
 8
PATH_2
 10
4.1973
 20
1.8029
 30
6.363
 70
32
 0
VERTEX
 8
PATH_2
 10
4.1789
 20
1.8423
 30
6.363
 70
32
 0
VERTEX
 8
PATH_2
 10
4.1577
 20
1.8789
 30
6.363
 70
32
 0
VERTEX
 8
PATH_2
 10
4.1253
 20
1.9238
 30
6.363
 70
32
 0
VERTEX
 8
PATH_2
 10
4.0888
 20
1.9647
 30
6.363
 70
32
 0
VERTEX
 8
PATH_2
 10
4.0387
 20
2.0112
 30
6.363
 70
32
 0
VERTEX
 8
PATH_2
 10
3.9161
 20
2.101
 30
6.363
 70
32
 0
VERTEX
 8
PATH_2
 10
3.7879
 20
2.1838
 30
6.363
 70
32
 0
VERTEX
 8
PATH_2
 10
3.634
 20
2.2835
 30
6.363
 70
32
 0
VERTEX
 8
PATH_2
 10
3.6086
 20
2.3061
 30
6.363
 70
32
 0
VERTEX
 8
PATH_2
 10
3.5922
 20
2.3242
 30
6.363
 70
32
 0
VERTEX
 8
PATH_2
 10
3.5785
 20
2.3432
 30
6.363
 70
32
 0
VERTEX
 8
PATH_2
 10
3.5711
 20
2.3564
 30
6.363
 70
32
 0
VERTEX
 8
PATH_2
 10
3.5654
 20
2.3701
 30
6.363
 70
32
 0
VERTEX
 8
PATH_2
 10
3.5615
 20
2.3843
 30
6.363
 70
32
 0
VERTEX
 8
PATH_2
 10
3.5595
 20
2.3989
 30
6.363
 70
32
 0
VERTEX
 8
PATH_2
 10
3.5596
 20
2.4141
 30
6.363
 70
32
 0
VERTEX
 8
PATH_2
 10
3.562
 20
2.4298
 30
6.363
 70
32
 0
VERTEX
 8
PATH_2
 10
3.5668
 20
2.446
 30
6.363
 70
32
 0
VERTEX
 8
PATH_2
 10
3.5741
 20
2.4628
 30
6.363
 70
32
 0
VERTEX
 8
PATH_2
 10
3.5842
 20
2.4801
 30
6.363
 70
32
 0
VERTEX
 8
PATH_2
 10
3.7537
 20
2.4086
 30
6.363
 70
32
 0
VERTEX
 8
PATH_2
 10
3.9135
 20
2.3233
 30
6.363
 70
32
 0
VERTEX
 8
PATH_2
 10
4.0108
 20
2.262
 30
6.363
 70
32
 0
VERTEX
 8
PATH_2
 10
4.1212
 20
2.1838
 30
6.363
 70
32
 0
VERTEX
 8
PATH_2
 10
4.2575
 20
2.0722
 30
6.363
 70
32
 0
VERTEX
 8
PATH_2
 10
4.3346
 20
1.9963
 30
6.363
 70
32
 0
VERTEX
 8
PATH_2
 10
4.3869
 20
1.9343
 30
6.363
 70
32
 0
VERTEX
 8
PATH_2
 10
4.4238
 20
1.8803
 30
6.363
 70
32
 0
VERTEX
 8
PATH_2
 10
4.4472
 20
1.8361
 30
6.363
 70
32
 0
VERTEX
 8
PATH_2
 10
4.4605
 20
1.8027
 30
6.363
 70
32
 0
VERTEX
 8
PATH_2
 10
4.4696
 20
1.7691
 30
6.363
 70
32
 0
VERTEX
 8
PATH_2
 10
4.473
 20
1.7468
 30
6.363
 70
32
 0
VERTEX
 8
PATH_2
 10
4.4742
 20
1.7245
 30
6.363
 70
32
 0
VERTEX
 8
PATH_2
 10
4.473
 20
1.7024
 30
6.363
 70
32
 0
VERTEX
 8
PATH_2
 10
4.4708
 20
1.6877
 30
6.363
 70
32
 0
VERTEX
 8
PATH_2
 10
4.4673
 20
1.674
 30
6.363
 70
32
 0
VERTEX
 8
PATH_2
 10
4.4627
 20
1.6614
 30
6.363
 70
32
 0
VERTEX
 8
PATH_2
 10
4.4571
 20
1.6497
 30
6.363
 70
32
 0
VERTEX
 8
PATH_2
 10
4.4504
 20
1.639
 30
6.363
 70
32
 0
VERTEX
 8
PATH_2
 10
4.4428
 20
1.629
 30
6.363
 70
32
 0
VERTEX
 8
PATH_2
 10
4.4344
 20
1.6199
 30
6.363
 70
32
 0
VERTEX
 8
PATH_2
 10
4.4201
 20
1.6075
 30
6.363
 70
32
 0
VERTEX
 8
PATH_2
 10
4.4041
 20
1.5966
 30
6.363
 70
32
 0
VERTEX
 8
PATH_2
 10
4.3806
 20
1.584
 30
6.363
 70
32
 0
VERTEX
 8
PATH_2
 10
4.2915
 20
1.5533
 30
6.363
 70
32
 0
VERTEX
 8
PATH_2
 10
4.1953
 20
1.5264
 30
6.363
 70
32
 0
VERTEX
 8
PATH_2
 10
4.1993
 20
1.5055
 30
6.363
 70
32
 0
VERTEX
 8
PATH_2
 10
4.205
 20
1.4861
 30
6.363
 70
32
 0
VERTEX
 8
PATH_2
 10
4.212
 20
1.4682
 30
6.363
 70
32
 0
VERTEX
 8
PATH_2
 10
4.2221
 20
1.4483
 30
6.363
 70
32
 0
VERTEX
 8
PATH_2
 10
4.2337
 20
1.4299
 30
6.363
 70
32
 0
VERTEX
 8
PATH_2
 10
4.2512
 20
1.4074
 30
6.363
 70
32
 0
VERTEX
 8
PATH_2
 10
4.2678
 20
1.389
 30
6.363
 70
32
 0
VERTEX
 8
PATH_2
 10
4.2879
 20
1.369
 30
6.363
 70
32
 0
VERTEX
 8
PATH_2
 10
4.3331
 20
1.3612
 30
6.363
 70
32
 0
VERTEX
 8
PATH_2
 10
4.3752
 20
1.3586
 30
6.363
 70
32
 0
VERTEX
 8
PATH_2
 10
4.4144
 20
1.3609
 30
6.363
 70
32
 0
VERTEX
 8
PATH_2
 10
4.4506
 20
1.3678
 30
6.363
 70
32
 0
VERTEX
 8
PATH_2
 10
4.4838
 20
1.379
 30
6.363
 70
32
 0
VERTEX
 8
PATH_2
 10
4.5141
 20
1.3942
 30
6.363
 70
32
 0
VERTEX
 8
PATH_2
 10
4.5416
 20
1.413
 30
6.363
 70
32
 0
VERTEX
 8
PATH_2
 10
4.5662
 20
1.435
 30
6.363
 70
32
 0
VERTEX
 8
PATH_2
 10
4.588
 20
1.4601
 30
6.363
 70
32
 0
VERTEX
 8
PATH_2
 10
4.6071
 20
1.4878
 30
6.363
 70
32
 0
VERTEX
 8
PATH_2
 10
4.6234
 20
1.5178
 30
6.363
 70
32
 0
VERTEX
 8
PATH_2
 10
4.637
 20
1.5498
 30
6.363
 70
32
 0
VERTEX
 8
PATH_2
 10
4.6525
 20
1.6009
 30
6.363
 70
32
 0
VERTEX
 8
PATH_2
 10
4.662
 20
1.6546
 30
6.363
 70
32
 0
VERTEX
 8
PATH_2
 10
4.6658
 20
1.7098
 30
6.363
 70
32
 0
VERTEX
 8
PATH_2
 10
4.664
 20
1.7655
 30
6.363
 70
32
 0
VERTEX
 8
PATH_2
 10
4.6566
 20
1.8205
 30
6.363
 70
32
 0
VERTEX
 8
PATH_2
 10
4.6438
 20
1.8737
 30
6.363
 70
32
 0
VERTEX
 8
PATH_2
 10
4.6257
 20
1.9241
 30
6.363
 70
32
 0
VERTEX
 8
PATH_2
 10
4.6108
 20
1.9555
 30
6.363
 70
32
 0
VERTEX
 8
PATH_2
 10
4.5841
 20
1.9986
 30
6.363
 70
32
 0
VERTEX
 8
PATH_2
 10
4.5519
 20
2.0389
 30
6.363
 70
32
 0
VERTEX
 8
PATH_2
 10
4.5021
 20
2.0892
 30
6.363
 70
32
 0
VERTEX
 8
PATH_2
 10
4.4312
 20
2.1474
 30
6.363
 70
32
 0
VERTEX
 8
PATH_2
 10
4.3044
 20
2.2324
 30
6.363
 70
32
 0
VERTEX
 8
PATH_2
 10
3.9731
 20
2.4391
 30
6.363
 70
32
 0
VERTEX
 8
PATH_2
 10
3.9229
 20
2.4807
 30
6.363
 70
32
 0
VERTEX
 8
PATH_2
 10
3.9006
 20
2.5022
 30
6.363
 70
32
 0
VERTEX
 8
PATH_2
 10
3.8712
 20
2.5356
 30
6.363
 70
32
 0
VERTEX
 8
PATH_2
 10
4.0138
 20
2.5616
 30
6.363
 70
32
 0
VERTEX
 8
PATH_2
 10
4.0968
 20
2.5684
 30
6.363
 70
32
 0
VERTEX
 8
PATH_2
 10
4.1511
 20
2.5678
 30
6.363
 70
32
 0
VERTEX
 8
PATH_2
 10
4.195
 20
2.5633
 30
6.363
 70
32
 0
VERTEX
 8
PATH_2
 10
4.2288
 20
2.5567
 30
6.363
 70
32
 0
VERTEX
 8
PATH_2
 10
4.2612
 20
2.5471
 30
6.363
 70
32
 0
VERTEX
 8
PATH_2
 10
4.2843
 20
2.5377
 30
6.363
 70
32
 0
VERTEX
 8
PATH_2
 10
4.3064
 20
2.5264
 30
6.363
 70
32
 0
VERTEX
 8
PATH_2
 10
4.324
 20
2.5565
 30
6.363
 70
32
 0
VERTEX
 8
PATH_2
 10
4.3581
 20
2.6303
 30
6.363
 70
32
 0
VERTEX
 8
PATH_2
 10
4.4132
 20
2.7536
 30
6.363
 70
32
 0
VERTEX
 8
PATH_2
 10
4.4285
 20
2.78
 30
6.363
 70
32
 0
VERTEX
 8
PATH_2
 10
4.4453
 20
2.8041
 30
6.363
 70
32
 0
VERTEX
 8
PATH_2
 10
4.4518
 20
2.8117
 30
6.363
 70
32
 0
VERTEX
 8
PATH_2
 10
4.464
 20
2.823
 30
6.363
 70
32
 0
VERTEX
 8
PATH_2
 10
4.5078
 20
2.8605
 30
6.363
 70
32
 0
VERTEX
 8
PATH_2
 10
4.5143
 20
2.8679
 30
6.363
 70
32
 0
VERTEX
 8
PATH_2
 10
4.5181
 20
2.8734
 30
6.363
 70
32
 0
VERTEX
 8
PATH_2
 10
4.5199
 20
2.8771
 30
6.363
 70
32
 0
VERTEX
 8
PATH_2
 10
4.5213
 20
2.8807
 30
6.363
 70
32
 0
VERTEX
 8
PATH_2
 10
4.5221
 20
2.8843
 30
6.363
 70
32
 0
VERTEX
 8
PATH_2
 10
4.5222
 20
2.8861
 30
6.363
 70
32
 0
VERTEX
 8
PATH_2
 10
4.5222
 20
2.8879
 30
6.363
 70
32
 0
VERTEX
 8
PATH_2
 10
4.522
 20
2.8897
 30
6.363
 70
32
 0
VERTEX
 8
PATH_2
 10
4.5216
 20
2.8914
 30
6.363
 70
32
 0
VERTEX
 8
PATH_2
 10
4.521
 20
2.8932
 30
6.363
 70
32
 0
VERTEX
 8
PATH_2
 10
4.5203
 20
2.895
 30
6.363
 70
32
 0
VERTEX
 8
PATH_2
 10
4.5193
 20
2.8967
 30
6.363
 70
32
 0
VERTEX
 8
PATH_2
 10
4.401
 20
2.8974
 30
6.363
 70
32
 0
VERTEX
 8
PATH_2
 10
4.3102
 20
2.8898
 30
6.363
 70
32
 0
VERTEX
 8
PATH_2
 10
4.2162
 20
2.8728
 30
6.363
 70
32
 0
VERTEX
 8
PATH_2
 10
4.0728
 20
2.8297
 30
6.363
 70
32
 0
VERTEX
 8
PATH_2
 10
3.9083
 20
2.7671
 30
6.363
 70
32
 0
VERTEX
 8
PATH_2
 10
3.6873
 20
2.6835
 30
6.363
 70
32
 0
VERTEX
 8
PATH_2
 10
3.6379
 20
2.6721
 30
6.363
 70
32
 0
VERTEX
 8
PATH_2
 10
3.6105
 20
2.6686
 30
6.363
 70
32
 0
VERTEX
 8
PATH_2
 10
3.5855
 20
2.6681
 30
6.363
 70
32
 0
VERTEX
 8
PATH_2
 10
3.5705
 20
2.6697
 30
6.363
 70
32
 0
VERTEX
 8
PATH_2
 10
3.557
 20
2.6731
 30
6.363
 70
32
 0
VERTEX
 8
PATH_2
 10
3.5509
 20
2.6754
 30
6.363
 70
32
 0
VERTEX
 8
PATH_2
 10
3.5453
 20
2.6783
 30
6.363
 70
32
 0
VERTEX
 8
PATH_2
 10
3.5401
 20
2.6816
 30
6.363
 70
32
 0
VERTEX
 8
PATH_2
 10
3.5355
 20
2.6855
 30
6.363
 70
32
 0
VERTEX
 8
PATH_2
 10
3.5313
 20
2.6899
 30
6.363
 70
32
 0
VERTEX
 8
PATH_2
 10
3.5278
 20
2.6949
 30
6.363
 70
32
 0
VERTEX
 8
PATH_2
 10
3.5248
 20
2.7005
 30
6.363
 70
32
 0
VERTEX
 8
PATH_2
 10
3.5223
 20
2.7066
 30
6.363
 70
32
 0
VERTEX
 8
PATH_2
 10
3.5205
 20
2.7134
 30
6.363
 70
32
 0
VERTEX
 8
PATH_2
 10
3.5194
 20
2.7208
 30
6.363
 70
32
 0
VERTEX
 8
PATH_2
 10
3.5192
 20
2.725
 30
6.363
 70
32
 0
VERTEX
 8
PATH_2
 10
3.5194
 20
2.7293
 30
6.363
 70
32
 0
VERTEX
 8
PATH_2
 10
3.52
 20
2.7336
 30
6.363
 70
32
 0
VERTEX
 8
PATH_2
 10
3.5225
 20
2.7423
 30
6.363
 70
32
 0
VERTEX
 8
PATH_2
 10
3.5264
 20
2.7512
 30
6.363
 70
32
 0
VERTEX
 8
PATH_2
 10
3.5318
 20
2.7601
 30
6.363
 70
32
 0
VERTEX
 8
PATH_2
 10
3.5386
 20
2.7691
 30
6.363
 70
32
 0
VERTEX
 8
PATH_2
 10
3.5508
 20
2.7826
 30
6.363
 70
32
 0
VERTEX
 8
PATH_2
 10
3.5708
 20
2.8005
 30
6.363
 70
32
 0
VERTEX
 8
PATH_2
 10
3.6068
 20
2.8269
 30
6.363
 70
32
 0
VERTEX
 8
PATH_2
 10
3.6684
 20
2.8635
 30
6.363
 70
32
 0
VERTEX
 8
PATH_2
 10
3.724
 20
2.8914
 30
6.363
 70
32
 0
VERTEX
 8
PATH_2
 10
3.7786
 20
2.9152
 30
6.363
 70
32
 0
VERTEX
 8
PATH_2
 10
4.2074
 20
3.0648
 30
6.363
 70
32
 0
VERTEX
 8
PATH_2
 10
4.5516
 20
3.1509
 30
6.363
 70
32
 0
VERTEX
 8
PATH_2
 10
4.7089
 20
3.1772
 30
6.363
 70
32
 0
VERTEX
 8
PATH_2
 10
4.8804
 20
3.193
 30
6.363
 70
32
 0
VERTEX
 8
PATH_2
 10
5.0169
 20
3.1946
 30
6.363
 70
32
 0
VERTEX
 8
PATH_2
 10
5.0633
 20
3.1902
 30
6.363
 70
32
 0
VERTEX
 8
PATH_2
 10
5.0933
 20
3.1843
 30
6.363
 70
32
 0
VERTEX
 8
PATH_2
 10
5.1149
 20
3.1775
 30
6.363
 70
32
 0
VERTEX
 8
PATH_2
 10
5.1297
 20
3.1711
 30
6.363
 70
32
 0
VERTEX
 8
PATH_2
 10
5.1431
 20
3.1636
 30
6.363
 70
32
 0
VERTEX
 8
PATH_2
 10
5.1512
 20
3.1578
 30
6.363
 70
32
 0
VERTEX
 8
PATH_2
 10
5.1586
 20
3.1514
 30
6.363
 70
32
 0
VERTEX
 8
PATH_2
 10
5.1654
 20
3.1443
 30
6.363
 70
32
 0
VERTEX
 8
PATH_2
 10
5.1714
 20
3.1366
 30
6.363
 70
32
 0
VERTEX
 8
PATH_2
 10
5.1767
 20
3.1282
 30
6.363
 70
32
 0
VERTEX
 8
PATH_2
 10
5.0801
 20
2.9848
 30
6.363
 70
32
 0
VERTEX
 8
PATH_2
 10
5.0254
 20
2.9195
 30
6.363
 70
32
 0
VERTEX
 8
PATH_2
 10
4.9798
 20
2.8751
 30
6.363
 70
32
 0
VERTEX
 8
PATH_2
 10
4.9382
 20
2.8418
 30
6.363
 70
32
 0
VERTEX
 8
PATH_2
 10
4.8926
 20
2.8123
 30
6.363
 70
32
 0
VERTEX
 8
PATH_2
 10
4.853
 20
2.7919
 30
6.363
 70
32
 0
VERTEX
 8
PATH_2
 10
4.8214
 20
2.7786
 30
6.363
 70
32
 0
VERTEX
 8
PATH_2
 10
4.7878
 20
2.7671
 30
6.363
 70
32
 0
VERTEX
 8
PATH_2
 10
4.7866
 20
2.7861
 30
6.363
 70
32
 0
VERTEX
 8
PATH_2
 10
4.7872
 20
2.8055
 30
6.363
 70
32
 0
VERTEX
 8
PATH_2
 10
4.7915
 20
2.8367
 30
6.363
 70
32
 0
VERTEX
 8
PATH_2
 10
4.7971
 20
2.869
 30
6.363
 70
32
 0
VERTEX
 8
PATH_2
 10
4.7638
 20
2.8548
 30
6.363
 70
32
 0
VERTEX
 8
PATH_2
 10
4.7331
 20
2.8381
 30
6.363
 70
32
 0
VERTEX
 8
PATH_2
 10
4.705
 20
2.8188
 30
6.363
 70
32
 0
VERTEX
 8
PATH_2
 10
4.6794
 20
2.797
 30
6.363
 70
32
 0
VERTEX
 8
PATH_2
 10
4.6563
 20
2.7727
 30
6.363
 70
32
 0
VERTEX
 8
PATH_2
 10
4.6356
 20
2.746
 30
6.363
 70
32
 0
VERTEX
 8
PATH_2
 10
4.6173
 20
2.7169
 30
6.363
 70
32
 0
VERTEX
 8
PATH_2
 10
4.6012
 20
2.6856
 30
6.363
 70
32
 0
VERTEX
 8
PATH_2
 10
4.5844
 20
2.6432
 30
6.363
 70
32
 0
VERTEX
 8
PATH_2
 10
4.571
 20
2.5973
 30
6.363
 70
32
 0
VERTEX
 8
PATH_2
 10
4.5626
 20
2.5583
 30
6.363
 70
32
 0
VERTEX
 8
PATH_2
 10
4.5564
 20
2.5171
 30
6.363
 70
32
 0
VERTEX
 8
PATH_2
 10
4.7794
 20
2.5261
 30
6.363
 70
32
 0
VERTEX
 8
PATH_2
 10
4.9146
 20
2.5445
 30
6.363
 70
32
 0
VERTEX
 8
PATH_2
 10
5.0099
 20
2.5669
 30
6.363
 70
32
 0
VERTEX
 8
PATH_2
 10
5.0853
 20
2.5923
 30
6.363
 70
32
 0
VERTEX
 8
PATH_2
 10
5.1552
 20
2.6239
 30
6.363
 70
32
 0
VERTEX
 8
PATH_2
 10
5.199
 20
2.6486
 30
6.363
 70
32
 0
VERTEX
 8
PATH_2
 10
5.2508
 20
2.6838
 30
6.363
 70
32
 0
VERTEX
 8
PATH_2
 10
5.2921
 20
2.7179
 30
6.363
 70
32
 0
VERTEX
 8
PATH_2
 10
5.3393
 20
2.7651
 30
6.363
 70
32
 0
VERTEX
 8
PATH_2
 10
5.3905
 20
2.8269
 30
6.363
 70
32
 0
VERTEX
 8
PATH_2
 10
5.482
 20
2.9616
 30
6.363
 70
32
 0
VERTEX
 8
PATH_2
 10
5.5622
 20
3.0892
 30
6.363
 70
32
 0
VERTEX
 8
PATH_2
 10
5.6581
 20
3.2208
 30
6.363
 70
32
 0
VERTEX
 8
PATH_2
 10
5.6717
 20
3.2353
 30
6.363
 70
32
 0
VERTEX
 8
PATH_2
 10
5.6952
 20
3.2562
 30
6.363
 70
32
 0
VERTEX
 8
PATH_2
 10
5.7617
 20
3.311
 30
6.363
 70
32
 0
VERTEX
 8
PATH_2
 10
5.775
 20
3.3255
 30
6.363
 70
32
 0
VERTEX
 8
PATH_2
 10
5.7846
 20
3.3382
 30
6.363
 70
32
 0
VERTEX
 8
PATH_2
 10
5.7912
 20
3.3486
 30
6.363
 70
32
 0
VERTEX
 8
PATH_2
 10
5.797
 20
3.3597
 30
6.363
 70
32
 0
VERTEX
 8
PATH_2
 10
5.6973
 20
3.3887
 30
6.363
 70
32
 0
VERTEX
 8
PATH_2
 10
5.5656
 20
3.414
 30
6.363
 70
32
 0
VERTEX
 8
PATH_2
 10
5.4002
 20
3.4297
 30
6.363
 70
32
 0
VERTEX
 8
PATH_2
 10
5.2019
 20
3.43
 30
6.363
 70
32
 0
VERTEX
 8
PATH_2
 10
4.9759
 20
3.4103
 30
6.363
 70
32
 0
VERTEX
 8
PATH_2
 10
4.7336
 20
3.3677
 30
6.363
 70
32
 0
VERTEX
 8
PATH_2
 10
4.609
 20
3.3368
 30
6.363
 70
32
 0
VERTEX
 8
PATH_2
 10
4.473
 20
3.2948
 30
6.363
 70
32
 0
VERTEX
 8
PATH_2
 10
4.054
 20
3.1529
 30
6.363
 70
32
 0
VERTEX
 8
PATH_2
 10
3.9868
 20
3.1387
 30
6.363
 70
32
 0
VERTEX
 8
PATH_2
 10
3.9083
 20
3.1282
 30
6.363
 70
32
 0
VERTEX
 8
PATH_2
 10
3.977
 20
3.187
 30
6.363
 70
32
 0
VERTEX
 8
PATH_2
 10
4.0658
 20
3.2494
 30
6.363
 70
32
 0
VERTEX
 8
PATH_2
 10
4.1777
 20
3.3129
 30
6.363
 70
32
 0
VERTEX
 8
PATH_2
 10
4.3154
 20
3.3749
 30
6.363
 70
32
 0
VERTEX
 8
PATH_2
 10
4.4812
 20
3.4329
 30
6.363
 70
32
 0
VERTEX
 8
PATH_2
 10
4.6582
 20
3.48
 30
6.363
 70
32
 0
VERTEX
 8
PATH_2
 10
5.2178
 20
3.5996
 30
6.363
 70
32
 0
VERTEX
 8
PATH_2
 10
5.2973
 20
3.6312
 30
6.363
 70
32
 0
VERTEX
 8
PATH_2
 10
5.3564
 20
3.6621
 30
6.363
 70
32
 0
VERTEX
 8
PATH_2
 10
5.3977
 20
3.6891
 30
6.363
 70
32
 0
VERTEX
 8
PATH_2
 10
5.4361
 20
3.7198
 30
6.363
 70
32
 0
VERTEX
 8
PATH_2
 10
5.4599
 20
3.7425
 30
6.363
 70
32
 0
VERTEX
 8
PATH_2
 10
5.4822
 20
3.767
 30
6.363
 70
32
 0
VERTEX
 8
PATH_2
 10
5.4551
 20
3.7755
 30
6.363
 70
32
 0
VERTEX
 8
PATH_2
 10
5.4333
 20
3.7852
 30
6.363
 70
32
 0
VERTEX
 8
PATH_2
 10
5.4165
 20
3.7959
 30
6.363
 70
32
 0
VERTEX
 8
PATH_2
 10
5.4099
 20
3.8016
 30
6.363
 70
32
 0
VERTEX
 8
PATH_2
 10
5.4044
 20
3.8076
 30
6.363
 70
32
 0
VERTEX
 8
PATH_2
 10
5.4001
 20
3.8137
 30
6.363
 70
32
 0
VERTEX
 8
PATH_2
 10
5.3968
 20
3.8199
 30
6.363
 70
32
 0
VERTEX
 8
PATH_2
 10
5.3946
 20
3.8264
 30
6.363
 70
32
 0
VERTEX
 8
PATH_2
 10
5.3934
 20
3.8329
 30
6.363
 70
32
 0
VERTEX
 8
PATH_2
 10
5.3932
 20
3.8396
 30
6.363
 70
32
 0
VERTEX
 8
PATH_2
 10
5.3939
 20
3.8464
 30
6.363
 70
32
 0
VERTEX
 8
PATH_2
 10
5.3955
 20
3.8532
 30
6.363
 70
32
 0
VERTEX
 8
PATH_2
 10
5.398
 20
3.8601
 30
6.363
 70
32
 0
VERTEX
 8
PATH_2
 10
5.4013
 20
3.867
 30
6.363
 70
32
 0
VERTEX
 8
PATH_2
 10
5.4102
 20
3.881
 30
6.363
 70
32
 0
VERTEX
 8
PATH_2
 10
5.4221
 20
3.8949
 30
6.363
 70
32
 0
VERTEX
 8
PATH_2
 10
5.4365
 20
3.9085
 30
6.363
 70
32
 0
VERTEX
 8
PATH_2
 10
5.4624
 20
3.9283
 30
6.363
 70
32
 0
VERTEX
 8
PATH_2
 10
5.4925
 20
3.9468
 30
6.363
 70
32
 0
VERTEX
 8
PATH_2
 10
5.5377
 20
3.9686
 30
6.363
 70
32
 0
VERTEX
 8
PATH_2
 10
5.5864
 20
3.9861
 30
6.363
 70
32
 0
VERTEX
 8
PATH_2
 10
5.6363
 20
3.998
 30
6.363
 70
32
 0
VERTEX
 8
PATH_2
 10
5.6732
 20
4.0026
 30
6.363
 70
32
 0
VERTEX
 8
PATH_2
 10
5.7086
 20
4.0029
 30
6.363
 70
32
 0
VERTEX
 8
PATH_2
 10
5.7199
 20
4.002
 30
6.363
 70
32
 0
VERTEX
 8
PATH_2
 10
5.7415
 20
3.9985
 30
6.363
 70
32
 0
VERTEX
 8
PATH_2
 10
5.7595
 20
3.9848
 30
6.363
 70
32
 0
VERTEX
 8
PATH_2
 10
5.7759
 20
3.9693
 30
6.363
 70
32
 0
VERTEX
 8
PATH_2
 10
5.7906
 20
3.9521
 30
6.363
 70
32
 0
VERTEX
 8
PATH_2
 10
5.8035
 20
3.9334
 30
6.363
 70
32
 0
VERTEX
 8
PATH_2
 10
5.8144
 20
3.9133
 30
6.363
 70
32
 0
VERTEX
 8
PATH_2
 10
5.8231
 20
3.8919
 30
6.363
 70
32
 0
VERTEX
 8
PATH_2
 10
5.8296
 20
3.8692
 30
6.363
 70
32
 0
VERTEX
 8
PATH_2
 10
5.8337
 20
3.8454
 30
6.363
 70
32
 0
VERTEX
 8
PATH_2
 10
5.8352
 20
3.8206
 30
6.363
 70
32
 0
VERTEX
 8
PATH_2
 10
5.8341
 20
3.7948
 30
6.363
 70
32
 0
VERTEX
 8
PATH_2
 10
5.832
 20
3.7809
 30
6.363
 70
32
 0
VERTEX
 8
PATH_2
 10
5.8288
 20
3.7678
 30
6.363
 70
32
 0
VERTEX
 8
PATH_2
 10
5.8245
 20
3.7557
 30
6.363
 70
32
 0
VERTEX
 8
PATH_2
 10
5.8175
 20
3.7407
 30
6.363
 70
32
 0
VERTEX
 8
PATH_2
 10
5.8074
 20
3.7236
 30
6.363
 70
32
 0
VERTEX
 8
PATH_2
 10
5.7689
 20
3.6673
 30
6.363
 70
32
 0
VERTEX
 8
PATH_2
 10
5.7648
 20
3.6587
 30
6.363
 70
32
 0
VERTEX
 8
PATH_2
 10
5.7618
 20
3.6499
 30
6.363
 70
32
 0
VERTEX
 8
PATH_2
 10
5.7605
 20
3.6439
 30
6.363
 70
32
 0
VERTEX
 8
PATH_2
 10
5.7598
 20
3.6377
 30
6.363
 70
32
 0
VERTEX
 8
PATH_2
 10
5.7597
 20
3.6346
 30
6.363
 70
32
 0
VERTEX
 8
PATH_2
 10
5.76
 20
3.6282
 30
6.363
 70
32
 0
VERTEX
 8
PATH_2
 10
5.8355
 20
3.6491
 30
6.363
 70
32
 0
VERTEX
 8
PATH_2
 10
5.9077
 20
3.6781
 30
6.363
 70
32
 0
VERTEX
 8
PATH_2
 10
5.9765
 20
3.7147
 30
6.363
 70
32
 0
VERTEX
 8
PATH_2
 10
6.042
 20
3.7581
 30
6.363
 70
32
 0
VERTEX
 8
PATH_2
 10
6.124
 20
3.8259
 30
6.363
 70
32
 0
VERTEX
 8
PATH_2
 10
6.1999
 20
3.9036
 30
6.363
 70
32
 0
VERTEX
 8
PATH_2
 10
6.2864
 20
4.0126
 30
6.363
 70
32
 0
VERTEX
 8
PATH_2
 10
6.3633
 20
4.1323
 30
6.363
 70
32
 0
VERTEX
 8
PATH_2
 10
6.4429
 20
4.2864
 30
6.363
 70
32
 0
VERTEX
 8
PATH_2
 10
6.5183
 20
4.4747
 30
6.363
 70
32
 0
VERTEX
 8
PATH_2
 10
6.5748
 20
4.6651
 30
6.363
 70
32
 0
VERTEX
 8
PATH_2
 10
6.5832
 20
4.7085
 30
6.363
 70
32
 0
VERTEX
 8
PATH_2
 10
6.5872
 20
4.7509
 30
6.363
 70
32
 0
VERTEX
 8
PATH_2
 10
6.587
 20
4.8002
 30
6.363
 70
32
 0
VERTEX
 8
PATH_2
 10
6.5822
 20
4.8478
 30
6.363
 70
32
 0
VERTEX
 8
PATH_2
 10
6.5703
 20
4.9085
 30
6.363
 70
32
 0
VERTEX
 8
PATH_2
 10
6.5502
 20
4.9795
 30
6.363
 70
32
 0
VERTEX
 8
PATH_2
 10
6.5285
 20
5.0447
 30
6.363
 70
32
 0
VERTEX
 8
PATH_2
 10
6.5152
 20
5.0416
 30
6.363
 70
32
 0
VERTEX
 8
PATH_2
 10
6.5033
 20
5.0372
 30
6.363
 70
32
 0
VERTEX
 8
PATH_2
 10
6.4927
 20
5.0318
 30
6.363
 70
32
 0
VERTEX
 8
PATH_2
 10
6.4831
 20
5.0255
 30
6.363
 70
32
 0
VERTEX
 8
PATH_2
 10
6.4745
 20
5.0183
 30
6.363
 70
32
 0
VERTEX
 8
PATH_2
 10
6.4667
 20
5.0103
 30
6.363
 70
32
 0
VERTEX
 8
PATH_2
 10
6.4574
 20
4.9987
 30
6.363
 70
32
 0
VERTEX
 8
PATH_2
 10
6.4449
 20
4.9797
 30
6.363
 70
32
 0
VERTEX
 8
PATH_2
 10
6.4237
 20
4.9422
 30
6.363
 70
32
 0
VERTEX
 8
PATH_2
 10
6.3988
 20
4.9059
 30
6.363
 70
32
 0
VERTEX
 8
PATH_2
 10
6.3341
 20
4.8371
 30
6.363
 70
32
 0
VERTEX
 8
PATH_2
 10
6.2472
 20
4.761
 30
6.363
 70
32
 0
VERTEX
 8
PATH_2
 10
6.1066
 20
4.6597
 30
6.363
 70
32
 0
VERTEX
 8
PATH_2
 10
5.9063
 20
4.54
 30
6.363
 70
32
 0
VERTEX
 8
PATH_2
 10
5.6859
 20
4.4244
 30
6.363
 70
32
 0
VERTEX
 8
PATH_2
 10
4.3774
 20
3.7476
 30
6.363
 70
32
 0
VERTEX
 8
PATH_2
 10
4.109
 20
3.5592
 30
6.363
 70
32
 0
VERTEX
 8
PATH_2
 10
3.9333
 20
3.4096
 30
6.363
 70
32
 0
VERTEX
 8
PATH_2
 10
3.804
 20
3.279
 30
6.363
 70
32
 0
VERTEX
 8
PATH_2
 10
3.686
 20
3.1374
 30
6.363
 70
32
 0
VERTEX
 8
PATH_2
 10
3.6712
 20
3.1156
 30
6.363
 70
32
 0
VERTEX
 8
PATH_2
 10
3.629
 20
3.0511
 30
6.363
 70
32
 0
VERTEX
 8
PATH_2
 10
3.6148
 20
3.0347
 30
6.363
 70
32
 0
VERTEX
 8
PATH_2
 10
3.6022
 20
3.0231
 30
6.363
 70
32
 0
VERTEX
 8
PATH_2
 10
3.592
 20
3.0156
 30
6.363
 70
32
 0
VERTEX
 8
PATH_2
 10
3.581
 20
3.0092
 30
6.363
 70
32
 0
VERTEX
 8
PATH_2
 10
3.5692
 20
3.0042
 30
6.363
 70
32
 0
VERTEX
 8
PATH_2
 10
3.5608
 20
3.0016
 30
6.363
 70
32
 0
VERTEX
 8
PATH_2
 10
3.552
 20
2.9998
 30
6.363
 70
32
 0
VERTEX
 8
PATH_2
 10
3.5474
 20
2.9992
 30
6.363
 70
32
 0
VERTEX
 8
PATH_2
 10
3.5379
 20
2.9986
 30
6.363
 70
32
 0
VERTEX
 8
PATH_2
 10
3.5347
 20
3.0041
 30
6.363
 70
32
 0
VERTEX
 8
PATH_2
 10
3.5324
 20
3.0097
 30
6.363
 70
32
 0
VERTEX
 8
PATH_2
 10
3.531
 20
3.0153
 30
6.363
 70
32
 0
VERTEX
 8
PATH_2
 10
3.5303
 20
3.021
 30
6.363
 70
32
 0
VERTEX
 8
PATH_2
 10
3.5303
 20
3.0268
 30
6.363
 70
32
 0
VERTEX
 8
PATH_2
 10
3.5309
 20
3.0326
 30
6.363
 70
32
 0
VERTEX
 8
PATH_2
 10
3.5328
 20
3.0414
 30
6.363
 70
32
 0
VERTEX
 8
PATH_2
 10
3.5367
 20
3.0532
 30
6.363
 70
32
 0
VERTEX
 8
PATH_2
 10
3.5539
 20
3.0985
 30
6.363
 70
32
 0
VERTEX
 8
PATH_2
 10
3.5558
 20
3.1076
 30
6.363
 70
32
 0
VERTEX
 8
PATH_2
 10
3.5565
 20
3.1136
 30
6.363
 70
32
 0
VERTEX
 8
PATH_2
 10
3.5565
 20
3.1197
 30
6.363
 70
32
 0
VERTEX
 8
PATH_2
 10
3.5559
 20
3.1257
 30
6.363
 70
32
 0
VERTEX
 8
PATH_2
 10
3.5545
 20
3.1318
 30
6.363
 70
32
 0
VERTEX
 8
PATH_2
 10
3.5523
 20
3.1378
 30
6.363
 70
32
 0
VERTEX
 8
PATH_2
 10
3.5508
 20
3.1408
 30
6.363
 70
32
 0
VERTEX
 8
PATH_2
 10
3.5472
 20
3.1467
 30
6.363
 70
32
 0
VERTEX
 8
PATH_2
 10
3.5393
 20
3.1481
 30
6.363
 70
32
 0
VERTEX
 8
PATH_2
 10
3.532
 20
3.1483
 30
6.363
 70
32
 0
VERTEX
 8
PATH_2
 10
3.5254
 20
3.1476
 30
6.363
 70
32
 0
VERTEX
 8
PATH_2
 10
3.5193
 20
3.1461
 30
6.363
 70
32
 0
VERTEX
 8
PATH_2
 10
3.5138
 20
3.1437
 30
6.363
 70
32
 0
VERTEX
 8
PATH_2
 10
3.5086
 20
3.1407
 30
6.363
 70
32
 0
VERTEX
 8
PATH_2
 10
3.5039
 20
3.1371
 30
6.363
 70
32
 0
VERTEX
 8
PATH_2
 10
3.4996
 20
3.133
 30
6.363
 70
32
 0
VERTEX
 8
PATH_2
 10
3.4935
 20
3.1262
 30
6.363
 70
32
 0
VERTEX
 8
PATH_2
 10
3.4689
 20
3.0939
 30
6.363
 70
32
 0
VERTEX
 8
PATH_2
 10
3.4652
 20
3.0905
 30
6.363
 70
32
 0
VERTEX
 8
PATH_2
 10
3.4612
 20
3.0877
 30
6.363
 70
32
 0
VERTEX
 8
PATH_2
 10
3.457
 20
3.0856
 30
6.363
 70
32
 0
VERTEX
 8
PATH_2
 10
3.4548
 20
3.0848
 30
6.363
 70
32
 0
VERTEX
 8
PATH_2
 10
3.4525
 20
3.0843
 30
6.363
 70
32
 0
VERTEX
 8
PATH_2
 10
3.4501
 20
3.0839
 30
6.363
 70
32
 0
VERTEX
 8
PATH_2
 10
3.4476
 20
3.0839
 30
6.363
 70
32
 0
VERTEX
 8
PATH_2
 10
3.445
 20
3.084
 30
6.363
 70
32
 0
VERTEX
 8
PATH_2
 10
3.4423
 20
3.0845
 30
6.363
 70
32
 0
VERTEX
 8
PATH_2
 10
3.4365
 20
3.0862
 30
6.363
 70
32
 0
VERTEX
 8
PATH_2
 10
3.4334
 20
3.0876
 30
6.363
 70
32
 0
VERTEX
 8
PATH_2
 10
3.4268
 20
3.0912
 30
6.363
 70
32
 0
VERTEX
 8
PATH_2
 10
3.4236
 20
3.1055
 30
6.363
 70
32
 0
VERTEX
 8
PATH_2
 10
3.4223
 20
3.1185
 30
6.363
 70
32
 0
VERTEX
 8
PATH_2
 10
3.4224
 20
3.1266
 30
6.363
 70
32
 0
VERTEX
 8
PATH_2
 10
3.4232
 20
3.1342
 30
6.363
 70
32
 0
VERTEX
 8
PATH_2
 10
3.4247
 20
3.1415
 30
6.363
 70
32
 0
VERTEX
 8
PATH_2
 10
3.4279
 20
3.1517
 30
6.363
 70
32
 0
VERTEX
 8
PATH_2
 10
3.4323
 20
3.1613
 30
6.363
 70
32
 0
VERTEX
 8
PATH_2
 10
3.4394
 20
3.1734
 30
6.363
 70
32
 0
VERTEX
 8
PATH_2
 10
3.4795
 20
3.2314
 30
6.363
 70
32
 0
VERTEX
 8
PATH_2
 10
3.4845
 20
3.2423
 30
6.363
 70
32
 0
VERTEX
 8
PATH_2
 10
3.4886
 20
3.2542
 30
6.363
 70
32
 0
VERTEX
 8
PATH_2
 10
3.4916
 20
3.2671
 30
6.363
 70
32
 0
VERTEX
 8
PATH_2
 10
3.4934
 20
3.2824
 30
6.363
 70
32
 0
VERTEX
 8
PATH_2
 10
3.4937
 20
3.2976
 30
6.363
 70
32
 0
VERTEX
 8
PATH_2
 10
3.4924
 20
3.3166
 30
6.363
 70
32
 0
VERTEX
 8
PATH_2
 10
3.4859
 20
3.3547
 30
6.363
 70
32
 0
VERTEX
 8
PATH_2
 10
3.4738
 20
3.4209
 30
6.363
 70
32
 0
VERTEX
 8
PATH_2
 10
3.4725
 20
3.441
 30
6.363
 70
32
 0
VERTEX
 8
PATH_2
 10
3.4731
 20
3.4615
 30
6.363
 70
32
 0
VERTEX
 8
PATH_2
 10
3.4759
 20
3.4814
 30
6.363
 70
32
 0
VERTEX
 8
PATH_2
 10
3.4829
 20
3.5093
 30
6.363
 70
32
 0
VERTEX
 8
PATH_2
 10
3.4962
 20
3.5458
 30
6.363
 70
32
 0
VERTEX
 8
PATH_2
 10
3.5754
 20
3.693
 30
6.363
 70
32
 0
VERTEX
 8
PATH_2
 10
3.6583
 20
3.8318
 30
6.363
 70
32
 0
VERTEX
 8
PATH_2
 10
3.767
 20
4.0157
 30
6.363
 70
32
 0
VERTEX
 8
PATH_2
 10
3.8712
 20
4.1744
 30
6.363
 70
32
 0
VERTEX
 8
PATH_2
 10
4.0711
 20
4.4611
 30
6.363
 70
32
 0
VERTEX
 8
PATH_2
 10
4.1657
 20
4.5707
 30
6.363
 70
32
 0
VERTEX
 8
PATH_2
 10
4.2448
 20
4.6464
 30
6.363
 70
32
 0
VERTEX
 8
PATH_2
 10
4.3173
 20
4.7031
 30
6.363
 70
32
 0
VERTEX
 8
PATH_2
 10
4.3554
 20
4.7281
 30
6.363
 70
32
 0
VERTEX
 8
PATH_2
 10
4.4082
 20
4.7577
 30
6.363
 70
32
 0
VERTEX
 8
PATH_2
 10
4.4064
 20
4.7274
 30
6.363
 70
32
 0
VERTEX
 8
PATH_2
 10
4.4014
 20
4.6947
 30
6.363
 70
32
 0
VERTEX
 8
PATH_2
 10
4.3885
 20
4.6432
 30
6.363
 70
32
 0
VERTEX
 8
PATH_2
 10
4.374
 20
4.5932
 30
6.363
 70
32
 0
VERTEX
 8
PATH_2
 10
4.3619
 20
4.5355
 30
6.363
 70
32
 0
VERTEX
 8
PATH_2
 10
4.3899
 20
4.5445
 30
6.363
 70
32
 0
VERTEX
 8
PATH_2
 10
4.4148
 20
4.5563
 30
6.363
 70
32
 0
VERTEX
 8
PATH_2
 10
4.4369
 20
4.5706
 30
6.363
 70
32
 0
VERTEX
 8
PATH_2
 10
4.4563
 20
4.5874
 30
6.363
 70
32
 0
VERTEX
 8
PATH_2
 10
4.4732
 20
4.6064
 30
6.363
 70
32
 0
VERTEX
 8
PATH_2
 10
4.4878
 20
4.6276
 30
6.363
 70
32
 0
VERTEX
 8
PATH_2
 10
4.5002
 20
4.6507
 30
6.363
 70
32
 0
VERTEX
 8
PATH_2
 10
4.5106
 20
4.6757
 30
6.363
 70
32
 0
VERTEX
 8
PATH_2
 10
4.5227
 20
4.7163
 30
6.363
 70
32
 0
VERTEX
 8
PATH_2
 10
4.5334
 20
4.7755
 30
6.363
 70
32
 0
VERTEX
 8
PATH_2
 10
4.5397
 20
4.9943
 30
6.363
 70
32
 0
VERTEX
 8
PATH_2
 10
4.5378
 20
5.2392
 30
6.363
 70
32
 0
VERTEX
 8
PATH_2
 10
4.4108
 20
5.1355
 30
6.363
 70
32
 0
VERTEX
 8
PATH_2
 10
4.2797
 20
5.006
 30
6.363
 70
32
 0
VERTEX
 8
PATH_2
 10
4.0709
 20
4.7511
 30
6.363
 70
32
 0
VERTEX
 8
PATH_2
 10
3.8712
 20
4.4614
 30
6.363
 70
32
 0
VERTEX
 8
PATH_2
 10
3.6629
 20
4.1223
 30
6.363
 70
32
 0
VERTEX
 8
PATH_2
 10
3.4824
 20
3.767
 30
6.363
 70
32
 0
VERTEX
 8
PATH_2
 10
3.3921
 20
3.5646
 30
6.363
 70
32
 0
VERTEX
 8
PATH_2
 10
3.3777
 20
3.5405
 30
6.363
 70
32
 0
VERTEX
 8
PATH_2
 10
3.362
 20
3.5171
 30
6.363
 70
32
 0
VERTEX
 8
PATH_2
 10
3.0604
 20
4.1398
 30
6.363
 70
32
 0
VERTEX
 8
PATH_2
 10
2.7772
 20
4.6077
 30
6.363
 70
32
 0
VERTEX
 8
PATH_2
 10
2.5324
 20
4.9406
 30
6.363
 70
32
 0
VERTEX
 8
PATH_2
 10
2.2324
 20
5.2762
 30
6.363
 70
32
 0
VERTEX
 8
PATH_2
 10
2.2047
 20
5.2762
 30
6.363
 70
32
 0
VERTEX
 8
PATH_2
 10
2.1978
 20
5.1017
 30
6.363
 70
32
 0
VERTEX
 8
PATH_2
 10
2.1871
 20
4.8685
 30
6.363
 70
32
 0
VERTEX
 8
PATH_2
 10
2.1929
 20
4.7867
 30
6.363
 70
32
 0
VERTEX
 8
PATH_2
 10
2.201
 20
4.7418
 30
6.363
 70
32
 0
VERTEX
 8
PATH_2
 10
2.2135
 20
4.7007
 30
6.363
 70
32
 0
VERTEX
 8
PATH_2
 10
2.2245
 20
4.6757
 30
6.363
 70
32
 0
VERTEX
 8
PATH_2
 10
2.238
 20
4.6529
 30
6.363
 70
32
 0
VERTEX
 8
PATH_2
 10
2.2541
 20
4.6325
 30
6.363
 70
32
 0
VERTEX
 8
PATH_2
 10
2.273
 20
4.6147
 30
6.363
 70
32
 0
VERTEX
 8
PATH_2
 10
2.2949
 20
4.5995
 30
6.363
 70
32
 0
VERTEX
 8
PATH_2
 10
2.32
 20
4.5874
 30
6.363
 70
32
 0
VERTEX
 8
PATH_2
 10
2.3485
 20
4.5783
 30
6.363
 70
32
 0
VERTEX
 8
PATH_2
 10
2.3806
 20
4.5725
 30
6.363
 70
32
 0
VERTEX
 8
PATH_2
 10
2.3753
 20
4.6102
 30
6.363
 70
32
 0
VERTEX
 8
PATH_2
 10
2.3449
 20
4.757
 30
6.363
 70
32
 0
VERTEX
 8
PATH_2
 10
2.3436
 20
4.7772
 30
6.363
 70
32
 0
VERTEX
 8
PATH_2
 10
2.3435
 20
4.804
 30
6.363
 70
32
 0
VERTEX
 8
PATH_2
 10
2.4466
 20
4.7145
 30
6.363
 70
32
 0
VERTEX
 8
PATH_2
 10
2.5582
 20
4.597
 30
6.363
 70
32
 0
VERTEX
 8
PATH_2
 10
2.6903
 20
4.4291
 30
6.363
 70
32
 0
VERTEX
 8
PATH_2
 10
2.8761
 20
4.142
 30
6.363
 70
32
 0
VERTEX
 8
PATH_2
 10
3.0472
 20
3.8411
 30
6.363
 70
32
 0
VERTEX
 8
PATH_2
 10
3.1847
 20
3.5888
 30
6.363
 70
32
 0
VERTEX
 8
PATH_2
 10
3.2071
 20
3.5319
 30
6.363
 70
32
 0
VERTEX
 8
PATH_2
 10
3.2178
 20
3.4938
 30
6.363
 70
32
 0
VERTEX
 8
PATH_2
 10
3.2216
 20
3.4724
 30
6.363
 70
32
 0
VERTEX
 8
PATH_2
 10
3.2231
 20
3.4522
 30
6.363
 70
32
 0
VERTEX
 8
PATH_2
 10
3.2226
 20
3.4377
 30
6.363
 70
32
 0
VERTEX
 8
PATH_2
 10
3.2206
 20
3.4232
 30
6.363
 70
32
 0
VERTEX
 8
PATH_2
 10
3.2155
 20
3.4017
 30
6.363
 70
32
 0
VERTEX
 8
PATH_2
 10
3.1878
 20
3.3107
 30
6.363
 70
32
 0
VERTEX
 8
PATH_2
 10
3.186
 20
3.2969
 30
6.363
 70
32
 0
VERTEX
 8
PATH_2
 10
3.1855
 20
3.2866
 30
6.363
 70
32
 0
VERTEX
 8
PATH_2
 10
3.1861
 20
3.2763
 30
6.363
 70
32
 0
VERTEX
 8
PATH_2
 10
3.1873
 20
3.2682
 30
6.363
 70
32
 0
VERTEX
 8
PATH_2
 10
3.1903
 20
3.2563
 30
6.363
 70
32
 0
VERTEX
 8
PATH_2
 10
3.1946
 20
3.2447
 30
6.363
 70
32
 0
VERTEX
 8
PATH_2
 10
3.2019
 20
3.2296
 30
6.363
 70
32
 0
VERTEX
 8
PATH_2
 10
3.2485
 20
3.1478
 30
6.363
 70
32
 0
VERTEX
 8
PATH_2
 10
3.2524
 20
3.1362
 30
6.363
 70
32
 0
VERTEX
 8
PATH_2
 10
3.255
 20
3.1243
 30
6.363
 70
32
 0
VERTEX
 8
PATH_2
 10
3.2559
 20
3.1162
 30
6.363
 70
32
 0
VERTEX
 8
PATH_2
 10
3.256
 20
3.1079
 30
6.363
 70
32
 0
VERTEX
 8
PATH_2
 10
3.2552
 20
3.0994
 30
6.363
 70
32
 0
VERTEX
 8
PATH_2
 10
3.2535
 20
3.0908
 30
6.363
 70
32
 0
VERTEX
 8
PATH_2
 10
3.2509
 20
3.0819
 30
6.363
 70
32
 0
VERTEX
 8
PATH_2
 10
3.2441
 20
3.0826
 30
6.363
 70
32
 0
VERTEX
 8
PATH_2
 10
3.2377
 20
3.084
 30
6.363
 70
32
 0
VERTEX
 8
PATH_2
 10
3.2317
 20
3.0862
 30
6.363
 70
32
 0
VERTEX
 8
PATH_2
 10
3.2261
 20
3.089
 30
6.363
 70
32
 0
VERTEX
 8
PATH_2
 10
3.2207
 20
3.0923
 30
6.363
 70
32
 0
VERTEX
 8
PATH_2
 10
3.2131
 20
3.098
 30
6.363
 70
32
 0
VERTEX
 8
PATH_2
 10
3.2037
 20
3.1068
 30
6.363
 70
32
 0
VERTEX
 8
PATH_2
 10
3.1712
 20
3.1408
 30
6.363
 70
32
 0
VERTEX
 8
PATH_2
 10
3.1643
 20
3.1457
 30
6.363
 70
32
 0
VERTEX
 8
PATH_2
 10
3.1595
 20
3.1484
 30
6.363
 70
32
 0
VERTEX
 8
PATH_2
 10
3.1544
 20
3.1504
 30
6.363
 70
32
 0
VERTEX
 8
PATH_2
 10
3.1492
 20
3.1517
 30
6.363
 70
32
 0
VERTEX
 8
PATH_2
 10
3.1436
 20
3.1522
 30
6.363
 70
32
 0
VERTEX
 8
PATH_2
 10
3.1377
 20
3.1519
 30
6.363
 70
32
 0
VERTEX
 8
PATH_2
 10
3.1314
 20
3.1506
 30
6.363
 70
32
 0
VERTEX
 8
PATH_2
 10
3.1281
 20
3.1496
 30
6.363
 70
32
 0
VERTEX
 8
PATH_2
 10
3.1213
 20
3.1467
 30
6.363
 70
32
 0
VERTEX
 8
PATH_2
 10
3.1205
 20
3.1372
 30
6.363
 70
32
 0
VERTEX
 8
PATH_2
 10
3.1209
 20
3.1282
 30
6.363
 70
32
 0
VERTEX
 8
PATH_2
 10
3.1222
 20
3.1195
 30
6.363
 70
32
 0
VERTEX
 8
PATH_2
 10
3.125
 20
3.1084
 30
6.363
 70
32
 0
VERTEX
 8
PATH_2
 10
3.1309
 20
3.0926
 30
6.363
 70
32
 0
VERTEX
 8
PATH_2
 10
3.1438
 20
3.0607
 30
6.363
 70
32
 0
VERTEX
 8
PATH_2
 10
3.1457
 20
3.0536
 30
6.363
 70
32
 0
VERTEX
 8
PATH_2
 10
3.1468
 20
3.0464
 30
6.363
 70
32
 0
VERTEX
 8
PATH_2
 10
3.147
 20
3.0416
 30
6.363
 70
32
 0
VERTEX
 8
PATH_2
 10
3.1467
 20
3.0368
 30
6.363
 70
32
 0
VERTEX
 8
PATH_2
 10
3.1459
 20
3.032
 30
6.363
 70
32
 0
VERTEX
 8
PATH_2
 10
3.1445
 20
3.0271
 30
6.363
 70
32
 0
VERTEX
 8
PATH_2
 10
3.1425
 20
3.0221
 30
6.363
 70
32
 0
VERTEX
 8
PATH_2
 10
3.1398
 20
3.0171
 30
6.363
 70
32
 0
VERTEX
 8
PATH_2
 10
3.0154
 20
3.1768
 30
6.363
 70
32
 0
VERTEX
 8
PATH_2
 10
2.8411
 20
3.3611
 30
6.363
 70
32
 0
VERTEX
 8
PATH_2
 10
2.6081
 20
3.5628
 30
6.363
 70
32
 0
VERTEX
 8
PATH_2
 10
2.3093
 20
3.7758
 30
6.363
 70
32
 0
VERTEX
 8
PATH_2
 10
1.6543
 20
4.1515
 30
6.363
 70
32
 0
VERTEX
 8
PATH_2
 10
0.9733
 20
4.4985
 30
6.363
 70
32
 0
VERTEX
 8
PATH_2
 10
0.6932
 20
4.6569
 30
6.363
 70
32
 0
VERTEX
 8
PATH_2
 10
0.557
 20
4.7519
 30
6.363
 70
32
 0
VERTEX
 8
PATH_2
 10
0.4609
 20
4.8333
 30
6.363
 70
32
 0
VERTEX
 8
PATH_2
 10
0.4
 20
4.8956
 30
6.363
 70
32
 0
VERTEX
 8
PATH_2
 10
0.3474
 20
4.9613
 30
6.363
 70
32
 0
VERTEX
 8
PATH_2
 10
0.3204
 20
5.0024
 30
6.363
 70
32
 0
VERTEX
 8
PATH_2
 10
0.2974
 20
5.0447
 30
6.363
 70
32
 0
VERTEX
 8
PATH_2
 10
0.2931
 20
5.0547
 30
6.363
 70
32
 0
VERTEX
 8
PATH_2
 10
0.2874
 20
5.0726
 30
6.363
 70
32
 0
VERTEX
 8
PATH_2
 10
0.269
 20
5.1447
 30
6.363
 70
32
 0
VERTEX
 8
PATH_2
 10
0.263
 20
5.1586
 30
6.363
 70
32
 0
VERTEX
 8
PATH_2
 10
0.2574
 20
5.1681
 30
6.363
 70
32
 0
VERTEX
 8
PATH_2
 10
0.2531
 20
5.1741
 30
6.363
 70
32
 0
VERTEX
 8
PATH_2
 10
0.2483
 20
5.1796
 30
6.363
 70
32
 0
VERTEX
 8
PATH_2
 10
0.2428
 20
5.1847
 30
6.363
 70
32
 0
VERTEX
 8
PATH_2
 10
0.2367
 20
5.1893
 30
6.363
 70
32
 0
VERTEX
 8
PATH_2
 10
0.2299
 20
5.1934
 30
6.363
 70
32
 0
VERTEX
 8
PATH_2
 10
0.2224
 20
5.1969
 30
6.363
 70
32
 0
VERTEX
 8
PATH_2
 10
0.214
 20
5.1999
 30
6.363
 70
32
 0
VERTEX
 8
PATH_2
 10
0.2048
 20
5.2021
 30
6.363
 70
32
 0
VERTEX
 8
PATH_2
 10
0.1892
 20
5.1739
 30
6.363
 70
32
 0
VERTEX
 8
PATH_2
 10
0.1724
 20
5.1348
 30
6.363
 70
32
 0
VERTEX
 8
PATH_2
 10
0.1562
 20
5.0834
 30
6.363
 70
32
 0
VERTEX
 8
PATH_2
 10
0.1422
 20
5.0187
 30
6.363
 70
32
 0
VERTEX
 8
PATH_2
 10
0.1313
 20
4.9312
 30
6.363
 70
32
 0
VERTEX
 8
PATH_2
 10
0.1276
 20
4.8427
 30
6.363
 70
32
 0
VERTEX
 8
PATH_2
 10
0.1307
 20
4.7485
 30
6.363
 70
32
 0
VERTEX
 8
PATH_2
 10
0.1454
 20
4.6266
 30
6.363
 70
32
 0
VERTEX
 8
PATH_2
 10
0.1709
 20
4.5084
 30
6.363
 70
32
 0
VERTEX
 8
PATH_2
 10
0.2068
 20
4.3947
 30
6.363
 70
32
 0
VERTEX
 8
PATH_2
 10
0.2525
 20
4.2866
 30
6.363
 70
32
 0
VERTEX
 8
PATH_2
 10
0.3075
 20
4.1849
 30
6.363
 70
32
 0
VERTEX
 8
PATH_2
 10
0.371
 20
4.0905
 30
6.363
 70
32
 0
VERTEX
 8
PATH_2
 10
0.4426
 20
4.0045
 30
6.363
 70
32
 0
VERTEX
 8
PATH_2
 10
0.5217
 20
3.9276
 30
6.363
 70
32
 0
VERTEX
 8
PATH_2
 10
0.6077
 20
3.8609
 30
6.363
 70
32
 0
VERTEX
 8
PATH_2
 10
0.6763
 20
3.8181
 30
6.363
 70
32
 0
VERTEX
 8
PATH_2
 10
0.7483
 20
3.7819
 30
6.363
 70
32
 0
VERTEX
 8
PATH_2
 10
0.8234
 20
3.7528
 30
6.363
 70
32
 0
VERTEX
 8
PATH_2
 10
0.8751
 20
3.7374
 30
6.363
 70
32
 0
VERTEX
 8
PATH_2
 10
0.9547
 20
3.7207
 30
6.363
 70
32
 0
VERTEX
 8
PATH_2
 10
0.9533
 20
3.7323
 30
6.363
 70
32
 0
VERTEX
 8
PATH_2
 10
0.9506
 20
3.7427
 30
6.363
 70
32
 0
VERTEX
 8
PATH_2
 10
0.9469
 20
3.752
 30
6.363
 70
32
 0
VERTEX
 8
PATH_2
 10
0.9424
 20
3.7606
 30
6.363
 70
32
 0
VERTEX
 8
PATH_2
 10
0.9371
 20
3.7684
 30
6.363
 70
32
 0
VERTEX
 8
PATH_2
 10
0.9271
 20
3.7805
 30
6.363
 70
32
 0
VERTEX
 8
PATH_2
 10
0.8922
 20
3.8192
 30
6.363
 70
32
 0
VERTEX
 8
PATH_2
 10
0.8846
 20
3.8311
 30
6.363
 70
32
 0
VERTEX
 8
PATH_2
 10
0.8797
 20
3.841
 30
6.363
 70
32
 0
VERTEX
 8
PATH_2
 10
0.8755
 20
3.8521
 30
6.363
 70
32
 0
VERTEX
 8
PATH_2
 10
0.8732
 20
3.8602
 30
6.363
 70
32
 0
VERTEX
 8
PATH_2
 10
0.8714
 20
3.8689
 30
6.363
 70
32
 0
VERTEX
 8
PATH_2
 10
0.8668
 20
3.908
 30
6.363
 70
32
 0
VERTEX
 8
PATH_2
 10
0.8672
 20
3.9426
 30
6.363
 70
32
 0
VERTEX
 8
PATH_2
 10
0.872
 20
3.973
 30
6.363
 70
32
 0
VERTEX
 8
PATH_2
 10
0.876
 20
3.9867
 30
6.363
 70
32
 0
VERTEX
 8
PATH_2
 10
0.881
 20
3.9993
 30
6.363
 70
32
 0
VERTEX
 8
PATH_2
 10
0.8868
 20
4.011
 30
6.363
 70
32
 0
VERTEX
 8
PATH_2
 10
0.8936
 20
4.0217
 30
6.363
 70
32
 0
VERTEX
 8
PATH_2
 10
0.9012
 20
4.0314
 30
6.363
 70
32
 0
VERTEX
 8
PATH_2
 10
0.9095
 20
4.0402
 30
6.363
 70
32
 0
VERTEX
 8
PATH_2
 10
0.9186
 20
4.0481
 30
6.363
 70
32
 0
VERTEX
 8
PATH_2
 10
0.9284
 20
4.0551
 30
6.363
 70
32
 0
VERTEX
 8
PATH_2
 10
0.9497
 20
4.0665
 30
6.363
 70
32
 0
VERTEX
 8
PATH_2
 10
0.9731
 20
4.0745
 30
6.363
 70
32
 0
VERTEX
 8
PATH_2
 10
0.9983
 20
4.0794
 30
6.363
 70
32
 0
VERTEX
 8
PATH_2
 10
1.0247
 20
4.0813
 30
6.363
 70
32
 0
VERTEX
 8
PATH_2
 10
1.052
 20
4.0803
 30
6.363
 70
32
 0
VERTEX
 8
PATH_2
 10
1.0799
 20
4.0766
 30
6.363
 70
32
 0
VERTEX
 8
PATH_2
 10
1.1217
 20
4.0663
 30
6.363
 70
32
 0
VERTEX
 8
PATH_2
 10
1.1623
 20
4.0509
 30
6.363
 70
32
 0
VERTEX
 8
PATH_2
 10
1.2005
 20
4.0307
 30
6.363
 70
32
 0
VERTEX
 8
PATH_2
 10
1.2239
 20
4.0149
 30
6.363
 70
32
 0
VERTEX
 8
PATH_2
 10
1.2451
 20
3.9974
 30
6.363
 70
32
 0
VERTEX
 8
PATH_2
 10
1.2639
 20
3.9784
 30
6.363
 70
32
 0
VERTEX
 8
PATH_2
 10
1.2798
 20
3.9581
 30
6.363
 70
32
 0
VERTEX
 8
PATH_2
 10
1.2923
 20
3.9365
 30
6.363
 70
32
 0
VERTEX
 8
PATH_2
 10
1.3012
 20
3.9138
 30
6.363
 70
32
 0
VERTEX
 8
PATH_2
 10
1.3041
 20
3.9021
 30
6.363
 70
32
 0
VERTEX
 8
PATH_2
 10
1.3059
 20
3.8902
 30
6.363
 70
32
 0
VERTEX
 8
PATH_2
 10
1.3066
 20
3.8781
 30
6.363
 70
32
 0
VERTEX
 8
PATH_2
 10
1.3061
 20
3.8731
 30
6.363
 70
32
 0
VERTEX
 8
PATH_2
 10
1.3055
 20
3.8708
 30
6.363
 70
32
 0
VERTEX
 8
PATH_2
 10
1.3049
 20
3.8687
 30
6.363
 70
32
 0
VERTEX
 8
PATH_2
 10
1.304
 20
3.8668
 30
6.363
 70
32
 0
VERTEX
 8
PATH_2
 10
1.303
 20
3.865
 30
6.363
 70
32
 0
VERTEX
 8
PATH_2
 10
1.3019
 20
3.8634
 30
6.363
 70
32
 0
VERTEX
 8
PATH_2
 10
1.3006
 20
3.8619
 30
6.363
 70
32
 0
VERTEX
 8
PATH_2
 10
1.2992
 20
3.8605
 30
6.363
 70
32
 0
VERTEX
 8
PATH_2
 10
1.2961
 20
3.8581
 30
6.363
 70
32
 0
VERTEX
 8
PATH_2
 10
1.2926
 20
3.856
 30
6.363
 70
32
 0
VERTEX
 8
PATH_2
 10
1.2887
 20
3.8544
 30
6.363
 70
32
 0
VERTEX
 8
PATH_2
 10
1.2824
 20
3.8524
 30
6.363
 70
32
 0
VERTEX
 8
PATH_2
 10
1.2489
 20
3.8442
 30
6.363
 70
32
 0
VERTEX
 8
PATH_2
 10
1.2451
 20
3.8424
 30
6.363
 70
32
 0
VERTEX
 8
PATH_2
 10
1.2416
 20
3.8403
 30
6.363
 70
32
 0
VERTEX
 8
PATH_2
 10
1.2386
 20
3.8378
 30
6.363
 70
32
 0
VERTEX
 8
PATH_2
 10
1.2373
 20
3.8363
 30
6.363
 70
32
 0
VERTEX
 8
PATH_2
 10
1.2361
 20
3.8347
 30
6.363
 70
32
 0
VERTEX
 8
PATH_2
 10
1.235
 20
3.833
 30
6.363
 70
32
 0
VERTEX
 8
PATH_2
 10
1.2341
 20
3.8312
 30
6.363
 70
32
 0
VERTEX
 8
PATH_2
 10
1.2334
 20
3.8291
 30
6.363
 70
32
 0
VERTEX
 8
PATH_2
 10
1.2328
 20
3.827
 30
6.363
 70
32
 0
VERTEX
 8
PATH_2
 10
1.2321
 20
3.8221
 30
6.363
 70
32
 0
VERTEX
 8
PATH_2
 10
1.232
 20
3.8194
 30
6.363
 70
32
 0
VERTEX
 8
PATH_2
 10
1.2325
 20
3.8133
 30
6.363
 70
32
 0
VERTEX
 8
PATH_2
 10
1.2851
 20
3.7738
 30
6.363
 70
32
 0
VERTEX
 8
PATH_2
 10
1.3421
 20
3.7398
 30
6.363
 70
32
 0
VERTEX
 8
PATH_2
 10
1.4186
 20
3.704
 30
6.363
 70
32
 0
VERTEX
 8
PATH_2
 10
1.517
 20
3.6688
 30
6.363
 70
32
 0
VERTEX
 8
PATH_2
 10
1.7832
 20
3.6035
 30
6.363
 70
32
 0
VERTEX
 8
PATH_2
 10
2.075
 20
3.5356
 30
6.363
 70
32
 0
VERTEX
 8
PATH_2
 10
2.2667
 20
3.4717
 30
6.363
 70
32
 0
VERTEX
 8
PATH_2
 10
2.4163
 20
3.4056
 30
6.363
 70
32
 0
VERTEX
 8
PATH_2
 10
2.5323
 20
3.3409
 30
6.363
 70
32
 0
VERTEX
 8
PATH_2
 10
2.6398
 20
3.2671
 30
6.363
 70
32
 0
VERTEX
 8
PATH_2
 10
2.6618
 20
3.2521
 30
6.363
 70
32
 0
VERTEX
 8
PATH_2
 10
2.7234
 20
3.2122
 30
6.363
 70
32
 0
VERTEX
 8
PATH_2
 10
2.7385
 20
3.1991
 30
6.363
 70
32
 0
VERTEX
 8
PATH_2
 10
2.7465
 20
3.1906
 30
6.363
 70
32
 0
VERTEX
 8
PATH_2
 10
2.7536
 20
3.1814
 30
6.363
 70
32
 0
VERTEX
 8
PATH_2
 10
2.7596
 20
3.1715
 30
6.363
 70
32
 0
VERTEX
 8
PATH_2
 10
2.7629
 20
3.1645
 30
6.363
 70
32
 0
VERTEX
 8
PATH_2
 10
2.7655
 20
3.1572
 30
6.363
 70
32
 0
VERTEX
 8
PATH_2
 10
2.7676
 20
3.1494
 30
6.363
 70
32
 0
VERTEX
 8
PATH_2
 10
2.7689
 20
3.1413
 30
6.363
 70
32
 0
VERTEX
 8
PATH_2
 10
2.7693
 20
3.137
 30
6.363
 70
32
 0
VERTEX
 8
PATH_2
 10
2.7694
 20
3.1282
 30
6.363
 70
32
 0
VERTEX
 8
PATH_2
 10
2.1554
 20
3.3587
 30
6.363
 70
32
 0
VERTEX
 8
PATH_2
 10
1.8345
 20
3.4449
 30
6.363
 70
32
 0
VERTEX
 8
PATH_2
 10
1.6213
 20
3.4839
 30
6.363
 70
32
 0
VERTEX
 8
PATH_2
 10
1.3714
 20
3.5078
 30
6.363
 70
32
 0
VERTEX
 8
PATH_2
 10
1.1732
 20
3.509
 30
6.363
 70
32
 0
VERTEX
 8
PATH_2
 10
1.0836
 20
3.5005
 30
6.363
 70
32
 0
VERTEX
 8
PATH_2
 10
1.0286
 20
3.49
 30
6.363
 70
32
 0
VERTEX
 8
PATH_2
 10
0.9862
 20
3.4779
 30
6.363
 70
32
 0
VERTEX
 8
PATH_2
 10
0.9548
 20
3.4657
 30
6.363
 70
32
 0
VERTEX
 8
PATH_2
 10
0.9257
 20
3.451
 30
6.363
 70
32
 0
VERTEX
 8
PATH_2
 10
0.8992
 20
3.4337
 30
6.363
 70
32
 0
VERTEX
 8
PATH_2
 10
0.9574
 20
3.3762
 30
6.363
 70
32
 0
VERTEX
 8
PATH_2
 10
1.0191
 20
3.3017
 30
6.363
 70
32
 0
VERTEX
 8
PATH_2
 10
1.1174
 20
3.1555
 30
6.363
 70
32
 0
VERTEX
 8
PATH_2
 10
1.2644
 20
2.9305
 30
6.363
 70
32
 0
VERTEX
 8
PATH_2
 10
1.3139
 20
2.8701
 30
6.363
 70
32
 0
VERTEX
 8
PATH_2
 10
1.3806
 20
2.8041
 30
6.363
 70
32
 0
VERTEX
 8
PATH_2
 10
1.4484
 20
2.7509
 30
6.363
 70
32
 0
VERTEX
 8
PATH_2
 10
1.5212
 20
2.7045
 30
6.363
 70
32
 0
VERTEX
 8
PATH_2
 10
1.5997
 20
2.6648
 30
6.363
 70
32
 0
VERTEX
 8
PATH_2
 10
1.6844
 20
2.6318
 30
6.363
 70
32
 0
VERTEX
 8
PATH_2
 10
1.7921
 20
2.6015
 30
6.363
 70
32
 0
VERTEX
 8
PATH_2
 10
1.9102
 20
2.58
 30
6.363
 70
32
 0
VERTEX
 8
PATH_2
 10
2.0205
 20
2.5685
 30
6.363
 70
32
 0
VERTEX
 8
PATH_2
 10
2.1399
 20
2.5634
 30
6.363
 70
32
 0
VERTEX
 8
PATH_2
 10
2.1302
 20
2.6259
 30
6.363
 70
32
 0
VERTEX
 8
PATH_2
 10
2.1154
 20
2.6834
 30
6.363
 70
32
 0
VERTEX
 8
PATH_2
 10
2.0991
 20
2.7273
 30
6.363
 70
32
 0
VERTEX
 8
PATH_2
 10
2.0833
 20
2.7596
 30
6.363
 70
32
 0
VERTEX
 8
PATH_2
 10
2.065
 20
2.7895
 30
6.363
 70
32
 0
VERTEX
 8
PATH_2
 10
2.0441
 20
2.8168
 30
6.363
 70
32
 0
VERTEX
 8
PATH_2
 10
2.0206
 20
2.8414
 30
6.363
 70
32
 0
VERTEX
 8
PATH_2
 10
1.9945
 20
2.8634
 30
6.363
 70
32
 0
VERTEX
 8
PATH_2
 10
1.9655
 20
2.8825
 30
6.363
 70
32
 0
VERTEX
 8
PATH_2
 10
1.9337
 20
2.8989
 30
6.363
 70
32
 0
VERTEX
 8
PATH_2
 10
1.9167
 20
2.906
 30
6.363
 70
32
 0
VERTEX
 8
PATH_2
 10
1.8899
 20
2.9152
 30
6.363
 70
32
 0
VERTEX
 8
PATH_2
 10
1.8892
 20
2.899
 30
6.363
 70
32
 0
VERTEX
 8
PATH_2
 10
1.89
 20
2.8333
 30
6.363
 70
32
 0
VERTEX
 8
PATH_2
 10
1.8885
 20
2.8227
 30
6.363
 70
32
 0
VERTEX
 8
PATH_2
 10
1.887
 20
2.817
 30
6.363
 70
32
 0
VERTEX
 8
PATH_2
 10
1.8851
 20
2.8117
 30
6.363
 70
32
 0
VERTEX
 8
PATH_2
 10
1.8835
 20
2.8085
 30
6.363
 70
32
 0
VERTEX
 8
PATH_2
 10
1.8826
 20
2.807
 30
6.363
 70
32
 0
VERTEX
 8
PATH_2
 10
1.8806
 20
2.8041
 30
6.363
 70
32
 0
VERTEX
 8
PATH_2
 10
1.7027
 20
2.9529
 30
6.363
 70
32
 0
VERTEX
 8
PATH_2
 10
1.6496
 20
3.0086
 30
6.363
 70
32
 0
VERTEX
 8
PATH_2
 10
1.6087
 20
3.0611
 30
6.363
 70
32
 0
VERTEX
 8
PATH_2
 10
1.5787
 20
3.1088
 30
6.363
 70
32
 0
VERTEX
 8
PATH_2
 10
1.553
 20
3.1609
 30
6.363
 70
32
 0
VERTEX
 8
PATH_2
 10
1.5399
 20
3.1945
 30
6.363
 70
32
 0
VERTEX
 8
PATH_2
 10
1.5288
 20
3.23
 30
6.363
 70
32
 0
VERTEX
 8
PATH_2
 10
1.6797
 20
3.2382
 30
6.363
 70
32
 0
VERTEX
 8
PATH_2
 10
1.8569
 20
3.2314
 30
6.363
 70
32
 0
VERTEX
 8
PATH_2
 10
2.0575
 20
3.2041
 30
6.363
 70
32
 0
VERTEX
 8
PATH_2
 10
2.2779
 20
3.1527
 30
6.363
 70
32
 0
VERTEX
 8
PATH_2
 10
2.5884
 20
3.0493
 30
6.363
 70
32
 0
VERTEX
 8
PATH_2
 10
2.8713
 20
2.9338
 30
6.363
 70
32
 0
VERTEX
 8
PATH_2
 10
3.0196
 20
2.8692
 30
6.363
 70
32
 0
VERTEX
 8
PATH_2
 10
3.0498
 20
2.8511
 30
6.363
 70
32
 0
VERTEX
 8
PATH_2
 10
3.0718
 20
2.8351
 30
6.363
 70
32
 0
VERTEX
 8
PATH_2
 10
3.0866
 20
2.8219
 30
6.363
 70
32
 0
VERTEX
 8
PATH_2
 10
3.0997
 20
2.8078
 30
6.363
 70
32
 0
VERTEX
 8
PATH_2
 10
3.1109
 20
2.7925
 30
6.363
 70
32
 0
VERTEX
 8
PATH_2
 10
3.1172
 20
2.7817
 30
6.363
 70
32
 0
VERTEX
 8
PATH_2
 10
3.1224
 20
2.7703
 30
6.363
 70
32
 0
VERTEX
 8
PATH_2
 10
3.1266
 20
2.7584
 30
6.363
 70
32
 0
VERTEX
 8
PATH_2
 10
3.1282
 20
2.7522
 30
6.363
 70
32
 0
VERTEX
 8
PATH_2
 10
3.1305
 20
2.7393
 30
6.363
 70
32
 0
VERTEX
 8
PATH_2
 10
3.1071
 20
2.7352
 30
6.363
 70
32
 0
VERTEX
 8
PATH_2
 10
3.0839
 20
2.7334
 30
6.363
 70
32
 0
VERTEX
 8
PATH_2
 10
3.0609
 20
2.7337
 30
6.363
 70
32
 0
VERTEX
 8
PATH_2
 10
3.0305
 20
2.7371
 30
6.363
 70
32
 0
VERTEX
 8
PATH_2
 10
2.9931
 20
2.7453
 30
6.363
 70
32
 0
VERTEX
 8
PATH_2
 10
2.8757
 20
2.7909
 30
6.363
 70
32
 0
VERTEX
 8
PATH_2
 10
2.7602
 20
2.8412
 30
6.363
 70
32
 0
VERTEX
 8
PATH_2
 10
2.5695
 20
2.9022
 30
6.363
 70
32
 0
VERTEX
 8
PATH_2
 10
2.4495
 20
2.928
 30
6.363
 70
32
 0
VERTEX
 8
PATH_2
 10
2.349
 20
2.9399
 30
6.363
 70
32
 0
VERTEX
 8
PATH_2
 10
2.2576
 20
2.9422
 30
6.363
 70
32
 0
VERTEX
 8
PATH_2
 10
2.2039
 20
2.9396
 30
6.363
 70
32
 0
VERTEX
 8
PATH_2
 10
2.1491
 20
2.9338
 30
6.363
 70
32
 0
VERTEX
 8
PATH_2
 10
2.1725
 20
2.9205
 30
6.363
 70
32
 0
VERTEX
 8
PATH_2
 10
2.1937
 20
2.905
 30
6.363
 70
32
 0
VERTEX
 8
PATH_2
 10
2.2127
 20
2.8874
 30
6.363
 70
32
 0
VERTEX
 8
PATH_2
 10
2.23
 20
2.868
 30
6.363
 70
32
 0
VERTEX
 8
PATH_2
 10
2.2507
 20
2.8398
 30
6.363
 70
32
 0
VERTEX
 8
PATH_2
 10
2.2733
 20
2.8013
 30
6.363
 70
32
 0
VERTEX
 8
PATH_2
 10
2.3271
 20
2.684
 30
6.363
 70
32
 0
VERTEX
 8
PATH_2
 10
2.3898
 20
2.5634
 30
6.363
 70
32
 0
VERTEX
 8
PATH_2
 10
2.4166
 20
2.5733
 30
6.363
 70
32
 0
VERTEX
 8
PATH_2
 10
2.457
 20
2.5837
 30
6.363
 70
32
 0
VERTEX
 8
PATH_2
 10
2.5133
 20
2.5928
 30
6.363
 70
32
 0
VERTEX
 8
PATH_2
 10
2.5855
 20
2.5977
 30
6.363
 70
32
 0
VERTEX
 8
PATH_2
 10
2.6493
 20
2.5964
 30
6.363
 70
32
 0
VERTEX
 8
PATH_2
 10
2.7113
 20
2.5892
 30
6.363
 70
32
 0
VERTEX
 8
PATH_2
 10
2.7501
 20
2.5807
 30
6.363
 70
32
 0
VERTEX
 8
PATH_2
 10
2.7857
 20
2.5691
 30
6.363
 70
32
 0
VERTEX
 8
PATH_2
 10
2.8098
 20
2.5582
 30
6.363
 70
32
 0
VERTEX
 8
PATH_2
 10
2.8243
 20
2.5499
 30
6.363
 70
32
 0
VERTEX
 8
PATH_2
 10
2.8435
 20
2.5356
 30
6.363
 70
32
 0
VERTEX
 8
PATH_2
 10
2.7641
 20
2.483
 30
6.363
 70
32
 0
VERTEX
 8
PATH_2
 10
2.2062
 20
2.1738
 30
6.363
 70
32
 0
VERTEX
 8
PATH_2
 10
2.168
 20
2.1435
 30
6.363
 70
32
 0
VERTEX
 8
PATH_2
 10
2.1213
 20
2.1005
 30
6.363
 70
32
 0
VERTEX
 8
PATH_2
 10
2.0954
 20
2.071
 30
6.363
 70
32
 0
VERTEX
 8
PATH_2
 10
2.0702
 20
2.0359
 30
6.363
 70
32
 0
VERTEX
 8
PATH_2
 10
2.0405
 20
1.9855
 30
6.363
 70
32
 0
VERTEX
 8
PATH_2
 10
2.0142
 20
1.9293
 30
6.363
 70
32
 0
VERTEX
 8
PATH_2
 10
1.9925
 20
1.8688
 30
6.363
 70
32
 0
VERTEX
 8
PATH_2
 10
1.9767
 20
1.8057
 30
6.363
 70
32
 0
VERTEX
 8
PATH_2
 10
1.9692
 20
1.7543
 30
6.363
 70
32
 0
VERTEX
 8
PATH_2
 10
1.9669
 20
1.7029
 30
6.363
 70
32
 0
VERTEX
 8
PATH_2
 10
1.9691
 20
1.665
 30
6.363
 70
32
 0
VERTEX
 8
PATH_2
 10
1.9749
 20
1.6279
 30
6.363
 70
32
 0
VERTEX
 8
PATH_2
 10
1.9846
 20
1.592
 30
6.363
 70
32
 0
VERTEX
 8
PATH_2
 10
1.9934
 20
1.5689
 30
6.363
 70
32
 0
VERTEX
 8
PATH_2
 10
2.0102
 20
1.5357
 30
6.363
 70
32
 0
VERTEX
 8
PATH_2
 10
2.0211
 20
1.5195
 30
6.363
 70
32
 0
VERTEX
 8
PATH_2
 10
2.034
 20
1.5038
 30
6.363
 70
32
 0
VERTEX
 8
PATH_2
 10
2.0567
 20
1.4817
 30
6.363
 70
32
 0
VERTEX
 8
PATH_2
 10
2.083
 20
1.4615
 30
6.363
 70
32
 0
VERTEX
 8
PATH_2
 10
2.112
 20
1.4436
 30
6.363
 70
32
 0
VERTEX
 8
PATH_2
 10
2.1431
 20
1.4284
 30
6.363
 70
32
 0
VERTEX
 8
PATH_2
 10
2.1758
 20
1.4163
 30
6.363
 70
32
 0
VERTEX
 8
PATH_2
 10
2.2092
 20
1.4076
 30
6.363
 70
32
 0
VERTEX
 8
PATH_2
 10
2.2427
 20
1.4028
 30
6.363
 70
32
 0
VERTEX
 8
PATH_2
 10
2.2756
 20
1.4022
 30
6.363
 70
32
 0
VERTEX
 8
PATH_2
 10
2.2969
 20
1.4043
 30
6.363
 70
32
 0
VERTEX
 8
PATH_2
 10
2.3175
 20
1.4086
 30
6.363
 70
32
 0
VERTEX
 8
PATH_2
 10
2.3372
 20
1.4152
 30
6.363
 70
32
 0
VERTEX
 8
PATH_2
 10
2.3556
 20
1.4242
 30
6.363
 70
32
 0
VERTEX
 8
PATH_2
 10
2.3728
 20
1.4357
 30
6.363
 70
32
 0
VERTEX
 8
PATH_2
 10
2.3884
 20
1.4498
 30
6.363
 70
32
 0
VERTEX
 8
PATH_2
 10
2.4022
 20
1.4666
 30
6.363
 70
32
 0
VERTEX
 8
PATH_2
 10
2.4141
 20
1.4863
 30
6.363
 70
32
 0
VERTEX
 8
PATH_2
 10
2.4239
 20
1.5089
 30
6.363
 70
32
 0
VERTEX
 8
PATH_2
 10
2.4313
 20
1.5346
 30
6.363
 70
32
 0
VERTEX
 8
PATH_2
 10
2.4361
 20
1.5635
 30
6.363
 70
32
 0
VERTEX
 8
PATH_2
 10
2.3848
 20
1.5766
 30
6.363
 70
32
 0
VERTEX
 8
PATH_2
 10
2.3516
 20
1.5884
 30
6.363
 70
32
 0
VERTEX
 8
PATH_2
 10
2.3275
 20
1.5997
 30
6.363
 70
32
 0
VERTEX
 8
PATH_2
 10
2.3058
 20
1.6128
 30
6.363
 70
32
 0
VERTEX
 8
PATH_2
 10
2.2911
 20
1.6241
 30
6.363
 70
32
 0
VERTEX
 8
PATH_2
 10
2.2781
 20
1.6366
 30
6.363
 70
32
 0
VERTEX
 8
PATH_2
 10
2.2667
 20
1.6505
 30
6.363
 70
32
 0
VERTEX
 8
PATH_2
 10
2.2571
 20
1.6658
 30
6.363
 70
32
 0
VERTEX
 8
PATH_2
 10
2.2494
 20
1.6828
 30
6.363
 70
32
 0
VERTEX
 8
PATH_2
 10
2.2435
 20
1.7015
 30
6.363
 70
32
 0
VERTEX
 8
PATH_2
 10
2.2398
 20
1.7219
 30
6.363
 70
32
 0
VERTEX
 8
PATH_2
 10
2.2381
 20
1.7442
 30
6.363
 70
32
 0
VERTEX
 8
PATH_2
 10
2.2388
 20
1.7685
 30
6.363
 70
32
 0
VERTEX
 8
PATH_2
 10
2.2417
 20
1.7949
 30
6.363
 70
32
 0
VERTEX
 8
PATH_2
 10
2.2488
 20
1.8282
 30
6.363
 70
32
 0
VERTEX
 8
PATH_2
 10
2.2597
 20
1.8609
 30
6.363
 70
32
 0
VERTEX
 8
PATH_2
 10
2.2742
 20
1.8929
 30
6.363
 70
32
 0
VERTEX
 8
PATH_2
 10
2.2985
 20
1.9346
 30
6.363
 70
32
 0
VERTEX
 8
PATH_2
 10
2.3277
 20
1.9751
 30
6.363
 70
32
 0
VERTEX
 8
PATH_2
 10
2.37
 20
2.0239
 30
6.363
 70
32
 0
VERTEX
 8
PATH_2
 10
2.4373
 20
2.0889
 30
6.363
 70
32
 0
VERTEX
 8
PATH_2
 10
2.5428
 20
2.1744
 30
6.363
 70
32
 0
VERTEX
 8
PATH_2
 10
2.6583
 20
2.2579
 30
6.363
 70
32
 0
VERTEX
 8
PATH_2
 10
2.8601
 20
2.3907
 30
6.363
 70
32
 0
VERTEX
 8
PATH_2
 10
2.9288
 20
2.4261
 30
6.363
 70
32
 0
VERTEX
 8
PATH_2
 10
2.9771
 20
2.4458
 30
6.363
 70
32
 0
VERTEX
 8
PATH_2
 10
3.015
 20
2.4573
 30
6.363
 70
32
 0
VERTEX
 8
PATH_2
 10
3.0519
 20
2.4644
 30
6.363
 70
32
 0
VERTEX
 8
PATH_2
 10
3.0789
 20
2.4665
 30
6.363
 70
32
 0
VERTEX
 8
PATH_2
 10
3.1051
 20
2.4657
 30
6.363
 70
32
 0
VERTEX
 8
PATH_2
 10
3.1137
 20
2.4647
 30
6.363
 70
32
 0
VERTEX
 8
PATH_2
 10
3.1305
 20
2.4616
 30
6.363
 70
32
 0
VERTEX
 8
PATH_2
 10
3.127
 20
2.4316
 30
6.363
 70
32
 0
VERTEX
 8
PATH_2
 10
3.1201
 20
2.4041
 30
6.363
 70
32
 0
VERTEX
 8
PATH_2
 10
3.1138
 20
2.3871
 30
6.363
 70
32
 0
VERTEX
 8
PATH_2
 10
3.1019
 20
2.3635
 30
6.363
 70
32
 0
VERTEX
 8
PATH_2
 10
3.0875
 20
2.3418
 30
6.363
 70
32
 0
VERTEX
 8
PATH_2
 10
3.0708
 20
2.322
 30
6.363
 70
32
 0
VERTEX
 8
PATH_2
 10
3.052
 20
2.3038
 30
6.363
 70
32
 0
VERTEX
 8
PATH_2
 10
3.0243
 20
2.2816
 30
6.363
 70
32
 0
VERTEX
 8
PATH_2
 10
2.9212
 20
2.2211
 30
6.363
 70
32
 0
VERTEX
 8
PATH_2
 10
2.8157
 20
2.1653
 30
6.363
 70
32
 0
VERTEX
 8
PATH_2
 10
2.6439
 20
2.056
 30
6.363
 70
32
 0
VERTEX
 8
PATH_2
 10
2.5883
 20
2.0106
 30
6.363
 70
32
 0
VERTEX
 8
PATH_2
 10
2.5549
 20
1.9774
 30
6.363
 70
32
 0
VERTEX
 8
PATH_2
 10
2.5249
 20
1.9411
 30
6.363
 70
32
 0
VERTEX
 8
PATH_2
 10
2.4984
 20
1.9012
 30
6.363
 70
32
 0
VERTEX
 8
PATH_2
 10
2.476
 20
1.857
 30
6.363
 70
32
 0
VERTEX
 8
PATH_2
 10
2.4579
 20
1.808
 30
6.363
 70
32
 0
VERTEX
 8
PATH_2
 10
2.4445
 20
1.7536
 30
6.363
 70
32
 0
VERTEX
 8
PATH_2
 10
2.4361
 20
1.6931
 30
6.363
 70
32
 0
VERTEX
 8
PATH_2
 10
2.5731
 20
1.7206
 30
6.363
 70
32
 0
VERTEX
 8
PATH_2
 10
2.5923
 20
1.721
 30
6.363
 70
32
 0
VERTEX
 8
PATH_2
 10
2.606
 20
1.7199
 30
6.363
 70
32
 0
VERTEX
 8
PATH_2
 10
2.619
 20
1.7174
 30
6.363
 70
32
 0
VERTEX
 8
PATH_2
 10
2.6272
 20
1.7148
 30
6.363
 70
32
 0
VERTEX
 8
PATH_2
 10
2.635
 20
1.7115
 30
6.363
 70
32
 0
VERTEX
 8
PATH_2
 10
2.6423
 20
1.7074
 30
6.363
 70
32
 0
VERTEX
 8
PATH_2
 10
2.6491
 20
1.7024
 30
6.363
 70
32
 0
VERTEX
 8
PATH_2
 10
2.6523
 20
1.6995
 30
6.363
 70
32
 0
VERTEX
 8
PATH_2
 10
2.6583
 20
1.6931
 30
6.363
 70
32
 0
VERTEX
 8
PATH_2
 10
2.6532
 20
1.6442
 30
6.363
 70
32
 0
VERTEX
 8
PATH_2
 10
2.6439
 20
1.5965
 30
6.363
 70
32
 0
VERTEX
 8
PATH_2
 10
2.6223
 20
1.5274
 30
6.363
 70
32
 0
VERTEX
 8
PATH_2
 10
2.5922
 20
1.4614
 30
6.363
 70
32
 0
VERTEX
 8
PATH_2
 10
2.5541
 20
1.399
 30
6.363
 70
32
 0
VERTEX
 8
PATH_2
 10
2.5085
 20
1.3404
 30
6.363
 70
32
 0
VERTEX
 8
PATH_2
 10
2.456
 20
1.2859
 30
6.363
 70
32
 0
VERTEX
 8
PATH_2
 10
2.3971
 20
1.236
 30
6.363
 70
32
 0
VERTEX
 8
PATH_2
 10
2.3324
 20
1.1908
 30
6.363
 70
32
 0
VERTEX
 8
PATH_2
 10
2.2624
 20
1.1508
 30
6.363
 70
32
 0
VERTEX
 8
PATH_2
 10
2.1619
 20
1.1059
 30
6.363
 70
32
 0
VERTEX
 8
PATH_2
 10
2.0542
 20
1.0716
 30
6.363
 70
32
 0
VERTEX
 8
PATH_2
 10
1.9406
 20
1.0485
 30
6.363
 70
32
 0
VERTEX
 8
PATH_2
 10
1.8226
 20
1.0374
 30
6.363
 70
32
 0
VERTEX
 8
PATH_2
 10
1.7319
 20
1.0374
 30
6.363
 70
32
 0
VERTEX
 8
PATH_2
 10
1.6399
 20
1.045
 30
6.363
 70
32
 0
VERTEX
 8
PATH_2
 10
1.604
 20
1.0513
 30
6.363
 70
32
 0
VERTEX
 8
PATH_2
 10
1.5697
 20
1.0611
 30
6.363
 70
32
 0
VERTEX
 8
PATH_2
 10
1.5375
 20
1.074
 30
6.363
 70
32
 0
VERTEX
 8
PATH_2
 10
1.5076
 20
1.0897
 30
6.363
 70
32
 0
VERTEX
 8
PATH_2
 10
1.4804
 20
1.108
 30
6.363
 70
32
 0
VERTEX
 8
PATH_2
 10
1.4562
 20
1.1286
 30
6.363
 70
32
 0
VERTEX
 8
PATH_2
 10
1.4353
 20
1.1512
 30
6.363
 70
32
 0
VERTEX
 8
PATH_2
 10
1.4234
 20
1.1673
 30
6.363
 70
32
 0
VERTEX
 8
PATH_2
 10
1.4133
 20
1.184
 30
6.363
 70
32
 0
VERTEX
 8
PATH_2
 10
1.405
 20
1.2013
 30
6.363
 70
32
 0
VERTEX
 8
PATH_2
 10
1.3986
 20
1.2191
 30
6.363
 70
32
 0
VERTEX
 8
PATH_2
 10
1.3942
 20
1.2373
 30
6.363
 70
32
 0
VERTEX
 8
PATH_2
 10
1.392
 20
1.2559
 30
6.363
 70
32
 0
VERTEX
 8
PATH_2
 10
1.392
 20
1.2747
 30
6.363
 70
32
 0
VERTEX
 8
PATH_2
 10
1.3944
 20
1.2937
 30
6.363
 70
32
 0
VERTEX
 8
PATH_2
 10
1.3991
 20
1.3127
 30
6.363
 70
32
 0
VERTEX
 8
PATH_2
 10
1.4064
 20
1.3318
 30
6.363
 70
32
 0
VERTEX
 8
PATH_2
 10
1.4164
 20
1.3508
 30
6.363
 70
32
 0
VERTEX
 8
PATH_2
 10
1.429
 20
1.3696
 30
6.363
 70
32
 0
VERTEX
 8
PATH_2
 10
1.4445
 20
1.3882
 30
6.363
 70
32
 0
VERTEX
 8
PATH_2
 10
1.4533
 20
1.3973
 30
6.363
 70
32
 0
VERTEX
 8
PATH_2
 10
1.4732
 20
1.4153
 30
6.363
 70
32
 0
VERTEX
 8
PATH_2
 10
1.4884
 20
1.4074
 30
6.363
 70
32
 0
VERTEX
 8
PATH_2
 10
1.501
 20
1.3991
 30
6.363
 70
32
 0
VERTEX
 8
PATH_2
 10
1.5463
 20
1.3639
 30
6.363
 70
32
 0
VERTEX
 8
PATH_2
 10
1.5551
 20
1.3593
 30
6.363
 70
32
 0
VERTEX
 8
PATH_2
 10
1.5625
 20
1.3564
 30
6.363
 70
32
 0
VERTEX
 8
PATH_2
 10
1.5706
 20
1.354
 30
6.363
 70
32
 0
VERTEX
 8
PATH_2
 10
1.5797
 20
1.3521
 30
6.363
 70
32
 0
VERTEX
 8
PATH_2
 10
1.5936
 20
1.3505
 30
6.363
 70
32
 0
VERTEX
 8
PATH_2
 10
1.6299
 20
1.3511
 30
6.363
 70
32
 0
VERTEX
 8
PATH_2
 10
1.6461
 20
1.3537
 30
6.363
 70
32
 0
VERTEX
 8
PATH_2
 10
1.6612
 20
1.3577
 30
6.363
 70
32
 0
VERTEX
 8
PATH_2
 10
1.675
 20
1.3631
 30
6.363
 70
32
 0
VERTEX
 8
PATH_2
 10
1.6878
 20
1.3698
 30
6.363
 70
32
 0
VERTEX
 8
PATH_2
 10
1.6995
 20
1.3779
 30
6.363
 70
32
 0
VERTEX
 8
PATH_2
 10
1.7102
 20
1.3871
 30
6.363
 70
32
 0
VERTEX
 8
PATH_2
 10
1.7199
 20
1.3975
 30
6.363
 70
32
 0
VERTEX
 8
PATH_2
 10
1.7287
 20
1.4091
 30
6.363
 70
32
 0
VERTEX
 8
PATH_2
 10
1.7437
 20
1.4352
 30
6.363
 70
32
 0
VERTEX
 8
PATH_2
 10
1.7556
 20
1.4652
 30
6.363
 70
32
 0
VERTEX
 8
PATH_2
 10
1.7647
 20
1.4984
 30
6.363
 70
32
 0
VERTEX
 8
PATH_2
 10
1.7741
 20
1.5534
 30
6.363
 70
32
 0
VERTEX
 8
PATH_2
 10
1.7812
 20
1.6552
 30
6.363
 70
32
 0
VERTEX
 8
PATH_2
 10
1.7931
 20
1.9709
 30
6.363
 70
32
 0
VERTEX
 8
PATH_2
 10
1.8035
 20
2.0241
 30
6.363
 70
32
 0
VERTEX
 8
PATH_2
 10
1.8134
 20
2.0559
 30
6.363
 70
32
 0
VERTEX
 8
PATH_2
 10
1.8263
 20
2.0841
 30
6.363
 70
32
 0
VERTEX
 8
PATH_2
 10
1.8424
 20
2.1084
 30
6.363
 70
32
 0
VERTEX
 8
PATH_2
 10
1.8518
 20
2.1189
 30
6.363
 70
32
 0
VERTEX
 8
PATH_2
 10
1.8621
 20
2.1283
 30
6.363
 70
32
 0
VERTEX
 8
PATH_2
 10
1.7507
 20
2.0791
 30
6.363
 70
32
 0
VERTEX
 8
PATH_2
 10
1.6829
 20
2.0398
 30
6.363
 70
32
 0
VERTEX
 8
PATH_2
 10
1.6201
 20
1.9956
 30
6.363
 70
32
 0
VERTEX
 8
PATH_2
 10
1.5348
 20
1.9204
 30
6.363
 70
32
 0
VERTEX
 8
PATH_2
 10
1.4594
 20
1.8353
 30
6.363
 70
32
 0
VERTEX
 8
PATH_2
 10
1.3932
 20
1.7409
 30
6.363
 70
32
 0
VERTEX
 8
PATH_2
 10
1.3354
 20
1.6382
 30
6.363
 70
32
 0
VERTEX
 8
PATH_2
 10
1.2703
 20
1.4892
 30
6.363
 70
32
 0
VERTEX
 8
PATH_2
 10
1.2055
 20
1.2864
 30
6.363
 70
32
 0
VERTEX
 8
PATH_2
 10
1.1122
 20
0.7911
 30
6.363
 70
32
 0
SEQEND
 0
ENDSEC
 0
EOF
