 0
SECTION
 2
HEADER
 9
$ACADVER
 1
AC1009
 0
ENDSEC
 0
SECTION
 2
TABLES
 0
TABLE
 2
LTYPE
 70
1
 0
LTYPE
 2
CONTINUOUS
 70
64
 3
solid line
 72
65
 73
0
 40
0.0
 0
ENDTAB
 0
TABLE
 2
LAYER
 70
6
 0
LAYER
 2
0
 70
0
 62
7
 6
CONTINUOUS
 0
LAYER
 2
CARD_SPADE
 70
64
 62
7
 6
CONTINUOUS
 0
ENDTAB
 0
ENDSEC
 0
SECTION
 2
BLOCKS
 0
ENDSEC
 0
SECTION
 2
ENTITIES
 0
POLYLINE
 8
CARD_SPADE
 66
1
 10
0.0
 20
0.0
 30
0.0
 70
9
 0
VERTEX
 8
CARD_SPADE
 10
0.6799
 20
0.0794
 30
5.5571
 70
32
 0
VERTEX
 8
CARD_SPADE
 10
0.6949
 20
0.1275
 30
5.5571
 70
32
 0
VERTEX
 8
CARD_SPADE
 10
0.8036
 20
0.4222
 30
5.5571
 70
32
 0
VERTEX
 8
CARD_SPADE
 10
0.818
 20
0.4917
 30
5.5571
 70
32
 0
VERTEX
 8
CARD_SPADE
 10
0.8237
 20
0.5399
 30
5.5571
 70
32
 0
VERTEX
 8
CARD_SPADE
 10
0.8257
 20
0.5897
 30
5.5571
 70
32
 0
VERTEX
 8
CARD_SPADE
 10
0.797
 20
0.5589
 30
5.5571
 70
32
 0
VERTEX
 8
CARD_SPADE
 10
0.7654
 20
0.5317
 30
5.5571
 70
32
 0
VERTEX
 8
CARD_SPADE
 10
0.7312
 20
0.5079
 30
5.5571
 70
32
 0
VERTEX
 8
CARD_SPADE
 10
0.6948
 20
0.4878
 30
5.5571
 70
32
 0
VERTEX
 8
CARD_SPADE
 10
0.6567
 20
0.4712
 30
5.5571
 70
32
 0
VERTEX
 8
CARD_SPADE
 10
0.6171
 20
0.4584
 30
5.5571
 70
32
 0
VERTEX
 8
CARD_SPADE
 10
0.5765
 20
0.4491
 30
5.5571
 70
32
 0
VERTEX
 8
CARD_SPADE
 10
0.5352
 20
0.4437
 30
5.5571
 70
32
 0
VERTEX
 8
CARD_SPADE
 10
0.4936
 20
0.4419
 30
5.5571
 70
32
 0
VERTEX
 8
CARD_SPADE
 10
0.4521
 20
0.444
 30
5.5571
 70
32
 0
VERTEX
 8
CARD_SPADE
 10
0.4111
 20
0.4499
 30
5.5571
 70
32
 0
VERTEX
 8
CARD_SPADE
 10
0.3709
 20
0.4596
 30
5.5571
 70
32
 0
VERTEX
 8
CARD_SPADE
 10
0.3319
 20
0.4733
 30
5.5571
 70
32
 0
VERTEX
 8
CARD_SPADE
 10
0.2945
 20
0.4908
 30
5.5571
 70
32
 0
VERTEX
 8
CARD_SPADE
 10
0.2591
 20
0.5124
 30
5.5571
 70
32
 0
VERTEX
 8
CARD_SPADE
 10
0.2261
 20
0.5379
 30
5.5571
 70
32
 0
VERTEX
 8
CARD_SPADE
 10
0.1958
 20
0.5675
 30
5.5571
 70
32
 0
VERTEX
 8
CARD_SPADE
 10
0.1686
 20
0.6012
 30
5.5571
 70
32
 0
VERTEX
 8
CARD_SPADE
 10
0.1448
 20
0.639
 30
5.5571
 70
32
 0
VERTEX
 8
CARD_SPADE
 10
0.1249
 20
0.681
 30
5.5571
 70
32
 0
VERTEX
 8
CARD_SPADE
 10
0.1093
 20
0.7271
 30
5.5571
 70
32
 0
VERTEX
 8
CARD_SPADE
 10
0.0983
 20
0.7774
 30
5.5571
 70
32
 0
VERTEX
 8
CARD_SPADE
 10
0.0922
 20
0.8321
 30
5.5571
 70
32
 0
VERTEX
 8
CARD_SPADE
 10
0.0916
 20
0.891
 30
5.5571
 70
32
 0
VERTEX
 8
CARD_SPADE
 10
0.0966
 20
0.9542
 30
5.5571
 70
32
 0
VERTEX
 8
CARD_SPADE
 10
0.1107
 20
1.0301
 30
5.5571
 70
32
 0
VERTEX
 8
CARD_SPADE
 10
0.1334
 20
1.1038
 30
5.5571
 70
32
 0
VERTEX
 8
CARD_SPADE
 10
0.1637
 20
1.1753
 30
5.5571
 70
32
 0
VERTEX
 8
CARD_SPADE
 10
0.2144
 20
1.2671
 30
5.5571
 70
32
 0
VERTEX
 8
CARD_SPADE
 10
0.275
 20
1.3547
 30
5.5571
 70
32
 0
VERTEX
 8
CARD_SPADE
 10
0.3613
 20
1.4582
 30
5.5571
 70
32
 0
VERTEX
 8
CARD_SPADE
 10
0.631
 20
1.71
 30
5.5571
 70
32
 0
VERTEX
 8
CARD_SPADE
 10
0.8694
 20
1.9019
 30
5.5571
 70
32
 0
VERTEX
 8
CARD_SPADE
 10
0.9132
 20
1.9019
 30
5.5571
 70
32
 0
VERTEX
 8
CARD_SPADE
 10
1.3816
 20
1.4949
 30
5.5571
 70
32
 0
VERTEX
 8
CARD_SPADE
 10
1.4822
 20
1.3794
 30
5.5571
 70
32
 0
VERTEX
 8
CARD_SPADE
 10
1.5534
 20
1.2801
 30
5.5571
 70
32
 0
VERTEX
 8
CARD_SPADE
 10
1.5993
 20
1.2016
 30
5.5571
 70
32
 0
VERTEX
 8
CARD_SPADE
 10
1.6372
 20
1.1199
 30
5.5571
 70
32
 0
VERTEX
 8
CARD_SPADE
 10
1.6658
 20
1.035
 30
5.5571
 70
32
 0
VERTEX
 8
CARD_SPADE
 10
1.6836
 20
0.947
 30
5.5571
 70
32
 0
VERTEX
 8
CARD_SPADE
 10
1.6889
 20
0.8867
 30
5.5571
 70
32
 0
VERTEX
 8
CARD_SPADE
 10
1.6894
 20
0.8561
 30
5.5571
 70
32
 0
VERTEX
 8
CARD_SPADE
 10
1.6859
 20
0.7938
 30
5.5571
 70
32
 0
VERTEX
 8
CARD_SPADE
 10
1.6795
 20
0.7524
 30
5.5571
 70
32
 0
VERTEX
 8
CARD_SPADE
 10
1.6692
 20
0.7131
 30
5.5571
 70
32
 0
VERTEX
 8
CARD_SPADE
 10
1.6553
 20
0.6762
 30
5.5571
 70
32
 0
VERTEX
 8
CARD_SPADE
 10
1.6382
 20
0.6416
 30
5.5571
 70
32
 0
VERTEX
 8
CARD_SPADE
 10
1.618
 20
0.6095
 30
5.5571
 70
32
 0
VERTEX
 8
CARD_SPADE
 10
1.5949
 20
0.58
 30
5.5571
 70
32
 0
VERTEX
 8
CARD_SPADE
 10
1.5692
 20
0.553
 30
5.5571
 70
32
 0
VERTEX
 8
CARD_SPADE
 10
1.5412
 20
0.5287
 30
5.5571
 70
32
 0
VERTEX
 8
CARD_SPADE
 10
1.5111
 20
0.5073
 30
5.5571
 70
32
 0
VERTEX
 8
CARD_SPADE
 10
1.4792
 20
0.4886
 30
5.5571
 70
32
 0
VERTEX
 8
CARD_SPADE
 10
1.4456
 20
0.4729
 30
5.5571
 70
32
 0
VERTEX
 8
CARD_SPADE
 10
1.4106
 20
0.4602
 30
5.5571
 70
32
 0
VERTEX
 8
CARD_SPADE
 10
1.3746
 20
0.4506
 30
5.5571
 70
32
 0
VERTEX
 8
CARD_SPADE
 10
1.3376
 20
0.4441
 30
5.5571
 70
32
 0
VERTEX
 8
CARD_SPADE
 10
1.3
 20
0.4409
 30
5.5571
 70
32
 0
VERTEX
 8
CARD_SPADE
 10
1.262
 20
0.441
 30
5.5571
 70
32
 0
VERTEX
 8
CARD_SPADE
 10
1.2239
 20
0.4445
 30
5.5571
 70
32
 0
VERTEX
 8
CARD_SPADE
 10
1.1858
 20
0.4515
 30
5.5571
 70
32
 0
VERTEX
 8
CARD_SPADE
 10
1.1481
 20
0.462
 30
5.5571
 70
32
 0
VERTEX
 8
CARD_SPADE
 10
1.1109
 20
0.4762
 30
5.5571
 70
32
 0
VERTEX
 8
CARD_SPADE
 10
1.0746
 20
0.4941
 30
5.5571
 70
32
 0
VERTEX
 8
CARD_SPADE
 10
1.0393
 20
0.5157
 30
5.5571
 70
32
 0
VERTEX
 8
CARD_SPADE
 10
1.0054
 20
0.5413
 30
5.5571
 70
32
 0
VERTEX
 8
CARD_SPADE
 10
0.9729
 20
0.5708
 30
5.5571
 70
32
 0
VERTEX
 8
CARD_SPADE
 10
0.9423
 20
0.6043
 30
5.5571
 70
32
 0
VERTEX
 8
CARD_SPADE
 10
0.9682
 20
0.4657
 30
5.5571
 70
32
 0
VERTEX
 8
CARD_SPADE
 10
1.0283
 20
0.2654
 30
5.5571
 70
32
 0
VERTEX
 8
CARD_SPADE
 10
1.1027
 20
0.0794
 30
5.5571
 70
32
 0
SEQEND
 0
ENDSEC
 0
EOF
