 0
SECTION
 2
HEADER
 9
$ACADVER
 1
AC1009
 0
ENDSEC
 0
SECTION
 2
TABLES
 0
TABLE
 2
LTYPE
 70
1
 0
LTYPE
 2
CONTINUOUS
 70
64
 3
solid line
 72
65
 73
0
 40
0.0
 0
ENDTAB
 0
TABLE
 2
LAYER
 70
6
 0
LAYER
 2
0
 70
0
 62
7
 6
CONTINUOUS
 0
LAYER
 2
CARD_HEART
 70
64
 62
7
 6
CONTINUOUS
 0
ENDTAB
 0
ENDSEC
 0
SECTION
 2
BLOCKS
 0
ENDSEC
 0
SECTION
 2
ENTITIES
 0
POLYLINE
 8
CARD_HEART
 66
1
 10
0.0
 20
0.0
 30
0.0
 70
9
 0
VERTEX
 8
CARD_HEART
 10
0.8686
 20
0.1343
 30
5.3717
 70
32
 0
VERTEX
 8
CARD_HEART
 10
0.4166
 20
0.63
 30
5.3717
 70
32
 0
VERTEX
 8
CARD_HEART
 10
0.1702
 20
0.9616
 30
5.3717
 70
32
 0
VERTEX
 8
CARD_HEART
 10
0.1231
 20
1.0453
 30
5.3717
 70
32
 0
VERTEX
 8
CARD_HEART
 10
0.0962
 20
1.1053
 30
5.3717
 70
32
 0
VERTEX
 8
CARD_HEART
 10
0.0798
 20
1.1533
 30
5.3717
 70
32
 0
VERTEX
 8
CARD_HEART
 10
0.0735
 20
1.1773
 30
5.3717
 70
32
 0
VERTEX
 8
CARD_HEART
 10
0.0666
 20
1.2133
 30
5.3717
 70
32
 0
VERTEX
 8
CARD_HEART
 10
0.0601
 20
1.281
 30
5.3717
 70
32
 0
VERTEX
 8
CARD_HEART
 10
0.0607
 20
1.3435
 30
5.3717
 70
32
 0
VERTEX
 8
CARD_HEART
 10
0.0679
 20
1.4006
 30
5.3717
 70
32
 0
VERTEX
 8
CARD_HEART
 10
0.0812
 20
1.4526
 30
5.3717
 70
32
 0
VERTEX
 8
CARD_HEART
 10
0.1
 20
1.4993
 30
5.3717
 70
32
 0
VERTEX
 8
CARD_HEART
 10
0.124
 20
1.541
 30
5.3717
 70
32
 0
VERTEX
 8
CARD_HEART
 10
0.1525
 20
1.5776
 30
5.3717
 70
32
 0
VERTEX
 8
CARD_HEART
 10
0.1851
 20
1.6092
 30
5.3717
 70
32
 0
VERTEX
 8
CARD_HEART
 10
0.2211
 20
1.6358
 30
5.3717
 70
32
 0
VERTEX
 8
CARD_HEART
 10
0.2602
 20
1.6576
 30
5.3717
 70
32
 0
VERTEX
 8
CARD_HEART
 10
0.3017
 20
1.6745
 30
5.3717
 70
32
 0
VERTEX
 8
CARD_HEART
 10
0.3452
 20
1.6866
 30
5.3717
 70
32
 0
VERTEX
 8
CARD_HEART
 10
0.3902
 20
1.6939
 30
5.3717
 70
32
 0
VERTEX
 8
CARD_HEART
 10
0.4361
 20
1.6966
 30
5.3717
 70
32
 0
VERTEX
 8
CARD_HEART
 10
0.4824
 20
1.6946
 30
5.3717
 70
32
 0
VERTEX
 8
CARD_HEART
 10
0.5285
 20
1.6881
 30
5.3717
 70
32
 0
VERTEX
 8
CARD_HEART
 10
0.5741
 20
1.677
 30
5.3717
 70
32
 0
VERTEX
 8
CARD_HEART
 10
0.6185
 20
1.6615
 30
5.3717
 70
32
 0
VERTEX
 8
CARD_HEART
 10
0.6613
 20
1.6415
 30
5.3717
 70
32
 0
VERTEX
 8
CARD_HEART
 10
0.7019
 20
1.6172
 30
5.3717
 70
32
 0
VERTEX
 8
CARD_HEART
 10
0.7398
 20
1.5885
 30
5.3717
 70
32
 0
VERTEX
 8
CARD_HEART
 10
0.7744
 20
1.5557
 30
5.3717
 70
32
 0
VERTEX
 8
CARD_HEART
 10
0.8054
 20
1.5186
 30
5.3717
 70
32
 0
VERTEX
 8
CARD_HEART
 10
0.8321
 20
1.4773
 30
5.3717
 70
32
 0
VERTEX
 8
CARD_HEART
 10
0.854
 20
1.432
 30
5.3717
 70
32
 0
VERTEX
 8
CARD_HEART
 10
0.8738
 20
1.4721
 30
5.3717
 70
32
 0
VERTEX
 8
CARD_HEART
 10
0.8979
 20
1.5092
 30
5.3717
 70
32
 0
VERTEX
 8
CARD_HEART
 10
0.9259
 20
1.5433
 30
5.3717
 70
32
 0
VERTEX
 8
CARD_HEART
 10
0.9573
 20
1.5742
 30
5.3717
 70
32
 0
VERTEX
 8
CARD_HEART
 10
0.9917
 20
1.6018
 30
5.3717
 70
32
 0
VERTEX
 8
CARD_HEART
 10
1.0287
 20
1.626
 30
5.3717
 70
32
 0
VERTEX
 8
CARD_HEART
 10
1.0679
 20
1.6468
 30
5.3717
 70
32
 0
VERTEX
 8
CARD_HEART
 10
1.1088
 20
1.664
 30
5.3717
 70
32
 0
VERTEX
 8
CARD_HEART
 10
1.1724
 20
1.6831
 30
5.3717
 70
32
 0
VERTEX
 8
CARD_HEART
 10
1.2376
 20
1.6937
 30
5.3717
 70
32
 0
VERTEX
 8
CARD_HEART
 10
1.2811
 20
1.6959
 30
5.3717
 70
32
 0
VERTEX
 8
CARD_HEART
 10
1.3243
 20
1.6941
 30
5.3717
 70
32
 0
VERTEX
 8
CARD_HEART
 10
1.3666
 20
1.6883
 30
5.3717
 70
32
 0
VERTEX
 8
CARD_HEART
 10
1.4077
 20
1.6783
 30
5.3717
 70
32
 0
VERTEX
 8
CARD_HEART
 10
1.4471
 20
1.664
 30
5.3717
 70
32
 0
VERTEX
 8
CARD_HEART
 10
1.4844
 20
1.6454
 30
5.3717
 70
32
 0
VERTEX
 8
CARD_HEART
 10
1.5191
 20
1.6224
 30
5.3717
 70
32
 0
VERTEX
 8
CARD_HEART
 10
1.551
 20
1.5949
 30
5.3717
 70
32
 0
VERTEX
 8
CARD_HEART
 10
1.5794
 20
1.5628
 30
5.3717
 70
32
 0
VERTEX
 8
CARD_HEART
 10
1.604
 20
1.5259
 30
5.3717
 70
32
 0
VERTEX
 8
CARD_HEART
 10
1.6244
 20
1.4843
 30
5.3717
 70
32
 0
VERTEX
 8
CARD_HEART
 10
1.6401
 20
1.4378
 30
5.3717
 70
32
 0
VERTEX
 8
CARD_HEART
 10
1.6508
 20
1.3864
 30
5.3717
 70
32
 0
VERTEX
 8
CARD_HEART
 10
1.6559
 20
1.3299
 30
5.3717
 70
32
 0
VERTEX
 8
CARD_HEART
 10
1.6549
 20
1.2731
 30
5.3717
 70
32
 0
VERTEX
 8
CARD_HEART
 10
1.6477
 20
1.2155
 30
5.3717
 70
32
 0
VERTEX
 8
CARD_HEART
 10
1.6267
 20
1.1279
 30
5.3717
 70
32
 0
VERTEX
 8
CARD_HEART
 10
1.5945
 20
1.0397
 30
5.3717
 70
32
 0
VERTEX
 8
CARD_HEART
 10
1.5371
 20
0.9221
 30
5.3717
 70
32
 0
VERTEX
 8
CARD_HEART
 10
1.4471
 20
0.7776
 30
5.3717
 70
32
 0
VERTEX
 8
CARD_HEART
 10
1.3002
 20
0.5858
 30
5.3717
 70
32
 0
VERTEX
 8
CARD_HEART
 10
1.0441
 20
0.3084
 30
5.3717
 70
32
 0
SEQEND
 0
ENDSEC
 0
EOF
