 0
SECTION
 2
HEADER
 9
$ACADVER
 1
AC1009
 0
ENDSEC
 0
SECTION
 2
TABLES
 0
TABLE
 2
LTYPE
 70
1
 0
LTYPE
 2
CONTINUOUS
 70
64
 3
solid line
 72
65
 73
0
 40
0.0
 0
ENDTAB
 0
TABLE
 2
LAYER
 70
6
 0
LAYER
 2
0
 70
0
 62
7
 6
CONTINUOUS
 0
LAYER
 2
CARDS_CLUBS
 70
64
 62
7
 6
CONTINUOUS
 0
ENDTAB
 0
ENDSEC
 0
SECTION
 2
BLOCKS
 0
ENDSEC
 0
SECTION
 2
ENTITIES
 0
POLYLINE
 8
CARDS_CLUBS
 66
1
 10
0.0
 20
0.0
 30
0.0
 70
9
 0
VERTEX
 8
CARDS_CLUBS
 10
0.7485
 20
0.0689
 30
5.3248
 70
32
 0
VERTEX
 8
CARDS_CLUBS
 10
0.7952
 20
0.1613
 30
5.3248
 70
32
 0
VERTEX
 8
CARDS_CLUBS
 10
0.8391
 20
0.272
 30
5.3248
 70
32
 0
VERTEX
 8
CARDS_CLUBS
 10
0.8778
 20
0.4033
 30
5.3248
 70
32
 0
VERTEX
 8
CARDS_CLUBS
 10
0.9046
 20
0.5311
 30
5.3248
 70
32
 0
VERTEX
 8
CARDS_CLUBS
 10
0.9235
 20
0.6667
 30
5.3248
 70
32
 0
VERTEX
 8
CARDS_CLUBS
 10
0.9008
 20
0.6359
 30
5.3248
 70
32
 0
VERTEX
 8
CARDS_CLUBS
 10
0.8742
 20
0.6074
 30
5.3248
 70
32
 0
VERTEX
 8
CARDS_CLUBS
 10
0.8442
 20
0.5813
 30
5.3248
 70
32
 0
VERTEX
 8
CARDS_CLUBS
 10
0.811
 20
0.5577
 30
5.3248
 70
32
 0
VERTEX
 8
CARDS_CLUBS
 10
0.7562
 20
0.5269
 30
5.3248
 70
32
 0
VERTEX
 8
CARDS_CLUBS
 10
0.6966
 20
0.5021
 30
5.3248
 70
32
 0
VERTEX
 8
CARDS_CLUBS
 10
0.6333
 20
0.4835
 30
5.3248
 70
32
 0
VERTEX
 8
CARDS_CLUBS
 10
0.5677
 20
0.4713
 30
5.3248
 70
32
 0
VERTEX
 8
CARDS_CLUBS
 10
0.5011
 20
0.4657
 30
5.3248
 70
32
 0
VERTEX
 8
CARDS_CLUBS
 10
0.4346
 20
0.467
 30
5.3248
 70
32
 0
VERTEX
 8
CARDS_CLUBS
 10
0.3696
 20
0.4755
 30
5.3248
 70
32
 0
VERTEX
 8
CARDS_CLUBS
 10
0.3074
 20
0.4913
 30
5.3248
 70
32
 0
VERTEX
 8
CARDS_CLUBS
 10
0.2681
 20
0.506
 30
5.3248
 70
32
 0
VERTEX
 8
CARDS_CLUBS
 10
0.2309
 20
0.5242
 30
5.3248
 70
32
 0
VERTEX
 8
CARDS_CLUBS
 10
0.1963
 20
0.5459
 30
5.3248
 70
32
 0
VERTEX
 8
CARDS_CLUBS
 10
0.1646
 20
0.5713
 30
5.3248
 70
32
 0
VERTEX
 8
CARDS_CLUBS
 10
0.1362
 20
0.6002
 30
5.3248
 70
32
 0
VERTEX
 8
CARDS_CLUBS
 10
0.1115
 20
0.633
 30
5.3248
 70
32
 0
VERTEX
 8
CARDS_CLUBS
 10
0.0909
 20
0.6695
 30
5.3248
 70
32
 0
VERTEX
 8
CARDS_CLUBS
 10
0.0746
 20
0.7099
 30
5.3248
 70
32
 0
VERTEX
 8
CARDS_CLUBS
 10
0.0632
 20
0.7542
 30
5.3248
 70
32
 0
VERTEX
 8
CARDS_CLUBS
 10
0.0573
 20
0.7951
 30
5.3248
 70
32
 0
VERTEX
 8
CARDS_CLUBS
 10
0.0553
 20
0.8351
 30
5.3248
 70
32
 0
VERTEX
 8
CARDS_CLUBS
 10
0.057
 20
0.874
 30
5.3248
 70
32
 0
VERTEX
 8
CARDS_CLUBS
 10
0.0623
 20
0.9118
 30
5.3248
 70
32
 0
VERTEX
 8
CARDS_CLUBS
 10
0.071
 20
0.9483
 30
5.3248
 70
32
 0
VERTEX
 8
CARDS_CLUBS
 10
0.0829
 20
0.9833
 30
5.3248
 70
32
 0
VERTEX
 8
CARDS_CLUBS
 10
0.0978
 20
1.0167
 30
5.3248
 70
32
 0
VERTEX
 8
CARDS_CLUBS
 10
0.1156
 20
1.0484
 30
5.3248
 70
32
 0
VERTEX
 8
CARDS_CLUBS
 10
0.1361
 20
1.0781
 30
5.3248
 70
32
 0
VERTEX
 8
CARDS_CLUBS
 10
0.1591
 20
1.1058
 30
5.3248
 70
32
 0
VERTEX
 8
CARDS_CLUBS
 10
0.1845
 20
1.1313
 30
5.3248
 70
32
 0
VERTEX
 8
CARDS_CLUBS
 10
0.212
 20
1.1545
 30
5.3248
 70
32
 0
VERTEX
 8
CARDS_CLUBS
 10
0.2416
 20
1.1752
 30
5.3248
 70
32
 0
VERTEX
 8
CARDS_CLUBS
 10
0.273
 20
1.1933
 30
5.3248
 70
32
 0
VERTEX
 8
CARDS_CLUBS
 10
0.306
 20
1.2086
 30
5.3248
 70
32
 0
VERTEX
 8
CARDS_CLUBS
 10
0.3406
 20
1.2209
 30
5.3248
 70
32
 0
VERTEX
 8
CARDS_CLUBS
 10
0.3764
 20
1.2303
 30
5.3248
 70
32
 0
VERTEX
 8
CARDS_CLUBS
 10
0.4134
 20
1.2364
 30
5.3248
 70
32
 0
VERTEX
 8
CARDS_CLUBS
 10
0.4514
 20
1.2391
 30
5.3248
 70
32
 0
VERTEX
 8
CARDS_CLUBS
 10
0.4902
 20
1.2384
 30
5.3248
 70
32
 0
VERTEX
 8
CARDS_CLUBS
 10
0.5296
 20
1.234
 30
5.3248
 70
32
 0
VERTEX
 8
CARDS_CLUBS
 10
0.5695
 20
1.2258
 30
5.3248
 70
32
 0
VERTEX
 8
CARDS_CLUBS
 10
0.6097
 20
1.2137
 30
5.3248
 70
32
 0
VERTEX
 8
CARDS_CLUBS
 10
0.65
 20
1.1975
 30
5.3248
 70
32
 0
VERTEX
 8
CARDS_CLUBS
 10
0.6902
 20
1.1771
 30
5.3248
 70
32
 0
VERTEX
 8
CARDS_CLUBS
 10
0.6552
 20
1.2518
 30
5.3248
 70
32
 0
VERTEX
 8
CARDS_CLUBS
 10
0.5988
 20
1.3631
 30
5.3248
 70
32
 0
VERTEX
 8
CARDS_CLUBS
 10
0.5868
 20
1.3971
 30
5.3248
 70
32
 0
VERTEX
 8
CARDS_CLUBS
 10
0.5794
 20
1.4277
 30
5.3248
 70
32
 0
VERTEX
 8
CARDS_CLUBS
 10
0.5755
 20
1.4543
 30
5.3248
 70
32
 0
VERTEX
 8
CARDS_CLUBS
 10
0.5735
 20
1.4833
 30
5.3248
 70
32
 0
VERTEX
 8
CARDS_CLUBS
 10
0.5755
 20
1.5385
 30
5.3248
 70
32
 0
VERTEX
 8
CARDS_CLUBS
 10
0.5842
 20
1.59
 30
5.3248
 70
32
 0
VERTEX
 8
CARDS_CLUBS
 10
0.599
 20
1.6376
 30
5.3248
 70
32
 0
VERTEX
 8
CARDS_CLUBS
 10
0.6195
 20
1.6813
 30
5.3248
 70
32
 0
VERTEX
 8
CARDS_CLUBS
 10
0.645
 20
1.7209
 30
5.3248
 70
32
 0
VERTEX
 8
CARDS_CLUBS
 10
0.675
 20
1.7565
 30
5.3248
 70
32
 0
VERTEX
 8
CARDS_CLUBS
 10
0.709
 20
1.7879
 30
5.3248
 70
32
 0
VERTEX
 8
CARDS_CLUBS
 10
0.7464
 20
1.8151
 30
5.3248
 70
32
 0
VERTEX
 8
CARDS_CLUBS
 10
0.7866
 20
1.838
 30
5.3248
 70
32
 0
VERTEX
 8
CARDS_CLUBS
 10
0.8291
 20
1.8565
 30
5.3248
 70
32
 0
VERTEX
 8
CARDS_CLUBS
 10
0.8733
 20
1.8705
 30
5.3248
 70
32
 0
VERTEX
 8
CARDS_CLUBS
 10
0.9186
 20
1.88
 30
5.3248
 70
32
 0
VERTEX
 8
CARDS_CLUBS
 10
0.9646
 20
1.8848
 30
5.3248
 70
32
 0
VERTEX
 8
CARDS_CLUBS
 10
1.0106
 20
1.885
 30
5.3248
 70
32
 0
VERTEX
 8
CARDS_CLUBS
 10
1.0561
 20
1.8805
 30
5.3248
 70
32
 0
VERTEX
 8
CARDS_CLUBS
 10
1.1006
 20
1.871
 30
5.3248
 70
32
 0
VERTEX
 8
CARDS_CLUBS
 10
1.1434
 20
1.8567
 30
5.3248
 70
32
 0
VERTEX
 8
CARDS_CLUBS
 10
1.1841
 20
1.8374
 30
5.3248
 70
32
 0
VERTEX
 8
CARDS_CLUBS
 10
1.222
 20
1.813
 30
5.3248
 70
32
 0
VERTEX
 8
CARDS_CLUBS
 10
1.2566
 20
1.7835
 30
5.3248
 70
32
 0
VERTEX
 8
CARDS_CLUBS
 10
1.2874
 20
1.7488
 30
5.3248
 70
32
 0
VERTEX
 8
CARDS_CLUBS
 10
1.3138
 20
1.7087
 30
5.3248
 70
32
 0
VERTEX
 8
CARDS_CLUBS
 10
1.3352
 20
1.6633
 30
5.3248
 70
32
 0
VERTEX
 8
CARDS_CLUBS
 10
1.3511
 20
1.6125
 30
5.3248
 70
32
 0
VERTEX
 8
CARDS_CLUBS
 10
1.3609
 20
1.5562
 30
5.3248
 70
32
 0
VERTEX
 8
CARDS_CLUBS
 10
1.3639
 20
1.5069
 30
5.3248
 70
32
 0
VERTEX
 8
CARDS_CLUBS
 10
1.362
 20
1.4621
 30
5.3248
 70
32
 0
VERTEX
 8
CARDS_CLUBS
 10
1.3557
 20
1.421
 30
5.3248
 70
32
 0
VERTEX
 8
CARDS_CLUBS
 10
1.3456
 20
1.383
 30
5.3248
 70
32
 0
VERTEX
 8
CARDS_CLUBS
 10
1.3296
 20
1.3404
 30
5.3248
 70
32
 0
VERTEX
 8
CARDS_CLUBS
 10
1.289
 20
1.2598
 30
5.3248
 70
32
 0
VERTEX
 8
CARDS_CLUBS
 10
1.2442
 20
1.1771
 30
5.3248
 70
32
 0
VERTEX
 8
CARDS_CLUBS
 10
1.3146
 20
1.2119
 30
5.3248
 70
32
 0
VERTEX
 8
CARDS_CLUBS
 10
1.3816
 20
1.2351
 30
5.3248
 70
32
 0
VERTEX
 8
CARDS_CLUBS
 10
1.4452
 20
1.2477
 30
5.3248
 70
32
 0
VERTEX
 8
CARDS_CLUBS
 10
1.5052
 20
1.2503
 30
5.3248
 70
32
 0
VERTEX
 8
CARDS_CLUBS
 10
1.5613
 20
1.2438
 30
5.3248
 70
32
 0
VERTEX
 8
CARDS_CLUBS
 10
1.6135
 20
1.229
 30
5.3248
 70
32
 0
VERTEX
 8
CARDS_CLUBS
 10
1.6613
 20
1.2068
 30
5.3248
 70
32
 0
VERTEX
 8
CARDS_CLUBS
 10
1.7048
 20
1.1779
 30
5.3248
 70
32
 0
VERTEX
 8
CARDS_CLUBS
 10
1.7437
 20
1.1432
 30
5.3248
 70
32
 0
VERTEX
 8
CARDS_CLUBS
 10
1.7777
 20
1.1034
 30
5.3248
 70
32
 0
VERTEX
 8
CARDS_CLUBS
 10
1.8068
 20
1.0595
 30
5.3248
 70
32
 0
VERTEX
 8
CARDS_CLUBS
 10
1.8306
 20
1.0122
 30
5.3248
 70
32
 0
VERTEX
 8
CARDS_CLUBS
 10
1.8491
 20
0.9624
 30
5.3248
 70
32
 0
VERTEX
 8
CARDS_CLUBS
 10
1.862
 20
0.9108
 30
5.3248
 70
32
 0
VERTEX
 8
CARDS_CLUBS
 10
1.8691
 20
0.8583
 30
5.3248
 70
32
 0
VERTEX
 8
CARDS_CLUBS
 10
1.8702
 20
0.8057
 30
5.3248
 70
32
 0
VERTEX
 8
CARDS_CLUBS
 10
1.8652
 20
0.7538
 30
5.3248
 70
32
 0
VERTEX
 8
CARDS_CLUBS
 10
1.8538
 20
0.7035
 30
5.3248
 70
32
 0
VERTEX
 8
CARDS_CLUBS
 10
1.8358
 20
0.6555
 30
5.3248
 70
32
 0
VERTEX
 8
CARDS_CLUBS
 10
1.8111
 20
0.6106
 30
5.3248
 70
32
 0
VERTEX
 8
CARDS_CLUBS
 10
1.7795
 20
0.5698
 30
5.3248
 70
32
 0
VERTEX
 8
CARDS_CLUBS
 10
1.7407
 20
0.5337
 30
5.3248
 70
32
 0
VERTEX
 8
CARDS_CLUBS
 10
1.6946
 20
0.5033
 30
5.3248
 70
32
 0
VERTEX
 8
CARDS_CLUBS
 10
1.641
 20
0.4793
 30
5.3248
 70
32
 0
VERTEX
 8
CARDS_CLUBS
 10
1.5796
 20
0.4626
 30
5.3248
 70
32
 0
VERTEX
 8
CARDS_CLUBS
 10
1.552
 20
0.4587
 30
5.3248
 70
32
 0
VERTEX
 8
CARDS_CLUBS
 10
1.5234
 20
0.4576
 30
5.3248
 70
32
 0
VERTEX
 8
CARDS_CLUBS
 10
1.4793
 20
0.4605
 30
5.3248
 70
32
 0
VERTEX
 8
CARDS_CLUBS
 10
1.4341
 20
0.4683
 30
5.3248
 70
32
 0
VERTEX
 8
CARDS_CLUBS
 10
1.3732
 20
0.4851
 30
5.3248
 70
32
 0
VERTEX
 8
CARDS_CLUBS
 10
1.2979
 20
0.5139
 30
5.3248
 70
32
 0
VERTEX
 8
CARDS_CLUBS
 10
1.1989
 20
0.5626
 30
5.3248
 70
32
 0
VERTEX
 8
CARDS_CLUBS
 10
1.0658
 20
0.6437
 30
5.3248
 70
32
 0
VERTEX
 8
CARDS_CLUBS
 10
1.011
 20
0.6813
 30
5.3248
 70
32
 0
VERTEX
 8
CARDS_CLUBS
 10
1.041
 20
0.4909
 30
5.3248
 70
32
 0
VERTEX
 8
CARDS_CLUBS
 10
1.0826
 20
0.3278
 30
5.3248
 70
32
 0
VERTEX
 8
CARDS_CLUBS
 10
1.1274
 20
0.1994
 30
5.3248
 70
32
 0
VERTEX
 8
CARDS_CLUBS
 10
1.1859
 20
0.0689
 30
5.3248
 70
32
 0
SEQEND
 0
ENDSEC
 0
EOF
