 0
SECTION
 2
HEADER
 9
$ACADVER
 1
AC1009
 0
ENDSEC
 0
SECTION
 2
TABLES
 0
TABLE
 2
LTYPE
 70
1
 0
LTYPE
 2
CONTINUOUS
 70
64
 3
solid line
 72
65
 73
0
 40
0.0
 0
ENDTAB
 0
TABLE
 2
LAYER
 70
6
 0
LAYER
 2
0
 70
0
 62
7
 6
CONTINUOUS
 0
LAYER
 2
GBM1
 70
64
 62
7
 6
CONTINUOUS
 0
ENDTAB
 0
ENDSEC
 0
SECTION
 2
BLOCKS
 0
ENDSEC
 0
SECTION
 2
ENTITIES
 0
POLYLINE
 8
GBM1
 66
1
 10
0.0
 20
0.0
 30
0.0
 70
9
 0
VERTEX
 8
GBM1
 10
2.4045
 20
0.3203
 30
5.4862
 70
32
 0
VERTEX
 8
GBM1
 10
2.5296
 20
0.3133
 30
5.4862
 70
32
 0
VERTEX
 8
GBM1
 10
2.6458
 20
0.3184
 30
5.4862
 70
32
 0
VERTEX
 8
GBM1
 10
2.7538
 20
0.3343
 30
5.4862
 70
32
 0
VERTEX
 8
GBM1
 10
2.854
 20
0.36
 30
5.4862
 70
32
 0
VERTEX
 8
GBM1
 10
2.9471
 20
0.3944
 30
5.4862
 70
32
 0
VERTEX
 8
GBM1
 10
3.0336
 20
0.4364
 30
5.4862
 70
32
 0
VERTEX
 8
GBM1
 10
3.1333
 20
0.498
 30
5.4862
 70
32
 0
VERTEX
 8
GBM1
 10
3.2247
 20
0.5677
 30
5.4862
 70
32
 0
VERTEX
 8
GBM1
 10
3.3563
 20
0.6907
 30
5.4862
 70
32
 0
VERTEX
 8
GBM1
 10
3.4737
 20
0.8202
 30
5.4862
 70
32
 0
VERTEX
 8
GBM1
 10
3.7332
 20
1.1645
 30
5.4862
 70
32
 0
VERTEX
 8
GBM1
 10
3.735
 20
1.1661
 30
5.4862
 70
32
 0
VERTEX
 8
GBM1
 10
3.7365
 20
1.167
 30
5.4862
 70
32
 0
VERTEX
 8
GBM1
 10
3.7376
 20
1.1673
 30
5.4862
 70
32
 0
VERTEX
 8
GBM1
 10
3.7384
 20
1.1671
 30
5.4862
 70
32
 0
VERTEX
 8
GBM1
 10
3.7393
 20
1.1667
 30
5.4862
 70
32
 0
VERTEX
 8
GBM1
 10
3.7402
 20
1.1661
 30
5.4862
 70
32
 0
VERTEX
 8
GBM1
 10
3.7413
 20
1.1652
 30
5.4862
 70
32
 0
VERTEX
 8
GBM1
 10
3.7436
 20
1.1628
 30
5.4862
 70
32
 0
VERTEX
 8
GBM1
 10
3.7475
 20
1.1578
 30
5.4862
 70
32
 0
VERTEX
 8
GBM1
 10
3.7832
 20
1.095
 30
5.4862
 70
32
 0
VERTEX
 8
GBM1
 10
3.8209
 20
1.0285
 30
5.4862
 70
32
 0
VERTEX
 8
GBM1
 10
3.9415
 20
0.8754
 30
5.4862
 70
32
 0
VERTEX
 8
GBM1
 10
4.0511
 20
0.761
 30
5.4862
 70
32
 0
VERTEX
 8
GBM1
 10
4.1568
 20
0.67
 30
5.4862
 70
32
 0
VERTEX
 8
GBM1
 10
4.2534
 20
0.6014
 30
5.4862
 70
32
 0
VERTEX
 8
GBM1
 10
4.3581
 20
0.541
 30
5.4862
 70
32
 0
VERTEX
 8
GBM1
 10
4.4713
 20
0.4905
 30
5.4862
 70
32
 0
VERTEX
 8
GBM1
 10
4.568
 20
0.4583
 30
5.4862
 70
32
 0
VERTEX
 8
GBM1
 10
4.6705
 20
0.4344
 30
5.4862
 70
32
 0
VERTEX
 8
GBM1
 10
4.7239
 20
0.4259
 30
5.4862
 70
32
 0
VERTEX
 8
GBM1
 10
4.8068
 20
0.4175
 30
5.4862
 70
32
 0
VERTEX
 8
GBM1
 10
4.9393
 20
0.4149
 30
5.4862
 70
32
 0
VERTEX
 8
GBM1
 10
5.0668
 20
0.4247
 30
5.4862
 70
32
 0
VERTEX
 8
GBM1
 10
5.1886
 20
0.4462
 30
5.4862
 70
32
 0
VERTEX
 8
GBM1
 10
5.3037
 20
0.4789
 30
5.4862
 70
32
 0
VERTEX
 8
GBM1
 10
5.4113
 20
0.5221
 30
5.4862
 70
32
 0
VERTEX
 8
GBM1
 10
5.4914
 20
0.5639
 30
5.4862
 70
32
 0
VERTEX
 8
GBM1
 10
5.5657
 20
0.6118
 30
5.4862
 70
32
 0
VERTEX
 8
GBM1
 10
5.6338
 20
0.6654
 30
5.4862
 70
32
 0
VERTEX
 8
GBM1
 10
5.6952
 20
0.7245
 30
5.4862
 70
32
 0
VERTEX
 8
GBM1
 10
5.7495
 20
0.7887
 30
5.4862
 70
32
 0
VERTEX
 8
GBM1
 10
5.7738
 20
0.8226
 30
5.4862
 70
32
 0
VERTEX
 8
GBM1
 10
5.8066
 20
0.8757
 30
5.4862
 70
32
 0
VERTEX
 8
GBM1
 10
5.8392
 20
0.9416
 30
5.4862
 70
32
 0
VERTEX
 8
GBM1
 10
5.8648
 20
1.01
 30
5.4862
 70
32
 0
VERTEX
 8
GBM1
 10
5.8836
 20
1.0806
 30
5.4862
 70
32
 0
VERTEX
 8
GBM1
 10
5.9002
 20
1.1898
 30
5.4862
 70
32
 0
VERTEX
 8
GBM1
 10
5.9038
 20
1.3022
 30
5.4862
 70
32
 0
VERTEX
 8
GBM1
 10
5.896
 20
1.4167
 30
5.4862
 70
32
 0
VERTEX
 8
GBM1
 10
5.8697
 20
1.5706
 30
5.4862
 70
32
 0
VERTEX
 8
GBM1
 10
5.816
 20
1.7616
 30
5.4862
 70
32
 0
VERTEX
 8
GBM1
 10
5.7288
 20
1.9821
 30
5.4862
 70
32
 0
VERTEX
 8
GBM1
 10
5.6091
 20
2.2166
 30
5.4862
 70
32
 0
VERTEX
 8
GBM1
 10
5.5031
 20
2.3882
 30
5.4862
 70
32
 0
VERTEX
 8
GBM1
 10
5.39
 20
2.5421
 30
5.4862
 70
32
 0
VERTEX
 8
GBM1
 10
5.348
 20
2.5886
 30
5.4862
 70
32
 0
VERTEX
 8
GBM1
 10
5.1793
 20
2.756
 30
5.4862
 70
32
 0
VERTEX
 8
GBM1
 10
5.1538
 20
2.7902
 30
5.4862
 70
32
 0
VERTEX
 8
GBM1
 10
5.1361
 20
2.8194
 30
5.4862
 70
32
 0
VERTEX
 8
GBM1
 10
5.1247
 20
2.8425
 30
5.4862
 70
32
 0
VERTEX
 8
GBM1
 10
5.1123
 20
2.8753
 30
5.4862
 70
32
 0
VERTEX
 8
GBM1
 10
5.5229
 20
2.8916
 30
5.4862
 70
32
 0
VERTEX
 8
GBM1
 10
5.8064
 20
2.9329
 30
5.4862
 70
32
 0
VERTEX
 8
GBM1
 10
5.9802
 20
2.9764
 30
5.4862
 70
32
 0
VERTEX
 8
GBM1
 10
6.1399
 20
3.0341
 30
5.4862
 70
32
 0
VERTEX
 8
GBM1
 10
6.2493
 20
3.0873
 30
5.4862
 70
32
 0
VERTEX
 8
GBM1
 10
6.349
 20
3.1496
 30
5.4862
 70
32
 0
VERTEX
 8
GBM1
 10
6.4381
 20
3.2215
 30
5.4862
 70
32
 0
VERTEX
 8
GBM1
 10
6.4913
 20
3.275
 30
5.4862
 70
32
 0
VERTEX
 8
GBM1
 10
6.5393
 20
3.3331
 30
5.4862
 70
32
 0
VERTEX
 8
GBM1
 10
6.5818
 20
3.396
 30
5.4862
 70
32
 0
VERTEX
 8
GBM1
 10
6.6186
 20
3.4638
 30
5.4862
 70
32
 0
VERTEX
 8
GBM1
 10
6.6495
 20
3.5366
 30
5.4862
 70
32
 0
VERTEX
 8
GBM1
 10
6.6742
 20
3.6146
 30
5.4862
 70
32
 0
VERTEX
 8
GBM1
 10
6.6926
 20
3.698
 30
5.4862
 70
32
 0
VERTEX
 8
GBM1
 10
6.7044
 20
3.7868
 30
5.4862
 70
32
 0
VERTEX
 8
GBM1
 10
6.7092
 20
3.9307
 30
5.4862
 70
32
 0
VERTEX
 8
GBM1
 10
6.701
 20
4.044
 30
5.4862
 70
32
 0
VERTEX
 8
GBM1
 10
6.6816
 20
4.1516
 30
5.4862
 70
32
 0
VERTEX
 8
GBM1
 10
6.6516
 20
4.2529
 30
5.4862
 70
32
 0
VERTEX
 8
GBM1
 10
6.6115
 20
4.3474
 30
5.4862
 70
32
 0
VERTEX
 8
GBM1
 10
6.5751
 20
4.4136
 30
5.4862
 70
32
 0
VERTEX
 8
GBM1
 10
6.5337
 20
4.4754
 30
5.4862
 70
32
 0
VERTEX
 8
GBM1
 10
6.4874
 20
4.5327
 30
5.4862
 70
32
 0
VERTEX
 8
GBM1
 10
6.4365
 20
4.5852
 30
5.4862
 70
32
 0
VERTEX
 8
GBM1
 10
6.3812
 20
4.6328
 30
5.4862
 70
32
 0
VERTEX
 8
GBM1
 10
6.3218
 20
4.6753
 30
5.4862
 70
32
 0
VERTEX
 8
GBM1
 10
6.2586
 20
4.7123
 30
5.4862
 70
32
 0
VERTEX
 8
GBM1
 10
6.1917
 20
4.7438
 30
5.4862
 70
32
 0
VERTEX
 8
GBM1
 10
6.1214
 20
4.7694
 30
5.4862
 70
32
 0
VERTEX
 8
GBM1
 10
6.0479
 20
4.7891
 30
5.4862
 70
32
 0
VERTEX
 8
GBM1
 10
5.9455
 20
4.8055
 30
5.4862
 70
32
 0
VERTEX
 8
GBM1
 10
5.7927
 20
4.8135
 30
5.4862
 70
32
 0
VERTEX
 8
GBM1
 10
5.6452
 20
4.8075
 30
5.4862
 70
32
 0
VERTEX
 8
GBM1
 10
5.4549
 20
4.782
 30
5.4862
 70
32
 0
VERTEX
 8
GBM1
 10
5.1094
 20
4.7009
 30
5.4862
 70
32
 0
VERTEX
 8
GBM1
 10
4.7651
 20
4.6111
 30
5.4862
 70
32
 0
VERTEX
 8
GBM1
 10
4.9519
 20
4.9828
 30
5.4862
 70
32
 0
VERTEX
 8
GBM1
 10
5.0099
 20
5.1372
 30
5.4862
 70
32
 0
VERTEX
 8
GBM1
 10
5.0488
 20
5.2816
 30
5.4862
 70
32
 0
VERTEX
 8
GBM1
 10
5.0717
 20
5.4154
 30
5.4862
 70
32
 0
VERTEX
 8
GBM1
 10
5.0808
 20
5.5109
 30
5.4862
 70
32
 0
VERTEX
 8
GBM1
 10
5.0845
 20
5.6387
 30
5.4862
 70
32
 0
VERTEX
 8
GBM1
 10
5.0752
 20
5.8117
 30
5.4862
 70
32
 0
VERTEX
 8
GBM1
 10
5.0495
 20
5.9799
 30
5.4862
 70
32
 0
VERTEX
 8
GBM1
 10
5.0081
 20
6.1423
 30
5.4862
 70
32
 0
VERTEX
 8
GBM1
 10
4.9518
 20
6.298
 30
5.4862
 70
32
 0
VERTEX
 8
GBM1
 10
4.8812
 20
6.4462
 30
5.4862
 70
32
 0
VERTEX
 8
GBM1
 10
4.797
 20
6.586
 30
5.4862
 70
32
 0
VERTEX
 8
GBM1
 10
4.7
 20
6.7164
 30
5.4862
 70
32
 0
VERTEX
 8
GBM1
 10
4.5907
 20
6.8367
 30
5.4862
 70
32
 0
VERTEX
 8
GBM1
 10
4.47
 20
6.9458
 30
5.4862
 70
32
 0
VERTEX
 8
GBM1
 10
4.3385
 20
7.043
 30
5.4862
 70
32
 0
VERTEX
 8
GBM1
 10
4.197
 20
7.1273
 30
5.4862
 70
32
 0
VERTEX
 8
GBM1
 10
4.046
 20
7.1978
 30
5.4862
 70
32
 0
VERTEX
 8
GBM1
 10
3.8863
 20
7.2537
 30
5.4862
 70
32
 0
VERTEX
 8
GBM1
 10
3.7186
 20
7.294
 30
5.4862
 70
32
 0
VERTEX
 8
GBM1
 10
3.5436
 20
7.318
 30
5.4862
 70
32
 0
VERTEX
 8
GBM1
 10
3.4233
 20
7.3243
 30
5.4862
 70
32
 0
VERTEX
 8
GBM1
 10
3.2376
 20
7.3189
 30
5.4862
 70
32
 0
VERTEX
 8
GBM1
 10
3.0743
 20
7.2986
 30
5.4862
 70
32
 0
VERTEX
 8
GBM1
 10
2.9164
 20
7.2638
 30
5.4862
 70
32
 0
VERTEX
 8
GBM1
 10
2.7648
 20
7.2151
 30
5.4862
 70
32
 0
VERTEX
 8
GBM1
 10
2.6202
 20
7.153
 30
5.4862
 70
32
 0
VERTEX
 8
GBM1
 10
2.4832
 20
7.0781
 30
5.4862
 70
32
 0
VERTEX
 8
GBM1
 10
2.3547
 20
6.991
 30
5.4862
 70
32
 0
VERTEX
 8
GBM1
 10
2.2352
 20
6.8922
 30
5.4862
 70
32
 0
VERTEX
 8
GBM1
 10
2.1257
 20
6.7822
 30
5.4862
 70
32
 0
VERTEX
 8
GBM1
 10
2.0267
 20
6.6616
 30
5.4862
 70
32
 0
VERTEX
 8
GBM1
 10
1.939
 20
6.531
 30
5.4862
 70
32
 0
VERTEX
 8
GBM1
 10
1.8633
 20
6.3908
 30
5.4862
 70
32
 0
VERTEX
 8
GBM1
 10
1.8003
 20
6.2418
 30
5.4862
 70
32
 0
VERTEX
 8
GBM1
 10
1.7508
 20
6.0843
 30
5.4862
 70
32
 0
VERTEX
 8
GBM1
 10
1.7155
 20
5.9191
 30
5.4862
 70
32
 0
VERTEX
 8
GBM1
 10
1.6952
 20
5.7465
 30
5.4862
 70
32
 0
VERTEX
 8
GBM1
 10
1.6902
 20
5.6277
 30
5.4862
 70
32
 0
VERTEX
 8
GBM1
 10
1.6963
 20
5.4443
 30
5.4862
 70
32
 0
VERTEX
 8
GBM1
 10
1.7121
 20
5.3189
 30
5.4862
 70
32
 0
VERTEX
 8
GBM1
 10
1.738
 20
5.2034
 30
5.4862
 70
32
 0
VERTEX
 8
GBM1
 10
1.7785
 20
5.0786
 30
5.4862
 70
32
 0
VERTEX
 8
GBM1
 10
1.8892
 20
4.8346
 30
5.4862
 70
32
 0
VERTEX
 8
GBM1
 10
2.0157
 20
4.5833
 30
5.4862
 70
32
 0
VERTEX
 8
GBM1
 10
1.7422
 20
4.6333
 30
5.4862
 70
32
 0
VERTEX
 8
GBM1
 10
1.5273
 20
4.6509
 30
5.4862
 70
32
 0
VERTEX
 8
GBM1
 10
1.3192
 20
4.6485
 30
5.4862
 70
32
 0
VERTEX
 8
GBM1
 10
1.1211
 20
4.6259
 30
5.4862
 70
32
 0
VERTEX
 8
GBM1
 10
0.9808
 20
4.5956
 30
5.4862
 70
32
 0
VERTEX
 8
GBM1
 10
0.8491
 20
4.5538
 30
5.4862
 70
32
 0
VERTEX
 8
GBM1
 10
0.7274
 20
4.5006
 30
5.4862
 70
32
 0
VERTEX
 8
GBM1
 10
0.6168
 20
4.4357
 30
5.4862
 70
32
 0
VERTEX
 8
GBM1
 10
0.55
 20
4.386
 30
5.4862
 70
32
 0
VERTEX
 8
GBM1
 10
0.4891
 20
4.3311
 30
5.4862
 70
32
 0
VERTEX
 8
GBM1
 10
0.4345
 20
4.2711
 30
5.4862
 70
32
 0
VERTEX
 8
GBM1
 10
0.3867
 20
4.2058
 30
5.4862
 70
32
 0
VERTEX
 8
GBM1
 10
0.3459
 20
4.1352
 30
5.4862
 70
32
 0
VERTEX
 8
GBM1
 10
0.3127
 20
4.0594
 30
5.4862
 70
32
 0
VERTEX
 8
GBM1
 10
0.2873
 20
3.9784
 30
5.4862
 70
32
 0
VERTEX
 8
GBM1
 10
0.2702
 20
3.892
 30
5.4862
 70
32
 0
VERTEX
 8
GBM1
 10
0.2617
 20
3.8004
 30
5.4862
 70
32
 0
VERTEX
 8
GBM1
 10
0.2608
 20
3.7526
 30
5.4862
 70
32
 0
VERTEX
 8
GBM1
 10
0.266
 20
3.653
 30
5.4862
 70
32
 0
VERTEX
 8
GBM1
 10
0.2786
 20
3.563
 30
5.4862
 70
32
 0
VERTEX
 8
GBM1
 10
0.2982
 20
3.4796
 30
5.4862
 70
32
 0
VERTEX
 8
GBM1
 10
0.3244
 20
3.4024
 30
5.4862
 70
32
 0
VERTEX
 8
GBM1
 10
0.3569
 20
3.3311
 30
5.4862
 70
32
 0
VERTEX
 8
GBM1
 10
0.3953
 20
3.2654
 30
5.4862
 70
32
 0
VERTEX
 8
GBM1
 10
0.4395
 20
3.205
 30
5.4862
 70
32
 0
VERTEX
 8
GBM1
 10
0.4889
 20
3.1497
 30
5.4862
 70
32
 0
VERTEX
 8
GBM1
 10
0.5435
 20
3.0992
 30
5.4862
 70
32
 0
VERTEX
 8
GBM1
 10
0.634
 20
3.0317
 30
5.4862
 70
32
 0
VERTEX
 8
GBM1
 10
0.734
 20
2.9734
 30
5.4862
 70
32
 0
VERTEX
 8
GBM1
 10
0.8804
 20
2.9082
 30
5.4862
 70
32
 0
VERTEX
 8
GBM1
 10
1.0807
 20
2.8436
 30
5.4862
 70
32
 0
VERTEX
 8
GBM1
 10
1.4745
 20
2.7616
 30
5.4862
 70
32
 0
VERTEX
 8
GBM1
 10
1.9323
 20
2.6948
 30
5.4862
 70
32
 0
VERTEX
 8
GBM1
 10
1.5957
 20
1.9282
 30
5.4862
 70
32
 0
VERTEX
 8
GBM1
 10
1.5412
 20
1.7333
 30
5.4862
 70
32
 0
VERTEX
 8
GBM1
 10
1.5115
 20
1.5595
 30
5.4862
 70
32
 0
VERTEX
 8
GBM1
 10
1.5038
 20
1.47
 30
5.4862
 70
32
 0
VERTEX
 8
GBM1
 10
1.5019
 20
1.3478
 30
5.4862
 70
32
 0
VERTEX
 8
GBM1
 10
1.5116
 20
1.2277
 30
5.4862
 70
32
 0
VERTEX
 8
GBM1
 10
1.5343
 20
1.1101
 30
5.4862
 70
32
 0
VERTEX
 8
GBM1
 10
1.5692
 20
0.9961
 30
5.4862
 70
32
 0
VERTEX
 8
GBM1
 10
1.6158
 20
0.887
 30
5.4862
 70
32
 0
VERTEX
 8
GBM1
 10
1.6736
 20
0.7839
 30
5.4862
 70
32
 0
VERTEX
 8
GBM1
 10
1.7419
 20
0.688
 30
5.4862
 70
32
 0
VERTEX
 8
GBM1
 10
1.8203
 20
0.6004
 30
5.4862
 70
32
 0
VERTEX
 8
GBM1
 10
1.908
 20
0.5223
 30
5.4862
 70
32
 0
VERTEX
 8
GBM1
 10
1.9797
 20
0.4707
 30
5.4862
 70
32
 0
VERTEX
 8
GBM1
 10
2.0561
 20
0.4256
 30
5.4862
 70
32
 0
VERTEX
 8
GBM1
 10
2.1371
 20
0.3876
 30
5.4862
 70
32
 0
VERTEX
 8
GBM1
 10
2.2223
 20
0.357
 30
5.4862
 70
32
 0
VERTEX
 8
GBM1
 10
2.3115
 20
0.3344
 30
5.4862
 70
32
 0
SEQEND
 0
ENDSEC
 0
EOF
