 0
SECTION
 2
HEADER
 9
$ACADVER
 1
AC1009
 0
ENDSEC
 0
SECTION
 2
TABLES
 0
TABLE
 2
LTYPE
 70
1
 0
LTYPE
 2
CONTINUOUS
 70
64
 3
solid line
 72
65
 73
0
 40
0.0
 0
ENDTAB
 0
TABLE
 2
LAYER
 70
6
 0
LAYER
 2
0
 70
0
 62
7
 6
CONTINUOUS
 0
LAYER
 2
GBM2
 70
64
 62
7
 6
CONTINUOUS
 0
ENDTAB
 0
ENDSEC
 0
SECTION
 2
BLOCKS
 0
ENDSEC
 0
SECTION
 2
ENTITIES
 0
POLYLINE
 8
GBM2
 66
1
 10
0.0
 20
0.0
 30
0.0
 70
9
 0
VERTEX
 8
GBM2
 10
0.7318
 20
0.8591
 30
5.5658
 70
32
 0
VERTEX
 8
GBM2
 10
0.8808
 20
0.7125
 30
5.5658
 70
32
 0
VERTEX
 8
GBM2
 10
1.0296
 20
0.5874
 30
5.5658
 70
32
 0
VERTEX
 8
GBM2
 10
1.1918
 20
0.4658
 30
5.5658
 70
32
 0
VERTEX
 8
GBM2
 10
1.2544
 20
0.426
 30
5.5658
 70
32
 0
VERTEX
 8
GBM2
 10
1.3231
 20
0.3914
 30
5.5658
 70
32
 0
VERTEX
 8
GBM2
 10
1.4233
 20
0.3527
 30
5.5658
 70
32
 0
VERTEX
 8
GBM2
 10
1.5604
 20
0.3153
 30
5.5658
 70
32
 0
VERTEX
 8
GBM2
 10
1.7389
 20
0.2848
 30
5.5658
 70
32
 0
VERTEX
 8
GBM2
 10
2.0261
 20
0.263
 30
5.5658
 70
32
 0
VERTEX
 8
GBM2
 10
2.3563
 20
0.2636
 30
5.5658
 70
32
 0
VERTEX
 8
GBM2
 10
2.6784
 20
0.2792
 30
5.5658
 70
32
 0
VERTEX
 8
GBM2
 10
2.8299
 20
0.296
 30
5.5658
 70
32
 0
VERTEX
 8
GBM2
 10
2.9693
 20
0.3262
 30
5.5658
 70
32
 0
VERTEX
 8
GBM2
 10
3.0975
 20
0.3686
 30
5.5658
 70
32
 0
VERTEX
 8
GBM2
 10
3.2152
 20
0.4221
 30
5.5658
 70
32
 0
VERTEX
 8
GBM2
 10
3.3234
 20
0.4856
 30
5.5658
 70
32
 0
VERTEX
 8
GBM2
 10
3.4229
 20
0.5578
 30
5.5658
 70
32
 0
VERTEX
 8
GBM2
 10
3.5321
 20
0.6546
 30
5.5658
 70
32
 0
VERTEX
 8
GBM2
 10
3.6473
 20
0.7789
 30
5.5658
 70
32
 0
VERTEX
 8
GBM2
 10
3.7516
 20
0.9125
 30
5.5658
 70
32
 0
VERTEX
 8
GBM2
 10
3.9131
 20
1.1826
 30
5.5658
 70
32
 0
VERTEX
 8
GBM2
 10
4.0583
 20
1.4591
 30
5.5658
 70
32
 0
VERTEX
 8
GBM2
 10
4.3783
 20
1.9991
 30
5.5658
 70
32
 0
VERTEX
 8
GBM2
 10
4.5282
 20
1.7178
 30
5.5658
 70
32
 0
VERTEX
 8
GBM2
 10
4.6849
 20
1.4591
 30
5.5658
 70
32
 0
VERTEX
 8
GBM2
 10
4.9916
 20
0.9125
 30
5.5658
 70
32
 0
VERTEX
 8
GBM2
 10
5.1255
 20
0.7398
 30
5.5658
 70
32
 0
VERTEX
 8
GBM2
 10
5.2429
 20
0.6168
 30
5.5658
 70
32
 0
VERTEX
 8
GBM2
 10
5.3546
 20
0.5217
 30
5.5658
 70
32
 0
VERTEX
 8
GBM2
 10
5.4564
 20
0.4514
 30
5.5658
 70
32
 0
VERTEX
 8
GBM2
 10
5.5671
 20
0.3904
 30
5.5658
 70
32
 0
VERTEX
 8
GBM2
 10
5.6875
 20
0.3399
 30
5.5658
 70
32
 0
VERTEX
 8
GBM2
 10
5.8184
 20
0.301
 30
5.5658
 70
32
 0
VERTEX
 8
GBM2
 10
5.9311
 20
0.279
 30
5.5658
 70
32
 0
VERTEX
 8
GBM2
 10
6.0515
 20
0.2658
 30
5.5658
 70
32
 0
VERTEX
 8
GBM2
 10
6.4539
 20
0.2482
 30
5.5658
 70
32
 0
VERTEX
 8
GBM2
 10
6.8581
 20
0.2592
 30
5.5658
 70
32
 0
VERTEX
 8
GBM2
 10
7.1748
 20
0.2929
 30
5.5658
 70
32
 0
VERTEX
 8
GBM2
 10
7.2991
 20
0.3191
 30
5.5658
 70
32
 0
VERTEX
 8
GBM2
 10
7.3901
 20
0.3477
 30
5.5658
 70
32
 0
VERTEX
 8
GBM2
 10
7.4639
 20
0.3793
 30
5.5658
 70
32
 0
VERTEX
 8
GBM2
 10
7.4993
 20
0.3979
 30
5.5658
 70
32
 0
VERTEX
 8
GBM2
 10
7.5447
 20
0.4258
 30
5.5658
 70
32
 0
VERTEX
 8
GBM2
 10
7.7061
 20
0.5459
 30
5.5658
 70
32
 0
VERTEX
 8
GBM2
 10
7.8532
 20
0.6734
 30
5.5658
 70
32
 0
VERTEX
 8
GBM2
 10
8.0047
 20
0.8191
 30
5.5658
 70
32
 0
VERTEX
 8
GBM2
 10
8.0858
 20
0.9076
 30
5.5658
 70
32
 0
VERTEX
 8
GBM2
 10
8.1542
 20
0.9973
 30
5.5658
 70
32
 0
VERTEX
 8
GBM2
 10
8.2088
 20
1.0841
 30
5.5658
 70
32
 0
VERTEX
 8
GBM2
 10
8.2498
 20
1.1652
 30
5.5658
 70
32
 0
VERTEX
 8
GBM2
 10
8.2787
 20
1.2381
 30
5.5658
 70
32
 0
VERTEX
 8
GBM2
 10
8.2977
 20
1.301
 30
5.5658
 70
32
 0
VERTEX
 8
GBM2
 10
8.3113
 20
1.3658
 30
5.5658
 70
32
 0
VERTEX
 8
GBM2
 10
8.325
 20
1.4801
 30
5.5658
 70
32
 0
VERTEX
 8
GBM2
 10
8.3277
 20
1.5888
 30
5.5658
 70
32
 0
VERTEX
 8
GBM2
 10
8.3198
 20
1.6915
 30
5.5658
 70
32
 0
VERTEX
 8
GBM2
 10
8.302
 20
1.7878
 30
5.5658
 70
32
 0
VERTEX
 8
GBM2
 10
8.2748
 20
1.8775
 30
5.5658
 70
32
 0
VERTEX
 8
GBM2
 10
8.2485
 20
1.9402
 30
5.5658
 70
32
 0
VERTEX
 8
GBM2
 10
8.2174
 20
1.9988
 30
5.5658
 70
32
 0
VERTEX
 8
GBM2
 10
8.1818
 20
2.0533
 30
5.5658
 70
32
 0
VERTEX
 8
GBM2
 10
8.1419
 20
2.1034
 30
5.5658
 70
32
 0
VERTEX
 8
GBM2
 10
8.0979
 20
2.1491
 30
5.5658
 70
32
 0
VERTEX
 8
GBM2
 10
8.0501
 20
2.1902
 30
5.5658
 70
32
 0
VERTEX
 8
GBM2
 10
7.9986
 20
2.2265
 30
5.5658
 70
32
 0
VERTEX
 8
GBM2
 10
7.9437
 20
2.2579
 30
5.5658
 70
32
 0
VERTEX
 8
GBM2
 10
7.8857
 20
2.2844
 30
5.5658
 70
32
 0
VERTEX
 8
GBM2
 10
7.8247
 20
2.3057
 30
5.5658
 70
32
 0
VERTEX
 8
GBM2
 10
7.767
 20
2.3196
 30
5.5658
 70
32
 0
VERTEX
 8
GBM2
 10
7.7118
 20
2.3265
 30
5.5658
 70
32
 0
VERTEX
 8
GBM2
 10
7.6585
 20
2.3278
 30
5.5658
 70
32
 0
VERTEX
 8
GBM2
 10
7.5939
 20
2.3234
 30
5.5658
 70
32
 0
VERTEX
 8
GBM2
 10
7.2972
 20
2.2844
 30
5.5658
 70
32
 0
VERTEX
 8
GBM2
 10
7.241
 20
2.2858
 30
5.5658
 70
32
 0
VERTEX
 8
GBM2
 10
7.1971
 20
2.2906
 30
5.5658
 70
32
 0
VERTEX
 8
GBM2
 10
7.1514
 20
2.2991
 30
5.5658
 70
32
 0
VERTEX
 8
GBM2
 10
7.1406
 20
2.3021
 30
5.5658
 70
32
 0
VERTEX
 8
GBM2
 10
7.1242
 20
2.3088
 30
5.5658
 70
32
 0
VERTEX
 8
GBM2
 10
7.1075
 20
2.318
 30
5.5658
 70
32
 0
VERTEX
 8
GBM2
 10
7.085
 20
2.3335
 30
5.5658
 70
32
 0
VERTEX
 8
GBM2
 10
7.0569
 20
2.3573
 30
5.5658
 70
32
 0
VERTEX
 8
GBM2
 10
7.0181
 20
2.397
 30
5.5658
 70
32
 0
VERTEX
 8
GBM2
 10
6.9516
 20
2.4804
 30
5.5658
 70
32
 0
VERTEX
 8
GBM2
 10
6.8981
 20
2.559
 30
5.5658
 70
32
 0
VERTEX
 8
GBM2
 10
6.6279
 20
3.0396
 30
5.5658
 70
32
 0
VERTEX
 8
GBM2
 10
6.3781
 20
3.519
 30
5.5658
 70
32
 0
VERTEX
 8
GBM2
 10
6.1254
 20
4.0081
 30
5.5658
 70
32
 0
VERTEX
 8
GBM2
 10
5.9048
 20
4.5256
 30
5.5658
 70
32
 0
VERTEX
 8
GBM2
 10
5.8196
 20
4.7476
 30
5.5658
 70
32
 0
VERTEX
 8
GBM2
 10
5.8094
 20
4.7924
 30
5.5658
 70
32
 0
VERTEX
 8
GBM2
 10
5.8044
 20
4.8303
 30
5.5658
 70
32
 0
VERTEX
 8
GBM2
 10
5.8032
 20
4.8611
 30
5.5658
 70
32
 0
VERTEX
 8
GBM2
 10
5.8048
 20
4.8922
 30
5.5658
 70
32
 0
VERTEX
 8
GBM2
 10
6.5515
 20
4.7922
 30
5.5658
 70
32
 0
VERTEX
 8
GBM2
 10
6.9174
 20
4.7227
 30
5.5658
 70
32
 0
VERTEX
 8
GBM2
 10
7.2847
 20
4.6722
 30
5.5658
 70
32
 0
VERTEX
 8
GBM2
 10
7.4391
 20
4.6756
 30
5.5658
 70
32
 0
VERTEX
 8
GBM2
 10
7.5569
 20
4.689
 30
5.5658
 70
32
 0
VERTEX
 8
GBM2
 10
7.655
 20
4.7092
 30
5.5658
 70
32
 0
VERTEX
 8
GBM2
 10
7.7479
 20
4.7377
 30
5.5658
 70
32
 0
VERTEX
 8
GBM2
 10
7.8228
 20
4.769
 30
5.5658
 70
32
 0
VERTEX
 8
GBM2
 10
7.893
 20
4.8071
 30
5.5658
 70
32
 0
VERTEX
 8
GBM2
 10
7.9262
 20
4.8288
 30
5.5658
 70
32
 0
VERTEX
 8
GBM2
 10
7.958
 20
4.8522
 30
5.5658
 70
32
 0
VERTEX
 8
GBM2
 10
8.0855
 20
4.9621
 30
5.5658
 70
32
 0
VERTEX
 8
GBM2
 10
8.1709
 20
5.0515
 30
5.5658
 70
32
 0
VERTEX
 8
GBM2
 10
8.2468
 20
5.1485
 30
5.5658
 70
32
 0
VERTEX
 8
GBM2
 10
8.3025
 20
5.236
 30
5.5658
 70
32
 0
VERTEX
 8
GBM2
 10
8.3508
 20
5.3304
 30
5.5658
 70
32
 0
VERTEX
 8
GBM2
 10
8.3915
 20
5.4325
 30
5.5658
 70
32
 0
VERTEX
 8
GBM2
 10
8.4243
 20
5.5429
 30
5.5658
 70
32
 0
VERTEX
 8
GBM2
 10
8.4488
 20
5.6626
 30
5.5658
 70
32
 0
VERTEX
 8
GBM2
 10
8.4647
 20
5.7922
 30
5.5658
 70
32
 0
VERTEX
 8
GBM2
 10
8.481
 20
6.0984
 30
5.5658
 70
32
 0
VERTEX
 8
GBM2
 10
8.4755
 20
6.2099
 30
5.5658
 70
32
 0
VERTEX
 8
GBM2
 10
8.4671
 20
6.2741
 30
5.5658
 70
32
 0
VERTEX
 8
GBM2
 10
8.4513
 20
6.3455
 30
5.5658
 70
32
 0
VERTEX
 8
GBM2
 10
8.4394
 20
6.3812
 30
5.5658
 70
32
 0
VERTEX
 8
GBM2
 10
8.4181
 20
6.4279
 30
5.5658
 70
32
 0
VERTEX
 8
GBM2
 10
8.3912
 20
6.4733
 30
5.5658
 70
32
 0
VERTEX
 8
GBM2
 10
8.3509
 20
6.5281
 30
5.5658
 70
32
 0
VERTEX
 8
GBM2
 10
8.2943
 20
6.5905
 30
5.5658
 70
32
 0
VERTEX
 8
GBM2
 10
8.22
 20
6.658
 30
5.5658
 70
32
 0
VERTEX
 8
GBM2
 10
8.1167
 20
6.7352
 30
5.5658
 70
32
 0
VERTEX
 8
GBM2
 10
8.0465
 20
6.78
 30
5.5658
 70
32
 0
VERTEX
 8
GBM2
 10
7.978
 20
6.8188
 30
5.5658
 70
32
 0
VERTEX
 8
GBM2
 10
7.8694
 20
6.87
 30
5.5658
 70
32
 0
VERTEX
 8
GBM2
 10
7.7282
 20
6.921
 30
5.5658
 70
32
 0
VERTEX
 8
GBM2
 10
7.5242
 20
6.9737
 30
5.5658
 70
32
 0
VERTEX
 8
GBM2
 10
7.3114
 20
7.0121
 30
5.5658
 70
32
 0
VERTEX
 8
GBM2
 10
6.5326
 20
7.099
 30
5.5658
 70
32
 0
VERTEX
 8
GBM2
 10
5.7248
 20
7.1454
 30
5.5658
 70
32
 0
VERTEX
 8
GBM2
 10
5.7452
 20
7.1757
 30
5.5658
 70
32
 0
VERTEX
 8
GBM2
 10
5.8181
 20
7.2589
 30
5.5658
 70
32
 0
VERTEX
 8
GBM2
 10
5.8982
 20
7.3454
 30
5.5658
 70
32
 0
VERTEX
 8
GBM2
 10
6.0279
 20
7.5186
 30
5.5658
 70
32
 0
VERTEX
 8
GBM2
 10
6.135
 20
7.6933
 30
5.5658
 70
32
 0
VERTEX
 8
GBM2
 10
6.2198
 20
7.8665
 30
5.5658
 70
32
 0
VERTEX
 8
GBM2
 10
6.2658
 20
7.9833
 30
5.5658
 70
32
 0
VERTEX
 8
GBM2
 10
6.3048
 20
8.1053
 30
5.5658
 70
32
 0
VERTEX
 8
GBM2
 10
6.3471
 20
8.288
 30
5.5658
 70
32
 0
VERTEX
 8
GBM2
 10
6.3758
 20
8.506
 30
5.5658
 70
32
 0
VERTEX
 8
GBM2
 10
6.384
 20
8.729
 30
5.5658
 70
32
 0
VERTEX
 8
GBM2
 10
6.372
 20
8.9521
 30
5.5658
 70
32
 0
VERTEX
 8
GBM2
 10
6.3402
 20
9.17
 30
5.5658
 70
32
 0
VERTEX
 8
GBM2
 10
6.3104
 20
9.3013
 30
5.5658
 70
32
 0
VERTEX
 8
GBM2
 10
6.2648
 20
9.4519
 30
5.5658
 70
32
 0
VERTEX
 8
GBM2
 10
6.1957
 20
9.624
 30
5.5658
 70
32
 0
VERTEX
 8
GBM2
 10
6.1127
 20
9.7855
 30
5.5658
 70
32
 0
VERTEX
 8
GBM2
 10
6.0164
 20
9.9366
 30
5.5658
 70
32
 0
VERTEX
 8
GBM2
 10
5.9073
 20
10.0776
 30
5.5658
 70
32
 0
VERTEX
 8
GBM2
 10
5.77
 20
10.2243
 30
5.5658
 70
32
 0
VERTEX
 8
GBM2
 10
5.6182
 20
10.3585
 30
5.5658
 70
32
 0
VERTEX
 8
GBM2
 10
5.4708
 20
10.4662
 30
5.5658
 70
32
 0
VERTEX
 8
GBM2
 10
5.3294
 20
10.5509
 30
5.5658
 70
32
 0
VERTEX
 8
GBM2
 10
5.1768
 20
10.6244
 30
5.5658
 70
32
 0
VERTEX
 8
GBM2
 10
5.0136
 20
10.6847
 30
5.5658
 70
32
 0
VERTEX
 8
GBM2
 10
4.8656
 20
10.7243
 30
5.5658
 70
32
 0
VERTEX
 8
GBM2
 10
4.7105
 20
10.7512
 30
5.5658
 70
32
 0
VERTEX
 8
GBM2
 10
4.6032
 20
10.7616
 30
5.5658
 70
32
 0
VERTEX
 8
GBM2
 10
4.4649
 20
10.7652
 30
5.5658
 70
32
 0
VERTEX
 8
GBM2
 10
4.307
 20
10.756
 30
5.5658
 70
32
 0
VERTEX
 8
GBM2
 10
4.1434
 20
10.7313
 30
5.5658
 70
32
 0
VERTEX
 8
GBM2
 10
3.9772
 20
10.6899
 30
5.5658
 70
32
 0
VERTEX
 8
GBM2
 10
3.8116
 20
10.6318
 30
5.5658
 70
32
 0
VERTEX
 8
GBM2
 10
3.6569
 20
10.5611
 30
5.5658
 70
32
 0
VERTEX
 8
GBM2
 10
3.5113
 20
10.4777
 30
5.5658
 70
32
 0
VERTEX
 8
GBM2
 10
3.375
 20
10.3824
 30
5.5658
 70
32
 0
VERTEX
 8
GBM2
 10
3.2483
 20
10.2759
 30
5.5658
 70
32
 0
VERTEX
 8
GBM2
 10
3.1093
 20
10.1341
 30
5.5658
 70
32
 0
VERTEX
 8
GBM2
 10
2.9851
 20
9.9783
 30
5.5658
 70
32
 0
VERTEX
 8
GBM2
 10
2.876
 20
9.8097
 30
5.5658
 70
32
 0
VERTEX
 8
GBM2
 10
2.7825
 20
9.6294
 30
5.5658
 70
32
 0
VERTEX
 8
GBM2
 10
2.705
 20
9.4386
 30
5.5658
 70
32
 0
VERTEX
 8
GBM2
 10
2.6525
 20
9.2646
 30
5.5658
 70
32
 0
VERTEX
 8
GBM2
 10
2.6105
 20
9.0566
 30
5.5658
 70
32
 0
VERTEX
 8
GBM2
 10
2.5884
 20
8.8424
 30
5.5658
 70
32
 0
VERTEX
 8
GBM2
 10
2.5864
 20
8.626
 30
5.5658
 70
32
 0
VERTEX
 8
GBM2
 10
2.6051
 20
8.4111
 30
5.5658
 70
32
 0
VERTEX
 8
GBM2
 10
2.6273
 20
8.2794
 30
5.5658
 70
32
 0
VERTEX
 8
GBM2
 10
2.665
 20
8.1253
 30
5.5658
 70
32
 0
VERTEX
 8
GBM2
 10
2.7312
 20
7.9307
 30
5.5658
 70
32
 0
VERTEX
 8
GBM2
 10
2.8116
 20
7.7514
 30
5.5658
 70
32
 0
VERTEX
 8
GBM2
 10
2.9048
 20
7.5862
 30
5.5658
 70
32
 0
VERTEX
 8
GBM2
 10
3.0217
 20
7.4175
 30
5.5658
 70
32
 0
VERTEX
 8
GBM2
 10
3.0978
 20
7.3231
 30
5.5658
 70
32
 0
VERTEX
 8
GBM2
 10
3.1917
 20
7.2187
 30
5.5658
 70
32
 0
VERTEX
 8
GBM2
 10
3.2136
 20
7.197
 30
5.5658
 70
32
 0
VERTEX
 8
GBM2
 10
3.2165
 20
7.1929
 30
5.5658
 70
32
 0
VERTEX
 8
GBM2
 10
3.2182
 20
7.1897
 30
5.5658
 70
32
 0
VERTEX
 8
GBM2
 10
3.2195
 20
7.1865
 30
5.5658
 70
32
 0
VERTEX
 8
GBM2
 10
3.2201
 20
7.1843
 30
5.5658
 70
32
 0
VERTEX
 8
GBM2
 10
3.2204
 20
7.1821
 30
5.5658
 70
32
 0
VERTEX
 8
GBM2
 10
3.2205
 20
7.1799
 30
5.5658
 70
32
 0
VERTEX
 8
GBM2
 10
3.2203
 20
7.1777
 30
5.5658
 70
32
 0
VERTEX
 8
GBM2
 10
3.2198
 20
7.1754
 30
5.5658
 70
32
 0
VERTEX
 8
GBM2
 10
3.2194
 20
7.1743
 30
5.5658
 70
32
 0
VERTEX
 8
GBM2
 10
3.2183
 20
7.1721
 30
5.5658
 70
32
 0
VERTEX
 8
GBM2
 10
2.3629
 20
7.1304
 30
5.5658
 70
32
 0
VERTEX
 8
GBM2
 10
1.5384
 20
7.0454
 30
5.5658
 70
32
 0
VERTEX
 8
GBM2
 10
1.1759
 20
6.9801
 30
5.5658
 70
32
 0
VERTEX
 8
GBM2
 10
0.9915
 20
6.9281
 30
5.5658
 70
32
 0
VERTEX
 8
GBM2
 10
0.9101
 20
6.8985
 30
5.5658
 70
32
 0
VERTEX
 8
GBM2
 10
0.8185
 20
6.8588
 30
5.5658
 70
32
 0
VERTEX
 8
GBM2
 10
0.7202
 20
6.806
 30
5.5658
 70
32
 0
VERTEX
 8
GBM2
 10
0.6061
 20
6.7309
 30
5.5658
 70
32
 0
VERTEX
 8
GBM2
 10
0.5074
 20
6.6523
 30
5.5658
 70
32
 0
VERTEX
 8
GBM2
 10
0.4384
 20
6.5864
 30
5.5658
 70
32
 0
VERTEX
 8
GBM2
 10
0.3878
 20
6.5278
 30
5.5658
 70
32
 0
VERTEX
 8
GBM2
 10
0.3596
 20
6.4882
 30
5.5658
 70
32
 0
VERTEX
 8
GBM2
 10
0.3319
 20
6.4388
 30
5.5658
 70
32
 0
VERTEX
 8
GBM2
 10
0.3186
 20
6.407
 30
5.5658
 70
32
 0
VERTEX
 8
GBM2
 10
0.3043
 20
6.3609
 30
5.5658
 70
32
 0
VERTEX
 8
GBM2
 10
0.2913
 20
6.2981
 30
5.5658
 70
32
 0
VERTEX
 8
GBM2
 10
0.2809
 20
6.2029
 30
5.5658
 70
32
 0
VERTEX
 8
GBM2
 10
0.2813
 20
5.9868
 30
5.5658
 70
32
 0
VERTEX
 8
GBM2
 10
0.2985
 20
5.7722
 30
5.5658
 70
32
 0
VERTEX
 8
GBM2
 10
0.318
 20
5.6341
 30
5.5658
 70
32
 0
VERTEX
 8
GBM2
 10
0.346
 20
5.5146
 30
5.5658
 70
32
 0
VERTEX
 8
GBM2
 10
0.3771
 20
5.4204
 30
5.5658
 70
32
 0
VERTEX
 8
GBM2
 10
0.4185
 20
5.3255
 30
5.5658
 70
32
 0
VERTEX
 8
GBM2
 10
0.4744
 20
5.2255
 30
5.5658
 70
32
 0
VERTEX
 8
GBM2
 10
0.5399
 20
5.1294
 30
5.5658
 70
32
 0
VERTEX
 8
GBM2
 10
0.6142
 20
5.0391
 30
5.5658
 70
32
 0
VERTEX
 8
GBM2
 10
0.6961
 20
4.9563
 30
5.5658
 70
32
 0
VERTEX
 8
GBM2
 10
0.7716
 20
4.8927
 30
5.5658
 70
32
 0
VERTEX
 8
GBM2
 10
0.8513
 20
4.8371
 30
5.5658
 70
32
 0
VERTEX
 8
GBM2
 10
0.9205
 20
4.7978
 30
5.5658
 70
32
 0
VERTEX
 8
GBM2
 10
0.9918
 20
4.7656
 30
5.5658
 70
32
 0
VERTEX
 8
GBM2
 10
1.069
 20
4.739
 30
5.5658
 70
32
 0
VERTEX
 8
GBM2
 10
1.1665
 20
4.7154
 30
5.5658
 70
32
 0
VERTEX
 8
GBM2
 10
1.2649
 20
4.7015
 30
5.5658
 70
32
 0
VERTEX
 8
GBM2
 10
1.3837
 20
4.6957
 30
5.5658
 70
32
 0
VERTEX
 8
GBM2
 10
1.5425
 20
4.703
 30
5.5658
 70
32
 0
VERTEX
 8
GBM2
 10
1.7595
 20
4.7325
 30
5.5658
 70
32
 0
VERTEX
 8
GBM2
 10
1.9718
 20
4.7722
 30
5.5658
 70
32
 0
VERTEX
 8
GBM2
 10
2.4651
 20
4.8455
 30
5.5658
 70
32
 0
VERTEX
 8
GBM2
 10
2.9584
 20
4.9055
 30
5.5658
 70
32
 0
VERTEX
 8
GBM2
 10
2.9562
 20
4.8663
 30
5.5658
 70
32
 0
VERTEX
 8
GBM2
 10
2.9496
 20
4.8203
 30
5.5658
 70
32
 0
VERTEX
 8
GBM2
 10
2.935
 20
4.7605
 30
5.5658
 70
32
 0
VERTEX
 8
GBM2
 10
2.8965
 20
4.652
 30
5.5658
 70
32
 0
VERTEX
 8
GBM2
 10
2.8517
 20
4.5389
 30
5.5658
 70
32
 0
VERTEX
 8
GBM2
 10
2.6287
 20
4.0193
 30
5.5658
 70
32
 0
VERTEX
 8
GBM2
 10
2.3784
 20
3.5323
 30
5.5658
 70
32
 0
VERTEX
 8
GBM2
 10
1.8584
 20
2.579
 30
5.5658
 70
32
 0
VERTEX
 8
GBM2
 10
1.7876
 20
2.4755
 30
5.5658
 70
32
 0
VERTEX
 8
GBM2
 10
1.7393
 20
2.4169
 30
5.5658
 70
32
 0
VERTEX
 8
GBM2
 10
1.7035
 20
2.3808
 30
5.5658
 70
32
 0
VERTEX
 8
GBM2
 10
1.6772
 20
2.3589
 30
5.5658
 70
32
 0
VERTEX
 8
GBM2
 10
1.6559
 20
2.3442
 30
5.5658
 70
32
 0
VERTEX
 8
GBM2
 10
1.6399
 20
2.335
 30
5.5658
 70
32
 0
VERTEX
 8
GBM2
 10
1.6184
 20
2.3257
 30
5.5658
 70
32
 0
VERTEX
 8
GBM2
 10
1.5825
 20
2.3151
 30
5.5658
 70
32
 0
VERTEX
 8
GBM2
 10
1.5458
 20
2.3082
 30
5.5658
 70
32
 0
VERTEX
 8
GBM2
 10
1.496
 20
2.3038
 30
5.5658
 70
32
 0
VERTEX
 8
GBM2
 10
1.4327
 20
2.3049
 30
5.5658
 70
32
 0
VERTEX
 8
GBM2
 10
1.3304
 20
2.3166
 30
5.5658
 70
32
 0
VERTEX
 8
GBM2
 10
1.0951
 20
2.3499
 30
5.5658
 70
32
 0
VERTEX
 8
GBM2
 10
1.0492
 20
2.3502
 30
5.5658
 70
32
 0
VERTEX
 8
GBM2
 10
1.0269
 20
2.3486
 30
5.5658
 70
32
 0
VERTEX
 8
GBM2
 10
1.0051
 20
2.3457
 30
5.5658
 70
32
 0
VERTEX
 8
GBM2
 10
0.9478
 20
2.3333
 30
5.5658
 70
32
 0
VERTEX
 8
GBM2
 10
0.8943
 20
2.3162
 30
5.5658
 70
32
 0
VERTEX
 8
GBM2
 10
0.8446
 20
2.2952
 30
5.5658
 70
32
 0
VERTEX
 8
GBM2
 10
0.7919
 20
2.267
 30
5.5658
 70
32
 0
VERTEX
 8
GBM2
 10
0.7317
 20
2.227
 30
5.5658
 70
32
 0
VERTEX
 8
GBM2
 10
0.6718
 20
2.1791
 30
5.5658
 70
32
 0
VERTEX
 8
GBM2
 10
0.6315
 20
2.1407
 30
5.5658
 70
32
 0
VERTEX
 8
GBM2
 10
0.5942
 20
2.0983
 30
5.5658
 70
32
 0
VERTEX
 8
GBM2
 10
0.5603
 20
2.0519
 30
5.5658
 70
32
 0
VERTEX
 8
GBM2
 10
0.5227
 20
1.9884
 30
5.5658
 70
32
 0
VERTEX
 8
GBM2
 10
0.491
 20
1.9187
 30
5.5658
 70
32
 0
VERTEX
 8
GBM2
 10
0.4656
 20
1.843
 30
5.5658
 70
32
 0
VERTEX
 8
GBM2
 10
0.4466
 20
1.7614
 30
5.5658
 70
32
 0
VERTEX
 8
GBM2
 10
0.4346
 20
1.6738
 30
5.5658
 70
32
 0
VERTEX
 8
GBM2
 10
0.4299
 20
1.5611
 30
5.5658
 70
32
 0
VERTEX
 8
GBM2
 10
0.4317
 20
1.5016
 30
5.5658
 70
32
 0
VERTEX
 8
GBM2
 10
0.4385
 20
1.4191
 30
5.5658
 70
32
 0
VERTEX
 8
GBM2
 10
0.4493
 20
1.3533
 30
5.5658
 70
32
 0
VERTEX
 8
GBM2
 10
0.4663
 20
1.2891
 30
5.5658
 70
32
 0
VERTEX
 8
GBM2
 10
0.4937
 20
1.2145
 30
5.5658
 70
32
 0
VERTEX
 8
GBM2
 10
0.5337
 20
1.1311
 30
5.5658
 70
32
 0
VERTEX
 8
GBM2
 10
0.5875
 20
1.0416
 30
5.5658
 70
32
 0
VERTEX
 8
GBM2
 10
0.6545
 20
0.9494
 30
5.5658
 70
32
 0
SEQEND
 0
ENDSEC
 0
EOF
