 0
SECTION
 2
HEADER
 9
$ACADVER
 1
AC1009
 0
ENDSEC
 0
SECTION
 2
TABLES
 0
TABLE
 2
LTYPE
 70
1
 0
LTYPE
 2
CONTINUOUS
 70
64
 3
solid line
 72
65
 73
0
 40
0.0
 0
ENDTAB
 0
TABLE
 2
LAYER
 70
6
 0
LAYER
 2
0
 70
0
 62
7
 6
CONTINUOUS
 0
LAYER
 2
GBM3
 70
64
 62
7
 6
CONTINUOUS
 0
ENDTAB
 0
ENDSEC
 0
SECTION
 2
BLOCKS
 0
ENDSEC
 0
SECTION
 2
ENTITIES
 0
POLYLINE
 8
GBM3
 66
1
 10
0.0
 20
0.0
 30
0.0
 70
9
 0
VERTEX
 8
GBM3
 10
1.0431
 20
0.7692
 30
5.4927
 70
32
 0
VERTEX
 8
GBM3
 10
1.0264
 20
0.7141
 30
5.4927
 70
32
 0
VERTEX
 8
GBM3
 10
1.017
 20
0.6624
 30
5.4927
 70
32
 0
VERTEX
 8
GBM3
 10
1.0145
 20
0.6143
 30
5.4927
 70
32
 0
VERTEX
 8
GBM3
 10
1.0186
 20
0.5695
 30
5.4927
 70
32
 0
VERTEX
 8
GBM3
 10
1.0289
 20
0.5279
 30
5.4927
 70
32
 0
VERTEX
 8
GBM3
 10
1.045
 20
0.4895
 30
5.4927
 70
32
 0
VERTEX
 8
GBM3
 10
1.0665
 20
0.4542
 30
5.4927
 70
32
 0
VERTEX
 8
GBM3
 10
1.093
 20
0.4217
 30
5.4927
 70
32
 0
VERTEX
 8
GBM3
 10
1.1241
 20
0.3922
 30
5.4927
 70
32
 0
VERTEX
 8
GBM3
 10
1.1594
 20
0.3654
 30
5.4927
 70
32
 0
VERTEX
 8
GBM3
 10
1.1986
 20
0.3413
 30
5.4927
 70
32
 0
VERTEX
 8
GBM3
 10
1.2637
 20
0.3098
 30
5.4927
 70
32
 0
VERTEX
 8
GBM3
 10
1.3353
 20
0.2838
 30
5.4927
 70
32
 0
VERTEX
 8
GBM3
 10
1.4385
 20
0.257
 30
5.4927
 70
32
 0
VERTEX
 8
GBM3
 10
1.5755
 20
0.2351
 30
5.4927
 70
32
 0
VERTEX
 8
GBM3
 10
1.7438
 20
0.2237
 30
5.4927
 70
32
 0
VERTEX
 8
GBM3
 10
1.932
 20
0.2276
 30
5.4927
 70
32
 0
VERTEX
 8
GBM3
 10
2.0377
 20
0.2388
 30
5.4927
 70
32
 0
VERTEX
 8
GBM3
 10
2.1073
 20
0.2531
 30
5.4927
 70
32
 0
VERTEX
 8
GBM3
 10
2.1516
 20
0.2674
 30
5.4927
 70
32
 0
VERTEX
 8
GBM3
 10
2.1896
 20
0.285
 30
5.4927
 70
32
 0
VERTEX
 8
GBM3
 10
2.2119
 20
0.2987
 30
5.4927
 70
32
 0
VERTEX
 8
GBM3
 10
2.2318
 20
0.314
 30
5.4927
 70
32
 0
VERTEX
 8
GBM3
 10
2.2495
 20
0.3309
 30
5.4927
 70
32
 0
VERTEX
 8
GBM3
 10
2.2652
 20
0.3497
 30
5.4927
 70
32
 0
VERTEX
 8
GBM3
 10
2.279
 20
0.3703
 30
5.4927
 70
32
 0
VERTEX
 8
GBM3
 10
2.2912
 20
0.3928
 30
5.4927
 70
32
 0
VERTEX
 8
GBM3
 10
2.3067
 20
0.4303
 30
5.4927
 70
32
 0
VERTEX
 8
GBM3
 10
2.3192
 20
0.4724
 30
5.4927
 70
32
 0
VERTEX
 8
GBM3
 10
2.3428
 20
0.6095
 30
5.4927
 70
32
 0
VERTEX
 8
GBM3
 10
2.3625
 20
0.8109
 30
5.4927
 70
32
 0
VERTEX
 8
GBM3
 10
2.3911
 20
1.034
 30
5.4927
 70
32
 0
VERTEX
 8
GBM3
 10
2.4134
 20
1.1313
 30
5.4927
 70
32
 0
VERTEX
 8
GBM3
 10
2.4315
 20
1.185
 30
5.4927
 70
32
 0
VERTEX
 8
GBM3
 10
2.4485
 20
1.2216
 30
5.4927
 70
32
 0
VERTEX
 8
GBM3
 10
2.4629
 20
1.2445
 30
5.4927
 70
32
 0
VERTEX
 8
GBM3
 10
2.4734
 20
1.2571
 30
5.4927
 70
32
 0
VERTEX
 8
GBM3
 10
2.4845
 20
1.2674
 30
5.4927
 70
32
 0
VERTEX
 8
GBM3
 10
2.4963
 20
1.2753
 30
5.4927
 70
32
 0
VERTEX
 8
GBM3
 10
2.5025
 20
1.2783
 30
5.4927
 70
32
 0
VERTEX
 8
GBM3
 10
2.5089
 20
1.2806
 30
5.4927
 70
32
 0
VERTEX
 8
GBM3
 10
2.5155
 20
1.2821
 30
5.4927
 70
32
 0
VERTEX
 8
GBM3
 10
2.5222
 20
1.283
 30
5.4927
 70
32
 0
VERTEX
 8
GBM3
 10
2.5292
 20
1.2831
 30
5.4927
 70
32
 0
VERTEX
 8
GBM3
 10
2.5362
 20
1.2822
 30
5.4927
 70
32
 0
VERTEX
 8
GBM3
 10
2.543
 20
1.2804
 30
5.4927
 70
32
 0
VERTEX
 8
GBM3
 10
2.5496
 20
1.2777
 30
5.4927
 70
32
 0
VERTEX
 8
GBM3
 10
2.556
 20
1.274
 30
5.4927
 70
32
 0
VERTEX
 8
GBM3
 10
2.5621
 20
1.2695
 30
5.4927
 70
32
 0
VERTEX
 8
GBM3
 10
2.5679
 20
1.2641
 30
5.4927
 70
32
 0
VERTEX
 8
GBM3
 10
2.579
 20
1.251
 30
5.4927
 70
32
 0
VERTEX
 8
GBM3
 10
2.5893
 20
1.235
 30
5.4927
 70
32
 0
VERTEX
 8
GBM3
 10
2.6031
 20
1.2062
 30
5.4927
 70
32
 0
VERTEX
 8
GBM3
 10
2.6191
 20
1.1603
 30
5.4927
 70
32
 0
VERTEX
 8
GBM3
 10
2.66
 20
0.9367
 30
5.4927
 70
32
 0
VERTEX
 8
GBM3
 10
2.6819
 20
0.7553
 30
5.4927
 70
32
 0
VERTEX
 8
GBM3
 10
2.7519
 20
0.4599
 30
5.4927
 70
32
 0
VERTEX
 8
GBM3
 10
2.7873
 20
0.357
 30
5.4927
 70
32
 0
VERTEX
 8
GBM3
 10
2.8092
 20
0.3092
 30
5.4927
 70
32
 0
VERTEX
 8
GBM3
 10
2.8277
 20
0.2779
 30
5.4927
 70
32
 0
VERTEX
 8
GBM3
 10
2.8423
 20
0.2591
 30
5.4927
 70
32
 0
VERTEX
 8
GBM3
 10
2.8523
 20
0.2492
 30
5.4927
 70
32
 0
VERTEX
 8
GBM3
 10
2.8625
 20
0.2415
 30
5.4927
 70
32
 0
VERTEX
 8
GBM3
 10
2.8766
 20
0.2336
 30
5.4927
 70
32
 0
VERTEX
 8
GBM3
 10
2.8928
 20
0.2267
 30
5.4927
 70
32
 0
VERTEX
 8
GBM3
 10
2.9204
 20
0.2181
 30
5.4927
 70
32
 0
VERTEX
 8
GBM3
 10
2.963
 20
0.2095
 30
5.4927
 70
32
 0
VERTEX
 8
GBM3
 10
3.0238
 20
0.2032
 30
5.4927
 70
32
 0
VERTEX
 8
GBM3
 10
3.1337
 20
0.2016
 30
5.4927
 70
32
 0
VERTEX
 8
GBM3
 10
3.3255
 20
0.2158
 30
5.4927
 70
32
 0
VERTEX
 8
GBM3
 10
3.5013
 20
0.2415
 30
5.4927
 70
32
 0
VERTEX
 8
GBM3
 10
3.707
 20
0.2868
 30
5.4927
 70
32
 0
VERTEX
 8
GBM3
 10
3.8092
 20
0.3204
 30
5.4927
 70
32
 0
VERTEX
 8
GBM3
 10
3.8705
 20
0.3476
 30
5.4927
 70
32
 0
VERTEX
 8
GBM3
 10
3.9067
 20
0.3682
 30
5.4927
 70
32
 0
VERTEX
 8
GBM3
 10
3.9308
 20
0.3849
 30
5.4927
 70
32
 0
VERTEX
 8
GBM3
 10
3.9519
 20
0.4029
 30
5.4927
 70
32
 0
VERTEX
 8
GBM3
 10
3.9696
 20
0.4221
 30
5.4927
 70
32
 0
VERTEX
 8
GBM3
 10
3.9794
 20
0.4356
 30
5.4927
 70
32
 0
VERTEX
 8
GBM3
 10
3.9874
 20
0.4498
 30
5.4927
 70
32
 0
VERTEX
 8
GBM3
 10
3.9957
 20
0.4689
 30
5.4927
 70
32
 0
VERTEX
 8
GBM3
 10
4.0052
 20
0.4975
 30
5.4927
 70
32
 0
VERTEX
 8
GBM3
 10
4.0144
 20
0.5376
 30
5.4927
 70
32
 0
VERTEX
 8
GBM3
 10
4.0215
 20
0.5901
 30
5.4927
 70
32
 0
VERTEX
 8
GBM3
 10
4.0245
 20
0.655
 30
5.4927
 70
32
 0
VERTEX
 8
GBM3
 10
4.0217
 20
0.7203
 30
5.4927
 70
32
 0
VERTEX
 8
GBM3
 10
4.013
 20
0.7826
 30
5.4927
 70
32
 0
VERTEX
 8
GBM3
 10
4.0032
 20
0.8235
 30
5.4927
 70
32
 0
VERTEX
 8
GBM3
 10
3.9958
 20
0.8459
 30
5.4927
 70
32
 0
VERTEX
 8
GBM3
 10
3.9874
 20
0.8664
 30
5.4927
 70
32
 0
VERTEX
 8
GBM3
 10
3.98
 20
0.8804
 30
5.4927
 70
32
 0
VERTEX
 8
GBM3
 10
3.971
 20
0.8936
 30
5.4927
 70
32
 0
VERTEX
 8
GBM3
 10
3.9606
 20
0.906
 30
5.4927
 70
32
 0
VERTEX
 8
GBM3
 10
3.9428
 20
0.9233
 30
5.4927
 70
32
 0
VERTEX
 8
GBM3
 10
3.9152
 20
0.9445
 30
5.4927
 70
32
 0
VERTEX
 8
GBM3
 10
3.8678
 20
0.9737
 30
5.4927
 70
32
 0
VERTEX
 8
GBM3
 10
3.7209
 20
1.0581
 30
5.4927
 70
32
 0
VERTEX
 8
GBM3
 10
3.6893
 20
1.0824
 30
5.4927
 70
32
 0
VERTEX
 8
GBM3
 10
3.6677
 20
1.1025
 30
5.4927
 70
32
 0
VERTEX
 8
GBM3
 10
3.6482
 20
1.1248
 30
5.4927
 70
32
 0
VERTEX
 8
GBM3
 10
3.6366
 20
1.1409
 30
5.4927
 70
32
 0
VERTEX
 8
GBM3
 10
3.6263
 20
1.1581
 30
5.4927
 70
32
 0
VERTEX
 8
GBM3
 10
3.6068
 20
1.2006
 30
5.4927
 70
32
 0
VERTEX
 8
GBM3
 10
3.5904
 20
1.2496
 30
5.4927
 70
32
 0
VERTEX
 8
GBM3
 10
3.5728
 20
1.3238
 30
5.4927
 70
32
 0
VERTEX
 8
GBM3
 10
3.552
 20
1.4728
 30
5.4927
 70
32
 0
VERTEX
 8
GBM3
 10
3.5357
 20
1.8576
 30
5.4927
 70
32
 0
VERTEX
 8
GBM3
 10
3.5291
 20
2.2274
 30
5.4927
 70
32
 0
VERTEX
 8
GBM3
 10
3.5056
 20
2.5378
 30
5.4927
 70
32
 0
VERTEX
 8
GBM3
 10
3.5081
 20
2.575
 30
5.4927
 70
32
 0
VERTEX
 8
GBM3
 10
3.5152
 20
2.6163
 30
5.4927
 70
32
 0
VERTEX
 8
GBM3
 10
3.5216
 20
2.6383
 30
5.4927
 70
32
 0
VERTEX
 8
GBM3
 10
3.5297
 20
2.6588
 30
5.4927
 70
32
 0
VERTEX
 8
GBM3
 10
3.5394
 20
2.6777
 30
5.4927
 70
32
 0
VERTEX
 8
GBM3
 10
3.5505
 20
2.6952
 30
5.4927
 70
32
 0
VERTEX
 8
GBM3
 10
3.5631
 20
2.7114
 30
5.4927
 70
32
 0
VERTEX
 8
GBM3
 10
3.577
 20
2.7263
 30
5.4927
 70
32
 0
VERTEX
 8
GBM3
 10
3.6003
 20
2.7464
 30
5.4927
 70
32
 0
VERTEX
 8
GBM3
 10
3.626
 20
2.7642
 30
5.4927
 70
32
 0
VERTEX
 8
GBM3
 10
3.6639
 20
2.7848
 30
5.4927
 70
32
 0
VERTEX
 8
GBM3
 10
3.716
 20
2.8062
 30
5.4927
 70
32
 0
VERTEX
 8
GBM3
 10
3.8428
 20
2.843
 30
5.4927
 70
32
 0
VERTEX
 8
GBM3
 10
3.9874
 20
2.8802
 30
5.4927
 70
32
 0
VERTEX
 8
GBM3
 10
4.4302
 20
3.0217
 30
5.4927
 70
32
 0
VERTEX
 8
GBM3
 10
4.5686
 20
3.083
 30
5.4927
 70
32
 0
VERTEX
 8
GBM3
 10
4.6588
 20
3.1333
 30
5.4927
 70
32
 0
VERTEX
 8
GBM3
 10
4.7236
 20
3.1779
 30
5.4927
 70
32
 0
VERTEX
 8
GBM3
 10
4.7668
 20
3.2141
 30
5.4927
 70
32
 0
VERTEX
 8
GBM3
 10
4.8048
 20
3.2529
 30
5.4927
 70
32
 0
VERTEX
 8
GBM3
 10
4.8368
 20
3.2943
 30
5.4927
 70
32
 0
VERTEX
 8
GBM3
 10
4.8461
 20
3.3087
 30
5.4927
 70
32
 0
VERTEX
 8
GBM3
 10
4.8623
 20
3.3385
 30
5.4927
 70
32
 0
VERTEX
 8
GBM3
 10
4.8873
 20
3.3984
 30
5.4927
 70
32
 0
VERTEX
 8
GBM3
 10
4.9041
 20
3.4575
 30
5.4927
 70
32
 0
VERTEX
 8
GBM3
 10
4.9136
 20
3.5154
 30
5.4927
 70
32
 0
VERTEX
 8
GBM3
 10
4.9162
 20
3.5719
 30
5.4927
 70
32
 0
VERTEX
 8
GBM3
 10
4.9127
 20
3.6265
 30
5.4927
 70
32
 0
VERTEX
 8
GBM3
 10
4.9036
 20
3.6791
 30
5.4927
 70
32
 0
VERTEX
 8
GBM3
 10
4.8897
 20
3.7294
 30
5.4927
 70
32
 0
VERTEX
 8
GBM3
 10
4.8714
 20
3.7769
 30
5.4927
 70
32
 0
VERTEX
 8
GBM3
 10
4.8494
 20
3.8215
 30
5.4927
 70
32
 0
VERTEX
 8
GBM3
 10
4.8155
 20
3.8759
 30
5.4927
 70
32
 0
VERTEX
 8
GBM3
 10
4.7777
 20
3.9237
 30
5.4927
 70
32
 0
VERTEX
 8
GBM3
 10
4.7375
 20
3.9643
 30
5.4927
 70
32
 0
VERTEX
 8
GBM3
 10
4.7066
 20
3.9896
 30
5.4927
 70
32
 0
VERTEX
 8
GBM3
 10
4.6757
 20
4.0101
 30
5.4927
 70
32
 0
VERTEX
 8
GBM3
 10
4.6555
 20
4.021
 30
5.4927
 70
32
 0
VERTEX
 8
GBM3
 10
4.6263
 20
4.0329
 30
5.4927
 70
32
 0
VERTEX
 8
GBM3
 10
4.5833
 20
4.0443
 30
5.4927
 70
32
 0
VERTEX
 8
GBM3
 10
4.5403
 20
4.0512
 30
5.4927
 70
32
 0
VERTEX
 8
GBM3
 10
4.4971
 20
4.054
 30
5.4927
 70
32
 0
VERTEX
 8
GBM3
 10
4.432
 20
4.0513
 30
5.4927
 70
32
 0
VERTEX
 8
GBM3
 10
4.3667
 20
4.0412
 30
5.4927
 70
32
 0
VERTEX
 8
GBM3
 10
4.2791
 20
4.0186
 30
5.4927
 70
32
 0
VERTEX
 8
GBM3
 10
4.1245
 20
3.9617
 30
5.4927
 70
32
 0
VERTEX
 8
GBM3
 10
3.7884
 20
3.8297
 30
5.4927
 70
32
 0
VERTEX
 8
GBM3
 10
3.6978
 20
3.807
 30
5.4927
 70
32
 0
VERTEX
 8
GBM3
 10
3.6295
 20
3.7969
 30
5.4927
 70
32
 0
VERTEX
 8
GBM3
 10
3.5839
 20
3.7941
 30
5.4927
 70
32
 0
VERTEX
 8
GBM3
 10
3.5152
 20
3.7968
 30
5.4927
 70
32
 0
VERTEX
 8
GBM3
 10
3.4805
 20
3.8021
 30
5.4927
 70
32
 0
VERTEX
 8
GBM3
 10
3.4464
 20
3.8107
 30
5.4927
 70
32
 0
VERTEX
 8
GBM3
 10
3.4137
 20
3.8227
 30
5.4927
 70
32
 0
VERTEX
 8
GBM3
 10
3.3888
 20
3.8348
 30
5.4927
 70
32
 0
VERTEX
 8
GBM3
 10
3.3657
 20
3.8491
 30
5.4927
 70
32
 0
VERTEX
 8
GBM3
 10
3.3445
 20
3.8657
 30
5.4927
 70
32
 0
VERTEX
 8
GBM3
 10
3.3301
 20
3.8796
 30
5.4927
 70
32
 0
VERTEX
 8
GBM3
 10
3.3172
 20
3.8947
 30
5.4927
 70
32
 0
VERTEX
 8
GBM3
 10
3.306
 20
3.9112
 30
5.4927
 70
32
 0
VERTEX
 8
GBM3
 10
3.2965
 20
3.9289
 30
5.4927
 70
32
 0
VERTEX
 8
GBM3
 10
3.2889
 20
3.948
 30
5.4927
 70
32
 0
VERTEX
 8
GBM3
 10
3.2833
 20
3.9683
 30
5.4927
 70
32
 0
VERTEX
 8
GBM3
 10
3.2809
 20
3.9826
 30
5.4927
 70
32
 0
VERTEX
 8
GBM3
 10
3.2791
 20
4.0051
 30
5.4927
 70
32
 0
VERTEX
 8
GBM3
 10
3.2798
 20
4.0213
 30
5.4927
 70
32
 0
VERTEX
 8
GBM3
 10
3.2827
 20
4.0375
 30
5.4927
 70
32
 0
VERTEX
 8
GBM3
 10
3.2874
 20
4.0538
 30
5.4927
 70
32
 0
VERTEX
 8
GBM3
 10
3.294
 20
4.0702
 30
5.4927
 70
32
 0
VERTEX
 8
GBM3
 10
3.3069
 20
4.0947
 30
5.4927
 70
32
 0
VERTEX
 8
GBM3
 10
3.329
 20
4.1273
 30
5.4927
 70
32
 0
VERTEX
 8
GBM3
 10
3.3629
 20
4.1677
 30
5.4927
 70
32
 0
VERTEX
 8
GBM3
 10
3.4343
 20
4.2381
 30
5.4927
 70
32
 0
VERTEX
 8
GBM3
 10
3.5152
 20
4.3106
 30
5.4927
 70
32
 0
VERTEX
 8
GBM3
 10
3.5847
 20
4.3801
 30
5.4927
 70
32
 0
VERTEX
 8
GBM3
 10
3.6747
 20
4.5006
 30
5.4927
 70
32
 0
VERTEX
 8
GBM3
 10
3.7441
 20
4.6135
 30
5.4927
 70
32
 0
VERTEX
 8
GBM3
 10
3.7862
 20
4.6972
 30
5.4927
 70
32
 0
VERTEX
 8
GBM3
 10
3.8207
 20
4.7828
 30
5.4927
 70
32
 0
VERTEX
 8
GBM3
 10
3.8429
 20
4.8585
 30
5.4927
 70
32
 0
VERTEX
 8
GBM3
 10
3.8574
 20
4.9359
 30
5.4927
 70
32
 0
VERTEX
 8
GBM3
 10
3.8648
 20
5.0142
 30
5.4927
 70
32
 0
VERTEX
 8
GBM3
 10
3.8646
 20
5.1126
 30
5.4927
 70
32
 0
VERTEX
 8
GBM3
 10
3.8549
 20
5.2099
 30
5.4927
 70
32
 0
VERTEX
 8
GBM3
 10
3.8366
 20
5.3049
 30
5.4927
 70
32
 0
VERTEX
 8
GBM3
 10
3.8046
 20
5.4138
 30
5.4927
 70
32
 0
VERTEX
 8
GBM3
 10
3.7632
 20
5.5148
 30
5.4927
 70
32
 0
VERTEX
 8
GBM3
 10
3.7226
 20
5.5913
 30
5.4927
 70
32
 0
VERTEX
 8
GBM3
 10
3.696
 20
5.6332
 30
5.4927
 70
32
 0
VERTEX
 8
GBM3
 10
3.668
 20
5.6717
 30
5.4927
 70
32
 0
VERTEX
 8
GBM3
 10
3.6075
 20
5.7416
 30
5.4927
 70
32
 0
VERTEX
 8
GBM3
 10
3.5181
 20
5.826
 30
5.4927
 70
32
 0
VERTEX
 8
GBM3
 10
3.415
 20
5.9056
 30
5.4927
 70
32
 0
VERTEX
 8
GBM3
 10
3.2999
 20
5.9786
 30
5.4927
 70
32
 0
VERTEX
 8
GBM3
 10
3.1488
 20
6.0554
 30
5.4927
 70
32
 0
VERTEX
 8
GBM3
 10
3.014
 20
6.1083
 30
5.4927
 70
32
 0
VERTEX
 8
GBM3
 10
2.8731
 20
6.1494
 30
5.4927
 70
32
 0
VERTEX
 8
GBM3
 10
2.7279
 20
6.1771
 30
5.4927
 70
32
 0
VERTEX
 8
GBM3
 10
2.5802
 20
6.1897
 30
5.4927
 70
32
 0
VERTEX
 8
GBM3
 10
2.5209
 20
6.1901
 30
5.4927
 70
32
 0
VERTEX
 8
GBM3
 10
2.432
 20
6.1855
 30
5.4927
 70
32
 0
VERTEX
 8
GBM3
 10
2.2503
 20
6.1613
 30
5.4927
 70
32
 0
VERTEX
 8
GBM3
 10
2.075
 20
6.1209
 30
5.4927
 70
32
 0
VERTEX
 8
GBM3
 10
1.9259
 20
6.071
 30
5.4927
 70
32
 0
VERTEX
 8
GBM3
 10
1.8016
 20
6.0162
 30
5.4927
 70
32
 0
VERTEX
 8
GBM3
 10
1.684
 20
5.9508
 30
5.4927
 70
32
 0
VERTEX
 8
GBM3
 10
1.6046
 20
5.8974
 30
5.4927
 70
32
 0
VERTEX
 8
GBM3
 10
1.5292
 20
5.8383
 30
5.4927
 70
32
 0
VERTEX
 8
GBM3
 10
1.4609
 20
5.7737
 30
5.4927
 70
32
 0
VERTEX
 8
GBM3
 10
1.3946
 20
5.6968
 30
5.4927
 70
32
 0
VERTEX
 8
GBM3
 10
1.3325
 20
5.6089
 30
5.4927
 70
32
 0
VERTEX
 8
GBM3
 10
1.2767
 20
5.5114
 30
5.4927
 70
32
 0
VERTEX
 8
GBM3
 10
1.2294
 20
5.4055
 30
5.4927
 70
32
 0
VERTEX
 8
GBM3
 10
1.1991
 20
5.3156
 30
5.4927
 70
32
 0
VERTEX
 8
GBM3
 10
1.1768
 20
5.2219
 30
5.4927
 70
32
 0
VERTEX
 8
GBM3
 10
1.1634
 20
5.1251
 30
5.4927
 70
32
 0
VERTEX
 8
GBM3
 10
1.1603
 20
5.0258
 30
5.4927
 70
32
 0
VERTEX
 8
GBM3
 10
1.1683
 20
4.9246
 30
5.4927
 70
32
 0
VERTEX
 8
GBM3
 10
1.1769
 20
4.8736
 30
5.4927
 70
32
 0
VERTEX
 8
GBM3
 10
1.1959
 20
4.7967
 30
5.4927
 70
32
 0
VERTEX
 8
GBM3
 10
1.2183
 20
4.7322
 30
5.4927
 70
32
 0
VERTEX
 8
GBM3
 10
1.2554
 20
4.6504
 30
5.4927
 70
32
 0
VERTEX
 8
GBM3
 10
1.3148
 20
4.5459
 30
5.4927
 70
32
 0
VERTEX
 8
GBM3
 10
1.3738
 20
4.4578
 30
5.4927
 70
32
 0
VERTEX
 8
GBM3
 10
1.432
 20
4.3801
 30
5.4927
 70
32
 0
VERTEX
 8
GBM3
 10
1.4617
 20
4.3458
 30
5.4927
 70
32
 0
VERTEX
 8
GBM3
 10
1.6713
 20
4.1333
 30
5.4927
 70
32
 0
VERTEX
 8
GBM3
 10
1.6926
 20
4.102
 30
5.4927
 70
32
 0
VERTEX
 8
GBM3
 10
1.7055
 20
4.0782
 30
5.4927
 70
32
 0
VERTEX
 8
GBM3
 10
1.7152
 20
4.0542
 30
5.4927
 70
32
 0
VERTEX
 8
GBM3
 10
1.7197
 20
4.0379
 30
5.4927
 70
32
 0
VERTEX
 8
GBM3
 10
1.7226
 20
4.0216
 30
5.4927
 70
32
 0
VERTEX
 8
GBM3
 10
1.7237
 20
4.0051
 30
5.4927
 70
32
 0
VERTEX
 8
GBM3
 10
1.7227
 20
3.9861
 30
5.4927
 70
32
 0
VERTEX
 8
GBM3
 10
1.7195
 20
3.9672
 30
5.4927
 70
32
 0
VERTEX
 8
GBM3
 10
1.7144
 20
3.9487
 30
5.4927
 70
32
 0
VERTEX
 8
GBM3
 10
1.7074
 20
3.9306
 30
5.4927
 70
32
 0
VERTEX
 8
GBM3
 10
1.6955
 20
3.9073
 30
5.4927
 70
32
 0
VERTEX
 8
GBM3
 10
1.6811
 20
3.8852
 30
5.4927
 70
32
 0
VERTEX
 8
GBM3
 10
1.6644
 20
3.8645
 30
5.4927
 70
32
 0
VERTEX
 8
GBM3
 10
1.6459
 20
3.8455
 30
5.4927
 70
32
 0
VERTEX
 8
GBM3
 10
1.6261
 20
3.8285
 30
5.4927
 70
32
 0
VERTEX
 8
GBM3
 10
1.6051
 20
3.8137
 30
5.4927
 70
32
 0
VERTEX
 8
GBM3
 10
1.5835
 20
3.8013
 30
5.4927
 70
32
 0
VERTEX
 8
GBM3
 10
1.5617
 20
3.7917
 30
5.4927
 70
32
 0
VERTEX
 8
GBM3
 10
1.5453
 20
3.7864
 30
5.4927
 70
32
 0
VERTEX
 8
GBM3
 10
1.5292
 20
3.7829
 30
5.4927
 70
32
 0
VERTEX
 8
GBM3
 10
1.4982
 20
3.7795
 30
5.4927
 70
32
 0
VERTEX
 8
GBM3
 10
1.4665
 20
3.7792
 30
5.4927
 70
32
 0
VERTEX
 8
GBM3
 10
1.4237
 20
3.7829
 30
5.4927
 70
32
 0
VERTEX
 8
GBM3
 10
1.3695
 20
3.7931
 30
5.4927
 70
32
 0
VERTEX
 8
GBM3
 10
1.1896
 20
3.8561
 30
5.4927
 70
32
 0
VERTEX
 8
GBM3
 10
1.0293
 20
3.9218
 30
5.4927
 70
32
 0
VERTEX
 8
GBM3
 10
0.7665
 20
3.9952
 30
5.4927
 70
32
 0
VERTEX
 8
GBM3
 10
0.6431
 20
4.0172
 30
5.4927
 70
32
 0
VERTEX
 8
GBM3
 10
0.5705
 20
4.0231
 30
5.4927
 70
32
 0
VERTEX
 8
GBM3
 10
0.532
 20
4.0231
 30
5.4927
 70
32
 0
VERTEX
 8
GBM3
 10
0.4876
 20
4.019
 30
5.4927
 70
32
 0
VERTEX
 8
GBM3
 10
0.4522
 20
4.0113
 30
5.4927
 70
32
 0
VERTEX
 8
GBM3
 10
0.4184
 20
3.9997
 30
5.4927
 70
32
 0
VERTEX
 8
GBM3
 10
0.3861
 20
3.9843
 30
5.4927
 70
32
 0
VERTEX
 8
GBM3
 10
0.3555
 20
3.9655
 30
5.4927
 70
32
 0
VERTEX
 8
GBM3
 10
0.3267
 20
3.9434
 30
5.4927
 70
32
 0
VERTEX
 8
GBM3
 10
0.2998
 20
3.9184
 30
5.4927
 70
32
 0
VERTEX
 8
GBM3
 10
0.2631
 20
3.876
 30
5.4927
 70
32
 0
VERTEX
 8
GBM3
 10
0.2311
 20
3.8283
 30
5.4927
 70
32
 0
VERTEX
 8
GBM3
 10
0.2042
 20
3.7764
 30
5.4927
 70
32
 0
VERTEX
 8
GBM3
 10
0.1827
 20
3.721
 30
5.4927
 70
32
 0
VERTEX
 8
GBM3
 10
0.1667
 20
3.663
 30
5.4927
 70
32
 0
VERTEX
 8
GBM3
 10
0.1568
 20
3.6034
 30
5.4927
 70
32
 0
VERTEX
 8
GBM3
 10
0.1531
 20
3.543
 30
5.4927
 70
32
 0
VERTEX
 8
GBM3
 10
0.156
 20
3.4826
 30
5.4927
 70
32
 0
VERTEX
 8
GBM3
 10
0.1657
 20
3.4232
 30
5.4927
 70
32
 0
VERTEX
 8
GBM3
 10
0.1827
 20
3.3655
 30
5.4927
 70
32
 0
VERTEX
 8
GBM3
 10
0.1982
 20
3.3286
 30
5.4927
 70
32
 0
VERTEX
 8
GBM3
 10
0.217
 20
3.293
 30
5.4927
 70
32
 0
VERTEX
 8
GBM3
 10
0.2394
 20
3.2592
 30
5.4927
 70
32
 0
VERTEX
 8
GBM3
 10
0.2654
 20
3.2274
 30
5.4927
 70
32
 0
VERTEX
 8
GBM3
 10
0.2915
 20
3.2016
 30
5.4927
 70
32
 0
VERTEX
 8
GBM3
 10
0.3216
 20
3.1772
 30
5.4927
 70
32
 0
VERTEX
 8
GBM3
 10
0.3671
 20
3.1468
 30
5.4927
 70
32
 0
VERTEX
 8
GBM3
 10
0.4443
 20
3.1053
 30
5.4927
 70
32
 0
VERTEX
 8
GBM3
 10
0.6897
 20
3.0095
 30
5.4927
 70
32
 0
VERTEX
 8
GBM3
 10
0.9043
 20
2.9357
 30
5.4927
 70
32
 0
VERTEX
 8
GBM3
 10
1.3419
 20
2.7644
 30
5.4927
 70
32
 0
VERTEX
 8
GBM3
 10
1.4016
 20
2.7302
 30
5.4927
 70
32
 0
VERTEX
 8
GBM3
 10
1.4431
 20
2.7006
 30
5.4927
 70
32
 0
VERTEX
 8
GBM3
 10
1.4699
 20
2.677
 30
5.4927
 70
32
 0
VERTEX
 8
GBM3
 10
1.4925
 20
2.652
 30
5.4927
 70
32
 0
VERTEX
 8
GBM3
 10
1.505
 20
2.6345
 30
5.4927
 70
32
 0
VERTEX
 8
GBM3
 10
1.5153
 20
2.6163
 30
5.4927
 70
32
 0
VERTEX
 8
GBM3
 10
1.5291
 20
2.5839
 30
5.4927
 70
32
 0
VERTEX
 8
GBM3
 10
1.5397
 20
2.5495
 30
5.4927
 70
32
 0
VERTEX
 8
GBM3
 10
1.5491
 20
2.5007
 30
5.4927
 70
32
 0
VERTEX
 8
GBM3
 10
1.5539
 20
2.4488
 30
5.4927
 70
32
 0
VERTEX
 8
GBM3
 10
1.5366
 20
2.18
 30
5.4927
 70
32
 0
VERTEX
 8
GBM3
 10
1.5015
 20
1.8663
 30
5.4927
 70
32
 0
VERTEX
 8
GBM3
 10
1.4683
 20
1.2579
 30
5.4927
 70
32
 0
VERTEX
 8
GBM3
 10
1.4498
 20
1.1721
 30
5.4927
 70
32
 0
VERTEX
 8
GBM3
 10
1.4377
 20
1.1338
 30
5.4927
 70
32
 0
VERTEX
 8
GBM3
 10
1.4181
 20
1.0886
 30
5.4927
 70
32
 0
VERTEX
 8
GBM3
 10
1.4093
 20
1.0738
 30
5.4927
 70
32
 0
VERTEX
 8
GBM3
 10
1.3989
 20
1.0601
 30
5.4927
 70
32
 0
VERTEX
 8
GBM3
 10
1.3872
 20
1.0473
 30
5.4927
 70
32
 0
VERTEX
 8
GBM3
 10
1.3671
 20
1.0295
 30
5.4927
 70
32
 0
VERTEX
 8
GBM3
 10
1.3367
 20
1.008
 30
5.4927
 70
32
 0
VERTEX
 8
GBM3
 10
1.2581
 20
0.9641
 30
5.4927
 70
32
 0
VERTEX
 8
GBM3
 10
1.1666
 20
0.9127
 30
5.4927
 70
32
 0
VERTEX
 8
GBM3
 10
1.1324
 20
0.8883
 30
5.4927
 70
32
 0
VERTEX
 8
GBM3
 10
1.1086
 20
0.8677
 30
5.4927
 70
32
 0
VERTEX
 8
GBM3
 10
1.087
 20
0.8448
 30
5.4927
 70
32
 0
VERTEX
 8
GBM3
 10
1.0679
 20
0.8191
 30
5.4927
 70
32
 0
VERTEX
 8
GBM3
 10
1.0569
 20
0.8003
 30
5.4927
 70
32
 0
VERTEX
 8
GBM3
 10
1.0519
 20
0.7903
 30
5.4927
 70
32
 0
SEQEND
 0
ENDSEC
 0
EOF
