 0
SECTION
 2
HEADER
 9
$ACADVER
 1
AC1009
 0
ENDSEC
 0
SECTION
 2
TABLES
 0
TABLE
 2
LTYPE
 70
1
 0
LTYPE
 2
CONTINUOUS
 70
64
 3
solid line
 72
65
 73
0
 40
0.0
 0
ENDTAB
 0
TABLE
 2
LAYER
 70
6
 0
LAYER
 2
0
 70
0
 62
7
 6
CONTINUOUS
 0
LAYER
 2
GBM4
 70
64
 62
7
 6
CONTINUOUS
 0
ENDTAB
 0
ENDSEC
 0
SECTION
 2
BLOCKS
 0
ENDSEC
 0
SECTION
 2
ENTITIES
 0
POLYLINE
 8
GBM4
 66
1
 10
0.0
 20
0.0
 30
0.0
 70
9
 0
VERTEX
 8
GBM4
 10
0.4542
 20
0.2202
 30
5.1735
 70
32
 0
VERTEX
 8
GBM4
 10
0.5089
 20
0.1984
 30
5.1735
 70
32
 0
VERTEX
 8
GBM4
 10
0.5618
 20
0.1839
 30
5.1735
 70
32
 0
VERTEX
 8
GBM4
 10
0.6128
 20
0.176
 30
5.1735
 70
32
 0
VERTEX
 8
GBM4
 10
0.6621
 20
0.1742
 30
5.1735
 70
32
 0
VERTEX
 8
GBM4
 10
0.7099
 20
0.1779
 30
5.1735
 70
32
 0
VERTEX
 8
GBM4
 10
0.7561
 20
0.1867
 30
5.1735
 70
32
 0
VERTEX
 8
GBM4
 10
0.801
 20
0.2001
 30
5.1735
 70
32
 0
VERTEX
 8
GBM4
 10
0.866
 20
0.2273
 30
5.1735
 70
32
 0
VERTEX
 8
GBM4
 10
0.9285
 20
0.2616
 30
5.1735
 70
32
 0
VERTEX
 8
GBM4
 10
1.0282
 20
0.3296
 30
5.1735
 70
32
 0
VERTEX
 8
GBM4
 10
1.3081
 20
0.5375
 30
5.1735
 70
32
 0
VERTEX
 8
GBM4
 10
1.3635
 20
0.5658
 30
5.1735
 70
32
 0
VERTEX
 8
GBM4
 10
1.4007
 20
0.58
 30
5.1735
 70
32
 0
VERTEX
 8
GBM4
 10
1.4383
 20
0.5898
 30
5.1735
 70
32
 0
VERTEX
 8
GBM4
 10
1.4573
 20
0.5929
 30
5.1735
 70
32
 0
VERTEX
 8
GBM4
 10
1.4957
 20
0.5951
 30
5.1735
 70
32
 0
VERTEX
 8
GBM4
 10
1.5248
 20
0.5934
 30
5.1735
 70
32
 0
VERTEX
 8
GBM4
 10
1.5666
 20
0.5863
 30
5.1735
 70
32
 0
VERTEX
 8
GBM4
 10
1.6063
 20
0.5744
 30
5.1735
 70
32
 0
VERTEX
 8
GBM4
 10
1.6444
 20
0.5581
 30
5.1735
 70
32
 0
VERTEX
 8
GBM4
 10
1.693
 20
0.5307
 30
5.1735
 70
32
 0
VERTEX
 8
GBM4
 10
1.751
 20
0.4892
 30
5.1735
 70
32
 0
VERTEX
 8
GBM4
 10
2.0275
 20
0.2617
 30
5.1735
 70
32
 0
VERTEX
 8
GBM4
 10
2.0662
 20
0.2393
 30
5.1735
 70
32
 0
VERTEX
 8
GBM4
 10
2.1067
 20
0.2202
 30
5.1735
 70
32
 0
VERTEX
 8
GBM4
 10
2.1646
 20
0.2001
 30
5.1735
 70
32
 0
VERTEX
 8
GBM4
 10
2.2231
 20
0.1874
 30
5.1735
 70
32
 0
VERTEX
 8
GBM4
 10
2.2817
 20
0.1817
 30
5.1735
 70
32
 0
VERTEX
 8
GBM4
 10
2.3396
 20
0.1827
 30
5.1735
 70
32
 0
VERTEX
 8
GBM4
 10
2.3964
 20
0.1899
 30
5.1735
 70
32
 0
VERTEX
 8
GBM4
 10
2.4513
 20
0.2031
 30
5.1735
 70
32
 0
VERTEX
 8
GBM4
 10
2.5038
 20
0.222
 30
5.1735
 70
32
 0
VERTEX
 8
GBM4
 10
2.5532
 20
0.246
 30
5.1735
 70
32
 0
VERTEX
 8
GBM4
 10
2.5988
 20
0.275
 30
5.1735
 70
32
 0
VERTEX
 8
GBM4
 10
2.6402
 20
0.3086
 30
5.1735
 70
32
 0
VERTEX
 8
GBM4
 10
2.6766
 20
0.3463
 30
5.1735
 70
32
 0
VERTEX
 8
GBM4
 10
2.6978
 20
0.3737
 30
5.1735
 70
32
 0
VERTEX
 8
GBM4
 10
2.7163
 20
0.4026
 30
5.1735
 70
32
 0
VERTEX
 8
GBM4
 10
2.732
 20
0.4331
 30
5.1735
 70
32
 0
VERTEX
 8
GBM4
 10
2.7447
 20
0.4649
 30
5.1735
 70
32
 0
VERTEX
 8
GBM4
 10
2.7542
 20
0.4981
 30
5.1735
 70
32
 0
VERTEX
 8
GBM4
 10
2.7602
 20
0.5324
 30
5.1735
 70
32
 0
VERTEX
 8
GBM4
 10
2.7627
 20
0.5679
 30
5.1735
 70
32
 0
VERTEX
 8
GBM4
 10
2.7626
 20
0.586
 30
5.1735
 70
32
 0
VERTEX
 8
GBM4
 10
2.7593
 20
0.6229
 30
5.1735
 70
32
 0
VERTEX
 8
GBM4
 10
2.7515
 20
0.6637
 30
5.1735
 70
32
 0
VERTEX
 8
GBM4
 10
2.7404
 20
0.6981
 30
5.1735
 70
32
 0
VERTEX
 8
GBM4
 10
2.7314
 20
0.7178
 30
5.1735
 70
32
 0
VERTEX
 8
GBM4
 10
2.7211
 20
0.7352
 30
5.1735
 70
32
 0
VERTEX
 8
GBM4
 10
2.7096
 20
0.7503
 30
5.1735
 70
32
 0
VERTEX
 8
GBM4
 10
2.697
 20
0.7636
 30
5.1735
 70
32
 0
VERTEX
 8
GBM4
 10
2.6833
 20
0.775
 30
5.1735
 70
32
 0
VERTEX
 8
GBM4
 10
2.6685
 20
0.7849
 30
5.1735
 70
32
 0
VERTEX
 8
GBM4
 10
2.6528
 20
0.7933
 30
5.1735
 70
32
 0
VERTEX
 8
GBM4
 10
2.6276
 20
0.8039
 30
5.1735
 70
32
 0
VERTEX
 8
GBM4
 10
2.5912
 20
0.8149
 30
5.1735
 70
32
 0
VERTEX
 8
GBM4
 10
2.3999
 20
0.8618
 30
5.1735
 70
32
 0
VERTEX
 8
GBM4
 10
2.3771
 20
0.8707
 30
5.1735
 70
32
 0
VERTEX
 8
GBM4
 10
2.3427
 20
0.8867
 30
5.1735
 70
32
 0
VERTEX
 8
GBM4
 10
2.3232
 20
0.8983
 30
5.1735
 70
32
 0
VERTEX
 8
GBM4
 10
2.3048
 20
0.9119
 30
5.1735
 70
32
 0
VERTEX
 8
GBM4
 10
2.282
 20
0.933
 30
5.1735
 70
32
 0
VERTEX
 8
GBM4
 10
2.261
 20
0.9567
 30
5.1735
 70
32
 0
VERTEX
 8
GBM4
 10
2.2372
 20
0.9895
 30
5.1735
 70
32
 0
VERTEX
 8
GBM4
 10
2.208
 20
1.0391
 30
5.1735
 70
32
 0
VERTEX
 8
GBM4
 10
2.1669
 20
1.127
 30
5.1735
 70
32
 0
VERTEX
 8
GBM4
 10
2.1344
 20
1.2061
 30
5.1735
 70
32
 0
VERTEX
 8
GBM4
 10
2.0837
 20
1.3398
 30
5.1735
 70
32
 0
VERTEX
 8
GBM4
 10
2.0605
 20
1.4262
 30
5.1735
 70
32
 0
VERTEX
 8
GBM4
 10
2.0506
 20
1.4864
 30
5.1735
 70
32
 0
VERTEX
 8
GBM4
 10
2.0477
 20
1.5361
 30
5.1735
 70
32
 0
VERTEX
 8
GBM4
 10
2.0498
 20
1.5745
 30
5.1735
 70
32
 0
VERTEX
 8
GBM4
 10
2.0544
 20
1.602
 30
5.1735
 70
32
 0
VERTEX
 8
GBM4
 10
2.059
 20
1.6197
 30
5.1735
 70
32
 0
VERTEX
 8
GBM4
 10
2.065
 20
1.6366
 30
5.1735
 70
32
 0
VERTEX
 8
GBM4
 10
2.0765
 20
1.6592
 30
5.1735
 70
32
 0
VERTEX
 8
GBM4
 10
2.0917
 20
1.6798
 30
5.1735
 70
32
 0
VERTEX
 8
GBM4
 10
2.1102
 20
1.6987
 30
5.1735
 70
32
 0
VERTEX
 8
GBM4
 10
2.1316
 20
1.716
 30
5.1735
 70
32
 0
VERTEX
 8
GBM4
 10
2.1689
 20
1.7393
 30
5.1735
 70
32
 0
VERTEX
 8
GBM4
 10
2.2263
 20
1.7667
 30
5.1735
 70
32
 0
VERTEX
 8
GBM4
 10
2.6109
 20
1.9106
 30
5.1735
 70
32
 0
VERTEX
 8
GBM4
 10
2.6532
 20
1.9367
 30
5.1735
 70
32
 0
VERTEX
 8
GBM4
 10
2.6786
 20
1.956
 30
5.1735
 70
32
 0
VERTEX
 8
GBM4
 10
2.7015
 20
1.9772
 30
5.1735
 70
32
 0
VERTEX
 8
GBM4
 10
2.7215
 20
2.0004
 30
5.1735
 70
32
 0
VERTEX
 8
GBM4
 10
2.7303
 20
2.0128
 30
5.1735
 70
32
 0
VERTEX
 8
GBM4
 10
2.7454
 20
2.0393
 30
5.1735
 70
32
 0
VERTEX
 8
GBM4
 10
2.7593
 20
2.0735
 30
5.1735
 70
32
 0
VERTEX
 8
GBM4
 10
2.7687
 20
2.1086
 30
5.1735
 70
32
 0
VERTEX
 8
GBM4
 10
2.7738
 20
2.1441
 30
5.1735
 70
32
 0
VERTEX
 8
GBM4
 10
2.7749
 20
2.1799
 30
5.1735
 70
32
 0
VERTEX
 8
GBM4
 10
2.7723
 20
2.2154
 30
5.1735
 70
32
 0
VERTEX
 8
GBM4
 10
2.7661
 20
2.2505
 30
5.1735
 70
32
 0
VERTEX
 8
GBM4
 10
2.7568
 20
2.2848
 30
5.1735
 70
32
 0
VERTEX
 8
GBM4
 10
2.7444
 20
2.318
 30
5.1735
 70
32
 0
VERTEX
 8
GBM4
 10
2.7237
 20
2.3599
 30
5.1735
 70
32
 0
VERTEX
 8
GBM4
 10
2.6988
 20
2.3986
 30
5.1735
 70
32
 0
VERTEX
 8
GBM4
 10
2.6778
 20
2.425
 30
5.1735
 70
32
 0
VERTEX
 8
GBM4
 10
2.6549
 20
2.4487
 30
5.1735
 70
32
 0
VERTEX
 8
GBM4
 10
2.6306
 20
2.4696
 30
5.1735
 70
32
 0
VERTEX
 8
GBM4
 10
2.605
 20
2.4872
 30
5.1735
 70
32
 0
VERTEX
 8
GBM4
 10
2.5784
 20
2.5012
 30
5.1735
 70
32
 0
VERTEX
 8
GBM4
 10
2.5693
 20
2.5051
 30
5.1735
 70
32
 0
VERTEX
 8
GBM4
 10
2.551
 20
2.5114
 30
5.1735
 70
32
 0
VERTEX
 8
GBM4
 10
2.5161
 20
2.5194
 30
5.1735
 70
32
 0
VERTEX
 8
GBM4
 10
2.4812
 20
2.523
 30
5.1735
 70
32
 0
VERTEX
 8
GBM4
 10
2.4463
 20
2.5229
 30
5.1735
 70
32
 0
VERTEX
 8
GBM4
 10
2.3997
 20
2.5178
 30
5.1735
 70
32
 0
VERTEX
 8
GBM4
 10
2.3414
 20
2.5052
 30
5.1735
 70
32
 0
VERTEX
 8
GBM4
 10
2.0497
 20
2.4188
 30
5.1735
 70
32
 0
VERTEX
 8
GBM4
 10
2.0146
 20
2.4147
 30
5.1735
 70
32
 0
VERTEX
 8
GBM4
 10
1.9678
 20
2.4142
 30
5.1735
 70
32
 0
VERTEX
 8
GBM4
 10
1.9719
 20
2.4399
 30
5.1735
 70
32
 0
VERTEX
 8
GBM4
 10
1.9784
 20
2.4646
 30
5.1735
 70
32
 0
VERTEX
 8
GBM4
 10
1.9917
 20
2.5006
 30
5.1735
 70
32
 0
VERTEX
 8
GBM4
 10
2.0652
 20
2.6674
 30
5.1735
 70
32
 0
VERTEX
 8
GBM4
 10
2.0727
 20
2.6957
 30
5.1735
 70
32
 0
VERTEX
 8
GBM4
 10
2.0789
 20
2.7336
 30
5.1735
 70
32
 0
VERTEX
 8
GBM4
 10
2.0836
 20
2.8394
 30
5.1735
 70
32
 0
VERTEX
 8
GBM4
 10
2.0747
 20
2.9357
 30
5.1735
 70
32
 0
VERTEX
 8
GBM4
 10
2.0534
 20
3.0224
 30
5.1735
 70
32
 0
VERTEX
 8
GBM4
 10
2.0209
 20
3.0998
 30
5.1735
 70
32
 0
VERTEX
 8
GBM4
 10
1.9785
 20
3.1677
 30
5.1735
 70
32
 0
VERTEX
 8
GBM4
 10
1.9273
 20
3.2265
 30
5.1735
 70
32
 0
VERTEX
 8
GBM4
 10
1.8686
 20
3.276
 30
5.1735
 70
32
 0
VERTEX
 8
GBM4
 10
1.8035
 20
3.3164
 30
5.1735
 70
32
 0
VERTEX
 8
GBM4
 10
1.7332
 20
3.3478
 30
5.1735
 70
32
 0
VERTEX
 8
GBM4
 10
1.6591
 20
3.3701
 30
5.1735
 70
32
 0
VERTEX
 8
GBM4
 10
1.5822
 20
3.3836
 30
5.1735
 70
32
 0
VERTEX
 8
GBM4
 10
1.5038
 20
3.3882
 30
5.1735
 70
32
 0
VERTEX
 8
GBM4
 10
1.4252
 20
3.3841
 30
5.1735
 70
32
 0
VERTEX
 8
GBM4
 10
1.3474
 20
3.3713
 30
5.1735
 70
32
 0
VERTEX
 8
GBM4
 10
1.2718
 20
3.3499
 30
5.1735
 70
32
 0
VERTEX
 8
GBM4
 10
1.1995
 20
3.3199
 30
5.1735
 70
32
 0
VERTEX
 8
GBM4
 10
1.1318
 20
3.2815
 30
5.1735
 70
32
 0
VERTEX
 8
GBM4
 10
1.0698
 20
3.2346
 30
5.1735
 70
32
 0
VERTEX
 8
GBM4
 10
1.0148
 20
3.1795
 30
5.1735
 70
32
 0
VERTEX
 8
GBM4
 10
0.9679
 20
3.1161
 30
5.1735
 70
32
 0
VERTEX
 8
GBM4
 10
0.9304
 20
3.0446
 30
5.1735
 70
32
 0
VERTEX
 8
GBM4
 10
0.9036
 20
2.9649
 30
5.1735
 70
32
 0
VERTEX
 8
GBM4
 10
0.8885
 20
2.8772
 30
5.1735
 70
32
 0
VERTEX
 8
GBM4
 10
0.8864
 20
2.7816
 30
5.1735
 70
32
 0
VERTEX
 8
GBM4
 10
0.8986
 20
2.678
 30
5.1735
 70
32
 0
VERTEX
 8
GBM4
 10
0.9029
 20
2.6592
 30
5.1735
 70
32
 0
VERTEX
 8
GBM4
 10
0.9086
 20
2.6418
 30
5.1735
 70
32
 0
VERTEX
 8
GBM4
 10
0.9179
 20
2.6206
 30
5.1735
 70
32
 0
VERTEX
 8
GBM4
 10
0.9343
 20
2.5917
 30
5.1735
 70
32
 0
VERTEX
 8
GBM4
 10
0.9768
 20
2.5222
 30
5.1735
 70
32
 0
VERTEX
 8
GBM4
 10
0.9857
 20
2.5014
 30
5.1735
 70
32
 0
VERTEX
 8
GBM4
 10
0.991
 20
2.4845
 30
5.1735
 70
32
 0
VERTEX
 8
GBM4
 10
0.9949
 20
2.4662
 30
5.1735
 70
32
 0
VERTEX
 8
GBM4
 10
0.9972
 20
2.4463
 30
5.1735
 70
32
 0
VERTEX
 8
GBM4
 10
0.9975
 20
2.4244
 30
5.1735
 70
32
 0
VERTEX
 8
GBM4
 10
0.9958
 20
2.4003
 30
5.1735
 70
32
 0
VERTEX
 8
GBM4
 10
0.9435
 20
2.4077
 30
5.1735
 70
32
 0
VERTEX
 8
GBM4
 10
0.8828
 20
2.4227
 30
5.1735
 70
32
 0
VERTEX
 8
GBM4
 10
0.5959
 20
2.5181
 30
5.1735
 70
32
 0
VERTEX
 8
GBM4
 10
0.5579
 20
2.5237
 30
5.1735
 70
32
 0
VERTEX
 8
GBM4
 10
0.5387
 20
2.5252
 30
5.1735
 70
32
 0
VERTEX
 8
GBM4
 10
0.5098
 20
2.5253
 30
5.1735
 70
32
 0
VERTEX
 8
GBM4
 10
0.4705
 20
2.5215
 30
5.1735
 70
32
 0
VERTEX
 8
GBM4
 10
0.433
 20
2.5132
 30
5.1735
 70
32
 0
VERTEX
 8
GBM4
 10
0.3976
 20
2.5009
 30
5.1735
 70
32
 0
VERTEX
 8
GBM4
 10
0.3644
 20
2.4848
 30
5.1735
 70
32
 0
VERTEX
 8
GBM4
 10
0.3336
 20
2.4651
 30
5.1735
 70
32
 0
VERTEX
 8
GBM4
 10
0.3054
 20
2.4421
 30
5.1735
 70
32
 0
VERTEX
 8
GBM4
 10
0.2801
 20
2.4161
 30
5.1735
 70
32
 0
VERTEX
 8
GBM4
 10
0.2577
 20
2.3875
 30
5.1735
 70
32
 0
VERTEX
 8
GBM4
 10
0.2385
 20
2.3564
 30
5.1735
 70
32
 0
VERTEX
 8
GBM4
 10
0.2227
 20
2.3231
 30
5.1735
 70
32
 0
VERTEX
 8
GBM4
 10
0.2105
 20
2.288
 30
5.1735
 70
32
 0
VERTEX
 8
GBM4
 10
0.202
 20
2.2513
 30
5.1735
 70
32
 0
VERTEX
 8
GBM4
 10
0.1975
 20
2.2133
 30
5.1735
 70
32
 0
VERTEX
 8
GBM4
 10
0.1972
 20
2.1742
 30
5.1735
 70
32
 0
VERTEX
 8
GBM4
 10
0.2012
 20
2.1344
 30
5.1735
 70
32
 0
VERTEX
 8
GBM4
 10
0.2064
 20
2.1075
 30
5.1735
 70
32
 0
VERTEX
 8
GBM4
 10
0.2181
 20
2.067
 30
5.1735
 70
32
 0
VERTEX
 8
GBM4
 10
0.2314
 20
2.0364
 30
5.1735
 70
32
 0
VERTEX
 8
GBM4
 10
0.2484
 20
2.0085
 30
5.1735
 70
32
 0
VERTEX
 8
GBM4
 10
0.269
 20
1.9832
 30
5.1735
 70
32
 0
VERTEX
 8
GBM4
 10
0.2926
 20
1.9603
 30
5.1735
 70
32
 0
VERTEX
 8
GBM4
 10
0.3191
 20
1.9394
 30
5.1735
 70
32
 0
VERTEX
 8
GBM4
 10
0.3633
 20
1.9117
 30
5.1735
 70
32
 0
VERTEX
 8
GBM4
 10
0.4289
 20
1.88
 30
5.1735
 70
32
 0
VERTEX
 8
GBM4
 10
0.5909
 20
1.8224
 30
5.1735
 70
32
 0
VERTEX
 8
GBM4
 10
0.7476
 20
1.7667
 30
5.1735
 70
32
 0
VERTEX
 8
GBM4
 10
0.8073
 20
1.7372
 30
5.1735
 70
32
 0
VERTEX
 8
GBM4
 10
0.8458
 20
1.7117
 30
5.1735
 70
32
 0
VERTEX
 8
GBM4
 10
0.8678
 20
1.6925
 30
5.1735
 70
32
 0
VERTEX
 8
GBM4
 10
0.8865
 20
1.6715
 30
5.1735
 70
32
 0
VERTEX
 8
GBM4
 10
0.9015
 20
1.6483
 30
5.1735
 70
32
 0
VERTEX
 8
GBM4
 10
0.9124
 20
1.6227
 30
5.1735
 70
32
 0
VERTEX
 8
GBM4
 10
0.9209
 20
1.5916
 30
5.1735
 70
32
 0
VERTEX
 8
GBM4
 10
0.9262
 20
1.559
 30
5.1735
 70
32
 0
VERTEX
 8
GBM4
 10
0.9289
 20
1.5081
 30
5.1735
 70
32
 0
VERTEX
 8
GBM4
 10
0.9257
 20
1.4551
 30
5.1735
 70
32
 0
VERTEX
 8
GBM4
 10
0.9172
 20
1.4007
 30
5.1735
 70
32
 0
VERTEX
 8
GBM4
 10
0.8986
 20
1.3274
 30
5.1735
 70
32
 0
VERTEX
 8
GBM4
 10
0.8656
 20
1.2364
 30
5.1735
 70
32
 0
VERTEX
 8
GBM4
 10
0.8244
 20
1.1493
 30
5.1735
 70
32
 0
VERTEX
 8
GBM4
 10
0.7681
 20
1.0542
 30
5.1735
 70
32
 0
VERTEX
 8
GBM4
 10
0.7185
 20
0.9866
 30
5.1735
 70
32
 0
VERTEX
 8
GBM4
 10
0.6791
 20
0.9423
 30
5.1735
 70
32
 0
VERTEX
 8
GBM4
 10
0.6506
 20
0.9158
 30
5.1735
 70
32
 0
VERTEX
 8
GBM4
 10
0.6325
 20
0.9018
 30
5.1735
 70
32
 0
VERTEX
 8
GBM4
 10
0.607
 20
0.8867
 30
5.1735
 70
32
 0
VERTEX
 8
GBM4
 10
0.5668
 20
0.87
 30
5.1735
 70
32
 0
VERTEX
 8
GBM4
 10
0.5234
 20
0.8567
 30
5.1735
 70
32
 0
VERTEX
 8
GBM4
 10
0.4784
 20
0.8476
 30
5.1735
 70
32
 0
VERTEX
 8
GBM4
 10
0.3769
 20
0.8324
 30
5.1735
 70
32
 0
VERTEX
 8
GBM4
 10
0.3578
 20
0.8264
 30
5.1735
 70
32
 0
VERTEX
 8
GBM4
 10
0.3436
 20
0.8204
 30
5.1735
 70
32
 0
VERTEX
 8
GBM4
 10
0.3295
 20
0.8129
 30
5.1735
 70
32
 0
VERTEX
 8
GBM4
 10
0.3153
 20
0.8034
 30
5.1735
 70
32
 0
VERTEX
 8
GBM4
 10
0.2756
 20
0.7723
 30
5.1735
 70
32
 0
VERTEX
 8
GBM4
 10
0.2574
 20
0.7544
 30
5.1735
 70
32
 0
VERTEX
 8
GBM4
 10
0.2441
 20
0.7382
 30
5.1735
 70
32
 0
VERTEX
 8
GBM4
 10
0.2352
 20
0.7245
 30
5.1735
 70
32
 0
VERTEX
 8
GBM4
 10
0.2273
 20
0.7094
 30
5.1735
 70
32
 0
VERTEX
 8
GBM4
 10
0.2205
 20
0.6926
 30
5.1735
 70
32
 0
VERTEX
 8
GBM4
 10
0.215
 20
0.6738
 30
5.1735
 70
32
 0
VERTEX
 8
GBM4
 10
0.2108
 20
0.653
 30
5.1735
 70
32
 0
VERTEX
 8
GBM4
 10
0.2078
 20
0.6216
 30
5.1735
 70
32
 0
VERTEX
 8
GBM4
 10
0.2077
 20
0.5856
 30
5.1735
 70
32
 0
VERTEX
 8
GBM4
 10
0.2111
 20
0.5445
 30
5.1735
 70
32
 0
VERTEX
 8
GBM4
 10
0.2181
 20
0.4979
 30
5.1735
 70
32
 0
VERTEX
 8
GBM4
 10
0.2224
 20
0.4794
 30
5.1735
 70
32
 0
VERTEX
 8
GBM4
 10
0.2311
 20
0.4541
 30
5.1735
 70
32
 0
VERTEX
 8
GBM4
 10
0.2429
 20
0.4283
 30
5.1735
 70
32
 0
VERTEX
 8
GBM4
 10
0.2614
 20
0.3959
 30
5.1735
 70
32
 0
VERTEX
 8
GBM4
 10
0.2885
 20
0.3577
 30
5.1735
 70
32
 0
VERTEX
 8
GBM4
 10
0.3198
 20
0.3212
 30
5.1735
 70
32
 0
VERTEX
 8
GBM4
 10
0.3543
 20
0.2875
 30
5.1735
 70
32
 0
VERTEX
 8
GBM4
 10
0.3911
 20
0.2578
 30
5.1735
 70
32
 0
VERTEX
 8
GBM4
 10
0.4226
 20
0.2369
 30
5.1735
 70
32
 0
SEQEND
 0
ENDSEC
 0
EOF
