 0
SECTION
 2
HEADER
 9
$ACADVER
 1
AC1009
 0
ENDSEC
 0
SECTION
 2
TABLES
 0
TABLE
 2
LTYPE
 70
1
 0
LTYPE
 2
CONTINUOUS
 70
64
 3
solid line
 72
65
 73
0
 40
0.0
 0
ENDTAB
 0
TABLE
 2
LAYER
 70
6
 0
LAYER
 2
0
 70
0
 62
7
 6
CONTINUOUS
 0
LAYER
 2
GBM5
 70
64
 62
7
 6
CONTINUOUS
 0
ENDTAB
 0
ENDSEC
 0
SECTION
 2
BLOCKS
 0
ENDSEC
 0
SECTION
 2
ENTITIES
 0
POLYLINE
 8
GBM5
 66
1
 10
0.0
 20
0.0
 30
0.0
 70
9
 0
VERTEX
 8
GBM5
 10
0.466
 20
0.1935
 30
5.4999
 70
32
 0
VERTEX
 8
GBM5
 10
0.53
 20
0.1716
 30
5.4999
 70
32
 0
VERTEX
 8
GBM5
 10
0.5971
 20
0.1564
 30
5.4999
 70
32
 0
VERTEX
 8
GBM5
 10
0.6665
 20
0.1477
 30
5.4999
 70
32
 0
VERTEX
 8
GBM5
 10
0.7369
 20
0.1452
 30
5.4999
 70
32
 0
VERTEX
 8
GBM5
 10
0.8248
 20
0.1507
 30
5.4999
 70
32
 0
VERTEX
 8
GBM5
 10
0.9108
 20
0.1651
 30
5.4999
 70
32
 0
VERTEX
 8
GBM5
 10
0.9766
 20
0.1829
 30
5.4999
 70
32
 0
VERTEX
 8
GBM5
 10
1.0388
 20
0.2059
 30
5.4999
 70
32
 0
VERTEX
 8
GBM5
 10
1.0963
 20
0.234
 30
5.4999
 70
32
 0
VERTEX
 8
GBM5
 10
1.1357
 20
0.2582
 30
5.4999
 70
32
 0
VERTEX
 8
GBM5
 10
1.1713
 20
0.2851
 30
5.4999
 70
32
 0
VERTEX
 8
GBM5
 10
1.2028
 20
0.3145
 30
5.4999
 70
32
 0
VERTEX
 8
GBM5
 10
1.2297
 20
0.3463
 30
5.4999
 70
32
 0
VERTEX
 8
GBM5
 10
1.2528
 20
0.3805
 30
5.4999
 70
32
 0
VERTEX
 8
GBM5
 10
1.2782
 20
0.4273
 30
5.4999
 70
32
 0
VERTEX
 8
GBM5
 10
1.3545
 20
0.5907
 30
5.4999
 70
32
 0
VERTEX
 8
GBM5
 10
1.3767
 20
0.6243
 30
5.4999
 70
32
 0
VERTEX
 8
GBM5
 10
1.3984
 20
0.6516
 30
5.4999
 70
32
 0
VERTEX
 8
GBM5
 10
1.4241
 20
0.6796
 30
5.4999
 70
32
 0
VERTEX
 8
GBM5
 10
1.4674
 20
0.6257
 30
5.4999
 70
32
 0
VERTEX
 8
GBM5
 10
1.5195
 20
0.5453
 30
5.4999
 70
32
 0
VERTEX
 8
GBM5
 10
1.6532
 20
0.3185
 30
5.4999
 70
32
 0
VERTEX
 8
GBM5
 10
1.6843
 20
0.2796
 30
5.4999
 70
32
 0
VERTEX
 8
GBM5
 10
1.7099
 20
0.2529
 30
5.4999
 70
32
 0
VERTEX
 8
GBM5
 10
1.7378
 20
0.2289
 30
5.4999
 70
32
 0
VERTEX
 8
GBM5
 10
1.7685
 20
0.2077
 30
5.4999
 70
32
 0
VERTEX
 8
GBM5
 10
1.7907
 20
0.1953
 30
5.4999
 70
32
 0
VERTEX
 8
GBM5
 10
1.8268
 20
0.1796
 30
5.4999
 70
32
 0
VERTEX
 8
GBM5
 10
1.8953
 20
0.1588
 30
5.4999
 70
32
 0
VERTEX
 8
GBM5
 10
1.9661
 20
0.145
 30
5.4999
 70
32
 0
VERTEX
 8
GBM5
 10
2.0383
 20
0.1381
 30
5.4999
 70
32
 0
VERTEX
 8
GBM5
 10
2.111
 20
0.1379
 30
5.4999
 70
32
 0
VERTEX
 8
GBM5
 10
2.1833
 20
0.1441
 30
5.4999
 70
32
 0
VERTEX
 8
GBM5
 10
2.2541
 20
0.1565
 30
5.4999
 70
32
 0
VERTEX
 8
GBM5
 10
2.3225
 20
0.175
 30
5.4999
 70
32
 0
VERTEX
 8
GBM5
 10
2.3877
 20
0.1993
 30
5.4999
 70
32
 0
VERTEX
 8
GBM5
 10
2.4486
 20
0.2292
 30
5.4999
 70
32
 0
VERTEX
 8
GBM5
 10
2.5044
 20
0.2646
 30
5.4999
 70
32
 0
VERTEX
 8
GBM5
 10
2.554
 20
0.3052
 30
5.4999
 70
32
 0
VERTEX
 8
GBM5
 10
2.5832
 20
0.3351
 30
5.4999
 70
32
 0
VERTEX
 8
GBM5
 10
2.609
 20
0.3671
 30
5.4999
 70
32
 0
VERTEX
 8
GBM5
 10
2.6311
 20
0.4013
 30
5.4999
 70
32
 0
VERTEX
 8
GBM5
 10
2.6492
 20
0.4374
 30
5.4999
 70
32
 0
VERTEX
 8
GBM5
 10
2.663
 20
0.4756
 30
5.4999
 70
32
 0
VERTEX
 8
GBM5
 10
2.6723
 20
0.5157
 30
5.4999
 70
32
 0
VERTEX
 8
GBM5
 10
2.6768
 20
0.5577
 30
5.4999
 70
32
 0
VERTEX
 8
GBM5
 10
2.6771
 20
0.5794
 30
5.4999
 70
32
 0
VERTEX
 8
GBM5
 10
2.6739
 20
0.624
 30
5.4999
 70
32
 0
VERTEX
 8
GBM5
 10
2.6695
 20
0.6473
 30
5.4999
 70
32
 0
VERTEX
 8
GBM5
 10
2.6625
 20
0.6713
 30
5.4999
 70
32
 0
VERTEX
 8
GBM5
 10
2.6527
 20
0.6956
 30
5.4999
 70
32
 0
VERTEX
 8
GBM5
 10
2.6402
 20
0.7194
 30
5.4999
 70
32
 0
VERTEX
 8
GBM5
 10
2.6282
 20
0.7377
 30
5.4999
 70
32
 0
VERTEX
 8
GBM5
 10
2.6145
 20
0.755
 30
5.4999
 70
32
 0
VERTEX
 8
GBM5
 10
2.5989
 20
0.771
 30
5.4999
 70
32
 0
VERTEX
 8
GBM5
 10
2.5817
 20
0.7854
 30
5.4999
 70
32
 0
VERTEX
 8
GBM5
 10
2.5675
 20
0.795
 30
5.4999
 70
32
 0
VERTEX
 8
GBM5
 10
2.5524
 20
0.8033
 30
5.4999
 70
32
 0
VERTEX
 8
GBM5
 10
2.5363
 20
0.8102
 30
5.4999
 70
32
 0
VERTEX
 8
GBM5
 10
2.525
 20
0.814
 30
5.4999
 70
32
 0
VERTEX
 8
GBM5
 10
2.5072
 20
0.8184
 30
5.4999
 70
32
 0
VERTEX
 8
GBM5
 10
2.4988
 20
0.8196
 30
5.4999
 70
32
 0
VERTEX
 8
GBM5
 10
2.4905
 20
0.82
 30
5.4999
 70
32
 0
VERTEX
 8
GBM5
 10
2.4824
 20
0.8195
 30
5.4999
 70
32
 0
VERTEX
 8
GBM5
 10
2.4706
 20
0.8176
 30
5.4999
 70
32
 0
VERTEX
 8
GBM5
 10
2.4589
 20
0.8144
 30
5.4999
 70
32
 0
VERTEX
 8
GBM5
 10
2.4397
 20
0.8071
 30
5.4999
 70
32
 0
VERTEX
 8
GBM5
 10
2.3875
 20
0.7854
 30
5.4999
 70
32
 0
VERTEX
 8
GBM5
 10
2.3699
 20
0.7807
 30
5.4999
 70
32
 0
VERTEX
 8
GBM5
 10
2.3559
 20
0.7786
 30
5.4999
 70
32
 0
VERTEX
 8
GBM5
 10
2.3412
 20
0.778
 30
5.4999
 70
32
 0
VERTEX
 8
GBM5
 10
2.3255
 20
0.7792
 30
5.4999
 70
32
 0
VERTEX
 8
GBM5
 10
2.3089
 20
0.7825
 30
5.4999
 70
32
 0
VERTEX
 8
GBM5
 10
2.2972
 20
0.786
 30
5.4999
 70
32
 0
VERTEX
 8
GBM5
 10
2.285
 20
0.7907
 30
5.4999
 70
32
 0
VERTEX
 8
GBM5
 10
2.275
 20
0.7959
 30
5.4999
 70
32
 0
VERTEX
 8
GBM5
 10
2.265
 20
0.8031
 30
5.4999
 70
32
 0
VERTEX
 8
GBM5
 10
2.255
 20
0.812
 30
5.4999
 70
32
 0
VERTEX
 8
GBM5
 10
2.2401
 20
0.8284
 30
5.4999
 70
32
 0
VERTEX
 8
GBM5
 10
2.2204
 20
0.8552
 30
5.4999
 70
32
 0
VERTEX
 8
GBM5
 10
2.1368
 20
1.0171
 30
5.4999
 70
32
 0
VERTEX
 8
GBM5
 10
2.0629
 20
1.1795
 30
5.4999
 70
32
 0
VERTEX
 8
GBM5
 10
1.953
 20
1.4026
 30
5.4999
 70
32
 0
VERTEX
 8
GBM5
 10
1.9148
 20
1.5021
 30
5.4999
 70
32
 0
VERTEX
 8
GBM5
 10
1.8824
 20
1.6099
 30
5.4999
 70
32
 0
VERTEX
 8
GBM5
 10
2.01
 20
1.5779
 30
5.4999
 70
32
 0
VERTEX
 8
GBM5
 10
2.1372
 20
1.5586
 30
5.4999
 70
32
 0
VERTEX
 8
GBM5
 10
2.2365
 20
1.5532
 30
5.4999
 70
32
 0
VERTEX
 8
GBM5
 10
2.3315
 20
1.5571
 30
5.4999
 70
32
 0
VERTEX
 8
GBM5
 10
2.399
 20
1.5667
 30
5.4999
 70
32
 0
VERTEX
 8
GBM5
 10
2.4624
 20
1.5821
 30
5.4999
 70
32
 0
VERTEX
 8
GBM5
 10
2.5209
 20
1.6037
 30
5.4999
 70
32
 0
VERTEX
 8
GBM5
 10
2.5569
 20
1.6216
 30
5.4999
 70
32
 0
VERTEX
 8
GBM5
 10
2.5901
 20
1.6424
 30
5.4999
 70
32
 0
VERTEX
 8
GBM5
 10
2.6205
 20
1.6661
 30
5.4999
 70
32
 0
VERTEX
 8
GBM5
 10
2.6477
 20
1.693
 30
5.4999
 70
32
 0
VERTEX
 8
GBM5
 10
2.6715
 20
1.7229
 30
5.4999
 70
32
 0
VERTEX
 8
GBM5
 10
2.6918
 20
1.7561
 30
5.4999
 70
32
 0
VERTEX
 8
GBM5
 10
2.7083
 20
1.7925
 30
5.4999
 70
32
 0
VERTEX
 8
GBM5
 10
2.7207
 20
1.8323
 30
5.4999
 70
32
 0
VERTEX
 8
GBM5
 10
2.7289
 20
1.8754
 30
5.4999
 70
32
 0
VERTEX
 8
GBM5
 10
2.7327
 20
1.9221
 30
5.4999
 70
32
 0
VERTEX
 8
GBM5
 10
2.7328
 20
1.9467
 30
5.4999
 70
32
 0
VERTEX
 8
GBM5
 10
2.7294
 20
1.9988
 30
5.4999
 70
32
 0
VERTEX
 8
GBM5
 10
2.7229
 20
2.0377
 30
5.4999
 70
32
 0
VERTEX
 8
GBM5
 10
2.7124
 20
2.073
 30
5.4999
 70
32
 0
VERTEX
 8
GBM5
 10
2.6982
 20
2.1048
 30
5.4999
 70
32
 0
VERTEX
 8
GBM5
 10
2.6804
 20
2.1333
 30
5.4999
 70
32
 0
VERTEX
 8
GBM5
 10
2.6592
 20
2.1587
 30
5.4999
 70
32
 0
VERTEX
 8
GBM5
 10
2.6349
 20
2.1813
 30
5.4999
 70
32
 0
VERTEX
 8
GBM5
 10
2.6078
 20
2.2011
 30
5.4999
 70
32
 0
VERTEX
 8
GBM5
 10
2.5779
 20
2.2185
 30
5.4999
 70
32
 0
VERTEX
 8
GBM5
 10
2.5285
 20
2.2404
 30
5.4999
 70
32
 0
VERTEX
 8
GBM5
 10
2.4744
 20
2.2578
 30
5.4999
 70
32
 0
VERTEX
 8
GBM5
 10
2.3958
 20
2.2754
 30
5.4999
 70
32
 0
VERTEX
 8
GBM5
 10
2.1338
 20
2.3044
 30
5.4999
 70
32
 0
VERTEX
 8
GBM5
 10
1.8685
 20
2.332
 30
5.4999
 70
32
 0
VERTEX
 8
GBM5
 10
1.9128
 20
2.3795
 30
5.4999
 70
32
 0
VERTEX
 8
GBM5
 10
1.9511
 20
2.4302
 30
5.4999
 70
32
 0
VERTEX
 8
GBM5
 10
1.9833
 20
2.4836
 30
5.4999
 70
32
 0
VERTEX
 8
GBM5
 10
2.0097
 20
2.5393
 30
5.4999
 70
32
 0
VERTEX
 8
GBM5
 10
2.0304
 20
2.5969
 30
5.4999
 70
32
 0
VERTEX
 8
GBM5
 10
2.0455
 20
2.656
 30
5.4999
 70
32
 0
VERTEX
 8
GBM5
 10
2.0553
 20
2.716
 30
5.4999
 70
32
 0
VERTEX
 8
GBM5
 10
2.0601
 20
2.8068
 30
5.4999
 70
32
 0
VERTEX
 8
GBM5
 10
2.0537
 20
2.8974
 30
5.4999
 70
32
 0
VERTEX
 8
GBM5
 10
2.0364
 20
2.9862
 30
5.4999
 70
32
 0
VERTEX
 8
GBM5
 10
2.0089
 20
3.0716
 30
5.4999
 70
32
 0
VERTEX
 8
GBM5
 10
1.9716
 20
3.1523
 30
5.4999
 70
32
 0
VERTEX
 8
GBM5
 10
1.925
 20
3.2267
 30
5.4999
 70
32
 0
VERTEX
 8
GBM5
 10
1.8891
 20
3.272
 30
5.4999
 70
32
 0
VERTEX
 8
GBM5
 10
1.8494
 20
3.3135
 30
5.4999
 70
32
 0
VERTEX
 8
GBM5
 10
1.8062
 20
3.3506
 30
5.4999
 70
32
 0
VERTEX
 8
GBM5
 10
1.7595
 20
3.3829
 30
5.4999
 70
32
 0
VERTEX
 8
GBM5
 10
1.7095
 20
3.4099
 30
5.4999
 70
32
 0
VERTEX
 8
GBM5
 10
1.6564
 20
3.4313
 30
5.4999
 70
32
 0
VERTEX
 8
GBM5
 10
1.6002
 20
3.4465
 30
5.4999
 70
32
 0
VERTEX
 8
GBM5
 10
1.5413
 20
3.4552
 30
5.4999
 70
32
 0
VERTEX
 8
GBM5
 10
1.4797
 20
3.4568
 30
5.4999
 70
32
 0
VERTEX
 8
GBM5
 10
1.4198
 20
3.4522
 30
5.4999
 70
32
 0
VERTEX
 8
GBM5
 10
1.3614
 20
3.4424
 30
5.4999
 70
32
 0
VERTEX
 8
GBM5
 10
1.3047
 20
3.4274
 30
5.4999
 70
32
 0
VERTEX
 8
GBM5
 10
1.2501
 20
3.4074
 30
5.4999
 70
32
 0
VERTEX
 8
GBM5
 10
1.1979
 20
3.3824
 30
5.4999
 70
32
 0
VERTEX
 8
GBM5
 10
1.1484
 20
3.3526
 30
5.4999
 70
32
 0
VERTEX
 8
GBM5
 10
1.1018
 20
3.3181
 30
5.4999
 70
32
 0
VERTEX
 8
GBM5
 10
1.0586
 20
3.279
 30
5.4999
 70
32
 0
VERTEX
 8
GBM5
 10
1.019
 20
3.2354
 30
5.4999
 70
32
 0
VERTEX
 8
GBM5
 10
0.9833
 20
3.1873
 30
5.4999
 70
32
 0
VERTEX
 8
GBM5
 10
0.9519
 20
3.135
 30
5.4999
 70
32
 0
VERTEX
 8
GBM5
 10
0.925
 20
3.0785
 30
5.4999
 70
32
 0
VERTEX
 8
GBM5
 10
0.9029
 20
3.0179
 30
5.4999
 70
32
 0
VERTEX
 8
GBM5
 10
0.886
 20
2.9533
 30
5.4999
 70
32
 0
VERTEX
 8
GBM5
 10
0.8746
 20
2.8849
 30
5.4999
 70
32
 0
VERTEX
 8
GBM5
 10
0.8702
 20
2.8372
 30
5.4999
 70
32
 0
VERTEX
 8
GBM5
 10
0.8686
 20
2.7625
 30
5.4999
 70
32
 0
VERTEX
 8
GBM5
 10
0.8727
 20
2.7063
 30
5.4999
 70
32
 0
VERTEX
 8
GBM5
 10
0.8818
 20
2.6541
 30
5.4999
 70
32
 0
VERTEX
 8
GBM5
 10
0.8953
 20
2.6056
 30
5.4999
 70
32
 0
VERTEX
 8
GBM5
 10
0.9158
 20
2.5515
 30
5.4999
 70
32
 0
VERTEX
 8
GBM5
 10
0.9742
 20
2.4393
 30
5.4999
 70
32
 0
VERTEX
 8
GBM5
 10
1.0353
 20
2.332
 30
5.4999
 70
32
 0
VERTEX
 8
GBM5
 10
0.4394
 20
2.2713
 30
5.4999
 70
32
 0
VERTEX
 8
GBM5
 10
0.3668
 20
2.2519
 30
5.4999
 70
32
 0
VERTEX
 8
GBM5
 10
0.3169
 20
2.2332
 30
5.4999
 70
32
 0
VERTEX
 8
GBM5
 10
0.2715
 20
2.2105
 30
5.4999
 70
32
 0
VERTEX
 8
GBM5
 10
0.2441
 20
2.1928
 30
5.4999
 70
32
 0
VERTEX
 8
GBM5
 10
0.2191
 20
2.1729
 30
5.4999
 70
32
 0
VERTEX
 8
GBM5
 10
0.1966
 20
2.1506
 30
5.4999
 70
32
 0
VERTEX
 8
GBM5
 10
0.177
 20
2.1259
 30
5.4999
 70
32
 0
VERTEX
 8
GBM5
 10
0.1602
 20
2.0984
 30
5.4999
 70
32
 0
VERTEX
 8
GBM5
 10
0.1466
 20
2.0682
 30
5.4999
 70
32
 0
VERTEX
 8
GBM5
 10
0.1352
 20
2.0323
 30
5.4999
 70
32
 0
VERTEX
 8
GBM5
 10
0.128
 20
1.9958
 30
5.4999
 70
32
 0
VERTEX
 8
GBM5
 10
0.1247
 20
1.9588
 30
5.4999
 70
32
 0
VERTEX
 8
GBM5
 10
0.1251
 20
1.9217
 30
5.4999
 70
32
 0
VERTEX
 8
GBM5
 10
0.129
 20
1.8848
 30
5.4999
 70
32
 0
VERTEX
 8
GBM5
 10
0.1362
 20
1.8484
 30
5.4999
 70
32
 0
VERTEX
 8
GBM5
 10
0.1507
 20
1.8011
 30
5.4999
 70
32
 0
VERTEX
 8
GBM5
 10
0.1703
 20
1.7559
 30
5.4999
 70
32
 0
VERTEX
 8
GBM5
 10
0.1945
 20
1.7135
 30
5.4999
 70
32
 0
VERTEX
 8
GBM5
 10
0.2228
 20
1.6746
 30
5.4999
 70
32
 0
VERTEX
 8
GBM5
 10
0.2466
 20
1.6482
 30
5.4999
 70
32
 0
VERTEX
 8
GBM5
 10
0.2722
 20
1.6244
 30
5.4999
 70
32
 0
VERTEX
 8
GBM5
 10
0.2995
 20
1.6036
 30
5.4999
 70
32
 0
VERTEX
 8
GBM5
 10
0.3283
 20
1.5861
 30
5.4999
 70
32
 0
VERTEX
 8
GBM5
 10
0.3483
 20
1.5763
 30
5.4999
 70
32
 0
VERTEX
 8
GBM5
 10
0.3687
 20
1.5683
 30
5.4999
 70
32
 0
VERTEX
 8
GBM5
 10
0.4049
 20
1.558
 30
5.4999
 70
32
 0
VERTEX
 8
GBM5
 10
0.4416
 20
1.5519
 30
5.4999
 70
32
 0
VERTEX
 8
GBM5
 10
0.4788
 20
1.5493
 30
5.4999
 70
32
 0
VERTEX
 8
GBM5
 10
0.5289
 20
1.5505
 30
5.4999
 70
32
 0
VERTEX
 8
GBM5
 10
0.6048
 20
1.5598
 30
5.4999
 70
32
 0
VERTEX
 8
GBM5
 10
0.8713
 20
1.605
 30
5.4999
 70
32
 0
VERTEX
 8
GBM5
 10
0.9209
 20
1.6057
 30
5.4999
 70
32
 0
VERTEX
 8
GBM5
 10
0.9575
 20
1.6027
 30
5.4999
 70
32
 0
VERTEX
 8
GBM5
 10
0.9936
 20
1.596
 30
5.4999
 70
32
 0
VERTEX
 8
GBM5
 10
0.9775
 20
1.53
 30
5.4999
 70
32
 0
VERTEX
 8
GBM5
 10
0.953
 20
1.4598
 30
5.4999
 70
32
 0
VERTEX
 8
GBM5
 10
0.8846
 20
1.3195
 30
5.4999
 70
32
 0
VERTEX
 8
GBM5
 10
0.7992
 20
1.1656
 30
5.4999
 70
32
 0
VERTEX
 8
GBM5
 10
0.6601
 20
0.8816
 30
5.4999
 70
32
 0
VERTEX
 8
GBM5
 10
0.6387
 20
0.8528
 30
5.4999
 70
32
 0
VERTEX
 8
GBM5
 10
0.6216
 20
0.8338
 30
5.4999
 70
32
 0
VERTEX
 8
GBM5
 10
0.6035
 20
0.8177
 30
5.4999
 70
32
 0
VERTEX
 8
GBM5
 10
0.5908
 20
0.8086
 30
5.4999
 70
32
 0
VERTEX
 8
GBM5
 10
0.5775
 20
0.801
 30
5.4999
 70
32
 0
VERTEX
 8
GBM5
 10
0.5637
 20
0.795
 30
5.4999
 70
32
 0
VERTEX
 8
GBM5
 10
0.5493
 20
0.7907
 30
5.4999
 70
32
 0
VERTEX
 8
GBM5
 10
0.539
 20
0.7889
 30
5.4999
 70
32
 0
VERTEX
 8
GBM5
 10
0.5288
 20
0.7882
 30
5.4999
 70
32
 0
VERTEX
 8
GBM5
 10
0.5187
 20
0.7886
 30
5.4999
 70
32
 0
VERTEX
 8
GBM5
 10
0.5055
 20
0.7903
 30
5.4999
 70
32
 0
VERTEX
 8
GBM5
 10
0.4892
 20
0.7942
 30
5.4999
 70
32
 0
VERTEX
 8
GBM5
 10
0.4176
 20
0.8174
 30
5.4999
 70
32
 0
VERTEX
 8
GBM5
 10
0.4095
 20
0.8186
 30
5.4999
 70
32
 0
VERTEX
 8
GBM5
 10
0.4042
 20
0.8188
 30
5.4999
 70
32
 0
VERTEX
 8
GBM5
 10
0.3965
 20
0.8184
 30
5.4999
 70
32
 0
VERTEX
 8
GBM5
 10
0.3781
 20
0.8151
 30
5.4999
 70
32
 0
VERTEX
 8
GBM5
 10
0.3603
 20
0.81
 30
5.4999
 70
32
 0
VERTEX
 8
GBM5
 10
0.3432
 20
0.8032
 30
5.4999
 70
32
 0
VERTEX
 8
GBM5
 10
0.3216
 20
0.7919
 30
5.4999
 70
32
 0
VERTEX
 8
GBM5
 10
0.3014
 20
0.7784
 30
5.4999
 70
32
 0
VERTEX
 8
GBM5
 10
0.2828
 20
0.7631
 30
5.4999
 70
32
 0
VERTEX
 8
GBM5
 10
0.2617
 20
0.7421
 30
5.4999
 70
32
 0
VERTEX
 8
GBM5
 10
0.2434
 20
0.7199
 30
5.4999
 70
32
 0
VERTEX
 8
GBM5
 10
0.228
 20
0.6971
 30
5.4999
 70
32
 0
VERTEX
 8
GBM5
 10
0.2157
 20
0.6747
 30
5.4999
 70
32
 0
VERTEX
 8
GBM5
 10
0.2083
 20
0.6576
 30
5.4999
 70
32
 0
VERTEX
 8
GBM5
 10
0.2021
 20
0.6379
 30
5.4999
 70
32
 0
VERTEX
 8
GBM5
 10
0.1978
 20
0.615
 30
5.4999
 70
32
 0
VERTEX
 8
GBM5
 10
0.1957
 20
0.592
 30
5.4999
 70
32
 0
VERTEX
 8
GBM5
 10
0.1961
 20
0.5575
 30
5.4999
 70
32
 0
VERTEX
 8
GBM5
 10
0.2006
 20
0.5233
 30
5.4999
 70
32
 0
VERTEX
 8
GBM5
 10
0.2088
 20
0.4895
 30
5.4999
 70
32
 0
VERTEX
 8
GBM5
 10
0.2203
 20
0.4563
 30
5.4999
 70
32
 0
VERTEX
 8
GBM5
 10
0.2402
 20
0.4136
 30
5.4999
 70
32
 0
VERTEX
 8
GBM5
 10
0.2644
 20
0.3729
 30
5.4999
 70
32
 0
VERTEX
 8
GBM5
 10
0.2994
 20
0.3257
 30
5.4999
 70
32
 0
VERTEX
 8
GBM5
 10
0.3381
 20
0.2834
 30
5.4999
 70
32
 0
VERTEX
 8
GBM5
 10
0.3787
 20
0.2472
 30
5.4999
 70
32
 0
VERTEX
 8
GBM5
 10
0.4113
 20
0.2232
 30
5.4999
 70
32
 0
VERTEX
 8
GBM5
 10
0.4353
 20
0.2085
 30
5.4999
 70
32
 0
SEQEND
 0
ENDSEC
 0
EOF
