 0
SECTION
 2
HEADER
 9
$ACADVER
 1
AC1009
 0
ENDSEC
 0
SECTION
 2
TABLES
 0
TABLE
 2
LTYPE
 70
1
 0
LTYPE
 2
CONTINUOUS
 70
64
 3
solid line
 72
65
 73
0
 40
0.0
 0
ENDTAB
 0
TABLE
 2
LAYER
 70
6
 0
LAYER
 2
0
 70
0
 62
7
 6
CONTINUOUS
 0
LAYER
 2
MERMAID
 70
64
 62
7
 6
CONTINUOUS
 0
ENDTAB
 0
ENDSEC
 0
SECTION
 2
BLOCKS
 0
ENDSEC
 0
SECTION
 2
ENTITIES
 0
POLYLINE
 8
MERMAID
 66
1
 10
0.0
 20
0.0
 30
0.0
 70
9
 0
VERTEX
 8
MERMAID
 10
1.9486
 20
0.9128
 30
5.4163
 70
32
 0
VERTEX
 8
MERMAID
 10
2.3684
 20
0.6838
 30
5.4163
 70
32
 0
VERTEX
 8
MERMAID
 10
2.7845
 20
0.505
 30
5.4163
 70
32
 0
VERTEX
 8
MERMAID
 10
3.2345
 20
0.3603
 30
5.4163
 70
32
 0
VERTEX
 8
MERMAID
 10
3.5853
 20
0.2786
 30
5.4163
 70
32
 0
VERTEX
 8
MERMAID
 10
3.9578
 20
0.2184
 30
5.4163
 70
32
 0
VERTEX
 8
MERMAID
 10
4.2541
 20
0.2184
 30
5.4163
 70
32
 0
VERTEX
 8
MERMAID
 10
4.4417
 20
0.2507
 30
5.4163
 70
32
 0
VERTEX
 8
MERMAID
 10
4.5422
 20
0.2786
 30
5.4163
 70
32
 0
VERTEX
 8
MERMAID
 10
4.6084
 20
0.3041
 30
5.4163
 70
32
 0
VERTEX
 8
MERMAID
 10
4.6574
 20
0.3284
 30
5.4163
 70
32
 0
VERTEX
 8
MERMAID
 10
4.7026
 20
0.3566
 30
5.4163
 70
32
 0
VERTEX
 8
MERMAID
 10
4.7336
 20
0.3805
 30
5.4163
 70
32
 0
VERTEX
 8
MERMAID
 10
4.762
 20
0.4071
 30
5.4163
 70
32
 0
VERTEX
 8
MERMAID
 10
4.7877
 20
0.4364
 30
5.4163
 70
32
 0
VERTEX
 8
MERMAID
 10
4.8105
 20
0.4686
 30
5.4163
 70
32
 0
VERTEX
 8
MERMAID
 10
4.8302
 20
0.5039
 30
5.4163
 70
32
 0
VERTEX
 8
MERMAID
 10
4.8466
 20
0.5425
 30
5.4163
 70
32
 0
VERTEX
 8
MERMAID
 10
4.8466
 20
0.6166
 30
5.4163
 70
32
 0
VERTEX
 8
MERMAID
 10
4.8276
 20
0.6232
 30
5.4163
 70
32
 0
VERTEX
 8
MERMAID
 10
4.8008
 20
0.6296
 30
5.4163
 70
32
 0
VERTEX
 8
MERMAID
 10
4.6733
 20
0.6414
 30
5.4163
 70
32
 0
VERTEX
 8
MERMAID
 10
4.5411
 20
0.6536
 30
5.4163
 70
32
 0
VERTEX
 8
MERMAID
 10
4.4488
 20
0.6768
 30
5.4163
 70
32
 0
VERTEX
 8
MERMAID
 10
4.3649
 20
0.7075
 30
5.4163
 70
32
 0
VERTEX
 8
MERMAID
 10
4.2882
 20
0.745
 30
5.4163
 70
32
 0
VERTEX
 8
MERMAID
 10
4.2179
 20
0.7883
 30
5.4163
 70
32
 0
VERTEX
 8
MERMAID
 10
4.1321
 20
0.8537
 30
5.4163
 70
32
 0
VERTEX
 8
MERMAID
 10
4.0345
 20
0.9448
 30
5.4163
 70
32
 0
VERTEX
 8
MERMAID
 10
3.6404
 20
1.3532
 30
5.4163
 70
32
 0
VERTEX
 8
MERMAID
 10
3.5498
 20
1.4197
 30
5.4163
 70
32
 0
VERTEX
 8
MERMAID
 10
3.5007
 20
1.4499
 30
5.4163
 70
32
 0
VERTEX
 8
MERMAID
 10
3.4485
 20
1.4776
 30
5.4163
 70
32
 0
VERTEX
 8
MERMAID
 10
3.3193
 20
1.1444
 30
5.4163
 70
32
 0
VERTEX
 8
MERMAID
 10
3.2771
 20
1.0685
 30
5.4163
 70
32
 0
VERTEX
 8
MERMAID
 10
3.238
 20
1.0129
 30
5.4163
 70
32
 0
VERTEX
 8
MERMAID
 10
3.2052
 20
0.9753
 30
5.4163
 70
32
 0
VERTEX
 8
MERMAID
 10
3.169
 20
0.942
 30
5.4163
 70
32
 0
VERTEX
 8
MERMAID
 10
3.1429
 20
0.9227
 30
5.4163
 70
32
 0
VERTEX
 8
MERMAID
 10
3.1151
 20
0.9058
 30
5.4163
 70
32
 0
VERTEX
 8
MERMAID
 10
3.0856
 20
0.8916
 30
5.4163
 70
32
 0
VERTEX
 8
MERMAID
 10
3.0542
 20
0.8804
 30
5.4163
 70
32
 0
VERTEX
 8
MERMAID
 10
3.0209
 20
0.8723
 30
5.4163
 70
32
 0
VERTEX
 8
MERMAID
 10
3.0035
 20
0.8695
 30
5.4163
 70
32
 0
VERTEX
 8
MERMAID
 10
2.9671
 20
0.8666
 30
5.4163
 70
32
 0
VERTEX
 8
MERMAID
 10
2.9254
 20
0.8677
 30
5.4163
 70
32
 0
VERTEX
 8
MERMAID
 10
2.8952
 20
0.8716
 30
5.4163
 70
32
 0
VERTEX
 8
MERMAID
 10
2.8661
 20
0.8782
 30
5.4163
 70
32
 0
VERTEX
 8
MERMAID
 10
2.8384
 20
0.8875
 30
5.4163
 70
32
 0
VERTEX
 8
MERMAID
 10
2.8123
 20
0.8994
 30
5.4163
 70
32
 0
VERTEX
 8
MERMAID
 10
2.7881
 20
0.914
 30
5.4163
 70
32
 0
VERTEX
 8
MERMAID
 10
2.766
 20
0.9312
 30
5.4163
 70
32
 0
VERTEX
 8
MERMAID
 10
2.7464
 20
0.9511
 30
5.4163
 70
32
 0
VERTEX
 8
MERMAID
 10
2.7347
 20
0.9658
 30
5.4163
 70
32
 0
VERTEX
 8
MERMAID
 10
2.7242
 20
0.9817
 30
5.4163
 70
32
 0
VERTEX
 8
MERMAID
 10
2.7151
 20
0.9987
 30
5.4163
 70
32
 0
VERTEX
 8
MERMAID
 10
2.7074
 20
1.0169
 30
5.4163
 70
32
 0
VERTEX
 8
MERMAID
 10
2.7011
 20
1.0363
 30
5.4163
 70
32
 0
VERTEX
 8
MERMAID
 10
2.6946
 20
1.0675
 30
5.4163
 70
32
 0
VERTEX
 8
MERMAID
 10
2.6917
 20
1.1013
 30
5.4163
 70
32
 0
VERTEX
 8
MERMAID
 10
2.6928
 20
1.1377
 30
5.4163
 70
32
 0
VERTEX
 8
MERMAID
 10
2.6981
 20
1.1768
 30
5.4163
 70
32
 0
VERTEX
 8
MERMAID
 10
2.7078
 20
1.2184
 30
5.4163
 70
32
 0
VERTEX
 8
MERMAID
 10
2.6818
 20
1.2297
 30
5.4163
 70
32
 0
VERTEX
 8
MERMAID
 10
2.6582
 20
1.243
 30
5.4163
 70
32
 0
VERTEX
 8
MERMAID
 10
2.6369
 20
1.2582
 30
5.4163
 70
32
 0
VERTEX
 8
MERMAID
 10
2.6181
 20
1.2752
 30
5.4163
 70
32
 0
VERTEX
 8
MERMAID
 10
2.6015
 20
1.2936
 30
5.4163
 70
32
 0
VERTEX
 8
MERMAID
 10
2.5872
 20
1.3135
 30
5.4163
 70
32
 0
VERTEX
 8
MERMAID
 10
2.5751
 20
1.3345
 30
5.4163
 70
32
 0
VERTEX
 8
MERMAID
 10
2.5652
 20
1.3565
 30
5.4163
 70
32
 0
VERTEX
 8
MERMAID
 10
2.5575
 20
1.3794
 30
5.4163
 70
32
 0
VERTEX
 8
MERMAID
 10
2.5518
 20
1.4029
 30
5.4163
 70
32
 0
VERTEX
 8
MERMAID
 10
2.5472
 20
1.4391
 30
5.4163
 70
32
 0
VERTEX
 8
MERMAID
 10
2.547
 20
1.4758
 30
5.4163
 70
32
 0
VERTEX
 8
MERMAID
 10
2.5512
 20
1.5125
 30
5.4163
 70
32
 0
VERTEX
 8
MERMAID
 10
2.5595
 20
1.5485
 30
5.4163
 70
32
 0
VERTEX
 8
MERMAID
 10
2.5719
 20
1.5833
 30
5.4163
 70
32
 0
VERTEX
 8
MERMAID
 10
2.5882
 20
1.6162
 30
5.4163
 70
32
 0
VERTEX
 8
MERMAID
 10
2.6082
 20
1.6468
 30
5.4163
 70
32
 0
VERTEX
 8
MERMAID
 10
2.6236
 20
1.6656
 30
5.4163
 70
32
 0
VERTEX
 8
MERMAID
 10
2.6405
 20
1.6829
 30
5.4163
 70
32
 0
VERTEX
 8
MERMAID
 10
2.6589
 20
1.6985
 30
5.4163
 70
32
 0
VERTEX
 8
MERMAID
 10
2.6687
 20
1.7056
 30
5.4163
 70
32
 0
VERTEX
 8
MERMAID
 10
2.6893
 20
1.7183
 30
5.4163
 70
32
 0
VERTEX
 8
MERMAID
 10
2.7299
 20
1.7375
 30
5.4163
 70
32
 0
VERTEX
 8
MERMAID
 10
2.7717
 20
1.7516
 30
5.4163
 70
32
 0
VERTEX
 8
MERMAID
 10
2.8146
 20
1.7608
 30
5.4163
 70
32
 0
VERTEX
 8
MERMAID
 10
2.8582
 20
1.7657
 30
5.4163
 70
32
 0
VERTEX
 8
MERMAID
 10
2.9173
 20
1.7661
 30
5.4163
 70
32
 0
VERTEX
 8
MERMAID
 10
2.9768
 20
1.7606
 30
5.4163
 70
32
 0
VERTEX
 8
MERMAID
 10
3.0511
 20
1.7466
 30
5.4163
 70
32
 0
VERTEX
 8
MERMAID
 10
3.2226
 20
1.6925
 30
5.4163
 70
32
 0
VERTEX
 8
MERMAID
 10
3.3837
 20
1.6258
 30
5.4163
 70
32
 0
VERTEX
 8
MERMAID
 10
3.4116
 20
1.6895
 30
5.4163
 70
32
 0
VERTEX
 8
MERMAID
 10
3.4335
 20
1.7593
 30
5.4163
 70
32
 0
VERTEX
 8
MERMAID
 10
3.4546
 20
1.8604
 30
5.4163
 70
32
 0
VERTEX
 8
MERMAID
 10
3.4732
 20
2.0251
 30
5.4163
 70
32
 0
VERTEX
 8
MERMAID
 10
3.5157
 20
2.7465
 30
5.4163
 70
32
 0
VERTEX
 8
MERMAID
 10
3.5375
 20
2.8469
 30
5.4163
 70
32
 0
VERTEX
 8
MERMAID
 10
3.5518
 20
2.8937
 30
5.4163
 70
32
 0
VERTEX
 8
MERMAID
 10
3.5782
 20
2.959
 30
5.4163
 70
32
 0
VERTEX
 8
MERMAID
 10
3.3812
 20
2.9511
 30
5.4163
 70
32
 0
VERTEX
 8
MERMAID
 10
3.2009
 20
2.9249
 30
5.4163
 70
32
 0
VERTEX
 8
MERMAID
 10
3.0679
 20
2.8916
 30
5.4163
 70
32
 0
VERTEX
 8
MERMAID
 10
2.9443
 20
2.8482
 30
5.4163
 70
32
 0
VERTEX
 8
MERMAID
 10
2.8298
 20
2.7953
 30
5.4163
 70
32
 0
VERTEX
 8
MERMAID
 10
2.7236
 20
2.7336
 30
5.4163
 70
32
 0
VERTEX
 8
MERMAID
 10
2.6254
 20
2.6639
 30
5.4163
 70
32
 0
VERTEX
 8
MERMAID
 10
2.513
 20
2.5664
 30
5.4163
 70
32
 0
VERTEX
 8
MERMAID
 10
2.4113
 20
2.4587
 30
5.4163
 70
32
 0
VERTEX
 8
MERMAID
 10
2.3192
 20
2.3422
 30
5.4163
 70
32
 0
VERTEX
 8
MERMAID
 10
2.2357
 20
2.2183
 30
5.4163
 70
32
 0
VERTEX
 8
MERMAID
 10
2.1671
 20
2.0953
 30
5.4163
 70
32
 0
VERTEX
 8
MERMAID
 10
1.9871
 20
1.7446
 30
5.4163
 70
32
 0
VERTEX
 8
MERMAID
 10
1.9345
 20
1.6693
 30
5.4163
 70
32
 0
VERTEX
 8
MERMAID
 10
1.8847
 20
1.612
 30
5.4163
 70
32
 0
VERTEX
 8
MERMAID
 10
1.863
 20
1.5908
 30
5.4163
 70
32
 0
VERTEX
 8
MERMAID
 10
1.8283
 20
1.561
 30
5.4163
 70
32
 0
VERTEX
 8
MERMAID
 10
1.7141
 20
1.5634
 30
5.4163
 70
32
 0
VERTEX
 8
MERMAID
 10
1.6023
 20
1.5762
 30
5.4163
 70
32
 0
VERTEX
 8
MERMAID
 10
1.4948
 20
1.599
 30
5.4163
 70
32
 0
VERTEX
 8
MERMAID
 10
1.3934
 20
1.6319
 30
5.4163
 70
32
 0
VERTEX
 8
MERMAID
 10
1.3181
 20
1.6654
 30
5.4163
 70
32
 0
VERTEX
 8
MERMAID
 10
1.2489
 20
1.7051
 30
5.4163
 70
32
 0
VERTEX
 8
MERMAID
 10
1.2017
 20
1.739
 30
5.4163
 70
32
 0
VERTEX
 8
MERMAID
 10
1.1589
 20
1.7764
 30
5.4163
 70
32
 0
VERTEX
 8
MERMAID
 10
1.1209
 20
1.8172
 30
5.4163
 70
32
 0
VERTEX
 8
MERMAID
 10
1.0883
 20
1.8614
 30
5.4163
 70
32
 0
VERTEX
 8
MERMAID
 10
1.0613
 20
1.909
 30
5.4163
 70
32
 0
VERTEX
 8
MERMAID
 10
1.0404
 20
1.96
 30
5.4163
 70
32
 0
VERTEX
 8
MERMAID
 10
1.0301
 20
1.9958
 30
5.4163
 70
32
 0
VERTEX
 8
MERMAID
 10
1.0228
 20
2.0331
 30
5.4163
 70
32
 0
VERTEX
 8
MERMAID
 10
1.0149
 20
2.1179
 30
5.4163
 70
32
 0
VERTEX
 8
MERMAID
 10
1.0156
 20
2.1782
 30
5.4163
 70
32
 0
VERTEX
 8
MERMAID
 10
1.0216
 20
2.2356
 30
5.4163
 70
32
 0
VERTEX
 8
MERMAID
 10
1.0325
 20
2.2902
 30
5.4163
 70
32
 0
VERTEX
 8
MERMAID
 10
1.048
 20
2.3421
 30
5.4163
 70
32
 0
VERTEX
 8
MERMAID
 10
1.0677
 20
2.3911
 30
5.4163
 70
32
 0
VERTEX
 8
MERMAID
 10
1.0998
 20
2.4522
 30
5.4163
 70
32
 0
VERTEX
 8
MERMAID
 10
1.138
 20
2.5083
 30
5.4163
 70
32
 0
VERTEX
 8
MERMAID
 10
1.1812
 20
2.5596
 30
5.4163
 70
32
 0
VERTEX
 8
MERMAID
 10
1.2287
 20
2.606
 30
5.4163
 70
32
 0
VERTEX
 8
MERMAID
 10
1.2928
 20
2.6571
 30
5.4163
 70
32
 0
VERTEX
 8
MERMAID
 10
1.3605
 20
2.7007
 30
5.4163
 70
32
 0
VERTEX
 8
MERMAID
 10
1.4302
 20
2.7368
 30
5.4163
 70
32
 0
VERTEX
 8
MERMAID
 10
1.5493
 20
2.7849
 30
5.4163
 70
32
 0
VERTEX
 8
MERMAID
 10
1.8883
 20
2.8781
 30
5.4163
 70
32
 0
VERTEX
 8
MERMAID
 10
2.2357
 20
2.959
 30
5.4163
 70
32
 0
VERTEX
 8
MERMAID
 10
2.4873
 20
3.0384
 30
5.4163
 70
32
 0
VERTEX
 8
MERMAID
 10
2.6644
 20
3.114
 30
5.4163
 70
32
 0
VERTEX
 8
MERMAID
 10
2.8087
 20
3.1936
 30
5.4163
 70
32
 0
VERTEX
 8
MERMAID
 10
2.8979
 20
3.2549
 30
5.4163
 70
32
 0
VERTEX
 8
MERMAID
 10
2.9794
 20
3.3232
 30
5.4163
 70
32
 0
VERTEX
 8
MERMAID
 10
3.0344
 20
3.3793
 30
5.4163
 70
32
 0
VERTEX
 8
MERMAID
 10
3.0834
 20
3.4397
 30
5.4163
 70
32
 0
VERTEX
 8
MERMAID
 10
3.1257
 20
3.5046
 30
5.4163
 70
32
 0
VERTEX
 8
MERMAID
 10
3.1603
 20
3.5741
 30
5.4163
 70
32
 0
VERTEX
 8
MERMAID
 10
3.1868
 20
3.6484
 30
5.4163
 70
32
 0
VERTEX
 8
MERMAID
 10
3.1994
 20
3.7007
 30
5.4163
 70
32
 0
VERTEX
 8
MERMAID
 10
3.2078
 20
3.7553
 30
5.4163
 70
32
 0
VERTEX
 8
MERMAID
 10
3.2153
 20
3.8662
 30
5.4163
 70
32
 0
VERTEX
 8
MERMAID
 10
3.213
 20
3.9723
 30
5.4163
 70
32
 0
VERTEX
 8
MERMAID
 10
3.2014
 20
4.0728
 30
5.4163
 70
32
 0
VERTEX
 8
MERMAID
 10
3.1813
 20
4.167
 30
5.4163
 70
32
 0
VERTEX
 8
MERMAID
 10
3.1576
 20
4.242
 30
5.4163
 70
32
 0
VERTEX
 8
MERMAID
 10
3.1285
 20
4.3113
 30
5.4163
 70
32
 0
VERTEX
 8
MERMAID
 10
3.1004
 20
4.3643
 30
5.4163
 70
32
 0
VERTEX
 8
MERMAID
 10
3.0689
 20
4.4126
 30
5.4163
 70
32
 0
VERTEX
 8
MERMAID
 10
3.0349
 20
4.4557
 30
5.4163
 70
32
 0
VERTEX
 8
MERMAID
 10
2.9232
 20
4.5716
 30
5.4163
 70
32
 0
VERTEX
 8
MERMAID
 10
2.8097
 20
4.7182
 30
5.4163
 70
32
 0
VERTEX
 8
MERMAID
 10
2.7842
 20
4.7689
 30
5.4163
 70
32
 0
VERTEX
 8
MERMAID
 10
2.7637
 20
4.8228
 30
5.4163
 70
32
 0
VERTEX
 8
MERMAID
 10
2.7447
 20
4.8942
 30
5.4163
 70
32
 0
VERTEX
 8
MERMAID
 10
2.7323
 20
4.9697
 30
5.4163
 70
32
 0
VERTEX
 8
MERMAID
 10
2.7247
 20
5.0812
 30
5.4163
 70
32
 0
VERTEX
 8
MERMAID
 10
2.7331
 20
5.2844
 30
5.4163
 70
32
 0
VERTEX
 8
MERMAID
 10
2.7634
 20
5.5144
 30
5.4163
 70
32
 0
VERTEX
 8
MERMAID
 10
2.7774
 20
5.5103
 30
5.4163
 70
32
 0
VERTEX
 8
MERMAID
 10
2.7908
 20
5.505
 30
5.4163
 70
32
 0
VERTEX
 8
MERMAID
 10
2.8078
 20
5.4961
 30
5.4163
 70
32
 0
VERTEX
 8
MERMAID
 10
2.8239
 20
5.4856
 30
5.4163
 70
32
 0
VERTEX
 8
MERMAID
 10
2.8428
 20
5.4705
 30
5.4163
 70
32
 0
VERTEX
 8
MERMAID
 10
2.864
 20
5.4501
 30
5.4163
 70
32
 0
VERTEX
 8
MERMAID
 10
2.9023
 20
5.4051
 30
5.4163
 70
32
 0
VERTEX
 8
MERMAID
 10
2.9393
 20
5.357
 30
5.4163
 70
32
 0
VERTEX
 8
MERMAID
 10
3.158
 20
5.0627
 30
5.4163
 70
32
 0
VERTEX
 8
MERMAID
 10
3.4022
 20
4.7737
 30
5.4163
 70
32
 0
VERTEX
 8
MERMAID
 10
3.7541
 20
4.4311
 30
5.4163
 70
32
 0
VERTEX
 8
MERMAID
 10
4.0133
 20
4.1764
 30
5.4163
 70
32
 0
VERTEX
 8
MERMAID
 10
4.0579
 20
4.1174
 30
5.4163
 70
32
 0
VERTEX
 8
MERMAID
 10
4.082
 20
4.0775
 30
5.4163
 70
32
 0
VERTEX
 8
MERMAID
 10
4.0965
 20
4.0475
 30
5.4163
 70
32
 0
VERTEX
 8
MERMAID
 10
4.1072
 20
4.0174
 30
5.4163
 70
32
 0
VERTEX
 8
MERMAID
 10
4.1122
 20
3.9974
 30
5.4163
 70
32
 0
VERTEX
 8
MERMAID
 10
4.1152
 20
3.9775
 30
5.4163
 70
32
 0
VERTEX
 8
MERMAID
 10
4.116
 20
3.9612
 30
5.4163
 70
32
 0
VERTEX
 8
MERMAID
 10
4.1152
 20
3.9412
 30
5.4163
 70
32
 0
VERTEX
 8
MERMAID
 10
4.1118
 20
3.9174
 30
5.4163
 70
32
 0
VERTEX
 8
MERMAID
 10
4.1003
 20
3.8699
 30
5.4163
 70
32
 0
VERTEX
 8
MERMAID
 10
4.088
 20
3.8253
 30
5.4163
 70
32
 0
VERTEX
 8
MERMAID
 10
4.0781
 20
3.7738
 30
5.4163
 70
32
 0
VERTEX
 8
MERMAID
 10
4.0722
 20
3.6896
 30
5.4163
 70
32
 0
VERTEX
 8
MERMAID
 10
4.0739
 20
3.6074
 30
5.4163
 70
32
 0
VERTEX
 8
MERMAID
 10
4.0845
 20
3.5163
 30
5.4163
 70
32
 0
VERTEX
 8
MERMAID
 10
4.1032
 20
3.4287
 30
5.4163
 70
32
 0
VERTEX
 8
MERMAID
 10
4.1293
 20
3.345
 30
5.4163
 70
32
 0
VERTEX
 8
MERMAID
 10
4.153
 20
3.285
 30
5.4163
 70
32
 0
VERTEX
 8
MERMAID
 10
4.18
 20
3.2275
 30
5.4163
 70
32
 0
VERTEX
 8
MERMAID
 10
4.1883
 20
3.2364
 30
5.4163
 70
32
 0
VERTEX
 8
MERMAID
 10
4.195
 20
3.2464
 30
5.4163
 70
32
 0
VERTEX
 8
MERMAID
 10
4.2002
 20
3.2574
 30
5.4163
 70
32
 0
VERTEX
 8
MERMAID
 10
4.2041
 20
3.2695
 30
5.4163
 70
32
 0
VERTEX
 8
MERMAID
 10
4.2069
 20
3.2823
 30
5.4163
 70
32
 0
VERTEX
 8
MERMAID
 10
4.2091
 20
3.303
 30
5.4163
 70
32
 0
VERTEX
 8
MERMAID
 10
4.2093
 20
3.3402
 30
5.4163
 70
32
 0
VERTEX
 8
MERMAID
 10
4.2047
 20
3.4582
 30
5.4163
 70
32
 0
VERTEX
 8
MERMAID
 10
4.2068
 20
3.4804
 30
5.4163
 70
32
 0
VERTEX
 8
MERMAID
 10
4.2111
 20
3.5012
 30
5.4163
 70
32
 0
VERTEX
 8
MERMAID
 10
4.2154
 20
3.5142
 30
5.4163
 70
32
 0
VERTEX
 8
MERMAID
 10
4.2211
 20
3.5263
 30
5.4163
 70
32
 0
VERTEX
 8
MERMAID
 10
4.2284
 20
3.5375
 30
5.4163
 70
32
 0
VERTEX
 8
MERMAID
 10
4.2373
 20
3.5477
 30
5.4163
 70
32
 0
VERTEX
 8
MERMAID
 10
4.2424
 20
3.5524
 30
5.4163
 70
32
 0
VERTEX
 8
MERMAID
 10
4.2541
 20
3.5608
 30
5.4163
 70
32
 0
VERTEX
 8
MERMAID
 10
4.2816
 20
3.554
 30
5.4163
 70
32
 0
VERTEX
 8
MERMAID
 10
4.307
 20
3.5449
 30
5.4163
 70
32
 0
VERTEX
 8
MERMAID
 10
4.3304
 20
3.5338
 30
5.4163
 70
32
 0
VERTEX
 8
MERMAID
 10
4.3518
 20
3.5208
 30
5.4163
 70
32
 0
VERTEX
 8
MERMAID
 10
4.3714
 20
3.5059
 30
5.4163
 70
32
 0
VERTEX
 8
MERMAID
 10
4.3893
 20
3.4894
 30
5.4163
 70
32
 0
VERTEX
 8
MERMAID
 10
4.4134
 20
3.4618
 30
5.4163
 70
32
 0
VERTEX
 8
MERMAID
 10
4.4344
 20
3.4312
 30
5.4163
 70
32
 0
VERTEX
 8
MERMAID
 10
4.4585
 20
3.3864
 30
5.4163
 70
32
 0
VERTEX
 8
MERMAID
 10
4.4838
 20
3.3256
 30
5.4163
 70
32
 0
VERTEX
 8
MERMAID
 10
4.5302
 20
3.1826
 30
5.4163
 70
32
 0
VERTEX
 8
MERMAID
 10
4.5874
 20
3.0331
 30
5.4163
 70
32
 0
VERTEX
 8
MERMAID
 10
4.6083
 20
3.0916
 30
5.4163
 70
32
 0
VERTEX
 8
MERMAID
 10
4.6246
 20
3.1547
 30
5.4163
 70
32
 0
VERTEX
 8
MERMAID
 10
4.6368
 20
3.2291
 30
5.4163
 70
32
 0
VERTEX
 8
MERMAID
 10
4.6414
 20
3.2824
 30
5.4163
 70
32
 0
VERTEX
 8
MERMAID
 10
4.6429
 20
3.3386
 30
5.4163
 70
32
 0
VERTEX
 8
MERMAID
 10
4.6466
 20
3.3417
 30
5.4163
 70
32
 0
VERTEX
 8
MERMAID
 10
4.6501
 20
3.3441
 30
5.4163
 70
32
 0
VERTEX
 8
MERMAID
 10
4.6533
 20
3.3457
 30
5.4163
 70
32
 0
VERTEX
 8
MERMAID
 10
4.6563
 20
3.3467
 30
5.4163
 70
32
 0
VERTEX
 8
MERMAID
 10
4.6577
 20
3.3469
 30
5.4163
 70
32
 0
VERTEX
 8
MERMAID
 10
4.6591
 20
3.3471
 30
5.4163
 70
32
 0
VERTEX
 8
MERMAID
 10
4.6604
 20
3.347
 30
5.4163
 70
32
 0
VERTEX
 8
MERMAID
 10
4.6617
 20
3.3469
 30
5.4163
 70
32
 0
VERTEX
 8
MERMAID
 10
4.6629
 20
3.3466
 30
5.4163
 70
32
 0
VERTEX
 8
MERMAID
 10
4.6642
 20
3.3462
 30
5.4163
 70
32
 0
VERTEX
 8
MERMAID
 10
4.6665
 20
3.3451
 30
5.4163
 70
32
 0
VERTEX
 8
MERMAID
 10
4.6687
 20
3.3436
 30
5.4163
 70
32
 0
VERTEX
 8
MERMAID
 10
4.6709
 20
3.3418
 30
5.4163
 70
32
 0
VERTEX
 8
MERMAID
 10
4.674
 20
3.3385
 30
5.4163
 70
32
 0
VERTEX
 8
MERMAID
 10
4.69
 20
3.3191
 30
5.4163
 70
32
 0
VERTEX
 8
MERMAID
 10
4.6938
 20
3.3159
 30
5.4163
 70
32
 0
VERTEX
 8
MERMAID
 10
4.6965
 20
3.3141
 30
5.4163
 70
32
 0
VERTEX
 8
MERMAID
 10
4.6995
 20
3.3126
 30
5.4163
 70
32
 0
VERTEX
 8
MERMAID
 10
4.7026
 20
3.3116
 30
5.4163
 70
32
 0
VERTEX
 8
MERMAID
 10
4.7042
 20
3.3112
 30
5.4163
 70
32
 0
VERTEX
 8
MERMAID
 10
4.7077
 20
3.3108
 30
5.4163
 70
32
 0
VERTEX
 8
MERMAID
 10
4.6745
 20
3.4413
 30
5.4163
 70
32
 0
VERTEX
 8
MERMAID
 10
4.6224
 20
3.5853
 30
5.4163
 70
32
 0
VERTEX
 8
MERMAID
 10
4.549
 20
3.7402
 30
5.4163
 70
32
 0
VERTEX
 8
MERMAID
 10
4.4224
 20
3.9506
 30
5.4163
 70
32
 0
VERTEX
 8
MERMAID
 10
4.2818
 20
4.1441
 30
5.4163
 70
32
 0
VERTEX
 8
MERMAID
 10
4.1518
 20
4.3296
 30
5.4163
 70
32
 0
VERTEX
 8
MERMAID
 10
3.8233
 20
4.8343
 30
5.4163
 70
32
 0
VERTEX
 8
MERMAID
 10
3.7224
 20
4.9512
 30
5.4163
 70
32
 0
VERTEX
 8
MERMAID
 10
3.6749
 20
4.9979
 30
5.4163
 70
32
 0
VERTEX
 8
MERMAID
 10
3.6245
 20
5.0422
 30
5.4163
 70
32
 0
VERTEX
 8
MERMAID
 10
3.3063
 20
5.6097
 30
5.4163
 70
32
 0
VERTEX
 8
MERMAID
 10
2.9578
 20
6.181
 30
5.4163
 70
32
 0
VERTEX
 8
MERMAID
 10
2.7797
 20
6.4652
 30
5.4163
 70
32
 0
VERTEX
 8
MERMAID
 10
2.7028
 20
6.5622
 30
5.4163
 70
32
 0
VERTEX
 8
MERMAID
 10
2.6468
 20
6.6204
 30
5.4163
 70
32
 0
VERTEX
 8
MERMAID
 10
2.5967
 20
6.6638
 30
5.4163
 70
32
 0
VERTEX
 8
MERMAID
 10
2.565
 20
6.6874
 30
5.4163
 70
32
 0
VERTEX
 8
MERMAID
 10
2.5319
 20
6.7088
 30
5.4163
 70
32
 0
VERTEX
 8
MERMAID
 10
2.5246
 20
6.7127
 30
5.4163
 70
32
 0
VERTEX
 8
MERMAID
 10
2.5115
 20
6.7182
 30
5.4163
 70
32
 0
VERTEX
 8
MERMAID
 10
2.4493
 20
6.7396
 30
5.4163
 70
32
 0
VERTEX
 8
MERMAID
 10
2.4393
 20
6.7453
 30
5.4163
 70
32
 0
VERTEX
 8
MERMAID
 10
2.4324
 20
6.7503
 30
5.4163
 70
32
 0
VERTEX
 8
MERMAID
 10
2.4262
 20
6.7561
 30
5.4163
 70
32
 0
VERTEX
 8
MERMAID
 10
2.4225
 20
6.7605
 30
5.4163
 70
32
 0
VERTEX
 8
MERMAID
 10
2.4191
 20
6.7653
 30
5.4163
 70
32
 0
VERTEX
 8
MERMAID
 10
2.4162
 20
6.7707
 30
5.4163
 70
32
 0
VERTEX
 8
MERMAID
 10
2.4136
 20
6.7765
 30
5.4163
 70
32
 0
VERTEX
 8
MERMAID
 10
2.4116
 20
6.7828
 30
5.4163
 70
32
 0
VERTEX
 8
MERMAID
 10
2.4276
 20
6.7996
 30
5.4163
 70
32
 0
VERTEX
 8
MERMAID
 10
2.4384
 20
6.8087
 30
5.4163
 70
32
 0
VERTEX
 8
MERMAID
 10
2.4494
 20
6.8162
 30
5.4163
 70
32
 0
VERTEX
 8
MERMAID
 10
2.4604
 20
6.8222
 30
5.4163
 70
32
 0
VERTEX
 8
MERMAID
 10
2.4715
 20
6.8267
 30
5.4163
 70
32
 0
VERTEX
 8
MERMAID
 10
2.4827
 20
6.8299
 30
5.4163
 70
32
 0
VERTEX
 8
MERMAID
 10
2.4939
 20
6.8318
 30
5.4163
 70
32
 0
VERTEX
 8
MERMAID
 10
2.5051
 20
6.8325
 30
5.4163
 70
32
 0
VERTEX
 8
MERMAID
 10
2.5163
 20
6.8321
 30
5.4163
 70
32
 0
VERTEX
 8
MERMAID
 10
2.5275
 20
6.8307
 30
5.4163
 70
32
 0
VERTEX
 8
MERMAID
 10
2.5441
 20
6.8269
 30
5.4163
 70
32
 0
VERTEX
 8
MERMAID
 10
2.5605
 20
6.8211
 30
5.4163
 70
32
 0
VERTEX
 8
MERMAID
 10
2.5819
 20
6.8112
 30
5.4163
 70
32
 0
VERTEX
 8
MERMAID
 10
2.6076
 20
6.7957
 30
5.4163
 70
32
 0
VERTEX
 8
MERMAID
 10
2.6411
 20
6.771
 30
5.4163
 70
32
 0
VERTEX
 8
MERMAID
 10
2.6708
 20
6.7458
 30
5.4163
 70
32
 0
VERTEX
 8
MERMAID
 10
2.7162
 20
6.701
 30
5.4163
 70
32
 0
VERTEX
 8
MERMAID
 10
2.7705
 20
6.6359
 30
5.4163
 70
32
 0
VERTEX
 8
MERMAID
 10
3.1268
 20
6.1351
 30
5.4163
 70
32
 0
VERTEX
 8
MERMAID
 10
3.1809
 20
6.0816
 30
5.4163
 70
32
 0
VERTEX
 8
MERMAID
 10
3.2541
 20
6.0236
 30
5.4163
 70
32
 0
VERTEX
 8
MERMAID
 10
3.5023
 20
5.8825
 30
5.4163
 70
32
 0
VERTEX
 8
MERMAID
 10
3.7726
 20
5.7366
 30
5.4163
 70
32
 0
VERTEX
 8
MERMAID
 10
3.8666
 20
5.6798
 30
5.4163
 70
32
 0
VERTEX
 8
MERMAID
 10
3.8818
 20
5.6674
 30
5.4163
 70
32
 0
VERTEX
 8
MERMAID
 10
3.8922
 20
5.6569
 30
5.4163
 70
32
 0
VERTEX
 8
MERMAID
 10
3.8988
 20
5.6488
 30
5.4163
 70
32
 0
VERTEX
 8
MERMAID
 10
3.9042
 20
5.6403
 30
5.4163
 70
32
 0
VERTEX
 8
MERMAID
 10
3.907
 20
5.6345
 30
5.4163
 70
32
 0
VERTEX
 8
MERMAID
 10
3.9092
 20
5.6286
 30
5.4163
 70
32
 0
VERTEX
 8
MERMAID
 10
3.9107
 20
5.6225
 30
5.4163
 70
32
 0
VERTEX
 8
MERMAID
 10
3.9115
 20
5.6162
 30
5.4163
 70
32
 0
VERTEX
 8
MERMAID
 10
3.9114
 20
5.6049
 30
5.4163
 70
32
 0
VERTEX
 8
MERMAID
 10
3.91
 20
5.5941
 30
5.4163
 70
32
 0
VERTEX
 8
MERMAID
 10
3.9073
 20
5.5838
 30
5.4163
 70
32
 0
VERTEX
 8
MERMAID
 10
3.9033
 20
5.574
 30
5.4163
 70
32
 0
VERTEX
 8
MERMAID
 10
3.8982
 20
5.5647
 30
5.4163
 70
32
 0
VERTEX
 8
MERMAID
 10
3.892
 20
5.556
 30
5.4163
 70
32
 0
VERTEX
 8
MERMAID
 10
3.8849
 20
5.5477
 30
5.4163
 70
32
 0
VERTEX
 8
MERMAID
 10
3.8726
 20
5.5361
 30
5.4163
 70
32
 0
VERTEX
 8
MERMAID
 10
3.8588
 20
5.5256
 30
5.4163
 70
32
 0
VERTEX
 8
MERMAID
 10
3.8383
 20
5.5131
 30
5.4163
 70
32
 0
VERTEX
 8
MERMAID
 10
3.8105
 20
5.4997
 30
5.4163
 70
32
 0
VERTEX
 8
MERMAID
 10
3.7758
 20
5.4869
 30
5.4163
 70
32
 0
VERTEX
 8
MERMAID
 10
3.7367
 20
5.4759
 30
5.4163
 70
32
 0
VERTEX
 8
MERMAID
 10
3.6985
 20
5.4681
 30
5.4163
 70
32
 0
VERTEX
 8
MERMAID
 10
3.71
 20
5.4597
 30
5.4163
 70
32
 0
VERTEX
 8
MERMAID
 10
3.7227
 20
5.4524
 30
5.4163
 70
32
 0
VERTEX
 8
MERMAID
 10
3.7365
 20
5.4462
 30
5.4163
 70
32
 0
VERTEX
 8
MERMAID
 10
3.7592
 20
5.439
 30
5.4163
 70
32
 0
VERTEX
 8
MERMAID
 10
3.7836
 20
5.434
 30
5.4163
 70
32
 0
VERTEX
 8
MERMAID
 10
3.8183
 20
5.4306
 30
5.4163
 70
32
 0
VERTEX
 8
MERMAID
 10
3.8543
 20
5.4308
 30
5.4163
 70
32
 0
VERTEX
 8
MERMAID
 10
3.8997
 20
5.4355
 30
5.4163
 70
32
 0
VERTEX
 8
MERMAID
 10
3.9434
 20
5.4447
 30
5.4163
 70
32
 0
VERTEX
 8
MERMAID
 10
3.9757
 20
5.4549
 30
5.4163
 70
32
 0
VERTEX
 8
MERMAID
 10
4.0046
 20
5.4672
 30
5.4163
 70
32
 0
VERTEX
 8
MERMAID
 10
4.0233
 20
5.4777
 30
5.4163
 70
32
 0
VERTEX
 8
MERMAID
 10
4.039
 20
5.4892
 30
5.4163
 70
32
 0
VERTEX
 8
MERMAID
 10
4.0476
 20
5.4973
 30
5.4163
 70
32
 0
VERTEX
 8
MERMAID
 10
4.0545
 20
5.5057
 30
5.4163
 70
32
 0
VERTEX
 8
MERMAID
 10
4.0596
 20
5.5144
 30
5.4163
 70
32
 0
VERTEX
 8
MERMAID
 10
4.068
 20
5.536
 30
5.4163
 70
32
 0
VERTEX
 8
MERMAID
 10
4.0729
 20
5.5574
 30
5.4163
 70
32
 0
VERTEX
 8
MERMAID
 10
4.0746
 20
5.5786
 30
5.4163
 70
32
 0
VERTEX
 8
MERMAID
 10
4.0734
 20
5.5997
 30
5.4163
 70
32
 0
VERTEX
 8
MERMAID
 10
4.0695
 20
5.6205
 30
5.4163
 70
32
 0
VERTEX
 8
MERMAID
 10
4.0631
 20
5.6412
 30
5.4163
 70
32
 0
VERTEX
 8
MERMAID
 10
4.0546
 20
5.6616
 30
5.4163
 70
32
 0
VERTEX
 8
MERMAID
 10
4.0382
 20
5.6917
 30
5.4163
 70
32
 0
VERTEX
 8
MERMAID
 10
4.011
 20
5.7308
 30
5.4163
 70
32
 0
VERTEX
 8
MERMAID
 10
3.9628
 20
5.7871
 30
5.4163
 70
32
 0
VERTEX
 8
MERMAID
 10
3.8326
 20
5.9271
 30
5.4163
 70
32
 0
VERTEX
 8
MERMAID
 10
3.8187
 20
5.9482
 30
5.4163
 70
32
 0
VERTEX
 8
MERMAID
 10
3.8151
 20
5.9549
 30
5.4163
 70
32
 0
VERTEX
 8
MERMAID
 10
3.8096
 20
5.9681
 30
5.4163
 70
32
 0
VERTEX
 8
MERMAID
 10
4.0474
 20
5.9969
 30
5.4163
 70
32
 0
VERTEX
 8
MERMAID
 10
4.0745
 20
6.0054
 30
5.4163
 70
32
 0
VERTEX
 8
MERMAID
 10
4.0932
 20
6.0134
 30
5.4163
 70
32
 0
VERTEX
 8
MERMAID
 10
4.1102
 20
6.0231
 30
5.4163
 70
32
 0
VERTEX
 8
MERMAID
 10
4.1205
 20
6.0306
 30
5.4163
 70
32
 0
VERTEX
 8
MERMAID
 10
4.1299
 20
6.0389
 30
5.4163
 70
32
 0
VERTEX
 8
MERMAID
 10
4.1383
 20
6.0482
 30
5.4163
 70
32
 0
VERTEX
 8
MERMAID
 10
4.1458
 20
6.0585
 30
5.4163
 70
32
 0
VERTEX
 8
MERMAID
 10
4.1522
 20
6.0699
 30
5.4163
 70
32
 0
VERTEX
 8
MERMAID
 10
4.1529
 20
6.1462
 30
5.4163
 70
32
 0
VERTEX
 8
MERMAID
 10
4.15
 20
6.1788
 30
5.4163
 70
32
 0
VERTEX
 8
MERMAID
 10
4.1456
 20
6.2011
 30
5.4163
 70
32
 0
VERTEX
 8
MERMAID
 10
4.1414
 20
6.2147
 30
5.4163
 70
32
 0
VERTEX
 8
MERMAID
 10
4.1362
 20
6.2272
 30
5.4163
 70
32
 0
VERTEX
 8
MERMAID
 10
4.1315
 20
6.2358
 30
5.4163
 70
32
 0
VERTEX
 8
MERMAID
 10
4.126
 20
6.2437
 30
5.4163
 70
32
 0
VERTEX
 8
MERMAID
 10
4.1219
 20
6.2485
 30
5.4163
 70
32
 0
VERTEX
 8
MERMAID
 10
4.1152
 20
6.2551
 30
5.4163
 70
32
 0
VERTEX
 8
MERMAID
 10
4.1048
 20
6.2504
 30
5.4163
 70
32
 0
VERTEX
 8
MERMAID
 10
4.0952
 20
6.2447
 30
5.4163
 70
32
 0
VERTEX
 8
MERMAID
 10
4.0864
 20
6.2382
 30
5.4163
 70
32
 0
VERTEX
 8
MERMAID
 10
4.0756
 20
6.2286
 30
5.4163
 70
32
 0
VERTEX
 8
MERMAID
 10
4.0584
 20
6.21
 30
5.4163
 70
32
 0
VERTEX
 8
MERMAID
 10
4.0253
 20
6.1722
 30
5.4163
 70
32
 0
VERTEX
 8
MERMAID
 10
4.0148
 20
6.1629
 30
5.4163
 70
32
 0
VERTEX
 8
MERMAID
 10
4.0063
 20
6.1568
 30
5.4163
 70
32
 0
VERTEX
 8
MERMAID
 10
3.9972
 20
6.1515
 30
5.4163
 70
32
 0
VERTEX
 8
MERMAID
 10
3.9872
 20
6.1472
 30
5.4163
 70
32
 0
VERTEX
 8
MERMAID
 10
3.9763
 20
6.144
 30
5.4163
 70
32
 0
VERTEX
 8
MERMAID
 10
3.9506
 20
6.1396
 30
5.4163
 70
32
 0
VERTEX
 8
MERMAID
 10
3.9246
 20
6.1376
 30
5.4163
 70
32
 0
VERTEX
 8
MERMAID
 10
3.8896
 20
6.1386
 30
5.4163
 70
32
 0
VERTEX
 8
MERMAID
 10
3.8545
 20
6.143
 30
5.4163
 70
32
 0
VERTEX
 8
MERMAID
 10
3.8106
 20
6.1529
 30
5.4163
 70
32
 0
VERTEX
 8
MERMAID
 10
3.7585
 20
6.1698
 30
5.4163
 70
32
 0
VERTEX
 8
MERMAID
 10
3.658
 20
6.2139
 30
5.4163
 70
32
 0
VERTEX
 8
MERMAID
 10
3.5597
 20
6.2644
 30
5.4163
 70
32
 0
VERTEX
 8
MERMAID
 10
3.4382
 20
6.3339
 30
5.4163
 70
32
 0
VERTEX
 8
MERMAID
 10
3.3199
 20
6.4174
 30
5.4163
 70
32
 0
VERTEX
 8
MERMAID
 10
3.2266
 20
6.4971
 30
5.4163
 70
32
 0
VERTEX
 8
MERMAID
 10
3.1408
 20
6.5855
 30
5.4163
 70
32
 0
VERTEX
 8
MERMAID
 10
3.0791
 20
6.6621
 30
5.4163
 70
32
 0
VERTEX
 8
MERMAID
 10
3.025
 20
6.7437
 30
5.4163
 70
32
 0
VERTEX
 8
MERMAID
 10
2.9798
 20
6.8301
 30
5.4163
 70
32
 0
VERTEX
 8
MERMAID
 10
2.9523
 20
6.8978
 30
5.4163
 70
32
 0
VERTEX
 8
MERMAID
 10
2.9311
 20
6.968
 30
5.4163
 70
32
 0
VERTEX
 8
MERMAID
 10
2.9165
 20
7.0404
 30
5.4163
 70
32
 0
VERTEX
 8
MERMAID
 10
2.9092
 20
7.1151
 30
5.4163
 70
32
 0
VERTEX
 8
MERMAID
 10
2.9086
 20
7.1661
 30
5.4163
 70
32
 0
VERTEX
 8
MERMAID
 10
2.9115
 20
7.218
 30
5.4163
 70
32
 0
VERTEX
 8
MERMAID
 10
3.178
 20
6.835
 30
5.4163
 70
32
 0
VERTEX
 8
MERMAID
 10
3.2988
 20
6.6965
 30
5.4163
 70
32
 0
VERTEX
 8
MERMAID
 10
3.4108
 20
6.5913
 30
5.4163
 70
32
 0
VERTEX
 8
MERMAID
 10
3.5087
 20
6.5168
 30
5.4163
 70
32
 0
VERTEX
 8
MERMAID
 10
3.6147
 20
6.4532
 30
5.4163
 70
32
 0
VERTEX
 8
MERMAID
 10
3.7001
 20
6.414
 30
5.4163
 70
32
 0
VERTEX
 8
MERMAID
 10
3.7906
 20
6.3829
 30
5.4163
 70
32
 0
VERTEX
 8
MERMAID
 10
3.8867
 20
6.3609
 30
5.4163
 70
32
 0
VERTEX
 8
MERMAID
 10
3.9886
 20
6.3489
 30
5.4163
 70
32
 0
VERTEX
 8
MERMAID
 10
4.0966
 20
6.3477
 30
5.4163
 70
32
 0
VERTEX
 8
MERMAID
 10
4.1666
 20
6.3537
 30
5.4163
 70
32
 0
VERTEX
 8
MERMAID
 10
4.2185
 20
6.3634
 30
5.4163
 70
32
 0
VERTEX
 8
MERMAID
 10
4.2549
 20
6.3739
 30
5.4163
 70
32
 0
VERTEX
 8
MERMAID
 10
4.2834
 20
6.385
 30
5.4163
 70
32
 0
VERTEX
 8
MERMAID
 10
4.3102
 20
6.3985
 30
5.4163
 70
32
 0
VERTEX
 8
MERMAID
 10
4.3353
 20
6.4144
 30
5.4163
 70
32
 0
VERTEX
 8
MERMAID
 10
4.3539
 20
6.429
 30
5.4163
 70
32
 0
VERTEX
 8
MERMAID
 10
4.3672
 20
6.4411
 30
5.4163
 70
32
 0
VERTEX
 8
MERMAID
 10
4.3837
 20
6.4588
 30
5.4163
 70
32
 0
VERTEX
 8
MERMAID
 10
4.3779
 20
6.4656
 30
5.4163
 70
32
 0
VERTEX
 8
MERMAID
 10
4.3712
 20
6.4715
 30
5.4163
 70
32
 0
VERTEX
 8
MERMAID
 10
4.3637
 20
6.4766
 30
5.4163
 70
32
 0
VERTEX
 8
MERMAID
 10
4.3556
 20
6.481
 30
5.4163
 70
32
 0
VERTEX
 8
MERMAID
 10
4.3421
 20
6.4865
 30
5.4163
 70
32
 0
VERTEX
 8
MERMAID
 10
4.3225
 20
6.492
 30
5.4163
 70
32
 0
VERTEX
 8
MERMAID
 10
4.2848
 20
6.4984
 30
5.4163
 70
32
 0
VERTEX
 8
MERMAID
 10
4.2136
 20
6.5091
 30
5.4163
 70
32
 0
VERTEX
 8
MERMAID
 10
4.1939
 20
6.5146
 30
5.4163
 70
32
 0
VERTEX
 8
MERMAID
 10
4.1804
 20
6.52
 30
5.4163
 70
32
 0
VERTEX
 8
MERMAID
 10
4.1722
 20
6.5244
 30
5.4163
 70
32
 0
VERTEX
 8
MERMAID
 10
4.1648
 20
6.5295
 30
5.4163
 70
32
 0
VERTEX
 8
MERMAID
 10
4.1581
 20
6.5354
 30
5.4163
 70
32
 0
VERTEX
 8
MERMAID
 10
4.1522
 20
6.5421
 30
5.4163
 70
32
 0
VERTEX
 8
MERMAID
 10
4.165
 20
6.5673
 30
5.4163
 70
32
 0
VERTEX
 8
MERMAID
 10
4.1793
 20
6.5898
 30
5.4163
 70
32
 0
VERTEX
 8
MERMAID
 10
4.1989
 20
6.615
 30
5.4163
 70
32
 0
VERTEX
 8
MERMAID
 10
4.2411
 20
6.6591
 30
5.4163
 70
32
 0
VERTEX
 8
MERMAID
 10
4.2906
 20
6.7106
 30
5.4163
 70
32
 0
VERTEX
 8
MERMAID
 10
4.3088
 20
6.7345
 30
5.4163
 70
32
 0
VERTEX
 8
MERMAID
 10
4.3217
 20
6.7557
 30
5.4163
 70
32
 0
VERTEX
 8
MERMAID
 10
4.3301
 20
6.7731
 30
5.4163
 70
32
 0
VERTEX
 8
MERMAID
 10
4.3374
 20
6.7921
 30
5.4163
 70
32
 0
VERTEX
 8
MERMAID
 10
4.3496
 20
6.8379
 30
5.4163
 70
32
 0
VERTEX
 8
MERMAID
 10
4.3557
 20
6.8829
 30
5.4163
 70
32
 0
VERTEX
 8
MERMAID
 10
4.3563
 20
6.9268
 30
5.4163
 70
32
 0
VERTEX
 8
MERMAID
 10
4.3516
 20
6.9695
 30
5.4163
 70
32
 0
VERTEX
 8
MERMAID
 10
4.342
 20
7.0108
 30
5.4163
 70
32
 0
VERTEX
 8
MERMAID
 10
4.328
 20
7.0503
 30
5.4163
 70
32
 0
VERTEX
 8
MERMAID
 10
4.3099
 20
7.088
 30
5.4163
 70
32
 0
VERTEX
 8
MERMAID
 10
4.2881
 20
7.1236
 30
5.4163
 70
32
 0
VERTEX
 8
MERMAID
 10
4.2631
 20
7.1568
 30
5.4163
 70
32
 0
VERTEX
 8
MERMAID
 10
4.2352
 20
7.1875
 30
5.4163
 70
32
 0
VERTEX
 8
MERMAID
 10
4.2047
 20
7.2154
 30
5.4163
 70
32
 0
VERTEX
 8
MERMAID
 10
4.1722
 20
7.2403
 30
5.4163
 70
32
 0
VERTEX
 8
MERMAID
 10
4.1379
 20
7.262
 30
5.4163
 70
32
 0
VERTEX
 8
MERMAID
 10
4.1024
 20
7.2802
 30
5.4163
 70
32
 0
VERTEX
 8
MERMAID
 10
4.0659
 20
7.2949
 30
5.4163
 70
32
 0
VERTEX
 8
MERMAID
 10
4.0412
 20
7.3025
 30
5.4163
 70
32
 0
VERTEX
 8
MERMAID
 10
4.0041
 20
7.3106
 30
5.4163
 70
32
 0
VERTEX
 8
MERMAID
 10
4.0028
 20
7.3016
 30
5.4163
 70
32
 0
VERTEX
 8
MERMAID
 10
4.0029
 20
7.293
 30
5.4163
 70
32
 0
VERTEX
 8
MERMAID
 10
4.0041
 20
7.2846
 30
5.4163
 70
32
 0
VERTEX
 8
MERMAID
 10
4.0064
 20
7.2764
 30
5.4163
 70
32
 0
VERTEX
 8
MERMAID
 10
4.0097
 20
7.2684
 30
5.4163
 70
32
 0
VERTEX
 8
MERMAID
 10
4.0138
 20
7.2607
 30
5.4163
 70
32
 0
VERTEX
 8
MERMAID
 10
4.0215
 20
7.2493
 30
5.4163
 70
32
 0
VERTEX
 8
MERMAID
 10
4.034
 20
7.2344
 30
5.4163
 70
32
 0
VERTEX
 8
MERMAID
 10
4.1114
 20
7.1537
 30
5.4163
 70
32
 0
VERTEX
 8
MERMAID
 10
4.1201
 20
7.1406
 30
5.4163
 70
32
 0
VERTEX
 8
MERMAID
 10
4.1272
 20
7.1267
 30
5.4163
 70
32
 0
VERTEX
 8
MERMAID
 10
4.1309
 20
7.117
 30
5.4163
 70
32
 0
VERTEX
 8
MERMAID
 10
4.1337
 20
7.1069
 30
5.4163
 70
32
 0
VERTEX
 8
MERMAID
 10
4.1418
 20
7.0589
 30
5.4163
 70
32
 0
VERTEX
 8
MERMAID
 10
4.144
 20
7.0164
 30
5.4163
 70
32
 0
VERTEX
 8
MERMAID
 10
4.1407
 20
6.979
 30
5.4163
 70
32
 0
VERTEX
 8
MERMAID
 10
4.1324
 20
6.9466
 30
5.4163
 70
32
 0
VERTEX
 8
MERMAID
 10
4.1264
 20
6.9322
 30
5.4163
 70
32
 0
VERTEX
 8
MERMAID
 10
4.1194
 20
6.919
 30
5.4163
 70
32
 0
VERTEX
 8
MERMAID
 10
4.1113
 20
6.9069
 30
5.4163
 70
32
 0
VERTEX
 8
MERMAID
 10
4.1022
 20
6.8959
 30
5.4163
 70
32
 0
VERTEX
 8
MERMAID
 10
4.0921
 20
6.886
 30
5.4163
 70
32
 0
VERTEX
 8
MERMAID
 10
4.0812
 20
6.8771
 30
5.4163
 70
32
 0
VERTEX
 8
MERMAID
 10
4.0694
 20
6.8693
 30
5.4163
 70
32
 0
VERTEX
 8
MERMAID
 10
4.0435
 20
6.8566
 30
5.4163
 70
32
 0
VERTEX
 8
MERMAID
 10
4.0149
 20
6.8477
 30
5.4163
 70
32
 0
VERTEX
 8
MERMAID
 10
3.984
 20
6.8424
 30
5.4163
 70
32
 0
VERTEX
 8
MERMAID
 10
3.9512
 20
6.8404
 30
5.4163
 70
32
 0
VERTEX
 8
MERMAID
 10
3.917
 20
6.8416
 30
5.4163
 70
32
 0
VERTEX
 8
MERMAID
 10
3.8639
 20
6.8487
 30
5.4163
 70
32
 0
VERTEX
 8
MERMAID
 10
3.8099
 20
6.8617
 30
5.4163
 70
32
 0
VERTEX
 8
MERMAID
 10
3.7565
 20
6.8798
 30
5.4163
 70
32
 0
VERTEX
 8
MERMAID
 10
3.6887
 20
6.9107
 30
5.4163
 70
32
 0
VERTEX
 8
MERMAID
 10
3.6423
 20
6.9379
 30
5.4163
 70
32
 0
VERTEX
 8
MERMAID
 10
3.6013
 20
6.9678
 30
5.4163
 70
32
 0
VERTEX
 8
MERMAID
 10
3.5671
 20
6.9997
 30
5.4163
 70
32
 0
VERTEX
 8
MERMAID
 10
3.5574
 20
7.0106
 30
5.4163
 70
32
 0
VERTEX
 8
MERMAID
 10
3.5411
 20
7.0328
 30
5.4163
 70
32
 0
VERTEX
 8
MERMAID
 10
3.5258
 20
7.0595
 30
5.4163
 70
32
 0
VERTEX
 8
MERMAID
 10
3.4812
 20
7.1719
 30
5.4163
 70
32
 0
VERTEX
 8
MERMAID
 10
3.4393
 20
7.2921
 30
5.4163
 70
32
 0
VERTEX
 8
MERMAID
 10
3.3479
 20
7.4929
 30
5.4163
 70
32
 0
VERTEX
 8
MERMAID
 10
3.2605
 20
7.6466
 30
5.4163
 70
32
 0
VERTEX
 8
MERMAID
 10
3.1791
 20
7.7626
 30
5.4163
 70
32
 0
VERTEX
 8
MERMAID
 10
3.1098
 20
7.8434
 30
5.4163
 70
32
 0
VERTEX
 8
MERMAID
 10
3.068
 20
7.8848
 30
5.4163
 70
32
 0
VERTEX
 8
MERMAID
 10
3.0134
 20
7.9309
 30
5.4163
 70
32
 0
VERTEX
 8
MERMAID
 10
2.991
 20
7.9464
 30
5.4163
 70
32
 0
VERTEX
 8
MERMAID
 10
2.9571
 20
7.9658
 30
5.4163
 70
32
 0
VERTEX
 8
MERMAID
 10
2.9095
 20
7.9876
 30
5.4163
 70
32
 0
VERTEX
 8
MERMAID
 10
2.8567
 20
8.0057
 30
5.4163
 70
32
 0
VERTEX
 8
MERMAID
 10
2.8105
 20
8.0166
 30
5.4163
 70
32
 0
VERTEX
 8
MERMAID
 10
2.7731
 20
8.0217
 30
5.4163
 70
32
 0
VERTEX
 8
MERMAID
 10
2.736
 20
8.023
 30
5.4163
 70
32
 0
VERTEX
 8
MERMAID
 10
2.7089
 20
8.021
 30
5.4163
 70
32
 0
VERTEX
 8
MERMAID
 10
2.6827
 20
8.0163
 30
5.4163
 70
32
 0
VERTEX
 8
MERMAID
 10
2.6578
 20
8.0085
 30
5.4163
 70
32
 0
VERTEX
 8
MERMAID
 10
2.642
 20
8.0015
 30
5.4163
 70
32
 0
VERTEX
 8
MERMAID
 10
2.6269
 20
7.993
 30
5.4163
 70
32
 0
VERTEX
 8
MERMAID
 10
2.6197
 20
7.9882
 30
5.4163
 70
32
 0
VERTEX
 8
MERMAID
 10
2.606
 20
7.9772
 30
5.4163
 70
32
 0
VERTEX
 8
MERMAID
 10
2.5738
 20
8.001
 30
5.4163
 70
32
 0
VERTEX
 8
MERMAID
 10
2.5367
 20
8.023
 30
5.4163
 70
32
 0
VERTEX
 8
MERMAID
 10
2.4804
 20
8.0491
 30
5.4163
 70
32
 0
VERTEX
 8
MERMAID
 10
2.4009
 20
8.0764
 30
5.4163
 70
32
 0
VERTEX
 8
MERMAID
 10
2.2956
 20
8.1012
 30
5.4163
 70
32
 0
VERTEX
 8
MERMAID
 10
2.1837
 20
8.1166
 30
5.4163
 70
32
 0
VERTEX
 8
MERMAID
 10
2.0695
 20
8.1221
 30
5.4163
 70
32
 0
VERTEX
 8
MERMAID
 10
1.9576
 20
8.1172
 30
5.4163
 70
32
 0
VERTEX
 8
MERMAID
 10
1.8692
 20
8.1046
 30
5.4163
 70
32
 0
VERTEX
 8
MERMAID
 10
1.8194
 20
8.0933
 30
5.4163
 70
32
 0
VERTEX
 8
MERMAID
 10
1.7727
 20
8.0791
 30
5.4163
 70
32
 0
VERTEX
 8
MERMAID
 10
1.7479
 20
8.0691
 30
5.4163
 70
32
 0
VERTEX
 8
MERMAID
 10
1.7229
 20
8.0564
 30
5.4163
 70
32
 0
VERTEX
 8
MERMAID
 10
1.6987
 20
8.0413
 30
5.4163
 70
32
 0
VERTEX
 8
MERMAID
 10
1.6759
 20
8.0237
 30
5.4163
 70
32
 0
VERTEX
 8
MERMAID
 10
1.6594
 20
8.0081
 30
5.4163
 70
32
 0
VERTEX
 8
MERMAID
 10
1.6446
 20
7.991
 30
5.4163
 70
32
 0
VERTEX
 8
MERMAID
 10
1.6351
 20
7.9773
 30
5.4163
 70
32
 0
VERTEX
 8
MERMAID
 10
1.627
 20
7.963
 30
5.4163
 70
32
 0
VERTEX
 8
MERMAID
 10
1.6205
 20
7.9479
 30
5.4163
 70
32
 0
VERTEX
 8
MERMAID
 10
1.6158
 20
7.9322
 30
5.4163
 70
32
 0
VERTEX
 8
MERMAID
 10
1.6131
 20
7.9158
 30
5.4163
 70
32
 0
VERTEX
 8
MERMAID
 10
1.6124
 20
7.9046
 30
5.4163
 70
32
 0
VERTEX
 8
MERMAID
 10
1.6128
 20
7.8931
 30
5.4163
 70
32
 0
VERTEX
 8
MERMAID
 10
1.6134
 20
7.8872
 30
5.4163
 70
32
 0
VERTEX
 8
MERMAID
 10
1.6153
 20
7.8754
 30
5.4163
 70
32
 0
VERTEX
 8
MERMAID
 10
1.6205
 20
7.8702
 30
5.4163
 70
32
 0
VERTEX
 8
MERMAID
 10
1.6254
 20
7.8664
 30
5.4163
 70
32
 0
VERTEX
 8
MERMAID
 10
1.6277
 20
7.8651
 30
5.4163
 70
32
 0
VERTEX
 8
MERMAID
 10
1.63
 20
7.8641
 30
5.4163
 70
32
 0
VERTEX
 8
MERMAID
 10
1.6322
 20
7.8634
 30
5.4163
 70
32
 0
VERTEX
 8
MERMAID
 10
1.6344
 20
7.863
 30
5.4163
 70
32
 0
VERTEX
 8
MERMAID
 10
1.6365
 20
7.8629
 30
5.4163
 70
32
 0
VERTEX
 8
MERMAID
 10
1.6386
 20
7.863
 30
5.4163
 70
32
 0
VERTEX
 8
MERMAID
 10
1.6407
 20
7.8634
 30
5.4163
 70
32
 0
VERTEX
 8
MERMAID
 10
1.6428
 20
7.8641
 30
5.4163
 70
32
 0
VERTEX
 8
MERMAID
 10
1.6448
 20
7.8649
 30
5.4163
 70
32
 0
VERTEX
 8
MERMAID
 10
1.6488
 20
7.8673
 30
5.4163
 70
32
 0
VERTEX
 8
MERMAID
 10
1.6529
 20
7.8703
 30
5.4163
 70
32
 0
VERTEX
 8
MERMAID
 10
1.6589
 20
7.8759
 30
5.4163
 70
32
 0
VERTEX
 8
MERMAID
 10
1.6867
 20
7.9029
 30
5.4163
 70
32
 0
VERTEX
 8
MERMAID
 10
1.6952
 20
7.9088
 30
5.4163
 70
32
 0
VERTEX
 8
MERMAID
 10
1.7014
 20
7.9121
 30
5.4163
 70
32
 0
VERTEX
 8
MERMAID
 10
1.708
 20
7.9148
 30
5.4163
 70
32
 0
VERTEX
 8
MERMAID
 10
1.7151
 20
7.9167
 30
5.4163
 70
32
 0
VERTEX
 8
MERMAID
 10
1.7227
 20
7.9177
 30
5.4163
 70
32
 0
VERTEX
 8
MERMAID
 10
1.7309
 20
7.9177
 30
5.4163
 70
32
 0
VERTEX
 8
MERMAID
 10
1.7397
 20
7.9165
 30
5.4163
 70
32
 0
VERTEX
 8
MERMAID
 10
1.7444
 20
7.9155
 30
5.4163
 70
32
 0
VERTEX
 8
MERMAID
 10
1.7542
 20
7.9124
 30
5.4163
 70
32
 0
VERTEX
 8
MERMAID
 10
1.752
 20
7.9012
 30
5.4163
 70
32
 0
VERTEX
 8
MERMAID
 10
1.7488
 20
7.8912
 30
5.4163
 70
32
 0
VERTEX
 8
MERMAID
 10
1.7446
 20
7.8822
 30
5.4163
 70
32
 0
VERTEX
 8
MERMAID
 10
1.7396
 20
7.8742
 30
5.4163
 70
32
 0
VERTEX
 8
MERMAID
 10
1.734
 20
7.8667
 30
5.4163
 70
32
 0
VERTEX
 8
MERMAID
 10
1.7257
 20
7.8577
 30
5.4163
 70
32
 0
VERTEX
 8
MERMAID
 10
1.6845
 20
7.8172
 30
5.4163
 70
32
 0
VERTEX
 8
MERMAID
 10
1.6762
 20
7.8059
 30
5.4163
 70
32
 0
VERTEX
 8
MERMAID
 10
1.6706
 20
7.7963
 30
5.4163
 70
32
 0
VERTEX
 8
MERMAID
 10
1.6657
 20
7.7856
 30
5.4163
 70
32
 0
VERTEX
 8
MERMAID
 10
1.6616
 20
7.7735
 30
5.4163
 70
32
 0
VERTEX
 8
MERMAID
 10
1.6585
 20
7.76
 30
5.4163
 70
32
 0
VERTEX
 8
MERMAID
 10
1.6562
 20
7.7428
 30
5.4163
 70
32
 0
VERTEX
 8
MERMAID
 10
1.6554
 20
7.715
 30
5.4163
 70
32
 0
VERTEX
 8
MERMAID
 10
1.6551
 20
7.6502
 30
5.4163
 70
32
 0
VERTEX
 8
MERMAID
 10
1.6527
 20
7.6341
 30
5.4163
 70
32
 0
VERTEX
 8
MERMAID
 10
1.6494
 20
7.6217
 30
5.4163
 70
32
 0
VERTEX
 8
MERMAID
 10
1.6472
 20
7.6157
 30
5.4163
 70
32
 0
VERTEX
 8
MERMAID
 10
1.6431
 20
7.6069
 30
5.4163
 70
32
 0
VERTEX
 8
MERMAID
 10
1.6355
 20
7.5942
 30
5.4163
 70
32
 0
VERTEX
 8
MERMAID
 10
1.6271
 20
7.583
 30
5.4163
 70
32
 0
VERTEX
 8
MERMAID
 10
1.6179
 20
7.5733
 30
5.4163
 70
32
 0
VERTEX
 8
MERMAID
 10
1.608
 20
7.5647
 30
5.4163
 70
32
 0
VERTEX
 8
MERMAID
 10
1.5974
 20
7.5573
 30
5.4163
 70
32
 0
VERTEX
 8
MERMAID
 10
1.5823
 20
7.5489
 30
5.4163
 70
32
 0
VERTEX
 8
MERMAID
 10
1.5621
 20
7.5402
 30
5.4163
 70
32
 0
VERTEX
 8
MERMAID
 10
1.5035
 20
7.5232
 30
5.4163
 70
32
 0
VERTEX
 8
MERMAID
 10
1.4394
 20
7.505
 30
5.4163
 70
32
 0
VERTEX
 8
MERMAID
 10
1.4376
 20
7.4991
 30
5.4163
 70
32
 0
VERTEX
 8
MERMAID
 10
1.4364
 20
7.4932
 30
5.4163
 70
32
 0
VERTEX
 8
MERMAID
 10
1.4358
 20
7.4873
 30
5.4163
 70
32
 0
VERTEX
 8
MERMAID
 10
1.4357
 20
7.4786
 30
5.4163
 70
32
 0
VERTEX
 8
MERMAID
 10
1.4367
 20
7.47
 30
5.4163
 70
32
 0
VERTEX
 8
MERMAID
 10
1.4387
 20
7.4615
 30
5.4163
 70
32
 0
VERTEX
 8
MERMAID
 10
1.4415
 20
7.4532
 30
5.4163
 70
32
 0
VERTEX
 8
MERMAID
 10
1.4463
 20
7.4423
 30
5.4163
 70
32
 0
VERTEX
 8
MERMAID
 10
1.4537
 20
7.4291
 30
5.4163
 70
32
 0
VERTEX
 8
MERMAID
 10
1.4734
 20
7.4019
 30
5.4163
 70
32
 0
VERTEX
 8
MERMAID
 10
1.495
 20
7.3754
 30
5.4163
 70
32
 0
VERTEX
 8
MERMAID
 10
1.4755
 20
7.3543
 30
5.4163
 70
32
 0
VERTEX
 8
MERMAID
 10
1.4627
 20
7.3374
 30
5.4163
 70
32
 0
VERTEX
 8
MERMAID
 10
1.4559
 20
7.326
 30
5.4163
 70
32
 0
VERTEX
 8
MERMAID
 10
1.4518
 20
7.3173
 30
5.4163
 70
32
 0
VERTEX
 8
MERMAID
 10
1.4489
 20
7.3088
 30
5.4163
 70
32
 0
VERTEX
 8
MERMAID
 10
1.4476
 20
7.3031
 30
5.4163
 70
32
 0
VERTEX
 8
MERMAID
 10
1.447
 20
7.2976
 30
5.4163
 70
32
 0
VERTEX
 8
MERMAID
 10
1.4471
 20
7.2921
 30
5.4163
 70
32
 0
VERTEX
 8
MERMAID
 10
1.4479
 20
7.2867
 30
5.4163
 70
32
 0
VERTEX
 8
MERMAID
 10
1.4494
 20
7.2814
 30
5.4163
 70
32
 0
VERTEX
 8
MERMAID
 10
1.4517
 20
7.2763
 30
5.4163
 70
32
 0
VERTEX
 8
MERMAID
 10
1.455
 20
7.2713
 30
5.4163
 70
32
 0
VERTEX
 8
MERMAID
 10
1.4591
 20
7.2665
 30
5.4163
 70
32
 0
VERTEX
 8
MERMAID
 10
1.4642
 20
7.2619
 30
5.4163
 70
32
 0
VERTEX
 8
MERMAID
 10
1.4702
 20
7.2575
 30
5.4163
 70
32
 0
VERTEX
 8
MERMAID
 10
1.4774
 20
7.2534
 30
5.4163
 70
32
 0
VERTEX
 8
MERMAID
 10
1.4856
 20
7.2494
 30
5.4163
 70
32
 0
VERTEX
 8
MERMAID
 10
1.495
 20
7.2458
 30
5.4163
 70
32
 0
VERTEX
 8
MERMAID
 10
1.4939
 20
7.2428
 30
5.4163
 70
32
 0
VERTEX
 8
MERMAID
 10
1.4925
 20
7.2401
 30
5.4163
 70
32
 0
VERTEX
 8
MERMAID
 10
1.4908
 20
7.2377
 30
5.4163
 70
32
 0
VERTEX
 8
MERMAID
 10
1.4889
 20
7.2356
 30
5.4163
 70
32
 0
VERTEX
 8
MERMAID
 10
1.4868
 20
7.2336
 30
5.4163
 70
32
 0
VERTEX
 8
MERMAID
 10
1.4844
 20
7.2319
 30
5.4163
 70
32
 0
VERTEX
 8
MERMAID
 10
1.4806
 20
7.2296
 30
5.4163
 70
32
 0
VERTEX
 8
MERMAID
 10
1.475
 20
7.2271
 30
5.4163
 70
32
 0
VERTEX
 8
MERMAID
 10
1.4642
 20
7.2236
 30
5.4163
 70
32
 0
VERTEX
 8
MERMAID
 10
1.4439
 20
7.2173
 30
5.4163
 70
32
 0
VERTEX
 8
MERMAID
 10
1.4384
 20
7.2148
 30
5.4163
 70
32
 0
VERTEX
 8
MERMAID
 10
1.4346
 20
7.2125
 30
5.4163
 70
32
 0
VERTEX
 8
MERMAID
 10
1.4323
 20
7.2107
 30
5.4163
 70
32
 0
VERTEX
 8
MERMAID
 10
1.4302
 20
7.2087
 30
5.4163
 70
32
 0
VERTEX
 8
MERMAID
 10
1.4306
 20
7.202
 30
5.4163
 70
32
 0
VERTEX
 8
MERMAID
 10
1.4313
 20
7.1979
 30
5.4163
 70
32
 0
VERTEX
 8
MERMAID
 10
1.4324
 20
7.1941
 30
5.4163
 70
32
 0
VERTEX
 8
MERMAID
 10
1.4337
 20
7.1907
 30
5.4163
 70
32
 0
VERTEX
 8
MERMAID
 10
1.4353
 20
7.1874
 30
5.4163
 70
32
 0
VERTEX
 8
MERMAID
 10
1.4381
 20
7.183
 30
5.4163
 70
32
 0
VERTEX
 8
MERMAID
 10
1.4414
 20
7.179
 30
5.4163
 70
32
 0
VERTEX
 8
MERMAID
 10
1.4462
 20
7.1742
 30
5.4163
 70
32
 0
VERTEX
 8
MERMAID
 10
1.4663
 20
7.1558
 30
5.4163
 70
32
 0
VERTEX
 8
MERMAID
 10
1.4695
 20
7.1518
 30
5.4163
 70
32
 0
VERTEX
 8
MERMAID
 10
1.4723
 20
7.1473
 30
5.4163
 70
32
 0
VERTEX
 8
MERMAID
 10
1.4738
 20
7.1441
 30
5.4163
 70
32
 0
VERTEX
 8
MERMAID
 10
1.4751
 20
7.1405
 30
5.4163
 70
32
 0
VERTEX
 8
MERMAID
 10
1.4756
 20
7.1386
 30
5.4163
 70
32
 0
VERTEX
 8
MERMAID
 10
1.4764
 20
7.1347
 30
5.4163
 70
32
 0
VERTEX
 8
MERMAID
 10
1.4665
 20
7.1112
 30
5.4163
 70
32
 0
VERTEX
 8
MERMAID
 10
1.4462
 20
7.0689
 30
5.4163
 70
32
 0
VERTEX
 8
MERMAID
 10
1.4437
 20
7.0608
 30
5.4163
 70
32
 0
VERTEX
 8
MERMAID
 10
1.4426
 20
7.0544
 30
5.4163
 70
32
 0
VERTEX
 8
MERMAID
 10
1.442
 20
7.0479
 30
5.4163
 70
32
 0
VERTEX
 8
MERMAID
 10
1.4422
 20
7.041
 30
5.4163
 70
32
 0
VERTEX
 8
MERMAID
 10
1.4431
 20
7.0337
 30
5.4163
 70
32
 0
VERTEX
 8
MERMAID
 10
1.4449
 20
7.0258
 30
5.4163
 70
32
 0
VERTEX
 8
MERMAID
 10
1.4487
 20
7.0143
 30
5.4163
 70
32
 0
VERTEX
 8
MERMAID
 10
1.4535
 20
7.0037
 30
5.4163
 70
32
 0
VERTEX
 8
MERMAID
 10
1.4594
 20
6.9944
 30
5.4163
 70
32
 0
VERTEX
 8
MERMAID
 10
1.4662
 20
6.9863
 30
5.4163
 70
32
 0
VERTEX
 8
MERMAID
 10
1.4739
 20
6.9795
 30
5.4163
 70
32
 0
VERTEX
 8
MERMAID
 10
1.4824
 20
6.9737
 30
5.4163
 70
32
 0
VERTEX
 8
MERMAID
 10
1.4917
 20
6.9688
 30
5.4163
 70
32
 0
VERTEX
 8
MERMAID
 10
1.5017
 20
6.9649
 30
5.4163
 70
32
 0
VERTEX
 8
MERMAID
 10
1.5179
 20
6.9604
 30
5.4163
 70
32
 0
VERTEX
 8
MERMAID
 10
1.5416
 20
6.9565
 30
5.4163
 70
32
 0
VERTEX
 8
MERMAID
 10
1.7096
 20
6.9419
 30
5.4163
 70
32
 0
VERTEX
 8
MERMAID
 10
1.7239
 20
6.9382
 30
5.4163
 70
32
 0
VERTEX
 8
MERMAID
 10
1.7449
 20
6.931
 30
5.4163
 70
32
 0
VERTEX
 8
MERMAID
 10
1.7675
 20
6.9207
 30
5.4163
 70
32
 0
VERTEX
 8
MERMAID
 10
1.7821
 20
6.9122
 30
5.4163
 70
32
 0
VERTEX
 8
MERMAID
 10
1.7947
 20
6.903
 30
5.4163
 70
32
 0
VERTEX
 8
MERMAID
 10
1.8056
 20
6.8931
 30
5.4163
 70
32
 0
VERTEX
 8
MERMAID
 10
1.8149
 20
6.8825
 30
5.4163
 70
32
 0
VERTEX
 8
MERMAID
 10
1.8227
 20
6.8712
 30
5.4163
 70
32
 0
VERTEX
 8
MERMAID
 10
1.8291
 20
6.8592
 30
5.4163
 70
32
 0
VERTEX
 8
MERMAID
 10
1.8342
 20
6.8464
 30
5.4163
 70
32
 0
VERTEX
 8
MERMAID
 10
1.8394
 20
6.8282
 30
5.4163
 70
32
 0
VERTEX
 8
MERMAID
 10
1.8436
 20
6.8034
 30
5.4163
 70
32
 0
VERTEX
 8
MERMAID
 10
1.8465
 20
6.7591
 30
5.4163
 70
32
 0
VERTEX
 8
MERMAID
 10
1.8468
 20
6.7088
 30
5.4163
 70
32
 0
VERTEX
 8
MERMAID
 10
1.8294
 20
6.7023
 30
5.4163
 70
32
 0
VERTEX
 8
MERMAID
 10
1.8032
 20
6.6955
 30
5.4163
 70
32
 0
VERTEX
 8
MERMAID
 10
1.7434
 20
6.6861
 30
5.4163
 70
32
 0
VERTEX
 8
MERMAID
 10
1.5984
 20
6.6665
 30
5.4163
 70
32
 0
VERTEX
 8
MERMAID
 10
1.562
 20
6.6567
 30
5.4163
 70
32
 0
VERTEX
 8
MERMAID
 10
1.5422
 20
6.6492
 30
5.4163
 70
32
 0
VERTEX
 8
MERMAID
 10
1.5242
 20
6.64
 30
5.4163
 70
32
 0
VERTEX
 8
MERMAID
 10
1.5134
 20
6.6329
 30
5.4163
 70
32
 0
VERTEX
 8
MERMAID
 10
1.5036
 20
6.625
 30
5.4163
 70
32
 0
VERTEX
 8
MERMAID
 10
1.495
 20
6.6162
 30
5.4163
 70
32
 0
VERTEX
 8
MERMAID
 10
1.4861
 20
6.604
 30
5.4163
 70
32
 0
VERTEX
 8
MERMAID
 10
1.4784
 20
6.5894
 30
5.4163
 70
32
 0
VERTEX
 8
MERMAID
 10
1.4716
 20
6.5725
 30
5.4163
 70
32
 0
VERTEX
 8
MERMAID
 10
1.4631
 20
6.5434
 30
5.4163
 70
32
 0
VERTEX
 8
MERMAID
 10
1.4527
 20
6.4865
 30
5.4163
 70
32
 0
VERTEX
 8
MERMAID
 10
1.4128
 20
6.0878
 30
5.4163
 70
32
 0
VERTEX
 8
MERMAID
 10
1.404
 20
6.0581
 30
5.4163
 70
32
 0
VERTEX
 8
MERMAID
 10
1.4006
 20
6.0491
 30
5.4163
 70
32
 0
VERTEX
 8
MERMAID
 10
1.3931
 20
6.0329
 30
5.4163
 70
32
 0
VERTEX
 8
MERMAID
 10
1.3804
 20
6.0115
 30
5.4163
 70
32
 0
VERTEX
 8
MERMAID
 10
1.3599
 20
5.9834
 30
5.4163
 70
32
 0
VERTEX
 8
MERMAID
 10
1.317
 20
5.935
 30
5.4163
 70
32
 0
VERTEX
 8
MERMAID
 10
1.1807
 20
5.7929
 30
5.4163
 70
32
 0
VERTEX
 8
MERMAID
 10
1.1614
 20
5.7658
 30
5.4163
 70
32
 0
VERTEX
 8
MERMAID
 10
1.1498
 20
5.7454
 30
5.4163
 70
32
 0
VERTEX
 8
MERMAID
 10
1.141
 20
5.7249
 30
5.4163
 70
32
 0
VERTEX
 8
MERMAID
 10
1.1369
 20
5.7111
 30
5.4163
 70
32
 0
VERTEX
 8
MERMAID
 10
1.1355
 20
5.7042
 30
5.4163
 70
32
 0
VERTEX
 8
MERMAID
 10
1.1339
 20
5.6903
 30
5.4163
 70
32
 0
VERTEX
 8
MERMAID
 10
1.1339
 20
5.6726
 30
5.4163
 70
32
 0
VERTEX
 8
MERMAID
 10
1.1357
 20
5.6555
 30
5.4163
 70
32
 0
VERTEX
 8
MERMAID
 10
1.1394
 20
5.6393
 30
5.4163
 70
32
 0
VERTEX
 8
MERMAID
 10
1.1446
 20
5.6236
 30
5.4163
 70
32
 0
VERTEX
 8
MERMAID
 10
1.1513
 20
5.6087
 30
5.4163
 70
32
 0
VERTEX
 8
MERMAID
 10
1.1638
 20
5.5874
 30
5.4163
 70
32
 0
VERTEX
 8
MERMAID
 10
1.1789
 20
5.5675
 30
5.4163
 70
32
 0
VERTEX
 8
MERMAID
 10
1.2022
 20
5.5428
 30
5.4163
 70
32
 0
VERTEX
 8
MERMAID
 10
1.2348
 20
5.5146
 30
5.4163
 70
32
 0
VERTEX
 8
MERMAID
 10
1.3168
 20
5.4566
 30
5.4163
 70
32
 0
VERTEX
 8
MERMAID
 10
1.3839
 20
5.4033
 30
5.4163
 70
32
 0
VERTEX
 8
MERMAID
 10
1.2436
 20
5.2555
 30
5.4163
 70
32
 0
VERTEX
 8
MERMAID
 10
0.7493
 20
4.7816
 30
5.4163
 70
32
 0
VERTEX
 8
MERMAID
 10
0.6795
 20
4.6934
 30
5.4163
 70
32
 0
VERTEX
 8
MERMAID
 10
0.6154
 20
4.5978
 30
5.4163
 70
32
 0
VERTEX
 8
MERMAID
 10
0.5829
 20
4.5383
 30
5.4163
 70
32
 0
VERTEX
 8
MERMAID
 10
0.502
 20
4.3471
 30
5.4163
 70
32
 0
VERTEX
 8
MERMAID
 10
0.4024
 20
4.1534
 30
5.4163
 70
32
 0
VERTEX
 8
MERMAID
 10
0.3931
 20
4.1415
 30
5.4163
 70
32
 0
VERTEX
 8
MERMAID
 10
0.3766
 20
4.1243
 30
5.4163
 70
32
 0
VERTEX
 8
MERMAID
 10
0.305
 20
4.0576
 30
5.4163
 70
32
 0
VERTEX
 8
MERMAID
 10
0.2946
 20
4.0445
 30
5.4163
 70
32
 0
VERTEX
 8
MERMAID
 10
0.2856
 20
4.0307
 30
5.4163
 70
32
 0
VERTEX
 8
MERMAID
 10
0.2801
 20
4.0197
 30
5.4163
 70
32
 0
VERTEX
 8
MERMAID
 10
0.2758
 20
4.0082
 30
5.4163
 70
32
 0
VERTEX
 8
MERMAID
 10
0.2728
 20
3.996
 30
5.4163
 70
32
 0
VERTEX
 8
MERMAID
 10
0.2825
 20
3.9929
 30
5.4163
 70
32
 0
VERTEX
 8
MERMAID
 10
0.2919
 20
3.9912
 30
5.4163
 70
32
 0
VERTEX
 8
MERMAID
 10
0.3011
 20
3.9909
 30
5.4163
 70
32
 0
VERTEX
 8
MERMAID
 10
0.31
 20
3.9916
 30
5.4163
 70
32
 0
VERTEX
 8
MERMAID
 10
0.3187
 20
3.9935
 30
5.4163
 70
32
 0
VERTEX
 8
MERMAID
 10
0.3272
 20
3.9962
 30
5.4163
 70
32
 0
VERTEX
 8
MERMAID
 10
0.3396
 20
4.0018
 30
5.4163
 70
32
 0
VERTEX
 8
MERMAID
 10
0.3517
 20
4.0089
 30
5.4163
 70
32
 0
VERTEX
 8
MERMAID
 10
0.375
 20
4.0257
 30
5.4163
 70
32
 0
VERTEX
 8
MERMAID
 10
0.4167
 20
4.057
 30
5.4163
 70
32
 0
VERTEX
 8
MERMAID
 10
0.4282
 20
4.0635
 30
5.4163
 70
32
 0
VERTEX
 8
MERMAID
 10
0.4399
 20
4.0685
 30
5.4163
 70
32
 0
VERTEX
 8
MERMAID
 10
0.4478
 20
4.0708
 30
5.4163
 70
32
 0
VERTEX
 8
MERMAID
 10
0.4558
 20
4.072
 30
5.4163
 70
32
 0
VERTEX
 8
MERMAID
 10
0.4639
 20
4.0722
 30
5.4163
 70
32
 0
VERTEX
 8
MERMAID
 10
0.4681
 20
4.0718
 30
5.4163
 70
32
 0
VERTEX
 8
MERMAID
 10
0.4765
 20
4.07
 30
5.4163
 70
32
 0
VERTEX
 8
MERMAID
 10
0.5012
 20
3.7867
 30
5.4163
 70
32
 0
VERTEX
 8
MERMAID
 10
0.5145
 20
3.7288
 30
5.4163
 70
32
 0
VERTEX
 8
MERMAID
 10
0.5266
 20
3.6935
 30
5.4163
 70
32
 0
VERTEX
 8
MERMAID
 10
0.5377
 20
3.6691
 30
5.4163
 70
32
 0
VERTEX
 8
MERMAID
 10
0.5508
 20
3.6466
 30
5.4163
 70
32
 0
VERTEX
 8
MERMAID
 10
0.5661
 20
3.6263
 30
5.4163
 70
32
 0
VERTEX
 8
MERMAID
 10
0.5776
 20
3.6141
 30
5.4163
 70
32
 0
VERTEX
 8
MERMAID
 10
0.5837
 20
3.6084
 30
5.4163
 70
32
 0
VERTEX
 8
MERMAID
 10
0.5969
 20
3.5979
 30
5.4163
 70
32
 0
VERTEX
 8
MERMAID
 10
0.6075
 20
3.6064
 30
5.4163
 70
32
 0
VERTEX
 8
MERMAID
 10
0.6165
 20
3.6165
 30
5.4163
 70
32
 0
VERTEX
 8
MERMAID
 10
0.624
 20
3.628
 30
5.4163
 70
32
 0
VERTEX
 8
MERMAID
 10
0.6302
 20
3.6407
 30
5.4163
 70
32
 0
VERTEX
 8
MERMAID
 10
0.6352
 20
3.6546
 30
5.4163
 70
32
 0
VERTEX
 8
MERMAID
 10
0.6405
 20
3.6774
 30
5.4163
 70
32
 0
VERTEX
 8
MERMAID
 10
0.6444
 20
3.711
 30
5.4163
 70
32
 0
VERTEX
 8
MERMAID
 10
0.6452
 20
3.7661
 30
5.4163
 70
32
 0
VERTEX
 8
MERMAID
 10
0.6404
 20
3.9493
 30
5.4163
 70
32
 0
VERTEX
 8
MERMAID
 10
0.6445
 20
3.9836
 30
5.4163
 70
32
 0
VERTEX
 8
MERMAID
 10
0.6479
 20
3.9995
 30
5.4163
 70
32
 0
VERTEX
 8
MERMAID
 10
0.6524
 20
4.0145
 30
5.4163
 70
32
 0
VERTEX
 8
MERMAID
 10
0.6558
 20
4.0226
 30
5.4163
 70
32
 0
VERTEX
 8
MERMAID
 10
0.6622
 20
4.0346
 30
5.4163
 70
32
 0
VERTEX
 8
MERMAID
 10
0.673
 20
4.0507
 30
5.4163
 70
32
 0
VERTEX
 8
MERMAID
 10
0.6865
 20
4.0673
 30
5.4163
 70
32
 0
VERTEX
 8
MERMAID
 10
0.7022
 20
4.0835
 30
5.4163
 70
32
 0
VERTEX
 8
MERMAID
 10
0.7197
 20
4.0984
 30
5.4163
 70
32
 0
VERTEX
 8
MERMAID
 10
0.7346
 20
4.1088
 30
5.4163
 70
32
 0
VERTEX
 8
MERMAID
 10
0.7501
 20
4.1174
 30
5.4163
 70
32
 0
VERTEX
 8
MERMAID
 10
0.762
 20
4.1224
 30
5.4163
 70
32
 0
VERTEX
 8
MERMAID
 10
0.7741
 20
4.1258
 30
5.4163
 70
32
 0
VERTEX
 8
MERMAID
 10
0.7821
 20
4.1273
 30
5.4163
 70
32
 0
VERTEX
 8
MERMAID
 10
0.7901
 20
4.1279
 30
5.4163
 70
32
 0
VERTEX
 8
MERMAID
 10
0.798
 20
4.1277
 30
5.4163
 70
32
 0
VERTEX
 8
MERMAID
 10
0.802
 20
4.1272
 30
5.4163
 70
32
 0
VERTEX
 8
MERMAID
 10
0.8098
 20
4.1256
 30
5.4163
 70
32
 0
VERTEX
 8
MERMAID
 10
0.8195
 20
4.1221
 30
5.4163
 70
32
 0
VERTEX
 8
MERMAID
 10
0.828
 20
4.1173
 30
5.4163
 70
32
 0
VERTEX
 8
MERMAID
 10
0.8355
 20
4.1112
 30
5.4163
 70
32
 0
VERTEX
 8
MERMAID
 10
0.8421
 20
4.104
 30
5.4163
 70
32
 0
VERTEX
 8
MERMAID
 10
0.8479
 20
4.0959
 30
5.4163
 70
32
 0
VERTEX
 8
MERMAID
 10
0.853
 20
4.0868
 30
5.4163
 70
32
 0
VERTEX
 8
MERMAID
 10
0.8596
 20
4.0719
 30
5.4163
 70
32
 0
VERTEX
 8
MERMAID
 10
0.8705
 20
4.0387
 30
5.4163
 70
32
 0
VERTEX
 8
MERMAID
 10
0.8886
 20
3.981
 30
5.4163
 70
32
 0
VERTEX
 8
MERMAID
 10
0.8958
 20
3.965
 30
5.4163
 70
32
 0
VERTEX
 8
MERMAID
 10
0.9043
 20
3.9504
 30
5.4163
 70
32
 0
VERTEX
 8
MERMAID
 10
0.911
 20
3.9416
 30
5.4163
 70
32
 0
VERTEX
 8
MERMAID
 10
0.9186
 20
3.9337
 30
5.4163
 70
32
 0
VERTEX
 8
MERMAID
 10
0.9273
 20
3.9269
 30
5.4163
 70
32
 0
VERTEX
 8
MERMAID
 10
0.9371
 20
3.9211
 30
5.4163
 70
32
 0
VERTEX
 8
MERMAID
 10
0.9481
 20
3.9167
 30
5.4163
 70
32
 0
VERTEX
 8
MERMAID
 10
0.9541
 20
3.915
 30
5.4163
 70
32
 0
VERTEX
 8
MERMAID
 10
0.9672
 20
3.9127
 30
5.4163
 70
32
 0
VERTEX
 8
MERMAID
 10
0.9562
 20
3.9335
 30
5.4163
 70
32
 0
VERTEX
 8
MERMAID
 10
0.9443
 20
3.9634
 30
5.4163
 70
32
 0
VERTEX
 8
MERMAID
 10
0.9095
 20
4.1103
 30
5.4163
 70
32
 0
VERTEX
 8
MERMAID
 10
0.8746
 20
4.2737
 30
5.4163
 70
32
 0
VERTEX
 8
MERMAID
 10
0.8731
 20
4.2783
 30
5.4163
 70
32
 0
VERTEX
 8
MERMAID
 10
0.8697
 20
4.2858
 30
5.4163
 70
32
 0
VERTEX
 8
MERMAID
 10
0.8618
 20
4.2995
 30
5.4163
 70
32
 0
VERTEX
 8
MERMAID
 10
0.8003
 20
4.3917
 30
5.4163
 70
32
 0
VERTEX
 8
MERMAID
 10
0.7951
 20
4.4034
 30
5.4163
 70
32
 0
VERTEX
 8
MERMAID
 10
0.7926
 20
4.4117
 30
5.4163
 70
32
 0
VERTEX
 8
MERMAID
 10
0.7916
 20
4.4169
 30
5.4163
 70
32
 0
VERTEX
 8
MERMAID
 10
0.7913
 20
4.4219
 30
5.4163
 70
32
 0
VERTEX
 8
MERMAID
 10
0.7915
 20
4.4255
 30
5.4163
 70
32
 0
VERTEX
 8
MERMAID
 10
0.7929
 20
4.4328
 30
5.4163
 70
32
 0
VERTEX
 8
MERMAID
 10
0.7955
 20
4.4403
 30
5.4163
 70
32
 0
VERTEX
 8
MERMAID
 10
0.7993
 20
4.448
 30
5.4163
 70
32
 0
VERTEX
 8
MERMAID
 10
0.8068
 20
4.4597
 30
5.4163
 70
32
 0
VERTEX
 8
MERMAID
 10
0.8165
 20
4.4717
 30
5.4163
 70
32
 0
VERTEX
 8
MERMAID
 10
0.8363
 20
4.4918
 30
5.4163
 70
32
 0
VERTEX
 8
MERMAID
 10
0.8697
 20
4.5196
 30
5.4163
 70
32
 0
VERTEX
 8
MERMAID
 10
0.9315
 20
4.563
 30
5.4163
 70
32
 0
VERTEX
 8
MERMAID
 10
0.9857
 20
4.5978
 30
5.4163
 70
32
 0
VERTEX
 8
MERMAID
 10
1.4895
 20
4.9281
 30
5.4163
 70
32
 0
VERTEX
 8
MERMAID
 10
1.5602
 20
4.9874
 30
5.4163
 70
32
 0
VERTEX
 8
MERMAID
 10
1.6338
 20
5.0607
 30
5.4163
 70
32
 0
VERTEX
 8
MERMAID
 10
1.6448
 20
5.0424
 30
5.4163
 70
32
 0
VERTEX
 8
MERMAID
 10
1.6621
 20
5.0195
 30
5.4163
 70
32
 0
VERTEX
 8
MERMAID
 10
1.6871
 20
4.9929
 30
5.4163
 70
32
 0
VERTEX
 8
MERMAID
 10
1.84
 20
4.8551
 30
5.4163
 70
32
 0
VERTEX
 8
MERMAID
 10
1.8585
 20
4.8308
 30
5.4163
 70
32
 0
VERTEX
 8
MERMAID
 10
1.8706
 20
4.8112
 30
5.4163
 70
32
 0
VERTEX
 8
MERMAID
 10
1.8776
 20
4.7974
 30
5.4163
 70
32
 0
VERTEX
 8
MERMAID
 10
1.8838
 20
4.783
 30
5.4163
 70
32
 0
VERTEX
 8
MERMAID
 10
1.8889
 20
4.7674
 30
5.4163
 70
32
 0
VERTEX
 8
MERMAID
 10
1.8946
 20
4.742
 30
5.4163
 70
32
 0
VERTEX
 8
MERMAID
 10
1.9045
 20
4.6586
 30
5.4163
 70
32
 0
VERTEX
 8
MERMAID
 10
1.9116
 20
4.57
 30
5.4163
 70
32
 0
VERTEX
 8
MERMAID
 10
1.9318
 20
4.39
 30
5.4163
 70
32
 0
VERTEX
 8
MERMAID
 10
1.9394
 20
4.1904
 30
5.4163
 70
32
 0
VERTEX
 8
MERMAID
 10
1.8691
 20
4.1364
 30
5.4163
 70
32
 0
VERTEX
 8
MERMAID
 10
1.6375
 20
4.0017
 30
5.4163
 70
32
 0
VERTEX
 8
MERMAID
 10
1.3839
 20
3.8664
 30
5.4163
 70
32
 0
VERTEX
 8
MERMAID
 10
1.0834
 20
3.6683
 30
5.4163
 70
32
 0
VERTEX
 8
MERMAID
 10
0.8754
 20
3.4995
 30
5.4163
 70
32
 0
VERTEX
 8
MERMAID
 10
0.7365
 20
3.3625
 30
5.4163
 70
32
 0
VERTEX
 8
MERMAID
 10
0.6107
 20
3.2107
 30
5.4163
 70
32
 0
VERTEX
 8
MERMAID
 10
0.5229
 20
3.0782
 30
5.4163
 70
32
 0
VERTEX
 8
MERMAID
 10
0.4491
 20
2.9355
 30
5.4163
 70
32
 0
VERTEX
 8
MERMAID
 10
0.4043
 20
2.8214
 30
5.4163
 70
32
 0
VERTEX
 8
MERMAID
 10
0.3697
 20
2.7012
 30
5.4163
 70
32
 0
VERTEX
 8
MERMAID
 10
0.3464
 20
2.5746
 30
5.4163
 70
32
 0
VERTEX
 8
MERMAID
 10
0.3354
 20
2.4414
 30
5.4163
 70
32
 0
VERTEX
 8
MERMAID
 10
0.3376
 20
2.3016
 30
5.4163
 70
32
 0
VERTEX
 8
MERMAID
 10
0.3488
 20
2.2059
 30
5.4163
 70
32
 0
VERTEX
 8
MERMAID
 10
0.3691
 20
2.1117
 30
5.4163
 70
32
 0
VERTEX
 8
MERMAID
 10
0.4062
 20
1.9967
 30
5.4163
 70
32
 0
VERTEX
 8
MERMAID
 10
0.4547
 20
1.8858
 30
5.4163
 70
32
 0
VERTEX
 8
MERMAID
 10
0.5255
 20
1.7592
 30
5.4163
 70
32
 0
VERTEX
 8
MERMAID
 10
0.6072
 20
1.6412
 30
5.4163
 70
32
 0
VERTEX
 8
MERMAID
 10
0.7125
 20
1.5164
 30
5.4163
 70
32
 0
VERTEX
 8
MERMAID
 10
0.8078
 20
1.4222
 30
5.4163
 70
32
 0
VERTEX
 8
MERMAID
 10
0.9209
 20
1.3295
 30
5.4163
 70
32
 0
VERTEX
 8
MERMAID
 10
1.0628
 20
1.235
 30
5.4163
 70
32
 0
VERTEX
 8
MERMAID
 10
1.2333
 20
1.1431
 30
5.4163
 70
32
 0
VERTEX
 8
MERMAID
 10
1.4355
 20
1.057
 30
5.4163
 70
32
 0
VERTEX
 8
MERMAID
 10
1.6729
 20
0.9796
 30
5.4163
 70
32
 0
SEQEND
 0
ENDSEC
 0
EOF
